<?xml version="1.0" encoding="UTF-8"?><svg id="a" xmlns="http://www.w3.org/2000/svg" viewBox="0 0 506.77 396"><defs><style>.e,.f{fill:#fff;}.e,.g,.h,.i{stroke:#000;stroke-miterlimit:10;}.e,.i{stroke-width:1.35px;}.g{fill:none;stroke-width:2px;}.h{stroke-width:1.3px;}.h,.i{fill:#e6e6e6;}</style></defs><g><path d="m11.13,163.35c.43.26,1.06.48,1.72.48.98,0,1.55-.52,1.55-1.27,0-.69-.4-1.09-1.4-1.47-1.21-.43-1.96-1.06-1.96-2.1,0-1.16.96-2.01,2.4-2.01.76,0,1.31.18,1.64.36l-.26.78c-.24-.13-.74-.35-1.41-.35-1.01,0-1.4.61-1.4,1.11,0,.69.45,1.03,1.47,1.43,1.25.48,1.89,1.09,1.89,2.18,0,1.14-.85,2.13-2.6,2.13-.71,0-1.5-.21-1.89-.47l.24-.8Z"/><path d="m17.79,157.67v1.53h1.39v.74h-1.39v2.87c0,.66.19,1.03.73,1.03.25,0,.44-.03.56-.07l.04.73c-.19.08-.48.13-.86.13-.45,0-.81-.14-1.04-.41-.28-.29-.37-.76-.37-1.39v-2.9h-.83v-.74h.83v-1.28l.95-.25Z"/><path d="m23.21,164.52l-.08-.67h-.03c-.3.42-.87.79-1.63.79-1.08,0-1.63-.76-1.63-1.53,0-1.29,1.14-1.99,3.2-1.98v-.11c0-.44-.12-1.23-1.21-1.23-.5,0-1.01.15-1.39.4l-.22-.64c.44-.29,1.08-.47,1.75-.47,1.63,0,2.02,1.11,2.02,2.18v1.99c0,.46.02.91.09,1.28h-.88Zm-.14-2.72c-1.06-.02-2.25.17-2.25,1.2,0,.63.42.92.91.92.69,0,1.13-.44,1.29-.89.03-.1.05-.21.05-.31v-.92Z"/><path d="m26.69,157.67v1.53h1.39v.74h-1.39v2.87c0,.66.19,1.03.73,1.03.25,0,.44-.03.56-.07l.04.73c-.19.08-.48.13-.86.13-.45,0-.81-.14-1.04-.41-.28-.29-.37-.76-.37-1.39v-2.9h-.83v-.74h.83v-1.28l.95-.25Z"/><path d="m29.64,162.03c.02,1.31.86,1.85,1.83,1.85.69,0,1.11-.12,1.47-.28l.17.69c-.34.15-.92.33-1.77.33-1.64,0-2.62-1.08-2.62-2.68s.95-2.87,2.5-2.87c1.74,0,2.2,1.53,2.2,2.51,0,.2-.02.35-.03.45h-3.74Zm2.84-.69c.01-.62-.25-1.57-1.34-1.57-.98,0-1.41.9-1.49,1.57h2.83Z"/><path d="m36.84,163.35c.43.26,1.06.48,1.72.48.98,0,1.55-.52,1.55-1.27,0-.69-.4-1.09-1.4-1.47-1.21-.43-1.96-1.06-1.96-2.1,0-1.16.96-2.01,2.4-2.01.76,0,1.31.18,1.64.36l-.26.78c-.24-.13-.74-.35-1.41-.35-1.01,0-1.4.61-1.4,1.11,0,.69.45,1.03,1.47,1.43,1.25.48,1.89,1.09,1.89,2.18,0,1.14-.85,2.13-2.6,2.13-.71,0-1.5-.21-1.89-.47l.24-.8Z"/><path d="m42.36,160.64c0-.55-.01-1-.04-1.44h.86l.05.88h.02c.26-.51.88-1,1.76-1,.74,0,1.88.44,1.88,2.27v3.18h-.97v-3.07c0-.86-.32-1.57-1.23-1.57-.64,0-1.13.45-1.3.99-.04.12-.07.29-.07.45v3.2h-.97v-3.88Z"/><path d="m51.42,164.52l-.08-.67h-.03c-.3.42-.87.79-1.63.79-1.08,0-1.63-.76-1.63-1.53,0-1.29,1.14-1.99,3.2-1.98v-.11c0-.44-.12-1.23-1.21-1.23-.5,0-1.01.15-1.39.4l-.22-.64c.44-.29,1.08-.47,1.75-.47,1.63,0,2.02,1.11,2.02,2.18v1.99c0,.46.02.91.09,1.28h-.88Zm-.14-2.72c-1.06-.02-2.25.17-2.25,1.2,0,.63.42.92.91.92.69,0,1.13-.44,1.29-.89.03-.1.05-.21.05-.31v-.92Z"/><path d="m53.77,160.93c0-.68-.02-1.23-.04-1.74h.87l.04.91h.02c.4-.65,1.02-1.03,1.89-1.03,1.29,0,2.25,1.09,2.25,2.71,0,1.91-1.17,2.86-2.42,2.86-.7,0-1.32-.31-1.64-.84h-.02v2.89h-.96v-5.77Zm.96,1.42c0,.14.02.27.04.4.18.67.76,1.13,1.45,1.13,1.02,0,1.62-.84,1.62-2.06,0-1.07-.56-1.98-1.58-1.98-.66,0-1.28.47-1.46,1.2-.03.12-.07.26-.07.4v.91Z"/><path d="m59.9,163.53c.29.19.79.38,1.28.38.7,0,1.03-.35,1.03-.79s-.28-.71-.99-.98c-.96-.34-1.41-.87-1.41-1.51,0-.86.69-1.56,1.84-1.56.54,0,1.01.15,1.31.33l-.24.7c-.21-.13-.59-.31-1.09-.31-.57,0-.89.33-.89.73,0,.44.32.64,1.01.9.92.35,1.4.81,1.4,1.61,0,.94-.73,1.6-1.99,1.6-.58,0-1.12-.14-1.5-.36l.24-.74Z"/><path d="m64.38,156.71h.97v3.32h.02c.15-.28.4-.52.69-.68.29-.17.63-.27.99-.27.71,0,1.86.44,1.86,2.28v3.17h-.97v-3.06c0-.86-.32-1.58-1.23-1.58-.63,0-1.12.44-1.3.97-.05.13-.07.28-.07.46v3.21h-.97v-7.81Z"/><path d="m75.31,161.81c0,1.97-1.36,2.83-2.65,2.83-1.44,0-2.55-1.06-2.55-2.74,0-1.78,1.17-2.83,2.64-2.83s2.56,1.11,2.56,2.74Zm-4.22.05c0,1.17.67,2.05,1.62,2.05s1.62-.87,1.62-2.07c0-.9-.45-2.05-1.6-2.05s-1.64,1.06-1.64,2.07Z"/><path d="m77.69,157.67v1.53h1.39v.74h-1.39v2.87c0,.66.19,1.03.73,1.03.25,0,.44-.03.56-.07l.04.73c-.19.08-.48.13-.86.13-.45,0-.81-.14-1.04-.41-.28-.29-.37-.76-.37-1.39v-2.9h-.83v-.74h.83v-1.28l.95-.25Z"/><path d="m80.03,163.53c.29.19.79.38,1.28.38.7,0,1.03-.35,1.03-.79s-.28-.71-.99-.98c-.96-.34-1.41-.87-1.41-1.51,0-.86.69-1.56,1.84-1.56.54,0,1.01.15,1.31.33l-.24.7c-.21-.13-.59-.31-1.09-.31-.57,0-.89.33-.89.73,0,.44.32.64,1.01.9.92.35,1.4.81,1.4,1.61,0,.94-.73,1.6-1.99,1.6-.58,0-1.12-.14-1.5-.36l.24-.74Z"/></g><rect class="h" x="157.85" y="210.46" width="343.38" height="83.08"/><g><g><polygon class="f" points="175.96 388.96 175.96 319.96 222.81 319.96 222.81 373.22 207.07 388.96 175.96 388.96"/><path d="m221.31,321.46v51.14l-14.86,14.86h-28.99v-66h43.85m3-3h-49.85v72h33.23l16.62-16.62v-55.38h0Z"/></g><polygon points="224.31 371.08 207.69 371.08 204.92 371.08 204.92 373.85 204.92 390.46 207.69 390.46 207.69 373.85 224.31 373.85 224.31 371.08"/></g><g><g><rect class="f" x="183.55" y="236.17" width="31.67" height="34.43"/><path d="m214.43,236.95v32.87h-30.1v-32.87h30.1m1.57-1.57h-33.23v36h33.23v-36h0Z"/></g><g><path d="m192.77,260.13v-7.92h-1.29v-1.27h1.29v-.44c0-1.29.29-2.47,1.06-3.21.63-.61,1.46-.86,2.24-.86.59,0,1.1.13,1.42.27l-.23,1.29c-.25-.11-.59-.21-1.06-.21-1.42,0-1.79,1.25-1.79,2.66v.49h2.22v1.27h-2.22v7.92h-1.65Z"/><path d="m201.78,246.95c-1.39,1.86-2.39,4.33-2.39,7.77s1.04,5.81,2.39,7.71h-1.31c-1.2-1.58-2.49-4.01-2.49-7.71.02-3.74,1.29-6.17,2.49-7.77h1.31Z"/><path d="m202.54,262.43c1.35-1.88,2.39-4.35,2.39-7.77s-1.03-5.83-2.39-7.71h1.29c1.22,1.56,2.49,3.99,2.49,7.73s-1.27,6.14-2.49,7.75h-1.29Z"/></g></g><g><path d="m188.89,341.08c.29.19.79.38,1.28.38.7,0,1.03-.35,1.03-.79s-.28-.71-.99-.98c-.96-.34-1.41-.87-1.41-1.51,0-.86.69-1.56,1.84-1.56.54,0,1.01.15,1.31.33l-.24.7c-.21-.13-.59-.31-1.09-.31-.57,0-.89.33-.89.73,0,.44.32.64,1.01.9.92.35,1.4.81,1.4,1.61,0,.94-.73,1.6-1.99,1.6-.58,0-1.12-.14-1.5-.36l.24-.74Z"/><path d="m194.54,335.22v1.53h1.39v.74h-1.39v2.87c0,.66.19,1.03.73,1.03.25,0,.44-.03.56-.07l.04.73c-.19.08-.48.13-.86.13-.45,0-.81-.14-1.04-.41-.28-.29-.37-.76-.37-1.39v-2.9h-.83v-.74h.83v-1.28l.95-.25Z"/><path d="m199.96,342.07l-.08-.67h-.03c-.3.42-.87.79-1.63.79-1.08,0-1.63-.76-1.63-1.53,0-1.29,1.14-1.99,3.2-1.98v-.11c0-.44-.12-1.23-1.21-1.23-.5,0-1.01.15-1.39.4l-.22-.64c.44-.29,1.08-.47,1.75-.47,1.63,0,2.02,1.11,2.02,2.18v1.99c0,.46.02.91.09,1.28h-.88Zm-.14-2.72c-1.06-.02-2.25.17-2.25,1.2,0,.63.42.92.91.92.69,0,1.13-.44,1.29-.89.03-.1.05-.21.05-.31v-.92Z"/><path d="m203.44,335.22v1.53h1.39v.74h-1.39v2.87c0,.66.19,1.03.73,1.03.25,0,.44-.03.56-.07l.04.73c-.19.08-.48.13-.86.13-.45,0-.81-.14-1.04-.41-.28-.29-.37-.76-.37-1.39v-2.9h-.83v-.74h.83v-1.28l.95-.25Z"/><path d="m206.38,339.59c.02,1.31.86,1.85,1.83,1.85.69,0,1.11-.12,1.47-.28l.17.69c-.34.15-.92.33-1.77.33-1.64,0-2.62-1.08-2.62-2.68s.95-2.87,2.5-2.87c1.74,0,2.2,1.53,2.2,2.51,0,.2-.02.35-.03.45h-3.74Zm2.84-.69c.01-.62-.25-1.57-1.34-1.57-.98,0-1.41.9-1.49,1.57h2.83Z"/><path d="m189.21,355.27l.29-2.16h-.9v-.65h1l.21-1.59h-.95v-.65h1.04l.29-2.1h.64l-.28,2.1h1.14l.29-2.1h.65l-.27,2.1h.9v.65h-1l-.2,1.59h.95v.65h-1.04l-.29,2.16h-.66l.29-2.16h-1.14l-.29,2.16h-.66Zm2.19-2.81l.21-1.59h-1.14l-.21,1.59h1.14Z"/><path d="m194.38,354.16c.27.18.91.45,1.58.45,1.24,0,1.63-.79,1.62-1.39-.01-1-.91-1.43-1.85-1.43h-.54v-.73h.54c.7,0,1.6-.36,1.6-1.21,0-.57-.36-1.08-1.25-1.08-.57,0-1.12.25-1.43.47l-.25-.7c.37-.28,1.1-.55,1.87-.55,1.41,0,2.05.84,2.05,1.71,0,.74-.44,1.36-1.32,1.68v.02c.88.18,1.6.84,1.6,1.84,0,1.14-.89,2.15-2.61,2.15-.8,0-1.51-.25-1.86-.48l.26-.75Z"/><path d="m201.89,349.03h-.02l-1.24.67-.19-.74,1.56-.84h.83v7.15h-.93v-6.25Z"/><path d="m209.7,348.94h-2.73l-.28,1.84c.17-.02.32-.04.58-.04.55,0,1.1.12,1.54.39.56.32,1.02.93,1.02,1.84,0,1.4-1.11,2.44-2.66,2.44-.78,0-1.44-.22-1.78-.44l.24-.74c.3.18.88.4,1.53.4.91,0,1.69-.59,1.69-1.55-.01-.92-.63-1.58-2.06-1.58-.41,0-.73.04-.99.08l.46-3.43h3.42v.81Z"/></g><g><g><polygon class="f" points="175.96 200.65 175.96 131.65 222.81 131.65 222.81 184.92 207.07 200.65 175.96 200.65"/><path d="m221.31,133.15v51.14l-14.86,14.86h-28.99v-66h43.85m3-3h-49.85v72h33.23l16.62-16.62v-55.38h0Z"/></g><polygon points="224.31 182.77 207.69 182.77 204.92 182.77 204.92 185.54 204.92 202.15 207.69 202.15 207.69 185.54 224.31 185.54 224.31 182.77"/></g><g><path d="m187.77,151.28c.02,1.31.86,1.85,1.83,1.85.69,0,1.11-.12,1.47-.28l.17.69c-.34.15-.92.33-1.77.33-1.64,0-2.62-1.08-2.62-2.68s.95-2.87,2.5-2.87c1.74,0,2.2,1.53,2.2,2.51,0,.2-.02.35-.03.45h-3.74Zm2.84-.69c.01-.62-.25-1.57-1.34-1.57-.98,0-1.41.9-1.49,1.57h2.83Z"/><path d="m193.12,148.44l1.05,2.99c.18.48.32.92.43,1.36h.03c.12-.44.27-.88.45-1.36l1.03-2.99h1.01l-2.09,5.33h-.92l-2.02-5.33h1.03Z"/><path d="m198.47,151.28c.02,1.31.86,1.85,1.83,1.85.69,0,1.11-.12,1.47-.28l.17.69c-.34.15-.92.33-1.77.33-1.64,0-2.62-1.08-2.62-2.68s.95-2.87,2.5-2.87c1.74,0,2.2,1.53,2.2,2.51,0,.2-.02.35-.03.45h-3.74Zm2.84-.69c.01-.62-.25-1.57-1.34-1.57-.98,0-1.41.9-1.49,1.57h2.83Z"/><path d="m203.44,149.88c0-.55-.01-1-.04-1.44h.86l.05.88h.02c.26-.51.88-1,1.76-1,.74,0,1.88.44,1.88,2.27v3.18h-.97v-3.07c0-.86-.32-1.57-1.23-1.57-.64,0-1.13.45-1.3.99-.04.12-.07.29-.07.45v3.2h-.97v-3.88Z"/><path d="m210.66,146.91v1.53h1.39v.74h-1.39v2.87c0,.66.19,1.03.73,1.03.25,0,.44-.03.56-.07l.04.73c-.19.08-.48.13-.86.13-.45,0-.81-.14-1.04-.41-.28-.29-.37-.76-.37-1.39v-2.9h-.83v-.74h.83v-1.28l.95-.25Z"/><path d="m189.21,166.97l.29-2.16h-.9v-.65h1l.21-1.59h-.95v-.65h1.04l.29-2.1h.64l-.28,2.1h1.14l.29-2.1h.65l-.27,2.1h.9v.65h-1l-.2,1.59h.95v.65h-1.04l-.29,2.16h-.66l.29-2.16h-1.14l-.29,2.16h-.66Zm2.19-2.81l.21-1.59h-1.14l-.21,1.59h1.14Z"/><path d="m194.38,165.86c.27.18.91.45,1.58.45,1.24,0,1.63-.79,1.62-1.39-.01-1-.91-1.43-1.85-1.43h-.54v-.73h.54c.7,0,1.6-.36,1.6-1.21,0-.57-.36-1.08-1.25-1.08-.57,0-1.12.25-1.43.47l-.25-.7c.37-.28,1.1-.55,1.87-.55,1.41,0,2.05.84,2.05,1.71,0,.74-.44,1.36-1.32,1.68v.02c.88.18,1.6.84,1.6,1.84,0,1.14-.89,2.15-2.61,2.15-.8,0-1.51-.25-1.86-.48l.26-.75Z"/><path d="m201.89,160.72h-.02l-1.24.67-.19-.74,1.56-.84h.83v7.15h-.93v-6.25Z"/><path d="m209.7,160.63h-2.73l-.28,1.84c.17-.02.32-.04.58-.04.55,0,1.1.12,1.54.39.56.32,1.02.93,1.02,1.84,0,1.4-1.11,2.44-2.66,2.44-.78,0-1.44-.22-1.78-.44l.24-.74c.3.18.88.4,1.53.4.91,0,1.69-.59,1.69-1.55-.01-.92-.63-1.58-2.06-1.58-.41,0-.73.04-.99.08l.46-3.43h3.42v.81Z"/></g><g><polyline class="g" points="199.38 271.38 199.38 282.46 229.85 282.46 229.85 252 240.77 252"/><polygon points="237.64 256.59 254.77 252 237.64 247.41 237.64 256.59"/></g><g><line class="g" x1="199.38" y1="271.38" x2="199.38" y2="304.46"/><polygon points="194.79 301.33 199.38 318.46 203.98 301.33 194.79 301.33"/></g><g><line class="g" x1="199.38" y1="202.15" x2="199.38" y2="221.39"/><polygon points="194.79 218.26 199.38 235.38 203.98 218.26 194.79 218.26"/></g><g><g><polygon class="f" points="247.96 388.96 247.96 319.96 294.81 319.96 294.81 373.22 279.07 388.96 247.96 388.96"/><path d="m293.31,321.46v51.14l-14.86,14.86h-28.99v-66h43.85m3-3h-49.85v72h33.23l16.62-16.62v-55.38h0Z"/></g><polygon points="296.31 371.08 279.69 371.08 276.92 371.08 276.92 373.85 276.92 390.46 279.69 390.46 279.69 373.85 296.31 373.85 296.31 371.08"/></g><g><g><rect class="f" x="255.55" y="236.17" width="31.67" height="34.43"/><path d="m286.43,236.95v32.87h-30.1v-32.87h30.1m1.57-1.57h-33.23v36h33.23v-36h0Z"/></g><g><path d="m264.77,260.13v-7.92h-1.29v-1.27h1.29v-.44c0-1.29.29-2.47,1.06-3.21.63-.61,1.46-.86,2.24-.86.59,0,1.1.13,1.42.27l-.23,1.29c-.25-.11-.59-.21-1.06-.21-1.42,0-1.79,1.25-1.79,2.66v.49h2.22v1.27h-2.22v7.92h-1.65Z"/><path d="m273.78,246.95c-1.39,1.86-2.39,4.33-2.39,7.77s1.04,5.81,2.39,7.71h-1.31c-1.2-1.58-2.49-4.01-2.49-7.71.02-3.74,1.29-6.17,2.49-7.77h1.31Z"/><path d="m274.54,262.43c1.35-1.88,2.39-4.35,2.39-7.77s-1.03-5.83-2.39-7.71h1.29c1.22,1.56,2.49,3.99,2.49,7.73s-1.27,6.14-2.49,7.75h-1.29Z"/></g></g><g><path d="m260.89,341.08c.29.19.79.38,1.28.38.7,0,1.03-.35,1.03-.79s-.28-.71-.99-.98c-.96-.34-1.41-.87-1.41-1.51,0-.86.69-1.56,1.84-1.56.54,0,1.01.15,1.31.33l-.24.7c-.21-.13-.59-.31-1.09-.31-.57,0-.89.33-.89.73,0,.44.32.64,1.01.9.92.35,1.4.81,1.4,1.61,0,.94-.73,1.6-1.99,1.6-.58,0-1.12-.14-1.5-.36l.24-.74Z"/><path d="m266.54,335.22v1.53h1.39v.74h-1.39v2.87c0,.66.19,1.03.73,1.03.25,0,.44-.03.56-.07l.04.73c-.19.08-.48.13-.86.13-.45,0-.81-.14-1.04-.41-.28-.29-.37-.76-.37-1.39v-2.9h-.83v-.74h.83v-1.28l.95-.25Z"/><path d="m271.96,342.07l-.08-.67h-.03c-.3.42-.87.79-1.63.79-1.08,0-1.63-.76-1.63-1.53,0-1.29,1.14-1.99,3.2-1.98v-.11c0-.44-.12-1.23-1.21-1.23-.5,0-1.01.15-1.39.4l-.22-.64c.44-.29,1.08-.47,1.75-.47,1.63,0,2.02,1.11,2.02,2.18v1.99c0,.46.02.91.09,1.28h-.88Zm-.14-2.72c-1.06-.02-2.25.17-2.25,1.2,0,.63.42.92.91.92.69,0,1.13-.44,1.29-.89.03-.1.05-.21.05-.31v-.92Z"/><path d="m275.44,335.22v1.53h1.39v.74h-1.39v2.87c0,.66.19,1.03.73,1.03.25,0,.44-.03.56-.07l.04.73c-.19.08-.48.13-.86.13-.45,0-.81-.14-1.04-.41-.28-.29-.37-.76-.37-1.39v-2.9h-.83v-.74h.83v-1.28l.95-.25Z"/><path d="m278.38,339.59c.02,1.31.86,1.85,1.83,1.85.69,0,1.11-.12,1.47-.28l.17.69c-.34.15-.92.33-1.77.33-1.64,0-2.62-1.08-2.62-2.68s.95-2.87,2.5-2.87c1.74,0,2.2,1.53,2.2,2.51,0,.2-.02.35-.03.45h-3.74Zm2.84-.69c.01-.62-.25-1.57-1.34-1.57-.98,0-1.41.9-1.49,1.57h2.83Z"/><path d="m261.21,355.27l.29-2.16h-.9v-.65h1l.21-1.59h-.95v-.65h1.04l.29-2.1h.64l-.28,2.1h1.14l.29-2.1h.65l-.27,2.1h.9v.65h-1l-.2,1.59h.95v.65h-1.04l-.29,2.16h-.66l.29-2.16h-1.14l-.29,2.16h-.66Zm2.19-2.81l.21-1.59h-1.14l-.21,1.59h1.14Z"/><path d="m266.38,354.16c.27.18.91.45,1.58.45,1.24,0,1.63-.79,1.62-1.39-.01-1-.91-1.43-1.85-1.43h-.54v-.73h.54c.7,0,1.6-.36,1.6-1.21,0-.57-.36-1.08-1.25-1.08-.57,0-1.12.25-1.43.47l-.25-.7c.37-.28,1.1-.55,1.87-.55,1.41,0,2.05.84,2.05,1.71,0,.74-.44,1.36-1.32,1.68v.02c.88.18,1.6.84,1.6,1.84,0,1.14-.89,2.15-2.61,2.15-.8,0-1.51-.25-1.86-.48l.26-.75Z"/><path d="m273.89,349.03h-.02l-1.24.67-.19-.74,1.56-.84h.83v7.15h-.93v-6.25Z"/><path d="m281.52,348.81c-.2-.01-.45,0-.73.04-1.52.25-2.32,1.36-2.49,2.54h.03c.34-.45.93-.83,1.73-.83,1.27,0,2.16.91,2.16,2.31,0,1.31-.89,2.52-2.38,2.52s-2.53-1.19-2.53-3.05c0-1.41.51-2.52,1.21-3.22.59-.58,1.39-.95,2.29-1.06.29-.04.53-.05.7-.05v.79Zm-.27,4.12c0-1.02-.58-1.64-1.47-1.64-.58,0-1.12.36-1.39.88-.07.11-.11.25-.11.43.02,1.18.56,2.05,1.57,2.05.84,0,1.4-.69,1.4-1.72Z"/></g><g><g><polygon class="f" points="247.96 200.65 247.96 131.65 294.81 131.65 294.81 184.92 279.07 200.65 247.96 200.65"/><path d="m293.31,133.15v51.14l-14.86,14.86h-28.99v-66h43.85m3-3h-49.85v72h33.23l16.62-16.62v-55.38h0Z"/></g><polygon points="296.31 182.77 279.69 182.77 276.92 182.77 276.92 185.54 276.92 202.15 279.69 202.15 279.69 185.54 296.31 185.54 296.31 182.77"/></g><g><path d="m259.78,151.28c.02,1.31.86,1.85,1.83,1.85.69,0,1.11-.12,1.47-.28l.17.69c-.34.15-.92.33-1.77.33-1.64,0-2.62-1.08-2.62-2.68s.95-2.87,2.5-2.87c1.74,0,2.2,1.53,2.2,2.51,0,.2-.02.35-.03.45h-3.74Zm2.84-.69c.01-.62-.25-1.57-1.34-1.57-.98,0-1.41.9-1.49,1.57h2.83Z"/><path d="m265.12,148.44l1.05,2.99c.18.48.32.92.43,1.36h.03c.12-.44.27-.88.45-1.36l1.03-2.99h1.01l-2.09,5.33h-.92l-2.02-5.33h1.03Z"/><path d="m270.47,151.28c.02,1.31.86,1.85,1.83,1.85.69,0,1.11-.12,1.47-.28l.17.69c-.34.15-.92.33-1.77.33-1.64,0-2.62-1.08-2.62-2.68s.95-2.87,2.5-2.87c1.74,0,2.2,1.53,2.2,2.51,0,.2-.02.35-.03.45h-3.74Zm2.84-.69c.01-.62-.25-1.57-1.34-1.57-.98,0-1.41.9-1.49,1.57h2.83Z"/><path d="m275.44,149.88c0-.55-.01-1-.04-1.44h.86l.05.88h.02c.26-.51.88-1,1.76-1,.74,0,1.88.44,1.88,2.27v3.18h-.97v-3.07c0-.86-.32-1.57-1.23-1.57-.64,0-1.13.45-1.3.99-.04.12-.07.29-.07.45v3.2h-.97v-3.88Z"/><path d="m282.67,146.91v1.53h1.39v.74h-1.39v2.87c0,.66.19,1.03.73,1.03.25,0,.44-.03.56-.07l.04.73c-.19.08-.48.13-.86.13-.45,0-.81-.14-1.04-.41-.28-.29-.37-.76-.37-1.39v-2.9h-.83v-.74h.83v-1.28l.95-.25Z"/><path d="m261.21,166.97l.29-2.16h-.9v-.65h1l.21-1.59h-.95v-.65h1.04l.29-2.1h.64l-.28,2.1h1.14l.29-2.1h.65l-.27,2.1h.9v.65h-1l-.2,1.59h.95v.65h-1.04l-.29,2.16h-.66l.29-2.16h-1.14l-.29,2.16h-.66Zm2.19-2.81l.21-1.59h-1.14l-.21,1.59h1.14Z"/><path d="m266.38,165.86c.27.18.91.45,1.58.45,1.24,0,1.63-.79,1.62-1.39-.01-1-.91-1.43-1.85-1.43h-.54v-.73h.54c.7,0,1.6-.36,1.6-1.21,0-.57-.36-1.08-1.25-1.08-.57,0-1.12.25-1.43.47l-.25-.7c.37-.28,1.1-.55,1.87-.55,1.41,0,2.05.84,2.05,1.71,0,.74-.44,1.36-1.32,1.68v.02c.88.18,1.6.84,1.6,1.84,0,1.14-.89,2.15-2.61,2.15-.8,0-1.51-.25-1.86-.48l.26-.75Z"/><path d="m273.89,160.72h-.02l-1.24.67-.19-.74,1.56-.84h.83v7.15h-.93v-6.25Z"/><path d="m281.52,160.5c-.2-.01-.45,0-.73.04-1.52.25-2.32,1.36-2.49,2.54h.03c.34-.45.93-.83,1.73-.83,1.27,0,2.16.91,2.16,2.31,0,1.31-.89,2.52-2.38,2.52s-2.53-1.19-2.53-3.05c0-1.41.51-2.52,1.21-3.22.59-.58,1.39-.95,2.29-1.06.29-.04.53-.05.71-.05v.79Zm-.28,4.12c0-1.02-.58-1.64-1.47-1.64-.58,0-1.12.36-1.39.88-.07.11-.11.25-.11.43.02,1.18.56,2.05,1.57,2.05.84,0,1.4-.69,1.4-1.72Z"/></g><g><polyline class="g" points="271.38 271.38 271.38 282.46 301.85 282.46 301.85 252 312.77 252"/><polygon points="309.64 256.59 326.77 252 309.64 247.41 309.64 256.59"/></g><g><line class="g" x1="271.38" y1="271.38" x2="271.38" y2="304.46"/><polygon points="266.79 301.33 271.38 318.46 275.98 301.33 266.79 301.33"/></g><g><line class="g" x1="271.38" y1="202.15" x2="271.38" y2="221.39"/><polygon points="266.79 218.26 271.38 235.38 275.98 218.26 266.79 218.26"/></g><g><g><polygon class="f" points="319.96 388.96 319.96 319.96 366.81 319.96 366.81 373.22 351.07 388.96 319.96 388.96"/><path d="m365.31,321.46v51.14l-14.86,14.86h-28.99v-66h43.85m3-3h-49.85v72h33.23l16.62-16.62v-55.38h0Z"/></g><polygon points="368.31 371.08 351.69 371.08 348.92 371.08 348.92 373.85 348.92 390.46 351.69 390.46 351.69 373.85 368.31 373.85 368.31 371.08"/></g><g><g><rect class="f" x="327.55" y="236.17" width="31.67" height="34.43"/><path d="m358.43,236.95v32.87h-30.1v-32.87h30.1m1.57-1.57h-33.23v36h33.23v-36h0Z"/></g><g><path d="m336.77,260.13v-7.92h-1.29v-1.27h1.29v-.44c0-1.29.29-2.47,1.06-3.21.63-.61,1.46-.86,2.24-.86.59,0,1.1.13,1.42.27l-.23,1.29c-.25-.11-.59-.21-1.06-.21-1.42,0-1.79,1.25-1.79,2.66v.49h2.22v1.27h-2.22v7.92h-1.65Z"/><path d="m345.78,246.95c-1.39,1.86-2.39,4.33-2.39,7.77s1.04,5.81,2.39,7.71h-1.31c-1.2-1.58-2.49-4.01-2.49-7.71.02-3.74,1.29-6.17,2.49-7.77h1.31Z"/><path d="m346.54,262.43c1.35-1.88,2.39-4.35,2.39-7.77s-1.03-5.83-2.39-7.71h1.29c1.22,1.56,2.49,3.99,2.49,7.73s-1.27,6.14-2.49,7.75h-1.29Z"/></g></g><g><path d="m332.89,341.08c.29.19.79.38,1.28.38.7,0,1.03-.35,1.03-.79s-.28-.71-.99-.98c-.96-.34-1.41-.87-1.41-1.51,0-.86.69-1.56,1.84-1.56.54,0,1.01.15,1.31.33l-.24.7c-.21-.13-.59-.31-1.09-.31-.57,0-.89.33-.89.73,0,.44.32.64,1.01.9.92.35,1.4.81,1.4,1.61,0,.94-.73,1.6-1.99,1.6-.58,0-1.12-.14-1.5-.36l.24-.74Z"/><path d="m338.54,335.22v1.53h1.39v.74h-1.39v2.87c0,.66.19,1.03.73,1.03.25,0,.44-.03.56-.07l.04.73c-.19.08-.48.13-.86.13-.45,0-.81-.14-1.04-.41-.28-.29-.37-.76-.37-1.39v-2.9h-.83v-.74h.83v-1.28l.95-.25Z"/><path d="m343.96,342.07l-.08-.67h-.03c-.3.42-.87.79-1.63.79-1.08,0-1.63-.76-1.63-1.53,0-1.29,1.14-1.99,3.2-1.98v-.11c0-.44-.12-1.23-1.21-1.23-.5,0-1.01.15-1.39.4l-.22-.64c.44-.29,1.08-.47,1.75-.47,1.63,0,2.02,1.11,2.02,2.18v1.99c0,.46.02.91.09,1.28h-.88Zm-.14-2.72c-1.06-.02-2.25.17-2.25,1.2,0,.63.42.92.91.92.69,0,1.13-.44,1.29-.89.03-.1.05-.21.05-.31v-.92Z"/><path d="m347.44,335.22v1.53h1.39v.74h-1.39v2.87c0,.66.19,1.03.73,1.03.25,0,.44-.03.56-.07l.04.73c-.19.08-.48.13-.86.13-.45,0-.81-.14-1.04-.41-.28-.29-.37-.76-.37-1.39v-2.9h-.83v-.74h.83v-1.28l.95-.25Z"/><path d="m350.38,339.59c.02,1.31.86,1.85,1.83,1.85.69,0,1.11-.12,1.47-.28l.17.69c-.34.15-.92.33-1.77.33-1.64,0-2.62-1.08-2.62-2.68s.95-2.87,2.5-2.87c1.74,0,2.2,1.53,2.2,2.51,0,.2-.02.35-.03.45h-3.74Zm2.84-.69c.01-.62-.25-1.57-1.34-1.57-.98,0-1.41.9-1.49,1.57h2.83Z"/><path d="m333.21,355.27l.29-2.16h-.9v-.65h1l.21-1.59h-.95v-.65h1.04l.29-2.1h.64l-.28,2.1h1.14l.29-2.1h.65l-.27,2.1h.9v.65h-1l-.2,1.59h.95v.65h-1.04l-.29,2.16h-.66l.29-2.16h-1.14l-.29,2.16h-.66Zm2.19-2.81l.21-1.59h-1.14l-.21,1.59h1.14Z"/><path d="m338.38,354.16c.27.18.91.45,1.58.45,1.24,0,1.63-.79,1.62-1.39-.01-1-.91-1.43-1.85-1.43h-.54v-.73h.54c.7,0,1.6-.36,1.6-1.21,0-.57-.36-1.08-1.25-1.08-.57,0-1.12.25-1.43.47l-.25-.7c.37-.28,1.1-.55,1.87-.55,1.41,0,2.05.84,2.05,1.71,0,.74-.44,1.36-1.32,1.68v.02c.88.18,1.6.84,1.6,1.84,0,1.14-.89,2.15-2.61,2.15-.8,0-1.51-.25-1.86-.48l.26-.75Z"/><path d="m345.89,349.03h-.02l-1.24.67-.19-.74,1.56-.84h.83v7.15h-.93v-6.25Z"/><path d="m354.08,348.12v.64l-3.11,6.51h-1l3.1-6.33v-.02h-3.5v-.8h4.51Z"/></g><g><g><polygon class="f" points="319.96 200.65 319.96 131.65 366.81 131.65 366.81 184.92 351.07 200.65 319.96 200.65"/><path d="m365.31,133.15v51.14l-14.86,14.86h-28.99v-66h43.85m3-3h-49.85v72h33.23l16.62-16.62v-55.38h0Z"/></g><polygon points="368.31 182.77 351.69 182.77 348.92 182.77 348.92 185.54 348.92 202.15 351.69 202.15 351.69 185.54 368.31 185.54 368.31 182.77"/></g><g><path d="m331.77,151.28c.02,1.31.86,1.85,1.83,1.85.69,0,1.11-.12,1.47-.28l.17.69c-.34.15-.92.33-1.77.33-1.64,0-2.62-1.08-2.62-2.68s.95-2.87,2.5-2.87c1.74,0,2.2,1.53,2.2,2.51,0,.2-.02.35-.03.45h-3.74Zm2.84-.69c.01-.62-.25-1.57-1.34-1.57-.98,0-1.41.9-1.49,1.57h2.83Z"/><path d="m337.12,148.44l1.05,2.99c.18.48.32.92.43,1.36h.03c.12-.44.27-.88.45-1.36l1.03-2.99h1.01l-2.09,5.33h-.92l-2.02-5.33h1.03Z"/><path d="m342.47,151.28c.02,1.31.86,1.85,1.83,1.85.69,0,1.11-.12,1.47-.28l.17.69c-.34.15-.92.33-1.77.33-1.64,0-2.62-1.08-2.62-2.68s.95-2.87,2.5-2.87c1.74,0,2.2,1.53,2.2,2.51,0,.2-.02.35-.03.45h-3.74Zm2.84-.69c.01-.62-.25-1.57-1.34-1.57-.98,0-1.41.9-1.49,1.57h2.83Z"/><path d="m347.44,149.88c0-.55-.01-1-.04-1.44h.86l.05.88h.02c.26-.51.88-1,1.76-1,.74,0,1.88.44,1.88,2.27v3.18h-.97v-3.07c0-.86-.32-1.57-1.23-1.57-.64,0-1.13.45-1.3.99-.04.12-.07.29-.07.45v3.2h-.97v-3.88Z"/><path d="m354.66,146.91v1.53h1.39v.74h-1.39v2.87c0,.66.19,1.03.73,1.03.25,0,.44-.03.56-.07l.04.73c-.19.08-.48.13-.86.13-.45,0-.81-.14-1.04-.41-.28-.29-.37-.76-.37-1.39v-2.9h-.83v-.74h.83v-1.28l.95-.25Z"/><path d="m333.21,166.97l.29-2.16h-.9v-.65h1l.21-1.59h-.95v-.65h1.04l.29-2.1h.64l-.28,2.1h1.14l.29-2.1h.65l-.27,2.1h.9v.65h-1l-.2,1.59h.95v.65h-1.04l-.29,2.16h-.66l.29-2.16h-1.14l-.29,2.16h-.66Zm2.19-2.81l.21-1.59h-1.14l-.21,1.59h1.14Z"/><path d="m338.38,165.86c.27.18.91.45,1.58.45,1.24,0,1.63-.79,1.62-1.39-.01-1-.91-1.43-1.85-1.43h-.54v-.73h.54c.7,0,1.6-.36,1.6-1.21,0-.57-.36-1.08-1.25-1.08-.57,0-1.12.25-1.43.47l-.25-.7c.37-.28,1.1-.55,1.87-.55,1.41,0,2.05.84,2.05,1.71,0,.74-.44,1.36-1.32,1.68v.02c.88.18,1.6.84,1.6,1.84,0,1.14-.89,2.15-2.61,2.15-.8,0-1.51-.25-1.86-.48l.26-.75Z"/><path d="m345.89,160.72h-.02l-1.24.67-.19-.74,1.56-.84h.83v7.15h-.93v-6.25Z"/><path d="m354.08,159.82v.64l-3.11,6.51h-1l3.1-6.33v-.02h-3.5v-.8h4.51Z"/></g><g><polyline class="g" points="343.38 271.38 343.38 282.46 373.85 282.46 373.85 252 384.77 252"/><polygon points="381.64 256.59 398.77 252 381.64 247.41 381.64 256.59"/></g><g><line class="g" x1="343.38" y1="271.38" x2="343.38" y2="304.46"/><polygon points="338.79 301.33 343.38 318.46 347.98 301.33 338.79 301.33"/></g><g><line class="g" x1="343.38" y1="202.15" x2="343.38" y2="221.39"/><polygon points="338.79 218.26 343.38 235.38 347.98 218.26 338.79 218.26"/></g><g><path d="m372.3,236.27c.49.32,1.37.67,2.2.67,1.22,0,1.79-.61,1.79-1.37s-.48-1.23-1.71-1.69c-1.65-.59-2.43-1.5-2.43-2.6,0-1.48,1.2-2.7,3.17-2.7.93,0,1.75.27,2.26.57l-.42,1.22c-.36-.23-1.03-.53-1.88-.53-.99,0-1.54.57-1.54,1.25,0,.76.55,1.1,1.75,1.56,1.6.61,2.41,1.41,2.41,2.77,0,1.61-1.25,2.75-3.44,2.75-1.01,0-1.94-.25-2.58-.63l.42-1.27Z"/><path d="m381.84,224.96c-.44,1.6-1.25,3.63-1.79,4.5l-1.06.13c.42-1.12.91-3.1,1.12-4.46l1.73-.17Z"/><path d="m385.66,230.3c0-.7.47-1.2,1.14-1.2s1.1.49,1.12,1.2c0,.67-.44,1.18-1.14,1.18-.67,0-1.12-.51-1.12-1.18Zm0,6.71c0-.7.47-1.2,1.14-1.2s1.1.49,1.12,1.2c0,.67-.44,1.18-1.14,1.18-.67,0-1.12-.51-1.12-1.18Z"/><path d="m389.36,231.57v-1.14h9.8v1.14h-9.8Zm0,3.72v-1.14h9.8v1.14h-9.8Z"/><path d="m405.51,237.98v-7.92h-1.29v-1.27h1.29v-.44c0-1.29.29-2.47,1.06-3.21.63-.61,1.46-.86,2.24-.86.59,0,1.1.13,1.42.27l-.23,1.29c-.25-.11-.59-.21-1.06-.21-1.42,0-1.79,1.25-1.79,2.66v.49h2.22v1.27h-2.22v7.92h-1.65Z"/><path d="m414.52,224.79c-1.39,1.86-2.39,4.33-2.39,7.77s1.04,5.81,2.39,7.71h-1.31c-1.2-1.58-2.49-4.01-2.49-7.71.02-3.74,1.29-6.17,2.49-7.77h1.31Z"/><path d="m416.06,236.27c.49.32,1.37.67,2.2.67,1.22,0,1.79-.61,1.79-1.37s-.48-1.23-1.71-1.69c-1.65-.59-2.43-1.5-2.43-2.6,0-1.48,1.2-2.7,3.17-2.7.93,0,1.75.27,2.26.57l-.42,1.22c-.36-.23-1.03-.53-1.88-.53-.99,0-1.54.57-1.54,1.25,0,.76.55,1.1,1.75,1.56,1.6.61,2.41,1.41,2.41,2.77,0,1.61-1.25,2.75-3.44,2.75-1.01,0-1.94-.25-2.58-.63l.42-1.27Z"/><path d="m422.52,240.31c.42-1.12.93-3.15,1.14-4.54l1.86-.19c-.44,1.61-1.27,3.72-1.8,4.62l-1.2.11Z"/><path d="m432.49,233.68c.04,2.26,1.48,3.19,3.15,3.19,1.2,0,1.92-.21,2.54-.48l.29,1.2c-.59.27-1.6.57-3.06.57-2.83,0-4.52-1.86-4.52-4.64s1.63-4.96,4.31-4.96c3,0,3.8,2.64,3.8,4.33,0,.34-.04.61-.06.78h-6.46Zm4.9-1.2c.02-1.06-.44-2.72-2.32-2.72-1.69,0-2.43,1.56-2.56,2.72h4.88Z"/><path d="m442.71,224.96c-.44,1.6-1.25,3.63-1.79,4.5l-1.06.13c.42-1.12.91-3.1,1.12-4.46l1.73-.17Z"/><path d="m443.53,240.27c1.35-1.88,2.39-4.35,2.39-7.77s-1.03-5.83-2.39-7.71h1.29c1.22,1.56,2.49,3.99,2.49,7.73s-1.27,6.14-2.49,7.75h-1.29Z"/></g><g><path d="m406.32,259.14c0-.7.47-1.2,1.14-1.2s1.12.49,1.12,1.2-.44,1.2-1.14,1.2c-.67,0-1.12-.51-1.12-1.2Z"/><path d="m410.25,259.14c0-.7.47-1.2,1.14-1.2s1.12.49,1.12,1.2-.44,1.2-1.14,1.2c-.67,0-1.12-.51-1.12-1.2Z"/><path d="m414.19,259.14c0-.7.47-1.2,1.14-1.2s1.12.49,1.12,1.2-.44,1.2-1.14,1.2c-.67,0-1.12-.51-1.12-1.2Z"/></g><g><line class="g" x1="426.46" y1="252" x2="442.93" y2="252"/><polygon points="439.79 256.59 456.92 252 439.79 247.41 439.79 256.59"/></g><g><g><polygon class="f" points="450.12 388.96 450.12 319.96 496.96 319.96 496.96 373.22 481.23 388.96 450.12 388.96"/><path d="m495.46,321.46v51.14l-14.86,14.86h-28.99v-66h43.85m3-3h-49.85v72h33.23l16.62-16.62v-55.38h0Z"/></g><polygon points="498.46 371.08 481.85 371.08 479.08 371.08 479.08 373.85 479.08 390.46 481.85 390.46 481.85 373.85 498.46 373.85 498.46 371.08"/></g><g><g><rect class="f" x="457.71" y="236.17" width="31.66" height="34.43"/><path d="m488.59,236.95v32.87h-30.1v-32.87h30.1m1.57-1.57h-33.23v36h33.23v-36h0Z"/></g><g><path d="m466.93,260.13v-7.92h-1.29v-1.27h1.29v-.44c0-1.29.29-2.47,1.06-3.21.63-.61,1.46-.86,2.24-.86.59,0,1.1.13,1.42.27l-.23,1.29c-.25-.11-.59-.21-1.06-.21-1.42,0-1.79,1.25-1.79,2.66v.49h2.22v1.27h-2.22v7.92h-1.65Z"/><path d="m475.93,246.95c-1.39,1.86-2.39,4.33-2.39,7.77s1.04,5.81,2.39,7.71h-1.31c-1.2-1.58-2.49-4.01-2.49-7.71.02-3.74,1.29-6.17,2.49-7.77h1.31Z"/><path d="m476.69,262.43c1.35-1.88,2.39-4.35,2.39-7.77s-1.03-5.83-2.39-7.71h1.29c1.22,1.56,2.49,3.99,2.49,7.73s-1.27,6.14-2.49,7.75h-1.29Z"/></g></g><g><path d="m463.04,341.08c.29.19.79.38,1.28.38.7,0,1.03-.35,1.03-.79s-.28-.71-.99-.98c-.96-.34-1.41-.87-1.41-1.51,0-.86.69-1.56,1.84-1.56.54,0,1.01.15,1.31.33l-.24.7c-.21-.13-.59-.31-1.09-.31-.57,0-.89.33-.89.73,0,.44.32.64,1.01.9.92.35,1.4.81,1.4,1.61,0,.94-.73,1.6-1.99,1.6-.58,0-1.12-.14-1.5-.36l.24-.74Z"/><path d="m468.69,335.22v1.53h1.39v.74h-1.39v2.87c0,.66.19,1.03.73,1.03.25,0,.44-.03.56-.07l.04.73c-.19.08-.48.13-.86.13-.45,0-.81-.14-1.04-.41-.28-.29-.37-.76-.37-1.39v-2.9h-.83v-.74h.83v-1.28l.95-.25Z"/><path d="m474.12,342.07l-.08-.67h-.03c-.3.42-.87.79-1.63.79-1.08,0-1.63-.76-1.63-1.53,0-1.29,1.14-1.99,3.2-1.98v-.11c0-.44-.12-1.23-1.21-1.23-.5,0-1.01.15-1.39.4l-.22-.64c.44-.29,1.08-.47,1.75-.47,1.63,0,2.02,1.11,2.02,2.18v1.99c0,.46.02.91.09,1.28h-.88Zm-.14-2.72c-1.06-.02-2.25.17-2.25,1.2,0,.63.42.92.91.92.69,0,1.13-.44,1.29-.89.03-.1.05-.21.05-.31v-.92Z"/><path d="m477.59,335.22v1.53h1.39v.74h-1.39v2.87c0,.66.19,1.03.73,1.03.25,0,.44-.03.56-.07l.04.73c-.19.08-.48.13-.86.13-.45,0-.81-.14-1.04-.41-.28-.29-.37-.76-.37-1.39v-2.9h-.83v-.74h.83v-1.28l.95-.25Z"/><path d="m480.54,339.59c.02,1.31.86,1.85,1.83,1.85.69,0,1.11-.12,1.47-.28l.17.69c-.34.15-.92.33-1.77.33-1.64,0-2.62-1.08-2.62-2.68s.95-2.87,2.5-2.87c1.74,0,2.2,1.53,2.2,2.51,0,.2-.02.35-.03.45h-3.74Zm2.84-.69c.01-.62-.25-1.57-1.34-1.57-.98,0-1.41.9-1.49,1.57h2.83Z"/><path d="m468.78,355.27l.29-2.16h-.9v-.65h1l.21-1.59h-.95v-.65h1.04l.29-2.1h.64l-.28,2.1h1.14l.29-2.1h.65l-.27,2.1h.9v.65h-1l-.2,1.59h.95v.65h-1.04l-.29,2.16h-.66l.29-2.16h-1.14l-.29,2.16h-.66Zm2.19-2.81l.21-1.59h-1.14l-.21,1.59h1.14Z"/><path d="m474.02,351.39c0-.55-.01-1-.04-1.44h.86l.05.88h.02c.26-.51.88-1,1.76-1,.74,0,1.88.44,1.88,2.27v3.18h-.97v-3.07c0-.86-.32-1.57-1.23-1.57-.64,0-1.13.45-1.3.99-.04.12-.07.29-.07.45v3.2h-.97v-3.88Z"/></g><g><g><polygon class="f" points="450.12 200.65 450.12 131.65 496.96 131.65 496.96 184.92 481.23 200.65 450.12 200.65"/><path d="m495.46,133.15v51.14l-14.86,14.86h-28.99v-66h43.85m3-3h-49.85v72h33.23l16.62-16.62v-55.38h0Z"/></g><polygon points="498.46 182.77 481.85 182.77 479.08 182.77 479.08 185.54 479.08 202.15 481.85 202.15 481.85 185.54 498.46 185.54 498.46 182.77"/></g><g><path d="m461.93,151.28c.02,1.31.86,1.85,1.83,1.85.69,0,1.11-.12,1.47-.28l.17.69c-.34.15-.92.33-1.77.33-1.64,0-2.62-1.08-2.62-2.68s.95-2.87,2.5-2.87c1.74,0,2.2,1.53,2.2,2.51,0,.2-.02.35-.03.45h-3.74Zm2.84-.69c.01-.62-.25-1.57-1.34-1.57-.98,0-1.41.9-1.49,1.57h2.83Z"/><path d="m467.27,148.44l1.05,2.99c.18.48.32.92.43,1.36h.03c.12-.44.27-.88.45-1.36l1.03-2.99h1.01l-2.09,5.33h-.92l-2.02-5.33h1.03Z"/><path d="m472.62,151.28c.02,1.31.86,1.85,1.83,1.85.69,0,1.11-.12,1.47-.28l.17.69c-.34.15-.92.33-1.77.33-1.64,0-2.62-1.08-2.62-2.68s.95-2.87,2.5-2.87c1.74,0,2.2,1.53,2.2,2.51,0,.2-.02.35-.03.45h-3.74Zm2.84-.69c.01-.62-.25-1.57-1.34-1.57-.98,0-1.41.9-1.49,1.57h2.83Z"/><path d="m477.59,149.88c0-.55-.01-1-.04-1.44h.86l.05.88h.02c.26-.51.88-1,1.76-1,.74,0,1.88.44,1.88,2.27v3.18h-.97v-3.07c0-.86-.32-1.57-1.23-1.57-.64,0-1.13.45-1.3.99-.04.12-.07.29-.07.45v3.2h-.97v-3.88Z"/><path d="m484.82,146.91v1.53h1.39v.74h-1.39v2.87c0,.66.19,1.03.73,1.03.25,0,.44-.03.56-.07l.04.73c-.19.08-.48.13-.86.13-.45,0-.81-.14-1.04-.41-.28-.29-.37-.76-.37-1.39v-2.9h-.83v-.74h.83v-1.28l.95-.25Z"/><path d="m468.78,166.97l.29-2.16h-.9v-.65h1l.21-1.59h-.95v-.65h1.04l.29-2.1h.64l-.28,2.1h1.14l.29-2.1h.65l-.27,2.1h.9v.65h-1l-.2,1.59h.95v.65h-1.04l-.29,2.16h-.66l.29-2.16h-1.14l-.29,2.16h-.66Zm2.19-2.81l.21-1.59h-1.14l-.21,1.59h1.14Z"/><path d="m474.02,163.08c0-.55-.01-1-.04-1.44h.86l.05.88h.02c.26-.51.88-1,1.76-1,.74,0,1.88.44,1.88,2.27v3.18h-.97v-3.07c0-.86-.32-1.57-1.23-1.57-.64,0-1.13.45-1.3.99-.04.12-.07.29-.07.45v3.2h-.97v-3.88Z"/></g><g><line class="g" x1="473.54" y1="271.38" x2="473.54" y2="304.46"/><polygon points="468.95 301.33 473.54 318.46 478.13 301.33 468.95 301.33"/></g><g><line class="g" x1="473.54" y1="202.15" x2="473.54" y2="221.39"/><polygon points="468.95 218.26 473.54 235.38 478.13 218.26 468.95 218.26"/></g><g><path class="i" d="m207.69,63.69c6.12,0,11.08-13.02,11.08-29.08s-4.96-29.08-11.08-29.08h-24.92c6.12,0,11.08,13.02,11.08,29.08s-4.96,29.08-11.08,29.08h24.92Z"/><g><path d="m197.98,37.81l.23-1.76h-.74v-.53h.82l.17-1.3h-.77v-.53h.86l.23-1.72h.52l-.22,1.72h.94l.23-1.72h.53l-.22,1.72h.74v.53h-.82l-.16,1.3h.77v.53h-.86l-.23,1.76h-.54l.23-1.76h-.94l-.23,1.76h-.54Zm1.79-2.3l.17-1.3h-.94l-.17,1.3h.94Z"/><path d="m202.21,36.9c.23.14.75.37,1.3.37,1.02,0,1.33-.65,1.32-1.13,0-.82-.75-1.17-1.51-1.17h-.44v-.59h.44c.58,0,1.31-.3,1.31-.99,0-.47-.3-.88-1.03-.88-.47,0-.92.21-1.17.39l-.21-.58c.31-.22.9-.45,1.53-.45,1.15,0,1.67.68,1.67,1.4,0,.6-.36,1.12-1.08,1.38v.02c.72.14,1.31.68,1.31,1.5,0,.94-.73,1.75-2.13,1.75-.66,0-1.23-.21-1.52-.4l.22-.61Z"/><path d="m208.36,32.7h-.02l-1.02.55-.15-.6,1.28-.68h.67v5.85h-.76v-5.11Z"/><path d="m213.71,37.81v-1.59h-2.72v-.52l2.61-3.74h.86v3.64h.82v.62h-.82v1.59h-.75Zm0-2.21v-1.95c0-.31,0-.61.03-.92h-.03c-.18.34-.32.59-.49.86l-1.43,1.99v.02h1.92Z"/></g><path class="i" d="m232.62,63.69c6.12,0,11.08-13.02,11.08-29.08s-4.96-29.08-11.08-29.08h-24.92c6.12,0,11.08,13.02,11.08,29.08s-4.96,29.08-11.08,29.08h24.92Z"/><g><path d="m222.91,37.81l.23-1.76h-.74v-.53h.82l.17-1.3h-.77v-.53h.86l.23-1.72h.52l-.22,1.72h.94l.23-1.72h.53l-.22,1.72h.74v.53h-.82l-.16,1.3h.77v.53h-.86l-.23,1.76h-.54l.23-1.76h-.94l-.23,1.76h-.54Zm1.79-2.3l.17-1.3h-.94l-.17,1.3h.94Z"/><path d="m227.14,36.9c.23.14.75.37,1.3.37,1.02,0,1.33-.65,1.32-1.13,0-.82-.75-1.17-1.51-1.17h-.44v-.59h.44c.58,0,1.31-.3,1.31-.99,0-.47-.3-.88-1.03-.88-.47,0-.92.21-1.17.39l-.21-.58c.31-.22.9-.45,1.53-.45,1.15,0,1.67.68,1.67,1.4,0,.6-.36,1.12-1.08,1.38v.02c.72.14,1.31.68,1.31,1.5,0,.94-.73,1.75-2.13,1.75-.66,0-1.23-.21-1.52-.4l.22-.61Z"/><path d="m233.28,32.7h-.02l-1.02.55-.15-.6,1.28-.68h.67v5.85h-.76v-5.11Z"/><path d="m239.67,32.63h-2.23l-.22,1.5c.13-.02.26-.04.48-.04.45,0,.9.1,1.26.31.46.26.84.77.84,1.5,0,1.14-.91,2-2.18,2-.64,0-1.18-.18-1.46-.36l.2-.6c.24.14.72.32,1.25.32.75,0,1.39-.49,1.39-1.27,0-.76-.51-1.3-1.68-1.3-.33,0-.59.04-.81.06l.38-2.81h2.8v.67Z"/></g><path class="i" d="m257.54,63.69c6.12,0,11.08-13.02,11.08-29.08s-4.96-29.08-11.08-29.08h-24.92c6.12,0,11.08,13.02,11.08,29.08s-4.96,29.08-11.08,29.08h24.92Z"/><g><path d="m247.83,37.81l.23-1.76h-.74v-.53h.82l.17-1.3h-.77v-.53h.86l.23-1.72h.52l-.22,1.72h.94l.23-1.72h.53l-.22,1.72h.74v.53h-.82l-.16,1.3h.77v.53h-.86l-.23,1.76h-.54l.23-1.76h-.94l-.23,1.76h-.54Zm1.79-2.3l.17-1.3h-.94l-.17,1.3h.94Z"/><path d="m252.06,36.9c.23.14.75.37,1.3.37,1.02,0,1.33-.65,1.32-1.13,0-.82-.75-1.17-1.51-1.17h-.44v-.59h.44c.58,0,1.31-.3,1.31-.99,0-.47-.3-.88-1.03-.88-.47,0-.92.21-1.17.39l-.21-.58c.31-.22.9-.45,1.53-.45,1.15,0,1.67.68,1.67,1.4,0,.6-.36,1.12-1.08,1.38v.02c.72.14,1.31.68,1.31,1.5,0,.94-.73,1.75-2.13,1.75-.66,0-1.23-.21-1.52-.4l.22-.61Z"/><path d="m258.21,32.7h-.02l-1.02.55-.15-.6,1.28-.68h.67v5.85h-.76v-5.11Z"/><path d="m264.44,32.52c-.16,0-.37,0-.59.04-1.24.21-1.9,1.12-2.04,2.08h.03c.28-.37.76-.68,1.41-.68,1.04,0,1.76.75,1.76,1.89,0,1.07-.73,2.06-1.94,2.06s-2.07-.97-2.07-2.49c0-1.15.42-2.06.99-2.64.49-.48,1.13-.77,1.87-.86.23-.04.43-.04.58-.04v.65Zm-.22,3.38c0-.84-.48-1.34-1.21-1.34-.48,0-.92.3-1.13.72-.05.09-.09.21-.09.35.02.96.46,1.67,1.29,1.67.68,0,1.14-.57,1.14-1.41Z"/></g><path class="i" d="m282.46,63.69c6.12,0,11.08-13.02,11.08-29.08s-4.96-29.08-11.08-29.08h-24.92c6.12,0,11.08,13.02,11.08,29.08s-4.96,29.08-11.08,29.08h24.92Z"/><g><path d="m272.75,37.81l.23-1.76h-.74v-.53h.82l.17-1.3h-.77v-.53h.86l.23-1.72h.52l-.22,1.72h.94l.23-1.72h.53l-.22,1.72h.74v.53h-.82l-.16,1.3h.77v.53h-.86l-.23,1.76h-.54l.23-1.76h-.94l-.23,1.76h-.54Zm1.79-2.3l.17-1.3h-.94l-.17,1.3h.94Z"/><path d="m276.98,36.9c.23.14.75.37,1.3.37,1.02,0,1.33-.65,1.32-1.13,0-.82-.75-1.17-1.51-1.17h-.44v-.59h.44c.58,0,1.31-.3,1.31-.99,0-.47-.3-.88-1.03-.88-.47,0-.92.21-1.17.39l-.21-.58c.31-.22.9-.45,1.53-.45,1.15,0,1.67.68,1.67,1.4,0,.6-.36,1.12-1.08,1.38v.02c.72.14,1.31.68,1.31,1.5,0,.94-.73,1.75-2.13,1.75-.66,0-1.23-.21-1.52-.4l.22-.61Z"/><path d="m283.13,32.7h-.02l-1.02.55-.15-.6,1.28-.68h.67v5.85h-.76v-5.11Z"/><path d="m289.83,31.96v.52l-2.55,5.33h-.82l2.54-5.18v-.02h-2.86v-.66h3.69Z"/></g><path class="i" d="m307.38,63.69c6.12,0,11.08-13.02,11.08-29.08s-4.96-29.08-11.08-29.08h-24.92c6.12,0,11.08,13.02,11.08,29.08s-4.96,29.08-11.08,29.08h24.92Z"/><g><path d="m303.67,37.34c0-.33.23-.57.54-.57s.53.23.53.57-.21.57-.54.57c-.31,0-.53-.24-.53-.57Z"/><path d="m305.54,37.34c0-.33.23-.57.54-.57s.53.23.53.57-.21.57-.54.57c-.31,0-.53-.24-.53-.57Z"/><path d="m307.4,37.34c0-.33.23-.57.54-.57s.53.23.53.57-.21.57-.54.57c-.31,0-.53-.24-.53-.57Z"/></g><path class="i" d="m332.31,63.69c6.12,0,11.08-13.02,11.08-29.08s-4.96-29.08-11.08-29.08h-24.92c6.12,0,11.08,13.02,11.08,29.08s-4.96,29.08-11.08,29.08h24.92Z"/><g><path d="m327.03,37.81l.23-1.76h-.74v-.53h.82l.17-1.3h-.77v-.53h.86l.23-1.72h.52l-.22,1.72h.94l.23-1.72h.53l-.22,1.72h.74v.53h-.82l-.16,1.3h.77v.53h-.86l-.23,1.76h-.54l.23-1.76h-.94l-.23,1.76h-.54Zm1.79-2.3l.17-1.3h-.94l-.17,1.3h.94Z"/><path d="m331.32,34.63c0-.45,0-.82-.04-1.18h.7l.04.72h.02c.22-.41.72-.82,1.44-.82.6,0,1.54.36,1.54,1.85v2.6h-.79v-2.51c0-.7-.26-1.29-1.01-1.29-.52,0-.93.37-1.06.81-.04.1-.05.23-.05.37v2.62h-.79v-3.18Z"/></g><path class="e" d="m357.23,63.69c6.12,0,11.08-13.02,11.08-29.08s-4.96-29.08-11.08-29.08h-24.92c6.12,0,11.08,13.02,11.08,29.08s-4.96,29.08-11.08,29.08h24.92Z"/><ellipse class="i" cx="182.77" cy="34.62" rx="11.08" ry="29.08"/></g><g><polyline class="g" points="224.31 63.69 224.31 102.46 199.38 102.46 199.38 116.16"/><polygon points="194.79 113.03 199.38 130.15 203.98 113.03 194.79 113.03"/></g><g><polyline class="g" points="249.23 63.69 249.23 102.46 271.38 102.46 271.38 116.16"/><polygon points="266.79 113.03 271.38 130.15 275.98 113.03 266.79 113.03"/></g><g><polyline class="g" points="274.15 63.69 274.15 94.15 343.38 94.15 343.38 116.16"/><polygon points="338.79 113.03 343.38 130.15 347.98 113.03 338.79 113.03"/></g><g><polyline class="g" points="324 63.69 324 72 473.54 72 473.54 116.16"/><polygon points="468.95 113.03 473.54 130.15 478.13 113.03 468.95 113.03"/></g><ellipse class="i" cx="47.08" cy="204.92" rx="38.77" ry="13.85"/><path class="i" d="m85.85,204.92c0,7.65-17.36,13.85-38.77,13.85s-38.77-6.2-38.77-13.85v94.15c0,7.65,17.36,13.85,38.77,13.85s38.77-6.2,38.77-13.85v-94.15Z"/><g><g><g><polygon class="f" points="23.65 297.58 23.65 228.58 70.5 228.58 70.5 281.84 54.76 297.58 23.65 297.58"/><path d="m69,230.08v51.14l-14.86,14.86h-28.99v-66h43.85m3-3H22.15v72h33.23l16.62-16.62v-55.38h0Z"/></g><polygon points="72 279.69 55.38 279.69 52.62 279.69 52.62 282.46 52.62 299.08 55.38 299.08 55.38 282.46 72 282.46 72 279.69"/></g><g><path d="m36.58,249.7c.29.19.79.38,1.28.38.7,0,1.03-.35,1.03-.79s-.28-.71-.99-.98c-.96-.34-1.41-.87-1.41-1.51,0-.86.69-1.56,1.84-1.56.54,0,1.01.15,1.31.33l-.24.7c-.21-.13-.59-.31-1.09-.31-.57,0-.89.33-.89.73,0,.44.32.64,1.01.9.92.35,1.4.81,1.4,1.61,0,.94-.73,1.6-1.99,1.6-.58,0-1.12-.14-1.5-.36l.24-.74Z"/><path d="m42.23,243.84v1.53h1.39v.74h-1.39v2.87c0,.66.19,1.03.73,1.03.25,0,.44-.03.56-.07l.04.73c-.19.08-.48.13-.86.13-.45,0-.81-.14-1.04-.41-.28-.29-.37-.76-.37-1.39v-2.9h-.83v-.74h.83v-1.28l.95-.25Z"/><path d="m47.65,250.69l-.08-.67h-.03c-.3.42-.87.79-1.63.79-1.08,0-1.63-.76-1.63-1.53,0-1.29,1.14-1.99,3.2-1.98v-.11c0-.44-.12-1.23-1.21-1.23-.5,0-1.01.15-1.39.4l-.22-.64c.44-.29,1.08-.47,1.75-.47,1.63,0,2.02,1.11,2.02,2.18v1.99c0,.46.02.91.09,1.28h-.88Zm-.14-2.72c-1.06-.02-2.25.17-2.25,1.2,0,.63.42.92.91.92.69,0,1.13-.44,1.29-.89.03-.1.05-.21.05-.31v-.92Z"/><path d="m51.13,243.84v1.53h1.39v.74h-1.39v2.87c0,.66.19,1.03.73,1.03.25,0,.44-.03.56-.07l.04.73c-.19.08-.48.13-.86.13-.45,0-.81-.14-1.04-.41-.28-.29-.37-.76-.37-1.39v-2.9h-.83v-.74h.83v-1.28l.95-.25Z"/><path d="m54.08,248.2c.02,1.31.86,1.85,1.83,1.85.69,0,1.11-.12,1.47-.28l.17.69c-.34.15-.92.33-1.77.33-1.64,0-2.62-1.08-2.62-2.68s.95-2.87,2.5-2.87c1.74,0,2.2,1.53,2.2,2.51,0,.2-.02.35-.03.45h-3.74Zm2.84-.69c.01-.62-.25-1.57-1.34-1.57-.98,0-1.41.9-1.49,1.57h2.83Z"/><path d="m36.9,263.89l.29-2.16h-.9v-.65h1l.21-1.59h-.95v-.65h1.04l.29-2.1h.64l-.28,2.1h1.14l.29-2.1h.65l-.27,2.1h.9v.65h-1l-.2,1.59h.95v.65h-1.04l-.29,2.16h-.66l.29-2.16h-1.14l-.29,2.16h-.66Zm2.19-2.81l.21-1.59h-1.14l-.21,1.59h1.14Z"/><path d="m42.07,262.78c.27.18.91.45,1.58.45,1.24,0,1.63-.79,1.62-1.39-.01-1-.91-1.43-1.85-1.43h-.54v-.73h.54c.7,0,1.6-.36,1.6-1.21,0-.57-.36-1.08-1.25-1.08-.57,0-1.12.25-1.43.47l-.25-.7c.37-.28,1.1-.55,1.87-.55,1.41,0,2.05.84,2.05,1.71,0,.74-.44,1.36-1.32,1.68v.02c.88.18,1.6.84,1.6,1.84,0,1.14-.89,2.15-2.61,2.15-.8,0-1.51-.25-1.86-.48l.26-.75Z"/><path d="m49.58,257.64h-.02l-1.24.67-.19-.74,1.56-.84h.83v7.15h-.93v-6.25Z"/><path d="m56.12,263.89v-1.95h-3.32v-.64l3.19-4.57h1.04v4.45h1v.76h-1v1.95h-.91Zm0-2.71v-2.39c0-.37.01-.75.03-1.12h-.03c-.22.42-.4.73-.59,1.06l-1.75,2.43v.02h2.34Z"/></g></g><g><line class="g" x1="72" y1="252" x2="168.77" y2="252"/><polygon points="165.64 256.59 182.77 252 165.64 247.41 165.64 256.59"/></g></svg>