<?xml version="1.0" encoding="UTF-8"?><svg id="a" xmlns="http://www.w3.org/2000/svg" viewBox="0 0 1035.69 470.77"><defs><style>.b{stroke:#666;}.b,.c,.d,.e,.f,.g,.h,.i,.j{stroke-miterlimit:10;}.b,.c,.d,.e,.g,.h,.i{fill:none;}.b,.e{stroke-linecap:round;stroke-width:2px;}.k,.f,.j{fill:#fff;}.c{stroke-width:2.12px;}.c,.e,.f,.g,.j{stroke:#000;}.d{stroke-dasharray:0 0 15.82 15.82;}.d,.h,.i{stroke:#999;stroke-width:5.27px;}.f{stroke-width:2.78px;}.g{stroke-width:3px;}.h{stroke-dasharray:0 0 16.28 16.28;}.l{fill:#ccc;}.j{stroke-width:1.22px;}.m{fill:#666;}</style></defs><rect class="k" width="1035.69" height="470.77"/><g><rect class="l" x="230.64" y="16.62" width="520.62" height="443.08"/><g><polyline class="i" points="751.26 24.52 751.26 16.62 743.35 16.62"/><line class="h" x1="727.07" y1="16.62" x2="246.69" y2="16.62"/><polyline class="i" points="238.55 16.62 230.64 16.62 230.64 24.52"/><line class="d" x1="230.64" y1="40.35" x2="230.64" y2="443.87"/><polyline class="i" points="230.64 451.79 230.64 459.69 238.55 459.69"/><line class="h" x1="254.83" y1="459.69" x2="735.21" y2="459.69"/><polyline class="i" points="743.35 459.69 751.26 459.69 751.26 451.79"/><line class="d" x1="751.26" y1="435.96" x2="751.26" y2="32.43"/></g></g><g><line class="c" x1="481.91" y1="238.15" x2="507.56" y2="238.15"/><path d="m482.31,246.13c-4.4,0-7.98-3.57-7.98-7.98s3.57-7.98,7.98-7.98,7.98,3.57,7.98,7.98-3.57,7.98-7.98,7.98Z"/></g><g><line class="c" x1="481.91" y1="321.23" x2="507.56" y2="321.23"/><path d="m482.31,329.21c-4.4,0-7.98-3.57-7.98-7.98s3.57-7.98,7.98-7.98,7.98,3.57,7.98,7.98-3.57,7.98-7.98,7.98Z"/></g><g><line class="c" x1="204.99" y1="321.23" x2="252.79" y2="321.23"/><path d="m205.39,329.21c-4.4,0-7.98-3.57-7.98-7.98s3.57-7.98,7.98-7.98,7.98,3.57,7.98,7.98-3.57,7.98-7.98,7.98Z"/></g><g><line class="c" x1="860.5" y1="320.85" x2="880.62" y2="320.85"/><path d="m860.9,328.82c-4.4,0-7.98-3.57-7.98-7.98s3.57-7.98,7.98-7.98,7.98,3.57,7.98,7.98-3.57,7.98-7.98,7.98Z"/></g><g><rect class="k" x="882.12" y="283.58" width="141" height="69"/><path d="m1021.62,285.08v66h-138v-66h138m3-3h-144v72h144v-72h0Z"/></g><g><path d="m925.86,306.3h-5.5v5.1h6.13v1.53h-7.96v-14.15h7.64v1.53h-5.82v4.47h5.5v1.51Z"/><path d="m929.66,302.77l1.45,2.18c.38.57.69,1.09,1.03,1.66h.06c.34-.61.67-1.13,1.01-1.68l1.43-2.16h2l-3.46,4.91,3.57,5.25h-2.1l-1.49-2.29c-.4-.59-.74-1.16-1.09-1.76h-.04c-.34.61-.69,1.16-1.07,1.76l-1.47,2.29h-2.04l3.61-5.19-3.44-4.98h2.06Z"/><path d="m941.02,299.85v2.92h2.65v1.41h-2.65v5.48c0,1.26.36,1.97,1.39,1.97.48,0,.84-.06,1.07-.13l.08,1.39c-.36.15-.92.25-1.64.25-.86,0-1.55-.27-1.99-.78-.53-.55-.71-1.45-.71-2.65v-5.54h-1.58v-1.41h1.58v-2.44l1.81-.48Z"/><path d="m946.65,308.19c.04,2.5,1.64,3.53,3.49,3.53,1.32,0,2.12-.23,2.81-.53l.32,1.32c-.65.29-1.76.63-3.38.63-3.13,0-5-2.06-5-5.12s1.81-5.48,4.77-5.48c3.32,0,4.2,2.92,4.2,4.79,0,.38-.04.67-.06.86h-7.14Zm5.42-1.32c.02-1.18-.48-3-2.56-3-1.87,0-2.69,1.72-2.83,3h5.4Z"/><path d="m956.14,305.94c0-1.2-.02-2.23-.08-3.17h1.62l.06,2h.08c.46-1.36,1.58-2.23,2.81-2.23.21,0,.36.02.53.06v1.74c-.19-.04-.38-.06-.63-.06-1.3,0-2.23.99-2.48,2.37-.04.25-.08.55-.08.86v5.42h-1.83v-6.99Z"/><path d="m963.09,305.52c0-1.05-.02-1.91-.08-2.75h1.64l.11,1.68h.04c.5-.96,1.68-1.91,3.36-1.91,1.41,0,3.59.84,3.59,4.33v6.07h-1.85v-5.86c0-1.64-.61-3-2.35-3-1.22,0-2.16.86-2.48,1.89-.08.23-.13.55-.13.86v6.11h-1.85v-7.41Z"/><path d="m980.37,312.93l-.15-1.28h-.06c-.57.8-1.66,1.51-3.11,1.51-2.06,0-3.11-1.45-3.11-2.92,0-2.46,2.18-3.8,6.11-3.78v-.21c0-.84-.23-2.35-2.31-2.35-.95,0-1.93.29-2.65.76l-.42-1.22c.84-.54,2.06-.9,3.34-.9,3.11,0,3.86,2.12,3.86,4.16v3.8c0,.88.04,1.74.17,2.44h-1.68Zm-.27-5.19c-2.02-.04-4.3.31-4.3,2.29,0,1.2.8,1.76,1.74,1.76,1.32,0,2.16-.84,2.46-1.7.06-.19.11-.4.11-.59v-1.76Z"/><path d="m984.87,298.03h1.85v14.91h-1.85v-14.91Z"/><path d="m898,324.17c1.11-.17,2.44-.29,3.88-.29,2.62,0,4.49.61,5.73,1.76,1.26,1.16,2,2.79,2,5.08s-.71,4.2-2.04,5.5c-1.32,1.32-3.51,2.04-6.26,2.04-1.3,0-2.39-.06-3.32-.17v-13.92Zm1.83,12.51c.46.08,1.13.1,1.85.1,3.91,0,6.03-2.18,6.03-6,.02-3.34-1.87-5.46-5.73-5.46-.95,0-1.66.08-2.14.19v11.17Z"/><path d="m913.04,333.39c.04,2.5,1.64,3.53,3.49,3.53,1.32,0,2.12-.23,2.81-.53l.31,1.32c-.65.29-1.76.63-3.38.63-3.13,0-5-2.06-5-5.12s1.81-5.48,4.77-5.48c3.32,0,4.2,2.92,4.2,4.79,0,.38-.04.67-.06.86h-7.14Zm5.42-1.32c.02-1.18-.48-3-2.56-3-1.87,0-2.69,1.72-2.83,3h5.4Z"/><path d="m922.53,331.29c0-1.3-.04-2.35-.08-3.32h1.66l.08,1.74h.04c.76-1.24,1.95-1.97,3.61-1.97,2.46,0,4.3,2.08,4.3,5.17,0,3.65-2.23,5.46-4.62,5.46-1.34,0-2.52-.59-3.13-1.6h-.04v5.52h-1.83v-11Zm1.83,2.71c0,.27.04.52.08.76.34,1.28,1.45,2.16,2.77,2.16,1.95,0,3.09-1.6,3.09-3.93,0-2.04-1.07-3.78-3.02-3.78-1.26,0-2.44.9-2.79,2.29-.06.23-.13.5-.13.76v1.74Z"/><path d="m935.51,333.39c.04,2.5,1.64,3.53,3.49,3.53,1.32,0,2.12-.23,2.81-.53l.31,1.32c-.65.29-1.76.63-3.38.63-3.13,0-5-2.06-5-5.12s1.81-5.48,4.77-5.48c3.32,0,4.2,2.92,4.2,4.79,0,.38-.04.67-.06.86h-7.14Zm5.42-1.32c.02-1.18-.48-3-2.56-3-1.87,0-2.69,1.72-2.83,3h5.4Z"/><path d="m945,330.72c0-1.05-.02-1.91-.08-2.75h1.64l.1,1.68h.04c.5-.97,1.68-1.91,3.36-1.91,1.41,0,3.59.84,3.59,4.33v6.07h-1.85v-5.86c0-1.64-.61-3-2.35-3-1.22,0-2.16.86-2.48,1.89-.08.23-.13.55-.13.86v6.11h-1.85v-7.41Z"/><path d="m965.43,323.22v12.28c0,.9.02,1.93.08,2.62h-1.66l-.08-1.76h-.04c-.57,1.13-1.81,2-3.46,2-2.46,0-4.35-2.08-4.35-5.17-.02-3.38,2.08-5.46,4.56-5.46,1.55,0,2.6.74,3.07,1.55h.04v-6.07h1.85Zm-1.85,8.88c0-.23-.02-.54-.08-.78-.27-1.18-1.28-2.14-2.67-2.14-1.91,0-3.04,1.68-3.04,3.93,0,2.06,1.01,3.76,3,3.76,1.24,0,2.37-.82,2.71-2.2.06-.25.08-.5.08-.8v-1.76Z"/><path d="m969.53,333.39c.04,2.5,1.64,3.53,3.49,3.53,1.32,0,2.12-.23,2.81-.53l.31,1.32c-.65.29-1.76.63-3.38.63-3.13,0-5-2.06-5-5.12s1.81-5.48,4.77-5.48c3.32,0,4.2,2.92,4.2,4.79,0,.38-.04.67-.06.86h-7.14Zm5.42-1.32c.02-1.18-.48-3-2.56-3-1.87,0-2.69,1.72-2.83,3h5.4Z"/><path d="m979.02,330.72c0-1.05-.02-1.91-.08-2.75h1.64l.1,1.68h.04c.5-.97,1.68-1.91,3.36-1.91,1.41,0,3.59.84,3.59,4.33v6.07h-1.85v-5.86c0-1.64-.61-3-2.35-3-1.22,0-2.16.86-2.48,1.89-.08.23-.13.55-.13.86v6.11h-1.85v-7.41Z"/><path d="m997.92,337.75c-.48.25-1.55.59-2.92.59-3.07,0-5.06-2.08-5.06-5.19s2.14-5.4,5.46-5.4c1.09,0,2.06.27,2.56.53l-.42,1.43c-.44-.25-1.13-.48-2.14-.48-2.33,0-3.59,1.72-3.59,3.84,0,2.35,1.51,3.8,3.53,3.8,1.05,0,1.74-.27,2.27-.5l.32,1.39Z"/><path d="m1001.13,327.97l2.23,6c.23.67.48,1.47.65,2.08h.04c.19-.61.4-1.38.65-2.12l2.02-5.96h1.95l-2.77,7.24c-1.32,3.49-2.23,5.27-3.49,6.36-.9.8-1.81,1.11-2.27,1.2l-.46-1.55c.46-.15,1.07-.44,1.62-.9.5-.4,1.13-1.11,1.55-2.06.08-.19.15-.34.15-.44s-.04-.25-.13-.48l-3.76-9.36h2.02Z"/></g><g><rect class="k" x="16.12" y="283.94" width="137.47" height="69.04"/><path d="m152.11,285.42v66.07H17.6v-66.07h134.51m2.96-2.96H14.64v72h140.44v-72h0Z"/></g><g><path d="m70.79,325.45c-.67.34-2.02.67-3.74.67-3.99,0-6.99-2.52-6.99-7.16s3-7.43,7.39-7.43c1.76,0,2.88.38,3.36.63l-.44,1.49c-.69-.34-1.68-.59-2.86-.59-3.32,0-5.52,2.12-5.52,5.84,0,3.46,1.99,5.69,5.44,5.69,1.11,0,2.25-.23,2.98-.59l.38,1.45Z"/><path d="m73.02,311.01h1.85v14.91h-1.85v-14.91Z"/><path d="m80.04,312.9c.02.63-.44,1.13-1.18,1.13-.65,0-1.11-.5-1.11-1.13s.48-1.16,1.15-1.16,1.13.5,1.13,1.16Zm-2.06,13.02v-10.16h1.85v10.16h-1.85Z"/><path d="m83.92,321.17c.04,2.5,1.64,3.53,3.49,3.53,1.32,0,2.12-.23,2.81-.53l.31,1.32c-.65.29-1.76.63-3.38.63-3.13,0-5-2.06-5-5.12s1.81-5.48,4.77-5.48c3.32,0,4.2,2.92,4.2,4.79,0,.38-.04.67-.06.86h-7.14Zm5.42-1.32c.02-1.18-.48-3-2.56-3-1.87,0-2.69,1.72-2.83,3h5.4Z"/><path d="m93.41,318.5c0-1.05-.02-1.91-.08-2.75h1.64l.1,1.68h.04c.5-.97,1.68-1.91,3.36-1.91,1.41,0,3.59.84,3.59,4.33v6.07h-1.85v-5.86c0-1.64-.61-3-2.35-3-1.22,0-2.16.86-2.48,1.89-.08.23-.13.55-.13.86v6.11h-1.85v-7.41Z"/><path d="m107.21,312.84v2.92h2.65v1.41h-2.65v5.48c0,1.26.36,1.97,1.39,1.97.48,0,.84-.06,1.07-.13l.08,1.39c-.36.15-.92.25-1.64.25-.86,0-1.55-.27-2-.78-.52-.55-.71-1.45-.71-2.65v-5.54h-1.57v-1.41h1.57v-2.44l1.81-.48Z"/></g><g><line class="c" x1="483.88" y1="393.23" x2="509.54" y2="393.23"/><path d="m484.28,401.21c-4.4,0-7.98-3.57-7.98-7.98s3.57-7.98,7.98-7.98,7.98,3.57,7.98,7.98-3.57,7.98-7.98,7.98Z"/></g><g><rect class="k" x="254.3" y="283.96" width="141" height="69"/><path d="m393.79,285.46v66h-138v-66h138m3-3h-144v72h144v-72h0Z"/></g><g><path d="m304.83,299.16h1.83v12.62h6.05v1.53h-7.87v-14.15Z"/><path d="m323.58,308.15c0,3.76-2.6,5.4-5.06,5.4-2.75,0-4.87-2.02-4.87-5.23,0-3.4,2.23-5.4,5.04-5.4s4.89,2.12,4.89,5.23Zm-8.06.11c0,2.23,1.28,3.91,3.09,3.91s3.09-1.66,3.09-3.95c0-1.72-.86-3.91-3.04-3.91s-3.13,2.02-3.13,3.95Z"/><path d="m331.54,313.32l-.15-1.28h-.06c-.57.8-1.66,1.51-3.11,1.51-2.06,0-3.11-1.45-3.11-2.92,0-2.46,2.18-3.8,6.11-3.78v-.21c0-.84-.23-2.35-2.31-2.35-.94,0-1.93.29-2.65.76l-.42-1.22c.84-.55,2.06-.9,3.34-.9,3.11,0,3.86,2.12,3.86,4.16v3.8c0,.88.04,1.74.17,2.44h-1.68Zm-.27-5.19c-2.02-.04-4.3.31-4.3,2.29,0,1.2.8,1.76,1.74,1.76,1.32,0,2.16-.84,2.46-1.7.06-.19.1-.4.1-.59v-1.76Z"/><path d="m344.81,298.41v12.28c0,.9.02,1.93.08,2.62h-1.66l-.08-1.76h-.04c-.57,1.13-1.81,2-3.46,2-2.46,0-4.35-2.08-4.35-5.17-.02-3.38,2.08-5.46,4.56-5.46,1.55,0,2.6.73,3.07,1.55h.04v-6.07h1.85Zm-1.85,8.88c0-.23-.02-.55-.08-.78-.27-1.18-1.28-2.14-2.67-2.14-1.91,0-3.04,1.68-3.04,3.93,0,2.06,1.01,3.76,3,3.76,1.24,0,2.37-.82,2.71-2.2.06-.25.08-.5.08-.8v-1.76Z"/><path d="m288.93,324.55c.8-.17,2.06-.29,3.34-.29,1.83,0,3,.32,3.88,1.03.73.55,1.18,1.39,1.18,2.5,0,1.37-.9,2.56-2.39,3.11v.04c1.34.34,2.92,1.45,2.92,3.55,0,1.22-.48,2.14-1.2,2.83-.99.9-2.58,1.32-4.89,1.32-1.26,0-2.23-.08-2.83-.17v-13.92Zm1.83,5.79h1.66c1.93,0,3.07-1.01,3.07-2.37,0-1.66-1.26-2.31-3.11-2.31-.84,0-1.32.06-1.62.13v4.56Zm0,6.78c.36.06.88.08,1.53.08,1.89,0,3.63-.69,3.63-2.75,0-1.93-1.66-2.73-3.65-2.73h-1.51v5.4Z"/><path d="m305.88,338.52l-.15-1.28h-.06c-.57.8-1.66,1.51-3.11,1.51-2.06,0-3.11-1.45-3.11-2.92,0-2.46,2.18-3.8,6.11-3.78v-.21c0-.84-.23-2.35-2.31-2.35-.95,0-1.93.29-2.65.76l-.42-1.22c.84-.55,2.06-.9,3.34-.9,3.11,0,3.86,2.12,3.86,4.16v3.8c0,.88.04,1.74.17,2.44h-1.68Zm-.27-5.19c-2.02-.04-4.3.32-4.3,2.29,0,1.2.8,1.76,1.74,1.76,1.32,0,2.16-.84,2.46-1.7.06-.19.11-.4.11-.59v-1.76Z"/><path d="m310.38,323.61h1.85v14.91h-1.85v-14.91Z"/><path d="m320.96,338.52l-.15-1.28h-.06c-.57.8-1.66,1.51-3.11,1.51-2.06,0-3.11-1.45-3.11-2.92,0-2.46,2.18-3.8,6.11-3.78v-.21c0-.84-.23-2.35-2.31-2.35-.95,0-1.93.29-2.65.76l-.42-1.22c.84-.55,2.06-.9,3.34-.9,3.11,0,3.86,2.12,3.86,4.16v3.8c0,.88.04,1.74.17,2.44h-1.68Zm-.27-5.19c-2.02-.04-4.3.32-4.3,2.29,0,1.2.8,1.76,1.74,1.76,1.32,0,2.16-.84,2.46-1.7.06-.19.11-.4.11-.59v-1.76Z"/><path d="m325.45,331.1c0-1.05-.02-1.91-.08-2.75h1.64l.11,1.68h.04c.5-.97,1.68-1.91,3.36-1.91,1.41,0,3.59.84,3.59,4.33v6.07h-1.85v-5.86c0-1.64-.61-3-2.35-3-1.22,0-2.16.86-2.48,1.89-.08.23-.13.55-.13.86v6.11h-1.85v-7.41Z"/><path d="m344.35,338.14c-.48.25-1.55.59-2.92.59-3.07,0-5.06-2.08-5.06-5.19s2.14-5.4,5.46-5.4c1.09,0,2.06.27,2.56.52l-.42,1.43c-.44-.25-1.13-.48-2.14-.48-2.33,0-3.59,1.72-3.59,3.84,0,2.35,1.51,3.8,3.53,3.8,1.05,0,1.74-.27,2.27-.5l.31,1.39Z"/><path d="m347.42,333.77c.04,2.5,1.64,3.53,3.49,3.53,1.32,0,2.12-.23,2.81-.53l.31,1.32c-.65.29-1.76.63-3.38.63-3.13,0-5-2.06-5-5.12s1.81-5.48,4.77-5.48c3.32,0,4.2,2.92,4.2,4.79,0,.38-.04.67-.06.86h-7.14Zm5.42-1.32c.02-1.18-.48-3-2.56-3-1.87,0-2.69,1.72-2.83,3h5.4Z"/><path d="m356.91,331.52c0-1.2-.02-2.23-.08-3.17h1.62l.06,1.99h.08c.46-1.36,1.57-2.23,2.81-2.23.21,0,.36.02.52.06v1.74c-.19-.04-.38-.06-.63-.06-1.3,0-2.23.99-2.48,2.37-.04.25-.08.55-.08.86v5.42h-1.83v-6.99Z"/></g><g><path class="e" d="m396.79,321.23h16.62c9.14,0,16.62-9,16.62-20v-43.08c0-11,9-20,20-20h11.9"/><polygon points="459.16 242.22 474.33 238.15 459.16 234.09 459.16 242.22"/></g><g><path class="e" d="m396.79,321.23h16.62c9.14,0,16.86,9,17.16,19.99l.88,32.02c.3,11,9.55,19.99,20.55,19.99h11.9"/><polygon points="461.13 397.3 476.31 393.23 461.13 389.16 461.13 397.3"/></g><g><line class="e" x1="396.79" y1="321.23" x2="461.93" y2="321.23"/><polygon points="459.16 325.3 474.33 321.23 459.16 317.16 459.16 325.3"/></g><g><line class="e" x1="155.08" y1="321.23" x2="186.98" y2="320.95"/><polygon points="184.24 325.05 199.38 320.85 184.17 316.91 184.24 325.05"/></g><g><ellipse class="f" cx="691.61" cy="60.92" rx="33.23" ry="16.62"/><path class="f" d="m724.84,60.92c0,9.18-14.88,16.62-33.23,16.62s-33.23-7.44-33.23-16.62v66.46c0,9.18,14.88,16.62,33.23,16.62s33.23-7.44,33.23-16.62V60.92Z"/><g><path d="m674.17,97.53c-.67.34-2.02.67-3.74.67-3.99,0-6.99-2.52-6.99-7.16s3-7.43,7.39-7.43c1.76,0,2.88.38,3.36.63l-.44,1.49c-.69-.34-1.68-.59-2.86-.59-3.32,0-5.52,2.12-5.52,5.84,0,3.46,2,5.69,5.44,5.69,1.11,0,2.25-.23,2.98-.59l.38,1.45Z"/><path d="m685.36,92.82c0,3.76-2.6,5.4-5.06,5.4-2.75,0-4.87-2.02-4.87-5.23,0-3.4,2.23-5.4,5.04-5.4s4.89,2.12,4.89,5.23Zm-8.06.1c0,2.23,1.28,3.91,3.09,3.91s3.09-1.66,3.09-3.95c0-1.72-.86-3.91-3.04-3.91s-3.13,2.02-3.13,3.95Z"/><path d="m687.69,90.57c0-1.05-.02-1.91-.08-2.75h1.64l.1,1.68h.04c.5-.97,1.68-1.91,3.36-1.91,1.41,0,3.59.84,3.59,4.33v6.07h-1.85v-5.86c0-1.64-.61-3-2.35-3-1.22,0-2.16.86-2.48,1.89-.08.23-.13.55-.13.86v6.11h-1.85v-7.41Z"/><path d="m699.54,97.99v-8.76h-1.43v-1.41h1.43v-.55c0-2.69,1.58-4.43,4.43-4.43.94,0,2.06.29,2.58.67l-.53,1.41c-.44-.32-1.24-.59-2.14-.59-1.95,0-2.52,1.36-2.52,2.98v.5h5.9v10.16h-1.83v-8.76h-4.07v8.76h-1.83Z"/><path d="m719.08,87.82c-.04.73-.08,1.55-.08,2.79v5.9c0,2.33-.46,3.76-1.45,4.64-.99.92-2.42,1.22-3.7,1.22s-2.56-.29-3.38-.84l.46-1.41c.67.42,1.72.8,2.98.8,1.89,0,3.28-.99,3.28-3.55v-1.13h-.04c-.57.95-1.66,1.7-3.23,1.7-2.52,0-4.33-2.14-4.33-4.96,0-3.44,2.25-5.4,4.58-5.4,1.76,0,2.73.92,3.17,1.76h.04l.08-1.53h1.62Zm-1.91,4.01c0-.31-.02-.59-.1-.84-.34-1.07-1.24-1.95-2.58-1.95-1.76,0-3.02,1.49-3.02,3.84,0,2,1.01,3.65,3,3.65,1.13,0,2.16-.71,2.56-1.89.11-.31.15-.67.15-.99v-1.83Z"/><path d="m680.52,109.22c1.11-.17,2.44-.29,3.88-.29,2.62,0,4.49.61,5.73,1.76,1.26,1.16,2,2.79,2,5.08s-.71,4.2-2.04,5.5c-1.32,1.32-3.51,2.04-6.26,2.04-1.3,0-2.39-.06-3.32-.17v-13.92Zm1.83,12.51c.46.08,1.13.11,1.85.11,3.91,0,6.03-2.18,6.03-6,.02-3.34-1.87-5.46-5.73-5.46-.95,0-1.66.08-2.14.19v11.17Z"/><path d="m694.5,109.22c.8-.17,2.06-.29,3.34-.29,1.83,0,3,.32,3.88,1.03.74.55,1.18,1.39,1.18,2.5,0,1.37-.9,2.56-2.39,3.11v.04c1.34.34,2.92,1.45,2.92,3.55,0,1.22-.48,2.14-1.2,2.83-.99.9-2.58,1.32-4.89,1.32-1.26,0-2.23-.08-2.83-.17v-13.92Zm1.83,5.79h1.66c1.93,0,3.07-1.01,3.07-2.37,0-1.66-1.26-2.31-3.11-2.31-.84,0-1.32.06-1.62.13v4.56Zm0,6.78c.36.06.88.08,1.53.08,1.89,0,3.63-.69,3.63-2.75,0-1.93-1.66-2.73-3.65-2.73h-1.51v5.4Z"/></g><g><line class="c" x1="690.33" y1="164.12" x2="690.33" y2="144"/><path d="m698.31,163.72c0,4.4-3.57,7.98-7.98,7.98s-7.98-3.57-7.98-7.98,3.57-7.98,7.98-7.98,7.98,3.57,7.98,7.98Z"/></g></g><g><path class="b" d="m646.03,238.15h154.15c6.6,0,12.13,5.4,12.29,12l1.4,58.7c.16,6.6,5.69,12,12.29,12h14.37"/><polygon class="m" points="837.75 324.91 852.92 320.85 837.75 316.78 837.75 324.91"/></g><g><path class="b" d="m646.03,404.31h154.15c6.6,0,12.13-5.4,12.28-12l1.41-59.47c.16-6.6,5.68-12,12.28-12h14.37"/><polygon class="m" points="837.75 324.91 852.92 320.85 837.75 316.78 837.75 324.91"/></g><g><line class="b" x1="646.03" y1="321.23" x2="840.52" y2="320.87"/><polygon class="m" points="837.75 324.94 852.92 320.85 837.74 316.81 837.75 324.94"/></g><g><line class="g" x1="607.26" y1="99.69" x2="638.5" y2="99.69"/><polygon points="634.34 105.79 657.1 99.69 634.34 93.59 634.34 105.79"/></g><g><rect class="k" x="466.03" y="67.96" width="141" height="69"/><path d="m605.53,69.46v66h-138v-66h138m3-3h-144v72h144v-72h0Z"/></g><g><path d="m486.1,96.85c-.67.34-2.02.67-3.74.67-3.99,0-6.99-2.52-6.99-7.16s3-7.43,7.39-7.43c1.76,0,2.88.38,3.36.63l-.44,1.49c-.69-.34-1.68-.59-2.86-.59-3.32,0-5.52,2.12-5.52,5.84,0,3.46,2,5.69,5.44,5.69,1.11,0,2.25-.23,2.98-.59l.38,1.45Z"/><path d="m497.3,92.15c0,3.76-2.6,5.4-5.06,5.4-2.75,0-4.87-2.02-4.87-5.23,0-3.4,2.23-5.4,5.04-5.4s4.89,2.12,4.89,5.23Zm-8.06.11c0,2.23,1.28,3.91,3.09,3.91s3.09-1.66,3.09-3.95c0-1.72-.86-3.91-3.04-3.91s-3.13,2.02-3.13,3.95Z"/><path d="m499.63,89.9c0-1.05-.02-1.91-.08-2.75h1.64l.1,1.68h.04c.5-.97,1.68-1.91,3.36-1.91,1.41,0,3.59.84,3.59,4.33v6.07h-1.85v-5.86c0-1.64-.61-3-2.35-3-1.22,0-2.16.86-2.48,1.89-.08.23-.13.55-.13.86v6.11h-1.85v-7.41Z"/><path d="m511.47,97.32v-8.75h-1.43v-1.41h1.43v-.55c0-2.69,1.58-4.43,4.43-4.43.94,0,2.06.29,2.58.67l-.52,1.41c-.44-.31-1.24-.59-2.14-.59-1.95,0-2.52,1.37-2.52,2.98v.5h5.9v10.16h-1.83v-8.75h-4.07v8.75h-1.83Z"/><path d="m531.02,87.15c-.04.74-.08,1.55-.08,2.79v5.9c0,2.33-.46,3.76-1.45,4.64-.99.92-2.42,1.22-3.7,1.22s-2.56-.29-3.38-.84l.46-1.41c.67.42,1.72.8,2.98.8,1.89,0,3.28-.99,3.28-3.55v-1.13h-.04c-.57.94-1.66,1.7-3.23,1.7-2.52,0-4.33-2.14-4.33-4.96,0-3.44,2.25-5.4,4.58-5.4,1.76,0,2.73.92,3.17,1.76h.04l.08-1.53h1.62Zm-1.91,4.01c0-.32-.02-.59-.11-.84-.34-1.07-1.24-1.95-2.58-1.95-1.76,0-3.02,1.49-3.02,3.84,0,1.99,1.01,3.65,3,3.65,1.13,0,2.16-.71,2.56-1.89.11-.32.15-.67.15-.99v-1.83Z"/><path d="m542.51,94.54c0,1.05.02,1.97.08,2.77h-1.64l-.1-1.66h-.04c-.48.82-1.55,1.89-3.36,1.89-1.6,0-3.51-.88-3.51-4.45v-5.94h1.85v5.63c0,1.93.59,3.23,2.27,3.23,1.24,0,2.1-.86,2.44-1.68.11-.27.17-.61.17-.94v-6.24h1.85v7.39Z"/><path d="m545.57,90.32c0-1.2-.02-2.23-.08-3.17h1.62l.06,2h.08c.46-1.37,1.57-2.23,2.81-2.23.21,0,.36.02.52.06v1.74c-.19-.04-.38-.06-.63-.06-1.3,0-2.23.99-2.48,2.37-.04.25-.08.55-.08.86v5.42h-1.83v-6.99Z"/><path d="m557.96,97.32l-.15-1.28h-.06c-.57.8-1.66,1.51-3.11,1.51-2.06,0-3.11-1.45-3.11-2.92,0-2.46,2.18-3.8,6.11-3.78v-.21c0-.84-.23-2.35-2.31-2.35-.95,0-1.93.29-2.65.76l-.42-1.22c.84-.55,2.06-.9,3.34-.9,3.11,0,3.86,2.12,3.86,4.16v3.8c0,.88.04,1.74.17,2.44h-1.68Zm-.27-5.19c-2.02-.04-4.3.31-4.3,2.29,0,1.2.8,1.76,1.74,1.76,1.32,0,2.16-.84,2.46-1.7.06-.19.11-.4.11-.59v-1.76Z"/><path d="m564.6,84.24v2.92h2.65v1.41h-2.65v5.48c0,1.26.36,1.97,1.39,1.97.48,0,.84-.06,1.07-.13l.08,1.39c-.36.15-.92.25-1.64.25-.86,0-1.55-.27-2-.78-.52-.55-.71-1.45-.71-2.65v-5.54h-1.57v-1.41h1.57v-2.44l1.81-.48Z"/><path d="m571.38,84.3c.02.63-.44,1.13-1.18,1.13-.65,0-1.11-.5-1.11-1.13s.48-1.15,1.16-1.15,1.13.5,1.13,1.15Zm-2.06,13.02v-10.16h1.85v10.16h-1.85Z"/><path d="m583.44,92.15c0,3.76-2.6,5.4-5.06,5.4-2.75,0-4.87-2.02-4.87-5.23,0-3.4,2.23-5.4,5.04-5.4s4.89,2.12,4.89,5.23Zm-8.06.11c0,2.23,1.28,3.91,3.09,3.91s3.09-1.66,3.09-3.95c0-1.72-.86-3.91-3.04-3.91s-3.13,2.02-3.13,3.95Z"/><path d="m585.77,89.9c0-1.05-.02-1.91-.08-2.75h1.64l.11,1.68h.04c.5-.97,1.68-1.91,3.36-1.91,1.41,0,3.59.84,3.59,4.33v6.07h-1.85v-5.86c0-1.64-.61-3-2.35-3-1.22,0-2.16.86-2.48,1.89-.08.23-.13.55-.13.86v6.11h-1.85v-7.41Z"/><path d="m506.58,120.29c.82.5,2.02.92,3.28.92,1.87,0,2.96-.99,2.96-2.42,0-1.32-.76-2.08-2.67-2.81-2.31-.82-3.74-2.02-3.74-4.01,0-2.21,1.83-3.84,4.58-3.84,1.45,0,2.5.34,3.13.69l-.5,1.49c-.46-.25-1.41-.67-2.69-.67-1.93,0-2.67,1.16-2.67,2.12,0,1.32.86,1.97,2.81,2.73,2.39.92,3.61,2.08,3.61,4.16,0,2.18-1.62,4.07-4.96,4.07-1.37,0-2.86-.4-3.61-.9l.46-1.53Z"/><path d="m526.44,117.35c0,3.76-2.6,5.4-5.06,5.4-2.75,0-4.87-2.02-4.87-5.23,0-3.4,2.23-5.4,5.04-5.4s4.89,2.12,4.89,5.23Zm-8.06.1c0,2.23,1.28,3.91,3.09,3.91s3.09-1.66,3.09-3.95c0-1.72-.86-3.91-3.04-3.91s-3.13,2.02-3.13,3.95Z"/><path d="m537.28,119.74c0,1.05.02,1.97.08,2.77h-1.64l-.11-1.66h-.04c-.48.82-1.55,1.89-3.36,1.89-1.6,0-3.51-.88-3.51-4.45v-5.94h1.85v5.63c0,1.93.59,3.23,2.27,3.23,1.24,0,2.1-.86,2.44-1.68.1-.27.17-.61.17-.95v-6.24h1.85v7.39Z"/><path d="m540.35,115.52c0-1.2-.02-2.23-.08-3.17h1.62l.06,1.99h.08c.46-1.36,1.57-2.23,2.81-2.23.21,0,.36.02.52.06v1.74c-.19-.04-.38-.06-.63-.06-1.3,0-2.23.99-2.48,2.37-.04.25-.08.55-.08.86v5.42h-1.83v-6.99Z"/><path d="m554.25,122.14c-.48.25-1.55.59-2.92.59-3.07,0-5.06-2.08-5.06-5.19s2.14-5.4,5.46-5.4c1.09,0,2.06.27,2.56.52l-.42,1.43c-.44-.25-1.13-.48-2.14-.48-2.33,0-3.59,1.72-3.59,3.84,0,2.35,1.51,3.8,3.53,3.8,1.05,0,1.74-.27,2.27-.5l.32,1.39Z"/><path d="m557.31,117.77c.04,2.5,1.64,3.53,3.49,3.53,1.32,0,2.12-.23,2.81-.53l.32,1.32c-.65.29-1.76.63-3.38.63-3.13,0-5-2.06-5-5.12s1.81-5.48,4.77-5.48c3.32,0,4.2,2.92,4.2,4.79,0,.38-.04.67-.06.86h-7.14Zm5.42-1.32c.02-1.18-.48-3-2.56-3-1.87,0-2.69,1.72-2.83,3h5.4Z"/></g><g><g><path class="k" d="m197.41,300.58c-6.94,0-12.58-5.64-12.58-12.58s5.64-12.58,12.58-12.58,12.58,5.64,12.58,12.58-5.64,12.58-12.58,12.58Z"/><path d="m197.41,276.92c6.12,0,11.08,4.96,11.08,11.08s-4.96,11.08-11.08,11.08-11.08-4.96-11.08-11.08,4.96-11.08,11.08-11.08m0-3c-7.76,0-14.08,6.31-14.08,14.08s6.31,14.08,14.08,14.08,14.08-6.31,14.08-14.08-6.31-14.08-14.08-14.08h0Z"/></g><path d="m199.51,295.45l-.15-1.28h-.06c-.57.8-1.66,1.51-3.11,1.51-2.06,0-3.11-1.45-3.11-2.92,0-2.46,2.18-3.8,6.11-3.78v-.21c0-.84-.23-2.35-2.31-2.35-.94,0-1.93.29-2.65.76l-.42-1.22c.84-.55,2.06-.9,3.34-.9,3.11,0,3.86,2.12,3.86,4.16v3.8c0,.88.04,1.74.17,2.44h-1.68Zm-.27-5.19c-2.02-.04-4.3.31-4.3,2.29,0,1.2.8,1.76,1.74,1.76,1.32,0,2.16-.84,2.46-1.7.06-.19.1-.4.1-.59v-1.76Z"/></g><g><g><path class="k" d="m452.18,278.42c-6.94,0-12.58-5.64-12.58-12.58s5.64-12.58,12.58-12.58,12.58,5.64,12.58,12.58-5.64,12.58-12.58,12.58Z"/><path d="m452.18,254.77c6.12,0,11.08,4.96,11.08,11.08s-4.96,11.08-11.08,11.08-11.08-4.96-11.08-11.08,4.96-11.08,11.08-11.08m0-3c-7.76,0-14.08,6.31-14.08,14.08s6.31,14.08,14.08,14.08,14.08-6.31,14.08-14.08-6.31-14.08-14.08-14.08h0Z"/></g><path d="m447.65,273.3c.04-.69.08-1.72.08-2.62v-12.28h1.83v6.38h.04c.65-1.13,1.83-1.87,3.46-1.87,2.52,0,4.3,2.1,4.28,5.19,0,3.63-2.29,5.44-4.56,5.44-1.47,0-2.65-.57-3.4-1.91h-.06l-.08,1.68h-1.6Zm1.91-4.07c0,.23.04.46.08.67.36,1.28,1.43,2.16,2.77,2.16,1.93,0,3.09-1.57,3.09-3.91,0-2.04-1.05-3.78-3.02-3.78-1.26,0-2.44.86-2.81,2.27-.04.21-.1.46-.1.76v1.83Z"/></g><g><g><path class="k" d="m668.18,206.42c-6.94,0-12.58-5.64-12.58-12.58s5.64-12.58,12.58-12.58,12.58,5.64,12.58,12.58-5.64,12.58-12.58,12.58Z"/><path d="m668.18,182.77c6.12,0,11.08,4.96,11.08,11.08s-4.96,11.08-11.08,11.08-11.08-4.96-11.08-11.08,4.96-11.08,11.08-11.08m0-3c-7.76,0-14.08,6.31-14.08,14.08s6.31,14.08,14.08,14.08,14.08-6.31,14.08-14.08-6.31-14.08-14.08-14.08h0Z"/></g><path d="m672.25,200.92c-.48.25-1.55.59-2.92.59-3.07,0-5.06-2.08-5.06-5.19s2.14-5.4,5.46-5.4c1.09,0,2.06.27,2.56.52l-.42,1.43c-.44-.25-1.13-.48-2.14-.48-2.33,0-3.59,1.72-3.59,3.84,0,2.35,1.51,3.8,3.53,3.8,1.05,0,1.74-.27,2.27-.5l.31,1.39Z"/></g><g><g><path class="k" d="m790.03,272.88c-6.94,0-12.58-5.64-12.58-12.58s5.64-12.58,12.58-12.58,12.58,5.64,12.58,12.58-5.64,12.58-12.58,12.58Z"/><path d="m790.03,249.23c6.12,0,11.08,4.96,11.08,11.08s-4.96,11.08-11.08,11.08-11.08-4.96-11.08-11.08,4.96-11.08,11.08-11.08m0-3c-7.76,0-14.08,6.31-14.08,14.08s6.31,14.08,14.08,14.08,14.08-6.31,14.08-14.08-6.31-14.08-14.08-14.08h0Z"/></g><path d="m794.41,252.86v12.28c0,.9.02,1.93.08,2.62h-1.66l-.08-1.76h-.04c-.57,1.13-1.81,2-3.46,2-2.46,0-4.35-2.08-4.35-5.17-.02-3.38,2.08-5.46,4.56-5.46,1.55,0,2.6.73,3.07,1.55h.04v-6.07h1.85Zm-1.85,8.88c0-.23-.02-.55-.08-.78-.27-1.18-1.28-2.14-2.67-2.14-1.91,0-3.04,1.68-3.04,3.93,0,2.06,1.01,3.76,3,3.76,1.24,0,2.37-.82,2.71-2.2.06-.25.08-.5.08-.8v-1.76Z"/></g><g><g><rect class="k" x="503.53" y="200.88" width="141" height="69"/><path d="m643.03,202.38v66h-138v-66h138m3-3h-144v72h144v-72h0Z"/></g><g><path d="m522.54,230.24l-3.59-14.15h1.93l1.68,7.16c.42,1.76.8,3.53,1.05,4.89h.04c.23-1.41.67-3.09,1.16-4.91l1.89-7.14h1.91l1.72,7.18c.4,1.68.78,3.36.99,4.85h.04c.29-1.55.69-3.13,1.13-4.89l1.87-7.14h1.87l-4.01,14.15h-1.91l-1.78-7.37c-.44-1.8-.74-3.19-.92-4.62h-.04c-.25,1.41-.57,2.79-1.09,4.62l-2.02,7.37h-1.91Z"/><path d="m538.27,225.49c.04,2.5,1.64,3.53,3.49,3.53,1.32,0,2.12-.23,2.81-.53l.31,1.32c-.65.29-1.76.63-3.38.63-3.13,0-5-2.06-5-5.12s1.81-5.48,4.77-5.48c3.32,0,4.2,2.92,4.2,4.79,0,.38-.04.67-.06.86h-7.14Zm5.42-1.32c.02-1.18-.48-3-2.56-3-1.87,0-2.69,1.72-2.83,3h5.4Z"/><path d="m547.68,230.24c.04-.69.08-1.72.08-2.62v-12.28h1.83v6.38h.04c.65-1.13,1.83-1.87,3.46-1.87,2.52,0,4.3,2.1,4.28,5.19,0,3.63-2.29,5.44-4.56,5.44-1.47,0-2.65-.57-3.4-1.91h-.06l-.08,1.68h-1.6Zm1.91-4.07c0,.23.04.46.08.67.36,1.28,1.43,2.16,2.77,2.16,1.93,0,3.09-1.57,3.09-3.9,0-2.04-1.05-3.78-3.02-3.78-1.26,0-2.44.86-2.81,2.27-.04.21-.11.46-.11.76v1.83Z"/><path d="m522.52,250.99l-1.47,4.45h-1.89l4.81-14.15h2.2l4.83,14.15h-1.95l-1.51-4.45h-5.02Zm4.64-1.43l-1.39-4.07c-.31-.92-.52-1.76-.73-2.58h-.04c-.21.84-.44,1.7-.71,2.56l-1.39,4.09h4.26Z"/><path d="m532.96,248.59c0-1.3-.04-2.35-.08-3.32h1.66l.08,1.74h.04c.76-1.24,1.95-1.97,3.61-1.97,2.46,0,4.3,2.08,4.3,5.17,0,3.65-2.23,5.46-4.62,5.46-1.34,0-2.52-.59-3.13-1.6h-.04v5.52h-1.83v-11Zm1.83,2.71c0,.27.04.53.08.76.34,1.28,1.45,2.16,2.77,2.16,1.95,0,3.09-1.6,3.09-3.93,0-2.04-1.07-3.78-3.02-3.78-1.26,0-2.44.9-2.79,2.29-.06.23-.13.5-.13.76v1.74Z"/><path d="m544.91,248.59c0-1.3-.04-2.35-.08-3.32h1.66l.08,1.74h.04c.76-1.24,1.95-1.97,3.61-1.97,2.46,0,4.3,2.08,4.3,5.17,0,3.65-2.22,5.46-4.62,5.46-1.34,0-2.52-.59-3.13-1.6h-.04v5.52h-1.83v-11Zm1.83,2.71c0,.27.04.53.08.76.34,1.28,1.45,2.16,2.77,2.16,1.95,0,3.09-1.6,3.09-3.93,0-2.04-1.07-3.78-3.02-3.78-1.26,0-2.44.9-2.79,2.29-.06.23-.13.5-.13.76v1.74Z"/></g><g><ellipse class="j" cx="615.56" cy="216" rx="19.38" ry="5.54"/><path class="j" d="m634.95,227.08c0,3.06-8.68,5.54-19.38,5.54s-19.38-2.48-19.38-5.54v-11.08c0,3.06,8.68,5.54,19.38,5.54s19.38-2.48,19.38-5.54v11.08Z"/></g><g><path d="m602.43,238.62h1.13v7.81h3.74v.95h-4.88v-8.76Z"/><path d="m614.04,244.19c0,2.33-1.61,3.34-3.13,3.34-1.7,0-3.02-1.25-3.02-3.24,0-2.11,1.38-3.34,3.12-3.34s3.03,1.31,3.03,3.24Zm-4.99.07c0,1.38.79,2.42,1.91,2.42s1.91-1.03,1.91-2.44c0-1.07-.53-2.42-1.89-2.42s-1.94,1.25-1.94,2.44Z"/><path d="m619.97,247.15c-.3.16-.96.36-1.81.36-1.9,0-3.13-1.29-3.13-3.21s1.33-3.34,3.38-3.34c.68,0,1.27.17,1.59.32l-.26.88c-.27-.16-.7-.3-1.33-.3-1.44,0-2.22,1.07-2.22,2.38,0,1.46.94,2.35,2.18,2.35.65,0,1.08-.17,1.4-.31l.2.86Z"/><path d="m624.79,247.38l-.09-.79h-.04c-.35.49-1.03.94-1.92.94-1.27,0-1.92-.9-1.92-1.81,0-1.52,1.35-2.35,3.78-2.34v-.13c0-.52-.14-1.46-1.43-1.46-.58,0-1.2.18-1.64.47l-.26-.75c.52-.34,1.27-.56,2.07-.56,1.92,0,2.39,1.31,2.39,2.57v2.35c0,.55.03,1.08.1,1.51h-1.04Zm-.17-3.21c-1.25-.03-2.67.2-2.67,1.42,0,.74.49,1.09,1.08,1.09.82,0,1.34-.52,1.52-1.05.04-.12.07-.25.07-.36v-1.09Z"/><path d="m627.57,238.15h1.14v9.23h-1.14v-9.23Z"/><path d="m606.04,262.7c-.42.21-1.25.42-2.31.42-2.47,0-4.33-1.56-4.33-4.43s1.86-4.6,4.58-4.6c1.09,0,1.78.23,2.08.39l-.27.92c-.43-.21-1.04-.36-1.77-.36-2.05,0-3.42,1.31-3.42,3.61,0,2.14,1.24,3.52,3.37,3.52.69,0,1.39-.14,1.85-.36l.23.9Z"/><path d="m610.81,262.98l-.09-.79h-.04c-.35.49-1.03.94-1.92.94-1.27,0-1.92-.9-1.92-1.81,0-1.52,1.35-2.35,3.78-2.34v-.13c0-.52-.14-1.46-1.43-1.46-.58,0-1.2.18-1.64.47l-.26-.75c.52-.34,1.27-.56,2.07-.56,1.92,0,2.39,1.31,2.39,2.57v2.35c0,.55.03,1.08.1,1.51h-1.04Zm-.17-3.21c-1.25-.03-2.67.19-2.67,1.42,0,.74.49,1.09,1.08,1.09.82,0,1.34-.52,1.52-1.05.04-.12.07-.25.07-.36v-1.09Z"/><path d="m618.08,262.75c-.3.16-.96.36-1.81.36-1.9,0-3.13-1.29-3.13-3.21s1.33-3.34,3.38-3.34c.68,0,1.27.17,1.59.32l-.26.88c-.27-.16-.7-.3-1.33-.3-1.44,0-2.22,1.07-2.22,2.38,0,1.46.94,2.35,2.18,2.35.65,0,1.08-.17,1.4-.31l.2.86Z"/><path d="m619.42,253.75h1.14v3.93h.03c.18-.33.47-.61.82-.81.34-.2.74-.33,1.17-.33.84,0,2.2.52,2.2,2.69v3.74h-1.14v-3.61c0-1.01-.38-1.87-1.46-1.87-.74,0-1.33.52-1.53,1.14-.06.16-.08.32-.08.55v3.8h-1.14v-9.23Z"/><path d="m627.27,260.05c.03,1.55,1.01,2.18,2.16,2.18.82,0,1.31-.14,1.74-.33l.2.82c-.4.18-1.09.39-2.09.39-1.94,0-3.09-1.27-3.09-3.17s1.12-3.39,2.95-3.39c2.05,0,2.6,1.81,2.6,2.96,0,.23-.03.42-.04.53h-4.42Zm3.35-.82c.01-.73-.3-1.86-1.59-1.86-1.16,0-1.66,1.07-1.76,1.86h3.34Z"/></g></g><g><g><rect class="k" x="503.53" y="278.42" width="141" height="69"/><path d="m643.03,279.92v66h-138v-66h138m3-3h-144v72h144v-72h0Z"/></g><g><path d="m522.54,307.78l-3.59-14.15h1.93l1.68,7.16c.42,1.76.8,3.53,1.05,4.89h.04c.23-1.41.67-3.09,1.16-4.91l1.89-7.14h1.91l1.72,7.18c.4,1.68.78,3.36.99,4.85h.04c.29-1.55.69-3.13,1.13-4.89l1.87-7.14h1.87l-4.01,14.15h-1.91l-1.78-7.37c-.44-1.81-.74-3.19-.92-4.62h-.04c-.25,1.41-.57,2.79-1.09,4.62l-2.02,7.37h-1.91Z"/><path d="m538.27,303.03c.04,2.5,1.64,3.53,3.49,3.53,1.32,0,2.12-.23,2.81-.52l.31,1.32c-.65.29-1.76.63-3.38.63-3.13,0-5-2.06-5-5.12s1.81-5.48,4.77-5.48c3.32,0,4.2,2.92,4.2,4.79,0,.38-.04.67-.06.86h-7.14Zm5.42-1.32c.02-1.18-.48-3-2.56-3-1.87,0-2.69,1.72-2.83,3h5.4Z"/><path d="m547.68,307.78c.04-.69.08-1.72.08-2.62v-12.28h1.83v6.38h.04c.65-1.13,1.83-1.87,3.46-1.87,2.52,0,4.3,2.1,4.28,5.19,0,3.63-2.29,5.44-4.56,5.44-1.47,0-2.65-.57-3.4-1.91h-.06l-.08,1.68h-1.6Zm1.91-4.07c0,.23.04.46.08.67.36,1.28,1.43,2.16,2.77,2.16,1.93,0,3.09-1.58,3.09-3.91,0-2.04-1.05-3.78-3.02-3.78-1.26,0-2.44.86-2.81,2.27-.04.21-.11.46-.11.76v1.83Z"/><path d="m522.52,328.53l-1.47,4.45h-1.89l4.81-14.15h2.2l4.83,14.15h-1.95l-1.51-4.45h-5.02Zm4.64-1.43l-1.39-4.07c-.31-.92-.52-1.76-.73-2.58h-.04c-.21.84-.44,1.7-.71,2.56l-1.39,4.09h4.26Z"/><path d="m532.96,326.13c0-1.3-.04-2.35-.08-3.32h1.66l.08,1.74h.04c.76-1.24,1.95-1.97,3.61-1.97,2.46,0,4.3,2.08,4.3,5.17,0,3.65-2.23,5.46-4.62,5.46-1.34,0-2.52-.59-3.13-1.6h-.04v5.52h-1.83v-11Zm1.83,2.71c0,.27.04.53.08.76.34,1.28,1.45,2.16,2.77,2.16,1.95,0,3.09-1.6,3.09-3.93,0-2.04-1.07-3.78-3.02-3.78-1.26,0-2.44.9-2.79,2.29-.06.23-.13.5-.13.76v1.74Z"/><path d="m544.91,326.13c0-1.3-.04-2.35-.08-3.32h1.66l.08,1.74h.04c.76-1.24,1.95-1.97,3.61-1.97,2.46,0,4.3,2.08,4.3,5.17,0,3.65-2.22,5.46-4.62,5.46-1.34,0-2.52-.59-3.13-1.6h-.04v5.52h-1.83v-11Zm1.83,2.71c0,.27.04.53.08.76.34,1.28,1.45,2.16,2.77,2.16,1.95,0,3.09-1.6,3.09-3.93,0-2.04-1.07-3.78-3.02-3.78-1.26,0-2.44.9-2.79,2.29-.06.23-.13.5-.13.76v1.74Z"/></g><g><ellipse class="j" cx="615.56" cy="293.54" rx="19.38" ry="5.54"/><path class="j" d="m634.95,304.62c0,3.06-8.68,5.54-19.38,5.54s-19.38-2.48-19.38-5.54v-11.08c0,3.06,8.68,5.54,19.38,5.54s19.38-2.48,19.38-5.54v11.08Z"/></g><g><path d="m602.43,316.16h1.13v7.81h3.74v.95h-4.88v-8.76Z"/><path d="m614.04,321.72c0,2.33-1.61,3.34-3.13,3.34-1.7,0-3.02-1.25-3.02-3.24,0-2.11,1.38-3.34,3.12-3.34s3.03,1.31,3.03,3.24Zm-4.99.07c0,1.38.79,2.42,1.91,2.42s1.91-1.03,1.91-2.44c0-1.07-.53-2.42-1.89-2.42s-1.94,1.25-1.94,2.44Z"/><path d="m619.97,324.69c-.3.16-.96.36-1.81.36-1.9,0-3.13-1.29-3.13-3.21s1.33-3.34,3.38-3.34c.68,0,1.27.17,1.59.32l-.26.88c-.27-.16-.7-.3-1.33-.3-1.44,0-2.22,1.07-2.22,2.38,0,1.46.94,2.35,2.18,2.35.65,0,1.08-.17,1.4-.31l.2.86Z"/><path d="m624.79,324.92l-.09-.79h-.04c-.35.49-1.03.94-1.92.94-1.27,0-1.92-.9-1.92-1.81,0-1.52,1.35-2.35,3.78-2.34v-.13c0-.52-.14-1.46-1.43-1.46-.58,0-1.2.18-1.64.47l-.26-.75c.52-.34,1.27-.56,2.07-.56,1.92,0,2.39,1.31,2.39,2.57v2.35c0,.55.03,1.08.1,1.51h-1.04Zm-.17-3.21c-1.25-.03-2.67.2-2.67,1.42,0,.74.49,1.09,1.08,1.09.82,0,1.34-.52,1.52-1.05.04-.12.07-.25.07-.36v-1.09Z"/><path d="m627.57,315.69h1.14v9.23h-1.14v-9.23Z"/><path d="m606.04,340.24c-.42.21-1.25.42-2.31.42-2.47,0-4.33-1.56-4.33-4.43s1.86-4.6,4.58-4.6c1.09,0,1.78.23,2.08.39l-.27.92c-.43-.21-1.04-.36-1.77-.36-2.05,0-3.42,1.31-3.42,3.61,0,2.14,1.24,3.52,3.37,3.52.69,0,1.39-.14,1.85-.36l.23.9Z"/><path d="m610.81,340.52l-.09-.79h-.04c-.35.49-1.03.94-1.92.94-1.27,0-1.92-.9-1.92-1.81,0-1.52,1.35-2.35,3.78-2.34v-.13c0-.52-.14-1.46-1.43-1.46-.58,0-1.2.18-1.64.47l-.26-.75c.52-.34,1.27-.56,2.07-.56,1.92,0,2.39,1.31,2.39,2.57v2.35c0,.55.03,1.08.1,1.51h-1.04Zm-.17-3.21c-1.25-.03-2.67.19-2.67,1.42,0,.74.49,1.09,1.08,1.09.82,0,1.34-.52,1.52-1.05.04-.12.07-.25.07-.36v-1.09Z"/><path d="m618.08,340.29c-.3.16-.96.36-1.81.36-1.9,0-3.13-1.29-3.13-3.21s1.33-3.34,3.38-3.34c.68,0,1.27.17,1.59.32l-.26.88c-.27-.16-.7-.3-1.33-.3-1.44,0-2.22,1.07-2.22,2.38,0,1.46.94,2.35,2.18,2.35.65,0,1.08-.17,1.4-.31l.2.86Z"/><path d="m619.42,331.29h1.14v3.93h.03c.18-.33.47-.61.82-.81.34-.2.74-.33,1.17-.33.84,0,2.2.52,2.2,2.69v3.74h-1.14v-3.61c0-1.01-.38-1.87-1.46-1.87-.74,0-1.33.52-1.53,1.14-.06.16-.08.32-.08.55v3.8h-1.14v-9.23Z"/><path d="m627.27,337.58c.03,1.55,1.01,2.18,2.16,2.18.82,0,1.31-.14,1.74-.33l.2.82c-.4.18-1.09.39-2.09.39-1.94,0-3.09-1.27-3.09-3.17s1.12-3.39,2.95-3.39c2.05,0,2.6,1.81,2.6,2.96,0,.23-.03.42-.04.53h-4.42Zm3.35-.82c.01-.73-.3-1.86-1.59-1.86-1.16,0-1.66,1.07-1.76,1.86h3.34Z"/></g></g><g><g><rect class="k" x="503.53" y="355.96" width="141" height="69"/><path d="m643.03,357.46v66h-138v-66h138m3-3h-144v72h144v-72h0Z"/></g><g><path d="m522.54,385.32l-3.59-14.15h1.93l1.68,7.16c.42,1.76.8,3.53,1.05,4.89h.04c.23-1.41.67-3.09,1.16-4.91l1.89-7.14h1.91l1.72,7.18c.4,1.68.78,3.36.99,4.85h.04c.29-1.55.69-3.13,1.13-4.89l1.87-7.14h1.87l-4.01,14.15h-1.91l-1.78-7.37c-.44-1.81-.74-3.19-.92-4.62h-.04c-.25,1.41-.57,2.79-1.09,4.62l-2.02,7.37h-1.91Z"/><path d="m538.27,380.57c.04,2.5,1.64,3.53,3.49,3.53,1.32,0,2.12-.23,2.81-.53l.31,1.32c-.65.29-1.76.63-3.38.63-3.13,0-5-2.06-5-5.12s1.81-5.48,4.77-5.48c3.32,0,4.2,2.92,4.2,4.79,0,.38-.04.67-.06.86h-7.14Zm5.42-1.32c.02-1.18-.48-3-2.56-3-1.87,0-2.69,1.72-2.83,3h5.4Z"/><path d="m547.68,385.32c.04-.69.08-1.72.08-2.62v-12.28h1.83v6.38h.04c.65-1.13,1.83-1.87,3.46-1.87,2.52,0,4.3,2.1,4.28,5.19,0,3.63-2.29,5.44-4.56,5.44-1.47,0-2.65-.57-3.4-1.91h-.06l-.08,1.68h-1.6Zm1.91-4.07c0,.23.04.46.08.67.36,1.28,1.43,2.16,2.77,2.16,1.93,0,3.09-1.57,3.09-3.91,0-2.04-1.05-3.78-3.02-3.78-1.26,0-2.44.86-2.81,2.27-.04.21-.11.46-.11.76v1.83Z"/><path d="m522.52,406.06l-1.47,4.45h-1.89l4.81-14.15h2.2l4.83,14.15h-1.95l-1.51-4.45h-5.02Zm4.64-1.43l-1.39-4.07c-.31-.92-.52-1.76-.73-2.58h-.04c-.21.84-.44,1.7-.71,2.56l-1.39,4.09h4.26Z"/><path d="m532.96,403.67c0-1.3-.04-2.35-.08-3.32h1.66l.08,1.74h.04c.76-1.24,1.95-1.97,3.61-1.97,2.46,0,4.3,2.08,4.3,5.17,0,3.65-2.23,5.46-4.62,5.46-1.34,0-2.52-.59-3.13-1.6h-.04v5.52h-1.83v-11Zm1.83,2.71c0,.27.04.52.08.76.34,1.28,1.45,2.16,2.77,2.16,1.95,0,3.09-1.6,3.09-3.93,0-2.04-1.07-3.78-3.02-3.78-1.26,0-2.44.9-2.79,2.29-.06.23-.13.5-.13.76v1.74Z"/><path d="m544.91,403.67c0-1.3-.04-2.35-.08-3.32h1.66l.08,1.74h.04c.76-1.24,1.95-1.97,3.61-1.97,2.46,0,4.3,2.08,4.3,5.17,0,3.65-2.22,5.46-4.62,5.46-1.34,0-2.52-.59-3.13-1.6h-.04v5.52h-1.83v-11Zm1.83,2.71c0,.27.04.52.08.76.34,1.28,1.45,2.16,2.77,2.16,1.95,0,3.09-1.6,3.09-3.93,0-2.04-1.07-3.78-3.02-3.78-1.26,0-2.44.9-2.79,2.29-.06.23-.13.5-.13.76v1.74Z"/></g><g><ellipse class="j" cx="615.56" cy="371.08" rx="19.38" ry="5.54"/><path class="j" d="m634.95,382.15c0,3.06-8.68,5.54-19.38,5.54s-19.38-2.48-19.38-5.54v-11.08c0,3.06,8.68,5.54,19.38,5.54s19.38-2.48,19.38-5.54v11.08Z"/></g><g><path d="m602.43,393.7h1.13v7.81h3.74v.95h-4.88v-8.76Z"/><path d="m614.04,399.26c0,2.33-1.61,3.34-3.13,3.34-1.7,0-3.02-1.25-3.02-3.24,0-2.11,1.38-3.34,3.12-3.34s3.03,1.31,3.03,3.24Zm-4.99.07c0,1.38.79,2.42,1.91,2.42s1.91-1.03,1.91-2.44c0-1.07-.53-2.42-1.89-2.42s-1.94,1.25-1.94,2.44Z"/><path d="m619.97,402.23c-.3.16-.96.36-1.81.36-1.9,0-3.13-1.29-3.13-3.21s1.33-3.34,3.38-3.34c.68,0,1.27.17,1.59.32l-.26.88c-.27-.16-.7-.3-1.33-.3-1.44,0-2.22,1.07-2.22,2.38,0,1.46.94,2.35,2.18,2.35.65,0,1.08-.17,1.4-.31l.2.86Z"/><path d="m624.79,402.46l-.09-.79h-.04c-.35.49-1.03.94-1.92.94-1.27,0-1.92-.9-1.92-1.81,0-1.52,1.35-2.35,3.78-2.34v-.13c0-.52-.14-1.46-1.43-1.46-.58,0-1.2.18-1.64.47l-.26-.75c.52-.34,1.27-.56,2.07-.56,1.92,0,2.39,1.31,2.39,2.57v2.35c0,.55.03,1.08.1,1.51h-1.04Zm-.17-3.21c-1.25-.03-2.67.2-2.67,1.42,0,.74.49,1.09,1.08,1.09.82,0,1.34-.52,1.52-1.05.04-.12.07-.25.07-.36v-1.09Z"/><path d="m627.57,393.23h1.14v9.23h-1.14v-9.23Z"/><path d="m606.04,417.78c-.42.21-1.25.42-2.31.42-2.47,0-4.33-1.56-4.33-4.43s1.86-4.6,4.58-4.6c1.09,0,1.78.23,2.08.39l-.27.92c-.43-.21-1.04-.36-1.77-.36-2.05,0-3.42,1.31-3.42,3.61,0,2.14,1.24,3.52,3.37,3.52.69,0,1.39-.14,1.85-.36l.23.9Z"/><path d="m610.81,418.06l-.09-.79h-.04c-.35.49-1.03.94-1.92.94-1.27,0-1.92-.9-1.92-1.81,0-1.52,1.35-2.35,3.78-2.34v-.13c0-.52-.14-1.46-1.43-1.46-.58,0-1.2.18-1.64.47l-.26-.75c.52-.34,1.27-.56,2.07-.56,1.92,0,2.39,1.31,2.39,2.57v2.35c0,.55.03,1.08.1,1.51h-1.04Zm-.17-3.21c-1.25-.03-2.67.19-2.67,1.42,0,.74.49,1.09,1.08,1.09.82,0,1.34-.52,1.52-1.05.04-.12.07-.25.07-.36v-1.09Z"/><path d="m618.08,417.83c-.3.16-.96.36-1.81.36-1.9,0-3.13-1.29-3.13-3.21s1.33-3.34,3.38-3.34c.68,0,1.27.17,1.59.32l-.26.88c-.27-.16-.7-.3-1.33-.3-1.44,0-2.22,1.07-2.22,2.38,0,1.46.94,2.35,2.18,2.35.65,0,1.08-.17,1.4-.31l.2.86Z"/><path d="m619.42,408.83h1.14v3.93h.03c.18-.33.47-.61.82-.81.34-.2.74-.33,1.17-.33.84,0,2.2.52,2.2,2.69v3.74h-1.14v-3.61c0-1.01-.38-1.87-1.46-1.87-.74,0-1.33.52-1.53,1.14-.06.16-.08.32-.08.55v3.8h-1.14v-9.23Z"/><path d="m627.27,415.12c.03,1.55,1.01,2.18,2.16,2.18.82,0,1.31-.14,1.74-.33l.2.82c-.4.18-1.09.39-2.09.39-1.94,0-3.09-1.27-3.09-3.17s1.12-3.39,2.95-3.39c2.05,0,2.6,1.81,2.6,2.96,0,.23-.03.42-.04.53h-4.42Zm3.35-.82c.01-.73-.3-1.86-1.59-1.86-1.16,0-1.66,1.07-1.76,1.86h3.34Z"/></g></g><g><path class="e" d="m634.95,221.54h43.38c6.6,0,12-5.4,12-12v-25.44"/><polygon points="694.4 186.87 690.33 171.69 686.27 186.87 694.4 186.87"/></g><g><path class="e" d="m634.95,299.08h43.38c6.6,0,12-5.4,12-12v-102.98"/><polygon points="694.4 186.87 690.33 171.69 686.27 186.87 694.4 186.87"/></g><g><path class="e" d="m634.95,376.62h43.38c6.6,0,12-5.4,12-12v-180.52"/><polygon points="694.4 186.87 690.33 171.69 686.27 186.87 694.4 186.87"/></g></svg>