<?xml version="1.0" encoding="UTF-8"?><svg id="a" xmlns="http://www.w3.org/2000/svg" viewBox="0 0 581.54 396"><defs><style>.b,.c{fill:#fff;}.b,.d,.e,.f{stroke:#000;stroke-miterlimit:10;}.b,.f{stroke-width:1.35px;}.d{fill:none;stroke-width:2px;}.e{stroke-width:1.3px;}.e,.f{fill:#e6e6e6;}</style></defs><rect class="c" width="581.54" height="396"/><g><path d="m78.13,163.35c.43.26,1.06.48,1.72.48.98,0,1.55-.52,1.55-1.27,0-.69-.4-1.09-1.4-1.47-1.21-.43-1.96-1.06-1.96-2.1,0-1.16.96-2.01,2.4-2.01.76,0,1.31.18,1.64.36l-.26.78c-.24-.13-.74-.35-1.41-.35-1.01,0-1.4.61-1.4,1.11,0,.69.45,1.03,1.47,1.43,1.25.48,1.89,1.09,1.89,2.18,0,1.14-.85,2.13-2.6,2.13-.71,0-1.5-.21-1.89-.47l.24-.8Z"/><path d="m84.78,157.67v1.53h1.39v.74h-1.39v2.87c0,.66.19,1.03.73,1.03.25,0,.44-.03.56-.07l.04.73c-.19.08-.48.13-.86.13-.45,0-.81-.14-1.04-.41-.28-.29-.37-.76-.37-1.39v-2.9h-.83v-.74h.83v-1.28l.95-.25Z"/><path d="m90.21,164.52l-.08-.67h-.03c-.3.42-.87.79-1.63.79-1.08,0-1.63-.76-1.63-1.53,0-1.29,1.14-1.99,3.2-1.98v-.11c0-.44-.12-1.23-1.21-1.23-.5,0-1.01.15-1.39.4l-.22-.64c.44-.29,1.08-.47,1.75-.47,1.63,0,2.02,1.11,2.02,2.18v1.99c0,.46.02.91.09,1.28h-.88Zm-.14-2.72c-1.06-.02-2.25.17-2.25,1.2,0,.63.42.92.91.92.69,0,1.13-.44,1.29-.89.03-.1.05-.21.05-.31v-.92Z"/><path d="m93.68,157.67v1.53h1.39v.74h-1.39v2.87c0,.66.19,1.03.73,1.03.25,0,.44-.03.56-.07l.04.73c-.19.08-.48.13-.86.13-.45,0-.81-.14-1.04-.41-.28-.29-.37-.76-.37-1.39v-2.9h-.83v-.74h.83v-1.28l.95-.25Z"/><path d="m96.63,162.03c.02,1.31.86,1.85,1.83,1.85.69,0,1.11-.12,1.47-.28l.17.69c-.34.15-.92.33-1.77.33-1.64,0-2.62-1.08-2.62-2.68s.95-2.87,2.5-2.87c1.74,0,2.2,1.53,2.2,2.51,0,.2-.02.35-.03.45h-3.74Zm2.84-.69c.01-.62-.25-1.57-1.34-1.57-.98,0-1.41.9-1.49,1.57h2.83Z"/><path d="m103.8,163.53c.29.19.79.38,1.28.38.7,0,1.03-.35,1.03-.79s-.28-.71-.99-.98c-.96-.34-1.41-.87-1.41-1.51,0-.86.69-1.56,1.84-1.56.54,0,1.01.15,1.31.33l-.24.7c-.21-.13-.59-.31-1.09-.31-.57,0-.89.33-.89.73,0,.44.32.64,1.01.9.92.35,1.4.81,1.4,1.61,0,.94-.73,1.6-1.99,1.6-.58,0-1.12-.14-1.5-.36l.24-.74Z"/><path d="m108.29,160.64c0-.55-.01-1-.04-1.44h.86l.05.88h.02c.26-.51.88-1,1.76-1,.74,0,1.88.44,1.88,2.27v3.18h-.97v-3.07c0-.86-.32-1.57-1.23-1.57-.64,0-1.13.45-1.3.99-.04.12-.07.29-.07.45v3.2h-.97v-3.88Z"/><path d="m117.34,164.52l-.08-.67h-.03c-.3.42-.87.79-1.63.79-1.08,0-1.63-.76-1.63-1.53,0-1.29,1.14-1.99,3.2-1.98v-.11c0-.44-.12-1.23-1.21-1.23-.5,0-1.01.15-1.39.4l-.22-.64c.44-.29,1.08-.47,1.75-.47,1.63,0,2.02,1.11,2.02,2.18v1.99c0,.46.02.91.09,1.28h-.88Zm-.14-2.72c-1.06-.02-2.25.17-2.25,1.2,0,.63.42.92.91.92.69,0,1.13-.44,1.29-.89.03-.1.05-.21.05-.31v-.92Z"/><path d="m119.7,160.93c0-.68-.02-1.23-.04-1.74h.87l.04.91h.02c.4-.65,1.02-1.03,1.89-1.03,1.29,0,2.25,1.09,2.25,2.71,0,1.91-1.17,2.86-2.42,2.86-.7,0-1.32-.31-1.64-.84h-.02v2.89h-.96v-5.77Zm.96,1.42c0,.14.02.27.04.4.18.67.76,1.13,1.45,1.13,1.02,0,1.62-.84,1.62-2.06,0-1.07-.56-1.98-1.58-1.98-.66,0-1.28.47-1.46,1.2-.03.12-.07.26-.07.4v.91Z"/><path d="m125.82,163.53c.29.19.79.38,1.28.38.7,0,1.03-.35,1.03-.79s-.28-.71-.99-.98c-.96-.34-1.41-.87-1.41-1.51,0-.86.69-1.56,1.84-1.56.54,0,1.01.15,1.31.33l-.24.7c-.21-.13-.59-.31-1.09-.31-.57,0-.89.33-.89.73,0,.44.32.64,1.01.9.92.35,1.4.81,1.4,1.61,0,.94-.73,1.6-1.99,1.6-.58,0-1.12-.14-1.5-.36l.24-.74Z"/><path d="m130.31,156.71h.97v3.32h.02c.15-.28.4-.52.69-.68.29-.17.63-.27.99-.27.71,0,1.86.44,1.86,2.28v3.17h-.97v-3.06c0-.86-.32-1.58-1.23-1.58-.63,0-1.12.44-1.3.97-.05.13-.07.28-.07.46v3.21h-.97v-7.81Z"/><path d="m141.23,161.81c0,1.97-1.36,2.83-2.65,2.83-1.44,0-2.55-1.06-2.55-2.74,0-1.78,1.17-2.83,2.64-2.83s2.56,1.11,2.56,2.74Zm-4.22.05c0,1.17.67,2.05,1.62,2.05s1.62-.87,1.62-2.07c0-.9-.45-2.05-1.6-2.05s-1.64,1.06-1.64,2.07Z"/><path d="m143.62,157.67v1.53h1.39v.74h-1.39v2.87c0,.66.19,1.03.73,1.03.25,0,.44-.03.56-.07l.04.73c-.19.08-.48.13-.86.13-.45,0-.81-.14-1.04-.41-.28-.29-.37-.76-.37-1.39v-2.9h-.83v-.74h.83v-1.28l.95-.25Z"/><path d="m145.96,163.53c.29.19.79.38,1.28.38.7,0,1.03-.35,1.03-.79s-.28-.71-.99-.98c-.96-.34-1.41-.87-1.41-1.51,0-.86.69-1.56,1.84-1.56.54,0,1.01.15,1.31.33l-.24.7c-.21-.13-.59-.31-1.09-.31-.57,0-.89.33-.89.73,0,.44.32.64,1.01.9.92.35,1.4.81,1.4,1.61,0,.94-.73,1.6-1.99,1.6-.58,0-1.12-.14-1.5-.36l.24-.74Z"/></g><rect class="e" x="224.31" y="210.46" width="343.38" height="83.08"/><g><g><polygon class="c" points="242.42 388.96 242.42 319.96 289.27 319.96 289.27 373.22 273.53 388.96 242.42 388.96"/><path d="m287.77,321.46v51.14l-14.86,14.86h-28.99v-66h43.85m3-3h-49.85v72h33.23l16.62-16.62v-55.38h0Z"/></g><polygon points="290.77 371.08 274.15 371.08 271.38 371.08 271.38 373.85 271.38 390.46 274.15 390.46 274.15 373.85 290.77 373.85 290.77 371.08"/></g><g><g><rect class="c" x="250.01" y="236.17" width="31.67" height="34.43"/><path d="m280.9,236.95v32.87h-30.1v-32.87h30.1m1.57-1.57h-33.23v36h33.23v-36h0Z"/></g><g><path d="m259.23,260.13v-7.92h-1.29v-1.27h1.29v-.44c0-1.29.29-2.47,1.06-3.21.63-.61,1.46-.86,2.24-.86.59,0,1.1.13,1.42.27l-.23,1.29c-.25-.11-.59-.21-1.06-.21-1.43,0-1.79,1.25-1.79,2.66v.49h2.22v1.27h-2.22v7.92h-1.65Z"/><path d="m268.24,246.95c-1.39,1.86-2.39,4.33-2.39,7.77s1.04,5.81,2.39,7.71h-1.31c-1.2-1.58-2.49-4.01-2.49-7.71.02-3.74,1.29-6.17,2.49-7.77h1.31Z"/><path d="m269,262.43c1.35-1.88,2.39-4.35,2.39-7.77s-1.03-5.83-2.39-7.71h1.29c1.21,1.56,2.49,3.99,2.49,7.73s-1.27,6.14-2.49,7.75h-1.29Z"/></g></g><g><path d="m255.35,341.08c.29.19.79.38,1.28.38.7,0,1.03-.35,1.03-.79s-.28-.71-.99-.98c-.96-.34-1.41-.87-1.41-1.51,0-.86.69-1.56,1.84-1.56.54,0,1.01.15,1.31.33l-.24.7c-.21-.13-.59-.31-1.09-.31-.57,0-.89.33-.89.73,0,.44.32.64,1.01.9.92.35,1.4.81,1.4,1.61,0,.94-.73,1.6-1.99,1.6-.58,0-1.12-.14-1.5-.36l.24-.74Z"/><path d="m261,335.22v1.53h1.39v.74h-1.39v2.87c0,.66.19,1.03.73,1.03.25,0,.44-.03.56-.07l.04.73c-.19.08-.48.13-.86.13-.45,0-.81-.14-1.04-.41-.28-.29-.37-.76-.37-1.39v-2.9h-.83v-.74h.83v-1.28l.95-.25Z"/><path d="m266.42,342.07l-.08-.67h-.03c-.3.42-.87.79-1.63.79-1.08,0-1.63-.76-1.63-1.53,0-1.29,1.14-1.99,3.2-1.98v-.11c0-.44-.12-1.23-1.21-1.23-.5,0-1.01.15-1.39.4l-.22-.64c.44-.29,1.08-.47,1.75-.47,1.63,0,2.02,1.11,2.02,2.18v1.99c0,.46.02.91.09,1.28h-.88Zm-.14-2.72c-1.06-.02-2.25.17-2.25,1.2,0,.63.42.92.91.92.69,0,1.13-.44,1.29-.89.03-.1.05-.21.05-.31v-.92Z"/><path d="m269.9,335.22v1.53h1.39v.74h-1.39v2.87c0,.66.19,1.03.73,1.03.25,0,.44-.03.56-.07l.04.73c-.19.08-.48.13-.86.13-.45,0-.81-.14-1.04-.41-.28-.29-.37-.76-.37-1.39v-2.9h-.83v-.74h.83v-1.28l.95-.25Z"/><path d="m272.84,339.59c.02,1.31.86,1.85,1.83,1.85.69,0,1.11-.12,1.47-.28l.17.69c-.34.15-.92.33-1.77.33-1.64,0-2.62-1.08-2.62-2.68s.95-2.87,2.5-2.87c1.74,0,2.2,1.53,2.2,2.51,0,.2-.02.35-.03.45h-3.74Zm2.84-.69c.01-.62-.25-1.57-1.34-1.57-.98,0-1.41.9-1.49,1.57h2.83Z"/><path d="m255.67,355.27l.29-2.16h-.9v-.65h1l.21-1.59h-.95v-.65h1.04l.29-2.1h.64l-.28,2.1h1.14l.29-2.1h.65l-.27,2.1h.9v.65h-1l-.2,1.59h.95v.65h-1.04l-.29,2.16h-.66l.29-2.16h-1.14l-.29,2.16h-.66Zm2.19-2.81l.21-1.59h-1.14l-.21,1.59h1.14Z"/><path d="m260.84,354.16c.27.18.91.45,1.58.45,1.24,0,1.63-.79,1.62-1.39-.01-1-.91-1.43-1.85-1.43h-.54v-.73h.54c.7,0,1.6-.36,1.6-1.21,0-.57-.36-1.08-1.25-1.08-.57,0-1.12.25-1.43.47l-.25-.7c.37-.28,1.1-.55,1.87-.55,1.41,0,2.05.84,2.05,1.71,0,.74-.44,1.36-1.32,1.68v.02c.88.18,1.6.84,1.6,1.84,0,1.14-.89,2.15-2.61,2.15-.8,0-1.51-.25-1.86-.48l.26-.75Z"/><path d="m268.35,349.03h-.02l-1.24.67-.19-.74,1.56-.84h.83v7.15h-.93v-6.25Z"/><path d="m276.16,348.94h-2.73l-.28,1.84c.17-.02.32-.04.58-.04.55,0,1.1.12,1.54.39.56.32,1.02.93,1.02,1.84,0,1.4-1.11,2.44-2.66,2.44-.78,0-1.44-.22-1.78-.44l.24-.74c.3.18.88.4,1.53.4.91,0,1.69-.59,1.69-1.55-.01-.92-.63-1.58-2.06-1.58-.41,0-.73.04-.99.08l.46-3.43h3.42v.81Z"/></g><g><g><polygon class="c" points="242.42 200.65 242.42 131.65 289.27 131.65 289.27 184.92 273.53 200.65 242.42 200.65"/><path d="m287.77,133.15v51.14l-14.86,14.86h-28.99v-66h43.85m3-3h-49.85v72h33.23l16.62-16.62v-55.38h0Z"/></g><polygon points="290.77 182.77 274.15 182.77 271.38 182.77 271.38 185.54 271.38 202.15 274.15 202.15 274.15 185.54 290.77 185.54 290.77 182.77"/></g><g><path d="m254.23,151.28c.02,1.31.86,1.85,1.83,1.85.69,0,1.11-.12,1.47-.28l.17.69c-.34.15-.92.33-1.77.33-1.64,0-2.62-1.08-2.62-2.68s.95-2.87,2.5-2.87c1.74,0,2.2,1.53,2.2,2.51,0,.2-.02.35-.03.45h-3.74Zm2.84-.69c.01-.62-.25-1.57-1.34-1.57-.98,0-1.41.9-1.49,1.57h2.83Z"/><path d="m259.58,148.44l1.05,2.99c.18.48.32.92.43,1.36h.03c.12-.44.27-.88.45-1.36l1.03-2.99h1.01l-2.09,5.33h-.92l-2.02-5.33h1.03Z"/><path d="m264.93,151.28c.02,1.31.86,1.85,1.83,1.85.69,0,1.11-.12,1.47-.28l.17.69c-.34.15-.92.33-1.77.33-1.64,0-2.62-1.08-2.62-2.68s.95-2.87,2.5-2.87c1.74,0,2.2,1.53,2.2,2.51,0,.2-.02.35-.03.45h-3.74Zm2.84-.69c.01-.62-.25-1.57-1.34-1.57-.98,0-1.41.9-1.49,1.57h2.83Z"/><path d="m269.9,149.88c0-.55-.01-1-.04-1.44h.86l.05.88h.02c.26-.51.88-1,1.76-1,.74,0,1.88.44,1.88,2.27v3.18h-.97v-3.07c0-.86-.32-1.57-1.23-1.57-.64,0-1.13.45-1.3.99-.04.12-.07.29-.07.45v3.2h-.97v-3.88Z"/><path d="m277.12,146.91v1.53h1.39v.74h-1.39v2.87c0,.66.19,1.03.73,1.03.25,0,.44-.03.56-.07l.04.73c-.19.08-.48.13-.86.13-.45,0-.81-.14-1.04-.41-.28-.29-.37-.76-.37-1.39v-2.9h-.83v-.74h.83v-1.28l.95-.25Z"/><path d="m255.67,166.97l.29-2.16h-.9v-.65h1l.21-1.59h-.95v-.65h1.04l.29-2.1h.64l-.28,2.1h1.14l.29-2.1h.65l-.27,2.1h.9v.65h-1l-.2,1.59h.95v.65h-1.04l-.29,2.16h-.66l.29-2.16h-1.14l-.29,2.16h-.66Zm2.19-2.81l.21-1.59h-1.14l-.21,1.59h1.14Z"/><path d="m260.84,165.85c.27.18.91.45,1.58.45,1.24,0,1.63-.79,1.62-1.39-.01-1-.91-1.43-1.85-1.43h-.54v-.73h.54c.7,0,1.6-.36,1.6-1.21,0-.57-.36-1.08-1.25-1.08-.57,0-1.12.25-1.43.47l-.25-.7c.37-.28,1.1-.55,1.87-.55,1.41,0,2.05.84,2.05,1.71,0,.74-.44,1.36-1.32,1.68v.02c.88.18,1.6.84,1.6,1.84,0,1.14-.89,2.15-2.61,2.15-.8,0-1.51-.25-1.86-.48l.26-.75Z"/><path d="m268.35,160.72h-.02l-1.24.67-.19-.74,1.56-.84h.83v7.15h-.93v-6.25Z"/><path d="m276.16,160.63h-2.73l-.28,1.84c.17-.02.32-.04.58-.04.55,0,1.1.12,1.54.39.56.32,1.02.93,1.02,1.84,0,1.4-1.11,2.44-2.66,2.44-.78,0-1.44-.22-1.78-.44l.24-.74c.3.18.88.4,1.53.4.91,0,1.69-.59,1.69-1.55-.01-.92-.63-1.58-2.06-1.58-.41,0-.73.04-.99.08l.46-3.43h3.42v.81Z"/></g><g><polyline class="d" points="265.85 271.38 265.85 282.46 296.31 282.46 296.31 252 307.23 252"/><polygon points="304.1 256.59 321.23 252 304.1 247.41 304.1 256.59"/></g><g><line class="d" x1="265.85" y1="271.38" x2="265.85" y2="304.46"/><polygon points="261.26 301.33 265.85 318.46 270.44 301.33 261.26 301.33"/></g><g><line class="d" x1="265.85" y1="202.15" x2="265.85" y2="221.39"/><polygon points="261.26 218.26 265.85 235.38 270.44 218.26 261.26 218.26"/></g><g><g><polygon class="c" points="314.42 388.96 314.42 319.96 361.27 319.96 361.27 373.22 345.53 388.96 314.42 388.96"/><path d="m359.77,321.46v51.14l-14.86,14.86h-28.99v-66h43.85m3-3h-49.85v72h33.23l16.62-16.62v-55.38h0Z"/></g><polygon points="362.77 371.08 346.15 371.08 343.38 371.08 343.38 373.85 343.38 390.46 346.15 390.46 346.15 373.85 362.77 373.85 362.77 371.08"/></g><g><g><rect class="c" x="322.01" y="236.17" width="31.67" height="34.43"/><path d="m352.9,236.95v32.87h-30.1v-32.87h30.1m1.57-1.57h-33.23v36h33.23v-36h0Z"/></g><g><path d="m331.23,260.13v-7.92h-1.29v-1.27h1.29v-.44c0-1.29.29-2.47,1.06-3.21.63-.61,1.46-.86,2.24-.86.59,0,1.1.13,1.42.27l-.23,1.29c-.25-.11-.59-.21-1.06-.21-1.43,0-1.79,1.25-1.79,2.66v.49h2.22v1.27h-2.22v7.92h-1.65Z"/><path d="m340.24,246.95c-1.39,1.86-2.39,4.33-2.39,7.77s1.04,5.81,2.39,7.71h-1.31c-1.2-1.58-2.49-4.01-2.49-7.71.02-3.74,1.29-6.17,2.49-7.77h1.31Z"/><path d="m341,262.43c1.35-1.88,2.39-4.35,2.39-7.77s-1.03-5.83-2.39-7.71h1.29c1.21,1.56,2.49,3.99,2.49,7.73s-1.27,6.14-2.49,7.75h-1.29Z"/></g></g><g><path d="m327.35,341.08c.29.19.79.38,1.28.38.7,0,1.03-.35,1.03-.79s-.28-.71-.99-.98c-.96-.34-1.41-.87-1.41-1.51,0-.86.69-1.56,1.84-1.56.54,0,1.01.15,1.31.33l-.24.7c-.21-.13-.59-.31-1.09-.31-.57,0-.89.33-.89.73,0,.44.32.64,1.01.9.92.35,1.4.81,1.4,1.61,0,.94-.73,1.6-1.99,1.6-.58,0-1.12-.14-1.5-.36l.24-.74Z"/><path d="m333,335.22v1.53h1.39v.74h-1.39v2.87c0,.66.19,1.03.73,1.03.25,0,.44-.03.56-.07l.04.73c-.19.08-.48.13-.86.13-.45,0-.81-.14-1.04-.41-.28-.29-.37-.76-.37-1.39v-2.9h-.83v-.74h.83v-1.28l.95-.25Z"/><path d="m338.42,342.07l-.08-.67h-.03c-.3.42-.87.79-1.63.79-1.08,0-1.63-.76-1.63-1.53,0-1.29,1.14-1.99,3.2-1.98v-.11c0-.44-.12-1.23-1.21-1.23-.5,0-1.01.15-1.39.4l-.22-.64c.44-.29,1.08-.47,1.75-.47,1.63,0,2.02,1.11,2.02,2.18v1.99c0,.46.02.91.09,1.28h-.88Zm-.14-2.72c-1.06-.02-2.25.17-2.25,1.2,0,.63.42.92.91.92.69,0,1.13-.44,1.29-.89.03-.1.05-.21.05-.31v-.92Z"/><path d="m341.9,335.22v1.53h1.39v.74h-1.39v2.87c0,.66.19,1.03.73,1.03.25,0,.44-.03.56-.07l.04.73c-.19.08-.48.13-.86.13-.45,0-.81-.14-1.04-.41-.28-.29-.37-.76-.37-1.39v-2.9h-.83v-.74h.83v-1.28l.95-.25Z"/><path d="m344.84,339.59c.02,1.31.86,1.85,1.83,1.85.69,0,1.11-.12,1.47-.28l.17.69c-.34.15-.92.33-1.77.33-1.64,0-2.62-1.08-2.62-2.68s.95-2.87,2.5-2.87c1.74,0,2.2,1.53,2.2,2.51,0,.2-.02.35-.03.45h-3.74Zm2.84-.69c.01-.62-.25-1.57-1.34-1.57-.98,0-1.41.9-1.49,1.57h2.83Z"/><path d="m327.67,355.27l.29-2.16h-.9v-.65h1l.21-1.59h-.95v-.65h1.04l.29-2.1h.64l-.28,2.1h1.14l.29-2.1h.65l-.27,2.1h.9v.65h-1l-.2,1.59h.95v.65h-1.04l-.29,2.16h-.66l.29-2.16h-1.14l-.29,2.16h-.66Zm2.19-2.81l.21-1.59h-1.14l-.21,1.59h1.14Z"/><path d="m332.84,354.16c.27.18.91.45,1.58.45,1.24,0,1.63-.79,1.62-1.39-.01-1-.91-1.43-1.85-1.43h-.54v-.73h.54c.7,0,1.6-.36,1.6-1.21,0-.57-.36-1.08-1.25-1.08-.57,0-1.12.25-1.43.47l-.25-.7c.37-.28,1.1-.55,1.87-.55,1.41,0,2.05.84,2.05,1.71,0,.74-.44,1.36-1.32,1.68v.02c.88.18,1.6.84,1.6,1.84,0,1.14-.89,2.15-2.61,2.15-.8,0-1.51-.25-1.86-.48l.26-.75Z"/><path d="m340.35,349.03h-.02l-1.24.67-.19-.74,1.56-.84h.83v7.15h-.93v-6.25Z"/><path d="m347.98,348.81c-.2-.01-.45,0-.73.04-1.52.25-2.32,1.36-2.49,2.54h.03c.34-.45.93-.83,1.73-.83,1.27,0,2.16.91,2.16,2.31,0,1.31-.89,2.52-2.38,2.52s-2.53-1.19-2.53-3.05c0-1.41.51-2.52,1.21-3.22.59-.58,1.39-.95,2.29-1.06.29-.04.53-.05.7-.05v.79Zm-.27,4.12c0-1.02-.58-1.64-1.47-1.64-.58,0-1.12.36-1.39.88-.07.11-.11.25-.11.43.02,1.18.56,2.05,1.57,2.05.84,0,1.4-.69,1.4-1.72Z"/></g><g><g><polygon class="c" points="314.42 200.65 314.42 131.65 361.27 131.65 361.27 184.92 345.53 200.65 314.42 200.65"/><path d="m359.77,133.15v51.14l-14.86,14.86h-28.99v-66h43.85m3-3h-49.85v72h33.23l16.62-16.62v-55.38h0Z"/></g><polygon points="362.77 182.77 346.15 182.77 343.38 182.77 343.38 185.54 343.38 202.15 346.15 202.15 346.15 185.54 362.77 185.54 362.77 182.77"/></g><g><path d="m326.24,151.28c.02,1.31.86,1.85,1.83,1.85.69,0,1.11-.12,1.47-.28l.17.69c-.34.15-.92.33-1.77.33-1.64,0-2.62-1.08-2.62-2.68s.95-2.87,2.5-2.87c1.74,0,2.2,1.53,2.2,2.51,0,.2-.02.35-.03.45h-3.74Zm2.84-.69c.01-.62-.25-1.57-1.34-1.57-.98,0-1.41.9-1.49,1.57h2.83Z"/><path d="m331.58,148.44l1.05,2.99c.18.48.32.92.43,1.36h.03c.12-.44.27-.88.45-1.36l1.03-2.99h1.01l-2.09,5.33h-.92l-2.02-5.33h1.03Z"/><path d="m336.93,151.28c.02,1.31.86,1.85,1.83,1.85.69,0,1.11-.12,1.47-.28l.17.69c-.34.15-.92.33-1.77.33-1.64,0-2.62-1.08-2.62-2.68s.95-2.87,2.5-2.87c1.74,0,2.2,1.53,2.2,2.51,0,.2-.02.35-.03.45h-3.74Zm2.84-.69c.01-.62-.25-1.57-1.34-1.57-.98,0-1.41.9-1.49,1.57h2.83Z"/><path d="m341.9,149.88c0-.55-.01-1-.04-1.44h.86l.05.88h.02c.26-.51.88-1,1.76-1,.74,0,1.88.44,1.88,2.27v3.18h-.97v-3.07c0-.86-.32-1.57-1.23-1.57-.64,0-1.13.45-1.3.99-.04.12-.07.29-.07.45v3.2h-.97v-3.88Z"/><path d="m349.13,146.91v1.53h1.39v.74h-1.39v2.87c0,.66.19,1.03.73,1.03.25,0,.44-.03.56-.07l.04.73c-.19.08-.48.13-.86.13-.45,0-.81-.14-1.04-.41-.28-.29-.37-.76-.37-1.39v-2.9h-.83v-.74h.83v-1.28l.95-.25Z"/><path d="m327.67,166.97l.29-2.16h-.9v-.65h1l.21-1.59h-.95v-.65h1.04l.29-2.1h.64l-.28,2.1h1.14l.29-2.1h.65l-.27,2.1h.9v.65h-1l-.2,1.59h.95v.65h-1.04l-.29,2.16h-.66l.29-2.16h-1.14l-.29,2.16h-.66Zm2.19-2.81l.21-1.59h-1.14l-.21,1.59h1.14Z"/><path d="m332.84,165.85c.27.18.91.45,1.58.45,1.24,0,1.63-.79,1.62-1.39-.01-1-.91-1.43-1.85-1.43h-.54v-.73h.54c.7,0,1.6-.36,1.6-1.21,0-.57-.36-1.08-1.25-1.08-.57,0-1.12.25-1.43.47l-.25-.7c.37-.28,1.1-.55,1.87-.55,1.41,0,2.05.84,2.05,1.71,0,.74-.44,1.36-1.32,1.68v.02c.88.18,1.6.84,1.6,1.84,0,1.14-.89,2.15-2.61,2.15-.8,0-1.51-.25-1.86-.48l.26-.75Z"/><path d="m340.35,160.72h-.02l-1.24.67-.19-.74,1.56-.84h.83v7.15h-.93v-6.25Z"/><path d="m347.98,160.5c-.2-.01-.45,0-.73.04-1.52.25-2.32,1.36-2.49,2.54h.03c.34-.45.93-.83,1.73-.83,1.27,0,2.16.91,2.16,2.31,0,1.31-.89,2.52-2.38,2.52s-2.53-1.19-2.53-3.05c0-1.41.51-2.52,1.21-3.22.59-.58,1.39-.95,2.29-1.06.29-.04.53-.05.71-.05v.79Zm-.28,4.12c0-1.02-.58-1.64-1.47-1.64-.58,0-1.12.36-1.39.88-.07.11-.11.25-.11.43.02,1.18.56,2.05,1.57,2.05.84,0,1.4-.69,1.4-1.72Z"/></g><g><polyline class="d" points="337.85 271.38 337.85 282.46 368.31 282.46 368.31 252 379.23 252"/><polygon points="376.1 256.59 393.23 252 376.1 247.41 376.1 256.59"/></g><g><line class="d" x1="337.85" y1="271.38" x2="337.85" y2="304.46"/><polygon points="333.26 301.33 337.85 318.46 342.44 301.33 333.26 301.33"/></g><g><line class="d" x1="337.85" y1="202.15" x2="337.85" y2="221.39"/><polygon points="333.26 218.26 337.85 235.38 342.44 218.26 333.26 218.26"/></g><g><g><polygon class="c" points="386.42 388.96 386.42 319.96 433.27 319.96 433.27 373.22 417.53 388.96 386.42 388.96"/><path d="m431.77,321.46v51.14l-14.86,14.86h-28.99v-66h43.85m3-3h-49.85v72h33.23l16.62-16.62v-55.38h0Z"/></g><polygon points="434.77 371.08 418.15 371.08 415.38 371.08 415.38 373.85 415.38 390.46 418.15 390.46 418.15 373.85 434.77 373.85 434.77 371.08"/></g><g><g><rect class="c" x="394.01" y="236.17" width="31.67" height="34.43"/><path d="m424.9,236.95v32.87h-30.1v-32.87h30.1m1.57-1.57h-33.23v36h33.23v-36h0Z"/></g><g><path d="m403.23,260.13v-7.92h-1.29v-1.27h1.29v-.44c0-1.29.29-2.47,1.06-3.21.63-.61,1.46-.86,2.24-.86.59,0,1.1.13,1.42.27l-.23,1.29c-.25-.11-.59-.21-1.06-.21-1.43,0-1.79,1.25-1.79,2.66v.49h2.22v1.27h-2.22v7.92h-1.65Z"/><path d="m412.24,246.95c-1.39,1.86-2.39,4.33-2.39,7.77s1.04,5.81,2.39,7.71h-1.31c-1.2-1.58-2.49-4.01-2.49-7.71.02-3.74,1.29-6.17,2.49-7.77h1.31Z"/><path d="m413,262.43c1.35-1.88,2.39-4.35,2.39-7.77s-1.03-5.83-2.39-7.71h1.29c1.21,1.56,2.49,3.99,2.49,7.73s-1.27,6.14-2.49,7.75h-1.29Z"/></g></g><g><path d="m399.35,341.08c.29.19.79.38,1.28.38.7,0,1.03-.35,1.03-.79s-.28-.71-.99-.98c-.96-.34-1.41-.87-1.41-1.51,0-.86.69-1.56,1.84-1.56.54,0,1.01.15,1.31.33l-.24.7c-.21-.13-.59-.31-1.09-.31-.57,0-.89.33-.89.73,0,.44.32.64,1.01.9.92.35,1.4.81,1.4,1.61,0,.94-.73,1.6-1.99,1.6-.58,0-1.12-.14-1.5-.36l.24-.74Z"/><path d="m405,335.22v1.53h1.39v.74h-1.39v2.87c0,.66.19,1.03.73,1.03.25,0,.44-.03.56-.07l.04.73c-.19.08-.48.13-.86.13-.45,0-.81-.14-1.04-.41-.28-.29-.37-.76-.37-1.39v-2.9h-.83v-.74h.83v-1.28l.95-.25Z"/><path d="m410.42,342.07l-.08-.67h-.03c-.3.42-.87.79-1.63.79-1.08,0-1.63-.76-1.63-1.53,0-1.29,1.14-1.99,3.2-1.98v-.11c0-.44-.12-1.23-1.21-1.23-.5,0-1.01.15-1.39.4l-.22-.64c.44-.29,1.08-.47,1.75-.47,1.63,0,2.02,1.11,2.02,2.18v1.99c0,.46.02.91.09,1.28h-.88Zm-.14-2.72c-1.06-.02-2.25.17-2.25,1.2,0,.63.42.92.91.92.69,0,1.13-.44,1.29-.89.03-.1.05-.21.05-.31v-.92Z"/><path d="m413.9,335.22v1.53h1.39v.74h-1.39v2.87c0,.66.19,1.03.73,1.03.25,0,.44-.03.56-.07l.04.73c-.19.08-.48.13-.86.13-.45,0-.81-.14-1.04-.41-.28-.29-.37-.76-.37-1.39v-2.9h-.83v-.74h.83v-1.28l.95-.25Z"/><path d="m416.84,339.59c.02,1.31.86,1.85,1.83,1.85.69,0,1.11-.12,1.47-.28l.17.69c-.34.15-.92.33-1.77.33-1.64,0-2.62-1.08-2.62-2.68s.95-2.87,2.5-2.87c1.74,0,2.2,1.53,2.2,2.51,0,.2-.02.35-.03.45h-3.74Zm2.84-.69c.01-.62-.25-1.57-1.34-1.57-.98,0-1.41.9-1.49,1.57h2.83Z"/><path d="m399.67,355.27l.29-2.16h-.9v-.65h1l.21-1.59h-.95v-.65h1.04l.29-2.1h.64l-.28,2.1h1.14l.29-2.1h.65l-.27,2.1h.9v.65h-1l-.2,1.59h.95v.65h-1.04l-.29,2.16h-.66l.29-2.16h-1.14l-.29,2.16h-.66Zm2.19-2.81l.21-1.59h-1.14l-.21,1.59h1.14Z"/><path d="m404.84,354.16c.27.18.91.45,1.58.45,1.24,0,1.63-.79,1.62-1.39-.01-1-.91-1.43-1.85-1.43h-.54v-.73h.54c.7,0,1.6-.36,1.6-1.21,0-.57-.36-1.08-1.25-1.08-.57,0-1.12.25-1.43.47l-.25-.7c.37-.28,1.1-.55,1.87-.55,1.41,0,2.05.84,2.05,1.71,0,.74-.44,1.36-1.32,1.68v.02c.88.18,1.6.84,1.6,1.84,0,1.14-.89,2.15-2.61,2.15-.8,0-1.51-.25-1.86-.48l.26-.75Z"/><path d="m412.35,349.03h-.02l-1.24.67-.19-.74,1.56-.84h.83v7.15h-.93v-6.25Z"/><path d="m420.54,348.12v.64l-3.11,6.51h-1l3.1-6.33v-.02h-3.5v-.8h4.51Z"/></g><g><g><polygon class="c" points="386.42 200.65 386.42 131.65 433.27 131.65 433.27 184.92 417.53 200.65 386.42 200.65"/><path d="m431.77,133.15v51.14l-14.86,14.86h-28.99v-66h43.85m3-3h-49.85v72h33.23l16.62-16.62v-55.38h0Z"/></g><polygon points="434.77 182.77 418.15 182.77 415.38 182.77 415.38 185.54 415.38 202.15 418.15 202.15 418.15 185.54 434.77 185.54 434.77 182.77"/></g><g><path d="m398.23,151.28c.02,1.31.86,1.85,1.83,1.85.69,0,1.11-.12,1.47-.28l.17.69c-.34.15-.92.33-1.77.33-1.64,0-2.62-1.08-2.62-2.68s.95-2.87,2.5-2.87c1.74,0,2.2,1.53,2.2,2.51,0,.2-.02.35-.03.45h-3.74Zm2.84-.69c.01-.62-.25-1.57-1.34-1.57-.98,0-1.41.9-1.49,1.57h2.83Z"/><path d="m403.58,148.44l1.05,2.99c.18.48.32.92.43,1.36h.03c.12-.44.27-.88.45-1.36l1.03-2.99h1.01l-2.09,5.33h-.92l-2.02-5.33h1.03Z"/><path d="m408.93,151.28c.02,1.31.86,1.85,1.83,1.85.69,0,1.11-.12,1.47-.28l.17.69c-.34.15-.92.33-1.77.33-1.64,0-2.62-1.08-2.62-2.68s.95-2.87,2.5-2.87c1.74,0,2.2,1.53,2.2,2.51,0,.2-.02.35-.03.45h-3.74Zm2.84-.69c.01-.62-.25-1.57-1.34-1.57-.98,0-1.41.9-1.49,1.57h2.83Z"/><path d="m413.9,149.88c0-.55-.01-1-.04-1.44h.86l.05.88h.02c.26-.51.88-1,1.76-1,.74,0,1.88.44,1.88,2.27v3.18h-.97v-3.07c0-.86-.32-1.57-1.23-1.57-.64,0-1.13.45-1.3.99-.04.12-.07.29-.07.45v3.2h-.97v-3.88Z"/><path d="m421.12,146.91v1.53h1.39v.74h-1.39v2.87c0,.66.19,1.03.73,1.03.25,0,.44-.03.56-.07l.04.73c-.19.08-.48.13-.86.13-.45,0-.81-.14-1.04-.41-.28-.29-.37-.76-.37-1.39v-2.9h-.83v-.74h.83v-1.28l.95-.25Z"/><path d="m399.67,166.97l.29-2.16h-.9v-.65h1l.21-1.59h-.95v-.65h1.04l.29-2.1h.64l-.28,2.1h1.14l.29-2.1h.65l-.27,2.1h.9v.65h-1l-.2,1.59h.95v.65h-1.04l-.29,2.16h-.66l.29-2.16h-1.14l-.29,2.16h-.66Zm2.19-2.81l.21-1.59h-1.14l-.21,1.59h1.14Z"/><path d="m404.84,165.85c.27.18.91.45,1.58.45,1.24,0,1.63-.79,1.62-1.39-.01-1-.91-1.43-1.85-1.43h-.54v-.73h.54c.7,0,1.6-.36,1.6-1.21,0-.57-.36-1.08-1.25-1.08-.57,0-1.12.25-1.43.47l-.25-.7c.37-.28,1.1-.55,1.87-.55,1.41,0,2.05.84,2.05,1.71,0,.74-.44,1.36-1.32,1.68v.02c.88.18,1.6.84,1.6,1.84,0,1.14-.89,2.15-2.61,2.15-.8,0-1.51-.25-1.86-.48l.26-.75Z"/><path d="m412.35,160.72h-.02l-1.24.67-.19-.74,1.56-.84h.83v7.15h-.93v-6.25Z"/><path d="m420.54,159.81v.64l-3.11,6.51h-1l3.1-6.33v-.02h-3.5v-.8h4.51Z"/></g><g><polyline class="d" points="409.85 271.38 409.85 282.46 440.31 282.46 440.31 252 451.23 252"/><polygon points="448.1 256.59 465.23 252 448.1 247.41 448.1 256.59"/></g><g><line class="d" x1="409.85" y1="271.38" x2="409.85" y2="304.46"/><polygon points="405.26 301.33 409.85 318.46 414.44 301.33 405.26 301.33"/></g><g><line class="d" x1="409.85" y1="202.15" x2="409.85" y2="221.39"/><polygon points="405.26 218.26 409.85 235.38 414.44 218.26 405.26 218.26"/></g><g><path d="m438.76,236.27c.49.32,1.37.67,2.2.67,1.22,0,1.79-.61,1.79-1.37s-.48-1.23-1.71-1.69c-1.65-.59-2.43-1.5-2.43-2.6,0-1.48,1.2-2.7,3.17-2.7.93,0,1.75.27,2.26.57l-.42,1.22c-.36-.23-1.03-.53-1.88-.53-.99,0-1.54.57-1.54,1.25,0,.76.55,1.1,1.75,1.56,1.6.61,2.41,1.41,2.41,2.77,0,1.61-1.25,2.75-3.44,2.75-1.01,0-1.94-.25-2.58-.63l.42-1.27Z"/><path d="m448.3,224.96c-.44,1.6-1.25,3.63-1.79,4.5l-1.06.13c.42-1.12.91-3.1,1.12-4.46l1.73-.17Z"/><path d="m452.12,230.3c0-.7.47-1.2,1.14-1.2s1.1.49,1.12,1.2c0,.67-.44,1.18-1.14,1.18-.67,0-1.12-.51-1.12-1.18Zm0,6.71c0-.7.47-1.2,1.14-1.2s1.1.49,1.12,1.2c0,.67-.44,1.18-1.14,1.18-.67,0-1.12-.51-1.12-1.18Z"/><path d="m455.82,231.57v-1.14h9.8v1.14h-9.8Zm0,3.72v-1.14h9.8v1.14h-9.8Z"/><path d="m471.97,237.98v-7.92h-1.29v-1.27h1.29v-.44c0-1.29.29-2.47,1.06-3.21.63-.61,1.46-.86,2.24-.86.59,0,1.1.13,1.42.27l-.23,1.29c-.25-.11-.59-.21-1.06-.21-1.42,0-1.79,1.25-1.79,2.66v.49h2.22v1.27h-2.22v7.92h-1.65Z"/><path d="m480.98,224.79c-1.39,1.86-2.39,4.33-2.39,7.77s1.04,5.81,2.39,7.71h-1.31c-1.2-1.58-2.49-4.01-2.49-7.71.02-3.74,1.29-6.17,2.49-7.77h1.31Z"/><path d="m482.52,236.27c.49.32,1.37.67,2.2.67,1.22,0,1.79-.61,1.79-1.37s-.48-1.23-1.71-1.69c-1.65-.59-2.43-1.5-2.43-2.6,0-1.48,1.2-2.7,3.17-2.7.93,0,1.75.27,2.26.57l-.42,1.22c-.36-.23-1.03-.53-1.88-.53-.99,0-1.54.57-1.54,1.25,0,.76.55,1.1,1.75,1.56,1.6.61,2.41,1.41,2.41,2.77,0,1.61-1.25,2.75-3.44,2.75-1.01,0-1.94-.25-2.58-.63l.42-1.27Z"/><path d="m488.98,240.31c.42-1.12.93-3.15,1.14-4.54l1.86-.19c-.44,1.61-1.27,3.72-1.8,4.62l-1.2.11Z"/><path d="m498.95,233.68c.04,2.26,1.48,3.19,3.15,3.19,1.2,0,1.92-.21,2.54-.48l.29,1.2c-.59.27-1.6.57-3.06.57-2.83,0-4.52-1.86-4.52-4.64s1.63-4.96,4.31-4.96c3,0,3.8,2.64,3.8,4.33,0,.34-.04.61-.06.78h-6.46Zm4.9-1.2c.02-1.06-.44-2.72-2.32-2.72-1.69,0-2.43,1.56-2.56,2.72h4.88Z"/><path d="m509.17,224.96c-.44,1.6-1.25,3.63-1.79,4.5l-1.06.13c.42-1.12.91-3.1,1.12-4.46l1.73-.17Z"/><path d="m509.99,240.27c1.35-1.88,2.39-4.35,2.39-7.77s-1.03-5.83-2.39-7.71h1.29c1.22,1.56,2.49,3.99,2.49,7.73s-1.27,6.14-2.49,7.75h-1.29Z"/></g><g><path d="m472.78,259.14c0-.7.47-1.2,1.14-1.2s1.12.49,1.12,1.2-.44,1.2-1.14,1.2c-.67,0-1.12-.51-1.12-1.2Z"/><path d="m476.71,259.14c0-.7.47-1.2,1.14-1.2s1.12.49,1.12,1.2-.44,1.2-1.14,1.2c-.66,0-1.12-.51-1.12-1.2Z"/><path d="m480.65,259.14c0-.7.47-1.2,1.14-1.2s1.12.49,1.12,1.2-.44,1.2-1.14,1.2c-.67,0-1.12-.51-1.12-1.2Z"/></g><g><line class="d" x1="492.92" y1="252" x2="509.39" y2="252"/><polygon points="506.26 256.59 523.38 252 506.26 247.41 506.26 256.59"/></g><g><g><polygon class="c" points="516.58 388.96 516.58 319.96 563.42 319.96 563.42 373.22 547.69 388.96 516.58 388.96"/><path d="m561.92,321.46v51.14l-14.86,14.86h-28.99v-66h43.85m3-3h-49.85v72h33.23l16.62-16.62v-55.38h0Z"/></g><polygon points="564.92 371.08 548.31 371.08 545.54 371.08 545.54 373.85 545.54 390.46 548.31 390.46 548.31 373.85 564.92 373.85 564.92 371.08"/></g><g><g><rect class="c" x="524.17" y="236.17" width="31.66" height="34.43"/><path d="m555.05,236.95v32.87h-30.1v-32.87h30.1m1.57-1.57h-33.23v36h33.23v-36h0Z"/></g><g><path d="m533.39,260.13v-7.92h-1.29v-1.27h1.29v-.44c0-1.29.29-2.47,1.06-3.21.63-.61,1.46-.86,2.24-.86.59,0,1.1.13,1.42.27l-.23,1.29c-.25-.11-.59-.21-1.06-.21-1.42,0-1.79,1.25-1.79,2.66v.49h2.22v1.27h-2.22v7.92h-1.65Z"/><path d="m542.39,246.95c-1.39,1.86-2.39,4.33-2.39,7.77s1.04,5.81,2.39,7.71h-1.31c-1.2-1.58-2.49-4.01-2.49-7.71.02-3.74,1.29-6.17,2.49-7.77h1.31Z"/><path d="m543.15,262.43c1.35-1.88,2.39-4.35,2.39-7.77s-1.03-5.83-2.39-7.71h1.29c1.22,1.56,2.49,3.99,2.49,7.73s-1.27,6.14-2.49,7.75h-1.29Z"/></g></g><g><path d="m529.5,341.08c.29.19.79.38,1.28.38.71,0,1.04-.35,1.04-.79s-.28-.71-.99-.98c-.96-.34-1.41-.87-1.41-1.51,0-.86.69-1.56,1.84-1.56.54,0,1.01.15,1.31.33l-.24.7c-.21-.13-.59-.31-1.09-.31-.57,0-.89.33-.89.73,0,.44.32.64,1.01.9.92.35,1.4.81,1.4,1.61,0,.94-.73,1.6-1.99,1.6-.58,0-1.12-.14-1.5-.36l.24-.74Z"/><path d="m535.15,335.22v1.53h1.38v.74h-1.38v2.87c0,.66.19,1.03.72,1.03.25,0,.44-.03.56-.07l.04.73c-.19.08-.48.13-.86.13-.45,0-.81-.14-1.04-.41-.28-.29-.38-.76-.38-1.39v-2.9h-.82v-.74h.82v-1.28l.95-.25Z"/><path d="m540.58,342.07l-.08-.67h-.03c-.3.42-.87.79-1.63.79-1.08,0-1.63-.76-1.63-1.53,0-1.29,1.14-1.99,3.2-1.98v-.11c0-.44-.12-1.23-1.21-1.23-.5,0-1.01.15-1.39.4l-.22-.64c.44-.29,1.08-.47,1.75-.47,1.63,0,2.03,1.11,2.03,2.18v1.99c0,.46.02.91.09,1.28h-.88Zm-.14-2.72c-1.06-.02-2.26.17-2.26,1.2,0,.63.42.92.91.92.69,0,1.13-.44,1.29-.89.03-.1.05-.21.05-.31v-.92Z"/><path d="m544.05,335.22v1.53h1.38v.74h-1.38v2.87c0,.66.19,1.03.72,1.03.25,0,.44-.03.56-.07l.04.73c-.19.08-.48.13-.86.13-.45,0-.81-.14-1.04-.41-.28-.29-.38-.76-.38-1.39v-2.9h-.82v-.74h.82v-1.28l.95-.25Z"/><path d="m547,339.59c.02,1.31.86,1.85,1.83,1.85.69,0,1.11-.12,1.47-.28l.17.69c-.34.15-.92.33-1.77.33-1.64,0-2.62-1.08-2.62-2.68s.95-2.87,2.5-2.87c1.74,0,2.2,1.53,2.2,2.51,0,.2-.02.35-.03.45h-3.74Zm2.84-.69c0-.62-.25-1.57-1.34-1.57-.98,0-1.41.9-1.49,1.57h2.83Z"/><path d="m535.24,355.27l.29-2.16h-.9v-.65h1l.21-1.59h-.95v-.65h1.04l.29-2.1h.64l-.28,2.1h1.14l.29-2.1h.65l-.27,2.1h.9v.65h-1l-.2,1.59h.95v.65h-1.04l-.29,2.16h-.66l.29-2.16h-1.14l-.29,2.16h-.66Zm2.19-2.81l.21-1.59h-1.14l-.21,1.59h1.14Z"/><path d="m540.48,351.39c0-.55-.01-1-.04-1.44h.86l.05.88h.02c.26-.51.88-1,1.76-1,.74,0,1.88.44,1.88,2.27v3.18h-.97v-3.07c0-.86-.32-1.57-1.23-1.57-.64,0-1.13.45-1.3.99-.04.12-.06.29-.06.45v3.2h-.97v-3.88Z"/></g><g><g><polygon class="c" points="516.58 200.65 516.58 131.65 563.42 131.65 563.42 184.92 547.69 200.65 516.58 200.65"/><path d="m561.92,133.15v51.14l-14.86,14.86h-28.99v-66h43.85m3-3h-49.85v72h33.23l16.62-16.62v-55.38h0Z"/></g><polygon points="564.92 182.77 548.31 182.77 545.54 182.77 545.54 185.54 545.54 202.15 548.31 202.15 548.31 185.54 564.92 185.54 564.92 182.77"/></g><g><path d="m528.39,151.28c.02,1.31.86,1.85,1.83,1.85.69,0,1.11-.12,1.47-.28l.16.69c-.34.15-.92.33-1.77.33-1.64,0-2.62-1.08-2.62-2.68s.95-2.87,2.5-2.87c1.74,0,2.2,1.53,2.2,2.51,0,.2-.02.35-.03.45h-3.74Zm2.84-.69c.01-.62-.25-1.57-1.34-1.57-.98,0-1.41.9-1.48,1.57h2.83Z"/><path d="m533.73,148.44l1.04,2.99c.18.48.32.92.43,1.36h.03c.12-.44.27-.88.45-1.36l1.03-2.99h1.01l-2.09,5.33h-.92l-2.03-5.33h1.04Z"/><path d="m539.08,151.28c.02,1.31.86,1.85,1.83,1.85.69,0,1.11-.12,1.47-.28l.16.69c-.34.15-.92.33-1.77.33-1.64,0-2.62-1.08-2.62-2.68s.95-2.87,2.5-2.87c1.74,0,2.2,1.53,2.2,2.51,0,.2-.02.35-.03.45h-3.74Zm2.84-.69c.01-.62-.25-1.57-1.34-1.57-.98,0-1.41.9-1.48,1.57h2.83Z"/><path d="m544.05,149.88c0-.55,0-1-.04-1.44h.86l.05.88h.02c.26-.51.88-1,1.76-1,.74,0,1.88.44,1.88,2.27v3.18h-.97v-3.07c0-.86-.32-1.57-1.23-1.57-.64,0-1.13.45-1.3.99-.04.12-.07.29-.07.45v3.2h-.97v-3.88Z"/><path d="m551.28,146.91v1.53h1.38v.74h-1.38v2.87c0,.66.19,1.03.72,1.03.25,0,.44-.03.56-.07l.04.73c-.19.08-.48.13-.86.13-.45,0-.81-.14-1.04-.41-.28-.29-.38-.76-.38-1.39v-2.9h-.82v-.74h.82v-1.28l.95-.25Z"/><path d="m535.24,166.97l.29-2.16h-.9v-.65h1l.21-1.59h-.95v-.65h1.04l.29-2.1h.64l-.28,2.1h1.14l.29-2.1h.65l-.27,2.1h.9v.65h-1l-.2,1.59h.95v.65h-1.04l-.29,2.16h-.66l.29-2.16h-1.14l-.29,2.16h-.66Zm2.19-2.81l.21-1.59h-1.14l-.21,1.59h1.14Z"/><path d="m540.48,163.08c0-.55-.01-1-.04-1.44h.86l.05.88h.02c.26-.51.88-1,1.76-1,.74,0,1.88.44,1.88,2.27v3.18h-.97v-3.07c0-.86-.32-1.57-1.23-1.57-.64,0-1.13.45-1.3.99-.04.12-.06.29-.06.45v3.2h-.97v-3.88Z"/></g><g><line class="d" x1="540" y1="271.38" x2="540" y2="304.46"/><polygon points="535.41 301.33 540 318.46 544.59 301.33 535.41 301.33"/></g><g><line class="d" x1="540" y1="202.15" x2="540" y2="221.39"/><polygon points="535.41 218.26 540 235.38 544.59 218.26 535.41 218.26"/></g><g><path class="f" d="m274.15,63.69c6.12,0,11.08-13.02,11.08-29.08s-4.96-29.08-11.08-29.08h-24.92c6.12,0,11.08,13.02,11.08,29.08s-4.96,29.08-11.08,29.08h24.92Z"/><g><path d="m264.44,37.81l.23-1.76h-.74v-.53h.82l.17-1.3h-.77v-.53h.86l.23-1.72h.52l-.22,1.72h.94l.23-1.72h.53l-.22,1.72h.74v.53h-.82l-.16,1.3h.77v.53h-.86l-.23,1.76h-.54l.23-1.76h-.94l-.23,1.76h-.54Zm1.79-2.3l.17-1.3h-.94l-.17,1.3h.94Z"/><path d="m268.67,36.9c.23.14.75.37,1.3.37,1.02,0,1.33-.65,1.32-1.13,0-.82-.75-1.17-1.51-1.17h-.44v-.59h.44c.58,0,1.31-.3,1.31-.99,0-.47-.3-.88-1.03-.88-.47,0-.92.21-1.17.39l-.21-.58c.31-.22.9-.45,1.53-.45,1.15,0,1.67.68,1.67,1.4,0,.6-.36,1.12-1.08,1.38v.02c.72.14,1.31.68,1.31,1.5,0,.94-.73,1.75-2.13,1.75-.66,0-1.23-.21-1.52-.4l.22-.61Z"/><path d="m274.82,32.7h-.02l-1.02.55-.15-.6,1.28-.68h.67v5.85h-.76v-5.11Z"/><path d="m280.17,37.81v-1.59h-2.72v-.52l2.61-3.74h.86v3.64h.82v.62h-.82v1.59h-.75Zm0-2.21v-1.95c0-.31,0-.61.03-.92h-.03c-.18.34-.32.59-.49.86l-1.43,1.99v.02h1.92Z"/></g><path class="f" d="m299.08,63.69c6.12,0,11.08-13.02,11.08-29.08s-4.96-29.08-11.08-29.08h-24.92c6.12,0,11.08,13.02,11.08,29.08s-4.96,29.08-11.08,29.08h24.92Z"/><g><path d="m289.37,37.81l.23-1.76h-.74v-.53h.82l.17-1.3h-.78v-.53h.86l.23-1.72h.52l-.22,1.72h.94l.23-1.72h.53l-.22,1.72h.74v.53h-.82l-.16,1.3h.77v.53h-.86l-.23,1.76h-.54l.23-1.76h-.94l-.23,1.76h-.54Zm1.79-2.3l.17-1.3h-.94l-.17,1.3h.94Z"/><path d="m293.6,36.9c.23.14.75.37,1.3.37,1.02,0,1.33-.65,1.32-1.13,0-.82-.75-1.17-1.51-1.17h-.44v-.59h.44c.58,0,1.31-.3,1.31-.99,0-.47-.3-.88-1.03-.88-.47,0-.92.21-1.17.39l-.21-.58c.31-.22.9-.45,1.53-.45,1.15,0,1.67.68,1.67,1.4,0,.6-.36,1.12-1.08,1.38v.02c.72.14,1.3.68,1.3,1.5,0,.94-.73,1.75-2.13,1.75-.66,0-1.23-.21-1.52-.4l.21-.61Z"/><path d="m299.74,32.7h-.02l-1.02.55-.15-.6,1.28-.68h.68v5.85h-.77v-5.11Z"/><path d="m306.13,32.62h-2.23l-.22,1.5c.13-.02.26-.04.48-.04.45,0,.9.1,1.26.31.46.26.84.77.84,1.5,0,1.14-.91,2-2.18,2-.64,0-1.18-.18-1.46-.36l.2-.6c.24.14.72.32,1.25.32.75,0,1.39-.49,1.39-1.27,0-.76-.51-1.3-1.68-1.3-.33,0-.59.04-.81.06l.38-2.81h2.8v.67Z"/></g><path class="f" d="m324,63.69c6.12,0,11.08-13.02,11.08-29.08s-4.96-29.08-11.08-29.08h-24.92c6.12,0,11.08,13.02,11.08,29.08s-4.96,29.08-11.08,29.08h24.92Z"/><g><path d="m314.29,37.81l.23-1.76h-.74v-.53h.82l.17-1.3h-.77v-.53h.86l.23-1.72h.52l-.22,1.72h.94l.23-1.72h.53l-.22,1.72h.74v.53h-.82l-.16,1.3h.77v.53h-.86l-.23,1.76h-.54l.23-1.76h-.94l-.23,1.76h-.54Zm1.79-2.3l.17-1.3h-.94l-.17,1.3h.94Z"/><path d="m318.52,36.9c.23.14.75.37,1.3.37,1.02,0,1.33-.65,1.32-1.13,0-.82-.75-1.17-1.51-1.17h-.44v-.59h.44c.58,0,1.31-.3,1.31-.99,0-.47-.3-.88-1.03-.88-.47,0-.92.21-1.17.39l-.21-.58c.31-.22.9-.45,1.53-.45,1.15,0,1.67.68,1.67,1.4,0,.6-.36,1.12-1.08,1.38v.02c.72.14,1.31.68,1.31,1.5,0,.94-.73,1.75-2.13,1.75-.66,0-1.23-.21-1.52-.4l.22-.61Z"/><path d="m324.67,32.7h-.02l-1.02.55-.15-.6,1.28-.68h.67v5.85h-.76v-5.11Z"/><path d="m330.91,32.52c-.16,0-.37,0-.59.04-1.24.21-1.9,1.12-2.04,2.08h.03c.28-.37.76-.68,1.41-.68,1.04,0,1.76.75,1.76,1.89,0,1.07-.73,2.06-1.94,2.06s-2.07-.97-2.07-2.49c0-1.15.42-2.06.99-2.64.49-.48,1.13-.77,1.87-.86.23-.04.43-.04.58-.04v.65Zm-.22,3.38c0-.84-.48-1.34-1.21-1.34-.48,0-.92.3-1.13.72-.05.09-.09.21-.09.35.02.96.46,1.67,1.29,1.67.68,0,1.14-.57,1.14-1.41Z"/></g><path class="f" d="m348.92,63.69c6.12,0,11.08-13.02,11.08-29.08s-4.96-29.08-11.08-29.08h-24.92c6.12,0,11.08,13.02,11.08,29.08s-4.96,29.08-11.08,29.08h24.92Z"/><g><path d="m339.21,37.81l.23-1.76h-.74v-.53h.82l.17-1.3h-.77v-.53h.86l.23-1.72h.52l-.22,1.72h.94l.23-1.72h.53l-.22,1.72h.74v.53h-.82l-.16,1.3h.77v.53h-.86l-.23,1.76h-.54l.23-1.76h-.94l-.23,1.76h-.54Zm1.79-2.3l.17-1.3h-.94l-.17,1.3h.94Z"/><path d="m343.44,36.9c.23.14.75.37,1.3.37,1.02,0,1.33-.65,1.32-1.13,0-.82-.75-1.17-1.51-1.17h-.44v-.59h.44c.58,0,1.31-.3,1.31-.99,0-.47-.3-.88-1.03-.88-.47,0-.92.21-1.17.39l-.21-.58c.31-.22.9-.45,1.53-.45,1.15,0,1.67.68,1.67,1.4,0,.6-.36,1.12-1.08,1.38v.02c.72.14,1.31.68,1.31,1.5,0,.94-.73,1.75-2.13,1.75-.66,0-1.23-.21-1.52-.4l.22-.61Z"/><path d="m349.59,32.7h-.02l-1.02.55-.15-.6,1.28-.68h.67v5.85h-.76v-5.11Z"/><path d="m356.29,31.96v.52l-2.55,5.33h-.82l2.54-5.18v-.02h-2.86v-.66h3.69Z"/></g><path class="f" d="m373.85,63.69c6.12,0,11.08-13.02,11.08-29.08s-4.96-29.08-11.08-29.08h-24.92c6.12,0,11.08,13.02,11.08,29.08s-4.96,29.08-11.08,29.08h24.92Z"/><g><path d="m370.13,37.34c0-.33.23-.57.54-.57s.53.23.53.57-.21.57-.54.57c-.31,0-.53-.24-.53-.57Z"/><path d="m372,37.34c0-.33.23-.57.54-.57s.53.23.53.57-.21.57-.54.57c-.31,0-.53-.24-.53-.57Z"/><path d="m373.86,37.34c0-.33.23-.57.54-.57s.53.23.53.57-.21.57-.54.57c-.31,0-.53-.24-.53-.57Z"/></g><path class="f" d="m398.77,63.69c6.12,0,11.08-13.02,11.08-29.08s-4.96-29.08-11.08-29.08h-24.92c6.12,0,11.08,13.02,11.08,29.08s-4.96,29.08-11.08,29.08h24.92Z"/><g><path d="m393.49,37.81l.23-1.76h-.74v-.53h.82l.17-1.3h-.77v-.53h.86l.23-1.72h.52l-.22,1.72h.94l.23-1.72h.53l-.22,1.72h.74v.53h-.82l-.16,1.3h.78v.53h-.86l-.23,1.76h-.54l.23-1.76h-.94l-.23,1.76h-.54Zm1.79-2.3l.17-1.3h-.94l-.17,1.3h.94Z"/><path d="m397.78,34.63c0-.45,0-.82-.04-1.18h.7l.04.72h.02c.21-.41.72-.82,1.44-.82.6,0,1.54.36,1.54,1.85v2.6h-.79v-2.51c0-.7-.26-1.29-1.01-1.29-.52,0-.93.37-1.06.81-.04.1-.05.23-.05.37v2.62h-.79v-3.18Z"/></g><path class="b" d="m423.69,63.69c6.12,0,11.08-13.02,11.08-29.08s-4.96-29.08-11.08-29.08h-24.92c6.12,0,11.08,13.02,11.08,29.08s-4.96,29.08-11.08,29.08h24.92Z"/><ellipse class="f" cx="249.23" cy="34.62" rx="11.08" ry="29.08"/></g><g><polyline class="d" points="290.77 63.69 290.77 102.46 265.85 102.46 265.85 116.16"/><polygon points="261.26 113.03 265.85 130.15 270.44 113.03 261.26 113.03"/></g><g><polyline class="d" points="315.69 63.69 315.69 102.46 337.85 102.46 337.85 116.16"/><polygon points="333.26 113.03 337.85 130.15 342.44 113.03 333.26 113.03"/></g><g><polyline class="d" points="340.62 63.69 340.62 94.15 409.85 94.15 409.85 116.16"/><polygon points="405.26 113.03 409.85 130.15 414.44 113.03 405.26 113.03"/></g><g><polyline class="d" points="390.46 63.69 390.46 72 540 72 540 116.16"/><polygon points="535.41 113.03 540 130.15 544.59 113.03 535.41 113.03"/></g><ellipse class="f" cx="113.54" cy="204.92" rx="38.77" ry="13.85"/><path class="f" d="m152.31,204.92c0,7.65-17.36,13.85-38.77,13.85s-38.77-6.2-38.77-13.85v94.15c0,7.65,17.36,13.85,38.77,13.85s38.77-6.2,38.77-13.85v-94.15Z"/><g><g><g><polygon class="c" points="90.12 297.58 90.12 228.58 136.96 228.58 136.96 281.84 121.22 297.58 90.12 297.58"/><path d="m135.46,230.08v51.14l-14.86,14.86h-28.99v-66h43.85m3-3h-49.85v72h33.23l16.62-16.62v-55.38h0Z"/></g><polygon points="138.46 279.69 121.85 279.69 119.08 279.69 119.08 282.46 119.08 299.08 121.85 299.08 121.85 282.46 138.46 282.46 138.46 279.69"/></g><g><path d="m103.04,249.7c.29.19.79.38,1.28.38.7,0,1.03-.35,1.03-.79s-.28-.71-.99-.98c-.96-.34-1.41-.87-1.41-1.51,0-.86.69-1.56,1.84-1.56.54,0,1.01.15,1.31.33l-.24.7c-.21-.13-.59-.31-1.09-.31-.57,0-.89.33-.89.73,0,.44.32.64,1.01.9.92.35,1.4.81,1.4,1.61,0,.94-.73,1.6-1.99,1.6-.58,0-1.12-.14-1.5-.36l.24-.74Z"/><path d="m108.69,243.84v1.53h1.39v.74h-1.39v2.87c0,.66.19,1.03.73,1.03.25,0,.44-.03.56-.07l.04.73c-.19.08-.48.13-.86.13-.45,0-.81-.14-1.04-.41-.28-.29-.37-.76-.37-1.39v-2.9h-.83v-.74h.83v-1.28l.95-.25Z"/><path d="m114.12,250.69l-.08-.67h-.03c-.3.42-.87.79-1.63.79-1.08,0-1.63-.76-1.63-1.53,0-1.29,1.14-1.99,3.2-1.98v-.11c0-.44-.12-1.23-1.21-1.23-.5,0-1.01.15-1.39.4l-.22-.64c.44-.29,1.08-.47,1.75-.47,1.63,0,2.02,1.11,2.02,2.18v1.99c0,.46.02.91.09,1.28h-.88Zm-.14-2.72c-1.06-.02-2.25.17-2.25,1.2,0,.63.42.92.91.92.69,0,1.13-.44,1.29-.89.03-.1.05-.21.05-.31v-.92Z"/><path d="m117.59,243.84v1.53h1.39v.74h-1.39v2.87c0,.66.19,1.03.73,1.03.25,0,.44-.03.56-.07l.04.73c-.19.08-.48.13-.86.13-.45,0-.81-.14-1.04-.41-.28-.29-.37-.76-.37-1.39v-2.9h-.83v-.74h.83v-1.28l.95-.25Z"/><path d="m120.54,248.2c.02,1.31.86,1.85,1.83,1.85.69,0,1.11-.12,1.47-.28l.17.69c-.34.15-.92.33-1.77.33-1.64,0-2.62-1.08-2.62-2.68s.95-2.87,2.5-2.87c1.74,0,2.2,1.53,2.2,2.51,0,.2-.02.35-.03.45h-3.74Zm2.84-.69c.01-.62-.25-1.57-1.34-1.57-.98,0-1.41.9-1.49,1.57h2.83Z"/><path d="m103.36,263.89l.29-2.16h-.9v-.65h1l.21-1.59h-.95v-.65h1.04l.29-2.1h.64l-.28,2.1h1.14l.29-2.1h.65l-.27,2.1h.9v.65h-1l-.2,1.59h.95v.65h-1.04l-.29,2.16h-.66l.29-2.16h-1.14l-.29,2.16h-.66Zm2.19-2.81l.21-1.59h-1.14l-.21,1.59h1.14Z"/><path d="m108.53,262.78c.27.18.91.45,1.58.45,1.24,0,1.63-.79,1.62-1.39-.01-1-.91-1.43-1.85-1.43h-.54v-.73h.54c.7,0,1.6-.36,1.6-1.21,0-.57-.36-1.08-1.25-1.08-.57,0-1.12.25-1.43.47l-.25-.7c.37-.28,1.1-.55,1.87-.55,1.41,0,2.05.84,2.05,1.71,0,.74-.44,1.36-1.32,1.68v.02c.88.18,1.6.84,1.6,1.84,0,1.14-.89,2.15-2.61,2.15-.8,0-1.51-.25-1.86-.48l.26-.75Z"/><path d="m116.05,257.64h-.02l-1.24.67-.19-.74,1.56-.84h.83v7.15h-.93v-6.25Z"/><path d="m122.58,263.89v-1.95h-3.32v-.64l3.19-4.57h1.04v4.45h1v.76h-1v1.95h-.91Zm0-2.71v-2.39c0-.37.01-.75.03-1.12h-.03c-.22.42-.4.73-.59,1.06l-1.75,2.43v.02h2.34Z"/></g></g><g><line class="d" x1="138.46" y1="252" x2="235.23" y2="252"/><polygon points="232.1 256.59 249.23 252 232.1 247.41 232.1 256.59"/></g></svg>