<?xml version="1.0" encoding="UTF-8"?><svg id="a" xmlns="http://www.w3.org/2000/svg" viewBox="0 0 581.54 415.38"><defs><style>.b,.c{fill:#fff;}.b,.d,.e,.f{stroke:#000;stroke-miterlimit:10;}.b,.f{stroke-width:1.35px;}.d{fill:none;stroke-width:2px;}.e{stroke-width:1.3px;}.e,.f{fill:#e6e6e6;}</style></defs><rect class="c" width="581.54" height="415.38"/><rect class="e" x="149.54" y="229.85" width="418.15" height="83.08"/><g><g><g><polygon class="c" points="87.35 305.88 87.35 236.88 136.96 236.88 136.96 290.15 121.22 305.88 87.35 305.88"/><path d="m135.46,238.38v51.14l-14.86,14.86h-31.76v-66h46.62m3-3h-52.62v72h36l16.62-16.62v-55.38h0Z"/></g><polygon points="138.46 288 121.85 288 119.08 288 119.08 290.77 119.08 307.38 121.85 307.38 121.85 290.77 138.46 290.77 138.46 288"/></g><path d="m99.75,285.41l2.78-3.95c-2.51-2.69-4-6.69-4-11.18,0-9.56,6.06-15.81,13.97-15.81,2.78,0,5.39.81,7.54,2.38l2.65-3.64,2.38,1.62-2.78,3.86c2.51,2.74,3.91,6.69,3.91,11.14,0,10.55-6.51,15.9-13.74,15.9-2.88,0-5.52-.85-7.68-2.42l-2.83,3.86-2.2-1.75Zm18.37-25.69c-1.53-1.3-3.41-2.11-5.66-2.11-6.6,0-9.93,6.11-9.93,12.44,0,3.37.9,5.79,2.25,8.13l.04-.04,13.29-18.41Zm-11.41,20.7c1.48,1.39,3.23,2.16,5.66,2.16,6.33,0,9.83-5.79,9.83-12.62,0-2.56-.54-5.3-2.11-7.86h-.13l-13.25,18.32Z"/></g><g><g><polygon class="c" points="167.65 408.35 167.65 339.35 214.5 339.35 214.5 392.61 198.76 408.35 167.65 408.35"/><path d="m213,340.85v51.14l-14.86,14.86h-28.99v-66h43.85m3-3h-49.85v72h33.23l16.62-16.62v-55.38h0Z"/></g><polygon points="216 390.46 199.38 390.46 196.62 390.46 196.62 393.23 196.62 409.85 199.38 409.85 199.38 393.23 216 393.23 216 390.46"/></g><g><g><rect class="c" x="175.24" y="255.55" width="31.67" height="34.43"/><path d="m206.13,256.34v32.87h-30.1v-32.87h30.1m1.57-1.57h-33.23v36h33.23v-36h0Z"/></g><g><path d="m184.47,279.51v-7.92h-1.29v-1.27h1.29v-.44c0-1.29.29-2.47,1.06-3.21.63-.61,1.46-.86,2.24-.86.59,0,1.1.13,1.42.27l-.23,1.29c-.25-.11-.59-.21-1.06-.21-1.42,0-1.79,1.25-1.79,2.66v.49h2.22v1.27h-2.22v7.92h-1.65Z"/><path d="m193.47,266.33c-1.39,1.86-2.39,4.33-2.39,7.77s1.04,5.81,2.39,7.71h-1.31c-1.2-1.58-2.49-4.01-2.49-7.71.02-3.74,1.29-6.17,2.49-7.77h1.31Z"/><path d="m194.23,281.81c1.35-1.88,2.39-4.35,2.39-7.77s-1.03-5.83-2.39-7.71h1.29c1.22,1.56,2.49,3.99,2.49,7.73s-1.27,6.14-2.49,7.75h-1.29Z"/></g></g><g><path d="m180.58,360.47c.29.19.79.38,1.28.38.7,0,1.03-.35,1.03-.79s-.28-.71-.99-.98c-.96-.34-1.41-.87-1.41-1.51,0-.86.69-1.56,1.84-1.56.54,0,1.01.15,1.31.33l-.24.7c-.21-.13-.59-.31-1.09-.31-.57,0-.89.33-.89.73,0,.44.32.64,1.01.9.92.35,1.4.81,1.4,1.61,0,.94-.73,1.6-1.99,1.6-.58,0-1.12-.14-1.5-.36l.24-.74Z"/><path d="m186.23,354.6v1.53h1.39v.74h-1.39v2.87c0,.66.19,1.03.73,1.03.25,0,.44-.03.56-.07l.04.73c-.19.08-.48.13-.86.13-.45,0-.81-.14-1.04-.41-.28-.29-.37-.76-.37-1.39v-2.9h-.83v-.74h.83v-1.28l.95-.25Z"/><path d="m191.66,361.46l-.08-.67h-.03c-.3.42-.87.79-1.63.79-1.08,0-1.63-.76-1.63-1.53,0-1.29,1.14-1.99,3.2-1.98v-.11c0-.44-.12-1.23-1.21-1.23-.49,0-1.01.15-1.38.4l-.22-.64c.44-.29,1.08-.47,1.75-.47,1.63,0,2.02,1.11,2.02,2.18v1.99c0,.46.02.91.09,1.28h-.88Zm-.14-2.72c-1.05-.02-2.25.17-2.25,1.2,0,.63.42.92.91.92.69,0,1.13-.44,1.29-.89.03-.1.05-.21.05-.31v-.92Z"/><path d="m195.13,354.6v1.53h1.39v.74h-1.39v2.87c0,.66.19,1.03.73,1.03.25,0,.44-.03.56-.07l.04.73c-.19.08-.48.13-.86.13-.45,0-.81-.14-1.04-.41-.28-.29-.37-.76-.37-1.39v-2.9h-.83v-.74h.83v-1.28l.95-.25Z"/><path d="m198.08,358.97c.02,1.31.86,1.85,1.83,1.85.69,0,1.11-.12,1.47-.28l.16.69c-.34.15-.92.33-1.77.33-1.64,0-2.62-1.08-2.62-2.68s.95-2.87,2.5-2.87c1.74,0,2.2,1.53,2.2,2.51,0,.2-.02.35-.03.45h-3.74Zm2.84-.69c.01-.62-.25-1.57-1.34-1.57-.98,0-1.41.9-1.48,1.57h2.83Z"/><path d="m186.55,374.66l.29-2.16h-.9v-.65h1l.21-1.59h-.95v-.65h1.04l.29-2.1h.64l-.28,2.1h1.14l.29-2.1h.65l-.27,2.1h.9v.65h-1l-.2,1.59h.95v.65h-1.04l-.29,2.16h-.66l.29-2.16h-1.14l-.29,2.16h-.66Zm2.19-2.81l.21-1.59h-1.14l-.21,1.59h1.14Z"/><path d="m196.24,371.01c0,2.43-.9,3.77-2.49,3.77-1.4,0-2.34-1.31-2.37-3.67,0-2.4,1.03-3.72,2.49-3.72s2.37,1.34,2.37,3.62Zm-3.88.11c0,1.86.57,2.92,1.45,2.92.99,0,1.46-1.16,1.46-2.98s-.45-2.92-1.45-2.92c-.85,0-1.46,1.03-1.46,2.98Z"/></g><g><g><polygon class="c" points="167.65 220.04 167.65 151.04 214.5 151.04 214.5 204.3 198.76 220.04 167.65 220.04"/><path d="m213,152.54v51.14l-14.86,14.86h-28.99v-66h43.85m3-3h-49.85v72h33.23l16.62-16.62v-55.38h0Z"/></g><polygon points="216 202.15 199.38 202.15 196.62 202.15 196.62 204.92 196.62 221.54 199.38 221.54 199.38 204.92 216 204.92 216 202.15"/></g><g><path d="m179.47,170.66c.02,1.31.86,1.85,1.83,1.85.69,0,1.11-.12,1.47-.28l.17.69c-.34.15-.92.33-1.77.33-1.64,0-2.62-1.08-2.62-2.68s.95-2.87,2.5-2.87c1.74,0,2.2,1.53,2.2,2.51,0,.2-.02.35-.03.45h-3.74Zm2.84-.69c0-.62-.25-1.57-1.34-1.57-.98,0-1.41.9-1.49,1.57h2.83Z"/><path d="m184.81,167.83l1.05,2.99c.18.48.32.92.43,1.36h.03c.12-.44.28-.88.45-1.36l1.04-2.99h1.01l-2.09,5.33h-.93l-2.02-5.33h1.03Z"/><path d="m190.16,170.66c.02,1.31.86,1.85,1.83,1.85.69,0,1.11-.12,1.47-.28l.17.69c-.34.15-.92.33-1.77.33-1.64,0-2.62-1.08-2.62-2.68s.95-2.87,2.5-2.87c1.74,0,2.2,1.53,2.2,2.51,0,.2-.02.35-.03.45h-3.74Zm2.84-.69c0-.62-.25-1.57-1.34-1.57-.98,0-1.41.9-1.49,1.57h2.83Z"/><path d="m195.13,169.27c0-.55-.01-1-.04-1.44h.86l.05.88h.02c.26-.51.88-1,1.76-1,.74,0,1.88.44,1.88,2.27v3.18h-.97v-3.07c0-.86-.32-1.57-1.23-1.57-.64,0-1.13.45-1.3.99-.04.12-.06.29-.06.45v3.2h-.97v-3.88Z"/><path d="m202.36,166.3v1.53h1.39v.74h-1.39v2.87c0,.66.19,1.03.73,1.03.25,0,.44-.03.56-.07l.04.73c-.19.08-.48.13-.86.13-.45,0-.81-.14-1.04-.41-.28-.29-.37-.76-.37-1.39v-2.9h-.83v-.74h.83v-1.28l.95-.25Z"/><path d="m186.55,186.35l.29-2.16h-.9v-.65h1l.21-1.59h-.95v-.65h1.04l.29-2.1h.64l-.28,2.1h1.14l.29-2.1h.65l-.27,2.1h.9v.65h-1l-.2,1.59h.95v.65h-1.04l-.29,2.16h-.66l.29-2.16h-1.14l-.29,2.16h-.66Zm2.19-2.81l.21-1.59h-1.14l-.21,1.59h1.14Z"/><path d="m196.24,182.7c0,2.43-.9,3.77-2.49,3.77-1.4,0-2.34-1.31-2.37-3.67,0-2.4,1.03-3.72,2.49-3.72s2.37,1.34,2.37,3.62Zm-3.88.11c0,1.86.57,2.92,1.45,2.92.99,0,1.46-1.16,1.46-2.98s-.45-2.92-1.45-2.92c-.85,0-1.46,1.03-1.46,2.98Z"/></g><g><path d="m100.56,200.46h-2.88v2.67h3.21v.8h-4.17v-7.42h4v.8h-3.05v2.34h2.88v.79Z"/><path d="m102.1,200.05c0-.55-.01-1-.04-1.44h.85l.04.86h.03c.3-.51.79-.98,1.67-.98.73,0,1.28.44,1.51,1.07h.02c.16-.3.37-.53.59-.69.32-.24.67-.37,1.18-.37.7,0,1.75.46,1.75,2.31v3.14h-.95v-3.01c0-1.02-.38-1.64-1.16-1.64-.55,0-.98.41-1.14.88-.04.13-.08.31-.08.48v3.29h-.95v-3.19c0-.85-.38-1.46-1.11-1.46-.61,0-1.04.48-1.2.97-.05.14-.08.31-.08.47v3.21h-.95v-3.88Z"/><path d="m111.28,200.35c0-.68-.02-1.23-.04-1.74h.87l.04.91h.02c.4-.65,1.02-1.03,1.89-1.03,1.29,0,2.26,1.09,2.26,2.71,0,1.91-1.17,2.86-2.42,2.86-.71,0-1.32-.31-1.64-.84h-.02v2.89h-.96v-5.77Zm.96,1.42c0,.14.02.27.04.4.18.67.76,1.13,1.45,1.13,1.02,0,1.62-.84,1.62-2.06,0-1.07-.56-1.98-1.58-1.98-.66,0-1.28.47-1.46,1.2-.03.12-.07.26-.07.4v.91Z"/><path d="m118.7,197.08v1.53h1.38v.74h-1.38v2.87c0,.66.19,1.03.72,1.03.25,0,.44-.03.56-.07l.04.73c-.19.08-.48.13-.86.13-.45,0-.81-.14-1.04-.41-.28-.29-.38-.76-.38-1.39v-2.9h-.82v-.74h.82v-1.28l.95-.25Z"/><path d="m121.63,198.61l1.17,3.15c.12.35.25.77.34,1.09h.02c.1-.32.21-.73.34-1.11l1.06-3.12h1.02l-1.45,3.8c-.69,1.83-1.17,2.76-1.83,3.33-.47.42-.95.58-1.19.63l-.24-.81c.24-.08.56-.23.85-.47.26-.21.59-.58.81-1.08.04-.1.08-.18.08-.23s-.02-.13-.07-.25l-1.97-4.91h1.06Z"/><path d="m101.87,209.5c-.8,1.08-1.39,2.51-1.39,4.5s.61,3.37,1.39,4.47h-.76c-.69-.91-1.44-2.32-1.44-4.47.01-2.17.75-3.58,1.44-4.5h.76Z"/><path d="m102.89,213.25c0-.55,0-1-.04-1.44h.86l.05.88h.02c.26-.51.88-1,1.76-1,.74,0,1.88.44,1.88,2.27v3.18h-.97v-3.07c0-.86-.32-1.57-1.23-1.57-.64,0-1.13.45-1.3.99-.04.12-.07.29-.07.45v3.2h-.97v-3.88Z"/><path d="m113.46,215.68c0,.55.01,1.03.04,1.45h-.86l-.05-.87h-.02c-.25.43-.81.99-1.76.99-.84,0-1.84-.46-1.84-2.33v-3.11h.97v2.95c0,1.01.31,1.69,1.19,1.69.65,0,1.1-.45,1.28-.88.06-.14.09-.32.09-.5v-3.27h.97v3.87Z"/><path d="m115.06,209.32h.97v7.81h-.97v-7.81Z"/><path d="m117.66,209.32h.97v7.81h-.97v-7.81Z"/><path d="m119.67,218.47c.78-1.09,1.39-2.52,1.39-4.5s-.59-3.38-1.39-4.47h.75c.71.9,1.44,2.31,1.44,4.48s-.74,3.55-1.44,4.49h-.75Z"/><path d="m100.27,229.34c.29.19.79.38,1.28.38.7,0,1.03-.35,1.03-.79s-.28-.71-.99-.98c-.96-.34-1.41-.87-1.41-1.51,0-.86.69-1.56,1.84-1.56.54,0,1.01.15,1.31.33l-.24.7c-.21-.13-.59-.31-1.09-.31-.57,0-.89.33-.89.73,0,.44.32.64,1.01.9.92.35,1.4.81,1.4,1.61,0,.94-.73,1.6-1.99,1.6-.58,0-1.12-.14-1.5-.36l.24-.74Z"/><path d="m105.93,223.48v1.53h1.38v.74h-1.38v2.87c0,.66.19,1.03.72,1.03.25,0,.44-.03.56-.07l.04.73c-.19.08-.48.13-.86.13-.45,0-.81-.14-1.04-.41-.28-.29-.38-.76-.38-1.39v-2.9h-.82v-.74h.82v-1.28l.95-.25Z"/><path d="m111.35,230.34l-.08-.67h-.03c-.3.42-.87.79-1.63.79-1.08,0-1.63-.76-1.63-1.53,0-1.29,1.14-1.99,3.2-1.98v-.11c0-.44-.12-1.23-1.21-1.23-.5,0-1.01.15-1.39.4l-.22-.64c.44-.29,1.08-.47,1.75-.47,1.63,0,2.03,1.11,2.03,2.18v1.99c0,.46.02.91.09,1.28h-.88Zm-.14-2.72c-1.06-.02-2.26.17-2.26,1.2,0,.63.42.92.91.92.69,0,1.13-.44,1.29-.89.03-.1.05-.21.05-.31v-.92Z"/><path d="m114.83,223.48v1.53h1.38v.74h-1.38v2.87c0,.66.19,1.03.72,1.03.25,0,.44-.03.56-.07l.04.73c-.19.08-.48.13-.86.13-.45,0-.81-.14-1.04-.41-.28-.29-.38-.76-.38-1.39v-2.9h-.82v-.74h.82v-1.28l.95-.25Z"/><path d="m117.77,227.85c.02,1.31.86,1.85,1.83,1.85.69,0,1.11-.12,1.47-.28l.17.69c-.34.15-.92.33-1.77.33-1.64,0-2.62-1.08-2.62-2.68s.95-2.87,2.5-2.87c1.74,0,2.2,1.53,2.2,2.51,0,.2-.02.35-.03.45h-3.74Zm2.84-.69c0-.62-.25-1.57-1.34-1.57-.98,0-1.41.9-1.49,1.57h2.83Z"/></g><g><line class="d" x1="138.46" y1="271.38" x2="160.46" y2="271.38"/><polygon points="157.33 275.97 174.46 271.38 157.33 266.79 157.33 275.97"/></g><g><polyline class="d" points="191.08 290.77 191.08 301.85 221.54 301.85 221.54 271.38 232.46 271.38"/><polygon points="229.33 275.97 246.46 271.38 229.33 266.79 229.33 275.97"/></g><g><line class="d" x1="191.08" y1="290.77" x2="191.08" y2="323.85"/><polygon points="186.49 320.72 191.08 337.85 195.67 320.72 186.49 320.72"/></g><g><line class="d" x1="191.08" y1="221.54" x2="191.08" y2="240.77"/><polygon points="186.49 237.64 191.08 254.77 195.67 237.64 186.49 237.64"/></g><g><g><polygon class="c" points="239.65 408.35 239.65 339.35 286.5 339.35 286.5 392.61 270.76 408.35 239.65 408.35"/><path d="m285,340.85v51.14l-14.86,14.86h-28.99v-66h43.85m3-3h-49.85v72h33.23l16.62-16.62v-55.38h0Z"/></g><polygon points="288 390.46 271.38 390.46 268.62 390.46 268.62 393.23 268.62 409.85 271.38 409.85 271.38 393.23 288 393.23 288 390.46"/></g><g><g><rect class="c" x="247.24" y="255.55" width="31.67" height="34.43"/><path d="m278.13,256.34v32.87h-30.1v-32.87h30.1m1.57-1.57h-33.23v36h33.23v-36h0Z"/></g><g><path d="m256.47,279.51v-7.92h-1.29v-1.27h1.29v-.44c0-1.29.29-2.47,1.06-3.21.63-.61,1.46-.86,2.24-.86.59,0,1.1.13,1.42.27l-.23,1.29c-.25-.11-.59-.21-1.06-.21-1.42,0-1.79,1.25-1.79,2.66v.49h2.22v1.27h-2.22v7.92h-1.65Z"/><path d="m265.47,266.33c-1.39,1.86-2.39,4.33-2.39,7.77s1.04,5.81,2.39,7.71h-1.31c-1.2-1.58-2.49-4.01-2.49-7.71.02-3.74,1.29-6.17,2.49-7.77h1.31Z"/><path d="m266.23,281.81c1.35-1.88,2.39-4.35,2.39-7.77s-1.03-5.83-2.39-7.71h1.29c1.22,1.56,2.49,3.99,2.49,7.73s-1.27,6.14-2.49,7.75h-1.29Z"/></g></g><g><path d="m252.58,360.47c.29.19.79.38,1.28.38.7,0,1.03-.35,1.03-.79s-.28-.71-.99-.98c-.96-.34-1.41-.87-1.41-1.51,0-.86.69-1.56,1.84-1.56.54,0,1.01.15,1.31.33l-.24.7c-.21-.13-.59-.31-1.09-.31-.57,0-.89.33-.89.73,0,.44.32.64,1.01.9.92.35,1.4.81,1.4,1.61,0,.94-.73,1.6-1.99,1.6-.58,0-1.12-.14-1.5-.36l.24-.74Z"/><path d="m258.23,354.6v1.53h1.39v.74h-1.39v2.87c0,.66.19,1.03.73,1.03.25,0,.44-.03.56-.07l.04.73c-.19.08-.48.13-.86.13-.45,0-.81-.14-1.04-.41-.28-.29-.37-.76-.37-1.39v-2.9h-.83v-.74h.83v-1.28l.95-.25Z"/><path d="m263.66,361.46l-.08-.67h-.03c-.3.42-.87.79-1.63.79-1.08,0-1.63-.76-1.63-1.53,0-1.29,1.14-1.99,3.2-1.98v-.11c0-.44-.12-1.23-1.21-1.23-.5,0-1.01.15-1.39.4l-.22-.64c.44-.29,1.08-.47,1.75-.47,1.63,0,2.02,1.11,2.02,2.18v1.99c0,.46.02.91.09,1.28h-.88Zm-.14-2.72c-1.06-.02-2.25.17-2.25,1.2,0,.63.42.92.91.92.69,0,1.13-.44,1.29-.89.03-.1.05-.21.05-.31v-.92Z"/><path d="m267.13,354.6v1.53h1.39v.74h-1.39v2.87c0,.66.19,1.03.73,1.03.25,0,.44-.03.56-.07l.04.73c-.19.08-.48.13-.86.13-.45,0-.81-.14-1.04-.41-.28-.29-.37-.76-.37-1.39v-2.9h-.83v-.74h.83v-1.28l.95-.25Z"/><path d="m270.08,358.97c.02,1.31.86,1.85,1.83,1.85.69,0,1.11-.12,1.47-.28l.17.69c-.34.15-.92.33-1.77.33-1.64,0-2.62-1.08-2.62-2.68s.95-2.87,2.5-2.87c1.74,0,2.2,1.53,2.2,2.51,0,.2-.02.35-.03.45h-3.74Zm2.84-.69c.01-.62-.25-1.57-1.34-1.57-.98,0-1.41.9-1.49,1.57h2.83Z"/><path d="m258.55,374.66l.29-2.16h-.9v-.65h1l.21-1.59h-.95v-.65h1.04l.29-2.1h.64l-.28,2.1h1.14l.29-2.1h.65l-.27,2.1h.9v.65h-1l-.2,1.59h.95v.65h-1.04l-.29,2.16h-.66l.29-2.16h-1.14l-.29,2.16h-.66Zm2.19-2.81l.21-1.59h-1.14l-.21,1.59h1.14Z"/><path d="m265.59,368.41h-.02l-1.24.67-.19-.74,1.56-.84h.83v7.15h-.93v-6.25Z"/></g><g><g><polygon class="c" points="239.65 220.04 239.65 151.04 286.5 151.04 286.5 204.3 270.76 220.04 239.65 220.04"/><path d="m285,152.54v51.14l-14.86,14.86h-28.99v-66h43.85m3-3h-49.85v72h33.23l16.62-16.62v-55.38h0Z"/></g><polygon points="288 202.15 271.38 202.15 268.62 202.15 268.62 204.92 268.62 221.54 271.38 221.54 271.38 204.92 288 204.92 288 202.15"/></g><g><path d="m251.47,170.66c.02,1.31.86,1.85,1.83,1.85.69,0,1.11-.12,1.47-.28l.17.69c-.34.15-.92.33-1.77.33-1.64,0-2.62-1.08-2.62-2.68s.95-2.87,2.5-2.87c1.74,0,2.2,1.53,2.2,2.51,0,.2-.02.35-.03.45h-3.74Zm2.84-.69c.01-.62-.25-1.57-1.34-1.57-.98,0-1.41.9-1.49,1.57h2.83Z"/><path d="m256.81,167.83l1.05,2.99c.18.48.32.92.43,1.36h.03c.12-.44.27-.88.45-1.36l1.03-2.99h1.01l-2.09,5.33h-.92l-2.02-5.33h1.03Z"/><path d="m262.16,170.66c.02,1.31.86,1.85,1.83,1.85.69,0,1.11-.12,1.47-.28l.17.69c-.34.15-.92.33-1.77.33-1.64,0-2.62-1.08-2.62-2.68s.95-2.87,2.5-2.87c1.74,0,2.2,1.53,2.2,2.51,0,.2-.02.35-.03.45h-3.74Zm2.84-.69c.01-.62-.25-1.57-1.34-1.57-.98,0-1.41.9-1.49,1.57h2.83Z"/><path d="m267.13,169.27c0-.55-.01-1-.04-1.44h.86l.05.88h.02c.26-.51.88-1,1.76-1,.74,0,1.88.44,1.88,2.27v3.18h-.97v-3.07c0-.86-.32-1.57-1.23-1.57-.64,0-1.13.45-1.3.99-.04.12-.07.29-.07.45v3.2h-.97v-3.88Z"/><path d="m274.36,166.3v1.53h1.39v.74h-1.39v2.87c0,.66.19,1.03.73,1.03.25,0,.44-.03.56-.07l.04.73c-.19.08-.48.13-.86.13-.45,0-.81-.14-1.04-.41-.28-.29-.37-.76-.37-1.39v-2.9h-.83v-.74h.83v-1.28l.95-.25Z"/><path d="m258.55,186.35l.29-2.16h-.9v-.65h1l.21-1.59h-.95v-.65h1.04l.29-2.1h.64l-.28,2.1h1.14l.29-2.1h.65l-.27,2.1h.9v.65h-1l-.2,1.59h.95v.65h-1.04l-.29,2.16h-.66l.29-2.16h-1.14l-.29,2.16h-.66Zm2.19-2.81l.21-1.59h-1.14l-.21,1.59h1.14Z"/><path d="m265.59,180.1h-.02l-1.24.67-.19-.74,1.56-.84h.83v7.15h-.93v-6.25Z"/></g><g><polyline class="d" points="263.08 290.77 263.08 301.85 293.54 301.85 293.54 271.38 304.46 271.38"/><polygon points="301.33 275.97 318.46 271.38 301.33 266.79 301.33 275.97"/></g><g><line class="d" x1="263.08" y1="290.77" x2="263.08" y2="323.85"/><polygon points="258.49 320.72 263.08 337.85 267.67 320.72 258.49 320.72"/></g><g><line class="d" x1="263.08" y1="221.54" x2="263.08" y2="240.77"/><polygon points="258.49 237.64 263.08 254.77 267.67 237.64 258.49 237.64"/></g><g><g><polygon class="c" points="311.65 408.35 311.65 339.35 358.5 339.35 358.5 392.61 342.76 408.35 311.65 408.35"/><path d="m357,340.85v51.14l-14.86,14.86h-28.99v-66h43.85m3-3h-49.85v72h33.23l16.62-16.62v-55.38h0Z"/></g><polygon points="360 390.46 343.38 390.46 340.62 390.46 340.62 393.23 340.62 409.85 343.38 409.85 343.38 393.23 360 393.23 360 390.46"/></g><g><g><rect class="c" x="319.24" y="255.55" width="31.67" height="34.43"/><path d="m350.13,256.34v32.87h-30.1v-32.87h30.1m1.57-1.57h-33.23v36h33.23v-36h0Z"/></g><g><path d="m328.47,279.51v-7.92h-1.29v-1.27h1.29v-.44c0-1.29.29-2.47,1.06-3.21.63-.61,1.46-.86,2.24-.86.59,0,1.1.13,1.42.27l-.23,1.29c-.25-.11-.59-.21-1.06-.21-1.42,0-1.79,1.25-1.79,2.66v.49h2.22v1.27h-2.22v7.92h-1.65Z"/><path d="m337.47,266.33c-1.39,1.86-2.39,4.33-2.39,7.77s1.04,5.81,2.39,7.71h-1.31c-1.2-1.58-2.49-4.01-2.49-7.71.02-3.74,1.29-6.17,2.49-7.77h1.31Z"/><path d="m338.23,281.81c1.35-1.88,2.39-4.35,2.39-7.77s-1.03-5.83-2.39-7.71h1.29c1.22,1.56,2.49,3.99,2.49,7.73s-1.27,6.14-2.49,7.75h-1.29Z"/></g></g><g><path d="m324.58,360.47c.29.19.79.38,1.28.38.7,0,1.03-.35,1.03-.79s-.28-.71-.99-.98c-.96-.34-1.41-.87-1.41-1.51,0-.86.69-1.56,1.84-1.56.54,0,1.01.15,1.31.33l-.24.7c-.21-.13-.59-.31-1.09-.31-.57,0-.89.33-.89.73,0,.44.32.64,1.01.9.92.35,1.4.81,1.4,1.61,0,.94-.73,1.6-1.99,1.6-.58,0-1.12-.14-1.5-.36l.24-.74Z"/><path d="m330.23,354.6v1.53h1.39v.74h-1.39v2.87c0,.66.19,1.03.73,1.03.25,0,.44-.03.56-.07l.04.73c-.19.08-.48.13-.86.13-.45,0-.81-.14-1.04-.41-.28-.29-.37-.76-.37-1.39v-2.9h-.83v-.74h.83v-1.28l.95-.25Z"/><path d="m335.66,361.46l-.08-.67h-.03c-.3.42-.87.79-1.63.79-1.08,0-1.63-.76-1.63-1.53,0-1.29,1.14-1.99,3.2-1.98v-.11c0-.44-.12-1.23-1.21-1.23-.5,0-1.01.15-1.39.4l-.22-.64c.44-.29,1.08-.47,1.75-.47,1.63,0,2.02,1.11,2.02,2.18v1.99c0,.46.02.91.09,1.28h-.88Zm-.14-2.72c-1.06-.02-2.25.17-2.25,1.2,0,.63.42.92.91.92.69,0,1.13-.44,1.29-.89.03-.1.05-.21.05-.31v-.92Z"/><path d="m339.13,354.6v1.53h1.39v.74h-1.39v2.87c0,.66.19,1.03.73,1.03.25,0,.44-.03.56-.07l.04.73c-.19.08-.48.13-.86.13-.45,0-.81-.14-1.04-.41-.28-.29-.37-.76-.37-1.39v-2.9h-.83v-.74h.83v-1.28l.95-.25Z"/><path d="m342.08,358.97c.02,1.31.86,1.85,1.83,1.85.69,0,1.11-.12,1.47-.28l.17.69c-.34.15-.92.33-1.77.33-1.64,0-2.62-1.08-2.62-2.68s.95-2.87,2.5-2.87c1.74,0,2.2,1.53,2.2,2.51,0,.2-.02.35-.03.45h-3.74Zm2.84-.69c.01-.62-.25-1.57-1.34-1.57-.98,0-1.41.9-1.49,1.57h2.83Z"/><path d="m330.55,374.66l.29-2.16h-.9v-.65h1l.21-1.59h-.95v-.65h1.04l.29-2.1h.64l-.28,2.1h1.14l.29-2.1h.65l-.27,2.1h.9v.65h-1l-.2,1.59h.95v.65h-1.04l-.29,2.16h-.66l.29-2.16h-1.14l-.29,2.16h-.66Zm2.19-2.81l.21-1.59h-1.14l-.21,1.59h1.14Z"/><path d="m335.48,374.66v-.59l.76-.74c1.83-1.74,2.65-2.66,2.66-3.74,0-.73-.35-1.4-1.42-1.4-.65,0-1.19.33-1.52.6l-.31-.68c.5-.42,1.2-.73,2.02-.73,1.54,0,2.19,1.06,2.19,2.08,0,1.32-.96,2.39-2.46,3.84l-.57.53v.02h3.21v.8h-4.57Z"/></g><g><g><polygon class="c" points="311.65 220.04 311.65 151.04 358.5 151.04 358.5 204.3 342.76 220.04 311.65 220.04"/><path d="m357,152.54v51.14l-14.86,14.86h-28.99v-66h43.85m3-3h-49.85v72h33.23l16.62-16.62v-55.38h0Z"/></g><polygon points="360 202.15 343.38 202.15 340.62 202.15 340.62 204.92 340.62 221.54 343.38 221.54 343.38 204.92 360 204.92 360 202.15"/></g><g><path d="m323.47,170.66c.02,1.31.86,1.85,1.83,1.85.69,0,1.11-.12,1.47-.28l.17.69c-.34.15-.92.33-1.77.33-1.64,0-2.62-1.08-2.62-2.68s.95-2.87,2.5-2.87c1.74,0,2.2,1.53,2.2,2.51,0,.2-.02.35-.03.45h-3.74Zm2.84-.69c.01-.62-.25-1.57-1.34-1.57-.98,0-1.41.9-1.49,1.57h2.83Z"/><path d="m328.81,167.83l1.05,2.99c.18.48.32.92.43,1.36h.03c.12-.44.27-.88.45-1.36l1.03-2.99h1.01l-2.09,5.33h-.92l-2.02-5.33h1.03Z"/><path d="m334.16,170.66c.02,1.31.86,1.85,1.83,1.85.69,0,1.11-.12,1.47-.28l.17.69c-.34.15-.92.33-1.77.33-1.64,0-2.62-1.08-2.62-2.68s.95-2.87,2.5-2.87c1.74,0,2.2,1.53,2.2,2.51,0,.2-.02.35-.03.45h-3.74Zm2.84-.69c.01-.62-.25-1.57-1.34-1.57-.98,0-1.41.9-1.49,1.57h2.83Z"/><path d="m339.13,169.27c0-.55-.01-1-.04-1.44h.86l.05.88h.02c.26-.51.88-1,1.76-1,.74,0,1.88.44,1.88,2.27v3.18h-.97v-3.07c0-.86-.32-1.57-1.23-1.57-.64,0-1.13.45-1.3.99-.04.12-.07.29-.07.45v3.2h-.97v-3.88Z"/><path d="m346.36,166.3v1.53h1.39v.74h-1.39v2.87c0,.66.19,1.03.73,1.03.25,0,.44-.03.56-.07l.04.73c-.19.08-.48.13-.86.13-.45,0-.81-.14-1.04-.41-.28-.29-.37-.76-.37-1.39v-2.9h-.83v-.74h.83v-1.28l.95-.25Z"/><path d="m330.55,186.35l.29-2.16h-.9v-.65h1l.21-1.59h-.95v-.65h1.04l.29-2.1h.64l-.28,2.1h1.14l.29-2.1h.65l-.27,2.1h.9v.65h-1l-.2,1.59h.95v.65h-1.04l-.29,2.16h-.66l.29-2.16h-1.14l-.29,2.16h-.66Zm2.19-2.81l.21-1.59h-1.14l-.21,1.59h1.14Z"/><path d="m335.48,186.35v-.59l.76-.74c1.83-1.74,2.65-2.66,2.66-3.74,0-.73-.35-1.4-1.42-1.4-.65,0-1.19.33-1.52.6l-.31-.68c.5-.42,1.2-.73,2.02-.73,1.54,0,2.19,1.06,2.19,2.08,0,1.32-.96,2.39-2.46,3.84l-.57.53v.02h3.21v.8h-4.57Z"/></g><g><polyline class="d" points="335.08 290.77 335.08 301.85 365.54 301.85 365.54 271.38 376.46 271.38"/><polygon points="373.33 275.97 390.46 271.38 373.33 266.79 373.33 275.97"/></g><g><line class="d" x1="335.08" y1="290.77" x2="335.08" y2="323.85"/><polygon points="330.49 320.72 335.08 337.85 339.67 320.72 330.49 320.72"/></g><g><line class="d" x1="335.08" y1="221.54" x2="335.08" y2="240.77"/><polygon points="330.49 237.64 335.08 254.77 339.67 237.64 330.49 237.64"/></g><g><g><polygon class="c" points="383.65 408.35 383.65 339.35 430.5 339.35 430.5 392.61 414.76 408.35 383.65 408.35"/><path d="m429,340.85v51.14l-14.86,14.86h-28.99v-66h43.85m3-3h-49.85v72h33.23l16.62-16.62v-55.38h0Z"/></g><polygon points="432 390.46 415.38 390.46 412.62 390.46 412.62 393.23 412.62 409.85 415.38 409.85 415.38 393.23 432 393.23 432 390.46"/></g><g><g><rect class="c" x="391.24" y="255.55" width="31.67" height="34.43"/><path d="m422.13,256.34v32.87h-30.1v-32.87h30.1m1.57-1.57h-33.23v36h33.23v-36h0Z"/></g><g><path d="m400.46,279.51v-7.92h-1.29v-1.27h1.29v-.44c0-1.29.29-2.47,1.06-3.21.63-.61,1.46-.86,2.24-.86.59,0,1.1.13,1.42.27l-.23,1.29c-.25-.11-.59-.21-1.06-.21-1.43,0-1.79,1.25-1.79,2.66v.49h2.22v1.27h-2.22v7.92h-1.65Z"/><path d="m409.47,266.33c-1.39,1.86-2.39,4.33-2.39,7.77s1.04,5.81,2.39,7.71h-1.31c-1.2-1.58-2.49-4.01-2.49-7.71.02-3.74,1.29-6.17,2.49-7.77h1.31Z"/><path d="m410.23,281.81c1.35-1.88,2.39-4.35,2.39-7.77s-1.03-5.83-2.39-7.71h1.29c1.21,1.56,2.49,3.99,2.49,7.73s-1.27,6.14-2.49,7.75h-1.29Z"/></g></g><g><path d="m436,255.65c.49.32,1.37.67,2.2.67,1.22,0,1.79-.61,1.79-1.37s-.48-1.23-1.71-1.69c-1.65-.59-2.43-1.5-2.43-2.6,0-1.48,1.2-2.7,3.17-2.7.93,0,1.75.27,2.26.57l-.42,1.22c-.36-.23-1.03-.53-1.88-.53-.99,0-1.54.57-1.54,1.25,0,.76.55,1.1,1.75,1.56,1.6.61,2.41,1.41,2.41,2.77,0,1.61-1.25,2.75-3.44,2.75-1.01,0-1.94-.25-2.58-.63l.42-1.27Z"/><path d="m445.53,244.35c-.44,1.6-1.25,3.63-1.79,4.5l-1.06.13c.42-1.12.91-3.1,1.12-4.46l1.73-.17Z"/><path d="m449.35,249.69c0-.7.47-1.2,1.14-1.2s1.1.49,1.12,1.2c0,.67-.44,1.18-1.14,1.18-.67,0-1.12-.51-1.12-1.18Zm0,6.71c0-.7.47-1.2,1.14-1.2s1.1.49,1.12,1.2c0,.67-.44,1.18-1.14,1.18-.67,0-1.12-.51-1.12-1.18Z"/><path d="m453.06,250.96v-1.14h9.8v1.14h-9.8Zm0,3.72v-1.14h9.8v1.14h-9.8Z"/><path d="m469.21,257.36v-7.92h-1.29v-1.27h1.29v-.44c0-1.29.29-2.47,1.06-3.21.63-.61,1.46-.86,2.24-.86.59,0,1.1.13,1.42.27l-.23,1.29c-.25-.11-.59-.21-1.06-.21-1.42,0-1.79,1.25-1.79,2.66v.49h2.22v1.27h-2.22v7.92h-1.65Z"/><path d="m478.21,244.18c-1.39,1.86-2.39,4.33-2.39,7.77s1.04,5.81,2.39,7.71h-1.31c-1.2-1.58-2.49-4.01-2.49-7.71.02-3.74,1.29-6.17,2.49-7.77h1.31Z"/><path d="m479.75,255.65c.49.32,1.37.67,2.2.67,1.22,0,1.79-.61,1.79-1.37s-.48-1.23-1.71-1.69c-1.65-.59-2.43-1.5-2.43-2.6,0-1.48,1.2-2.7,3.17-2.7.93,0,1.75.27,2.26.57l-.42,1.22c-.36-.23-1.03-.53-1.88-.53-.99,0-1.54.57-1.54,1.25,0,.76.55,1.1,1.75,1.56,1.6.61,2.41,1.41,2.41,2.77,0,1.61-1.25,2.75-3.44,2.75-1.01,0-1.94-.25-2.58-.63l.42-1.27Z"/><path d="m486.21,259.7c.42-1.12.93-3.15,1.14-4.54l1.86-.19c-.44,1.61-1.27,3.72-1.8,4.62l-1.2.11Z"/><path d="m496.18,253.07c.04,2.26,1.48,3.19,3.15,3.19,1.2,0,1.92-.21,2.54-.48l.29,1.2c-.59.27-1.6.57-3.06.57-2.83,0-4.52-1.86-4.52-4.64s1.63-4.96,4.31-4.96c3,0,3.8,2.64,3.8,4.33,0,.34-.04.61-.06.78h-6.46Zm4.9-1.2c.02-1.06-.44-2.72-2.32-2.72-1.69,0-2.43,1.56-2.56,2.72h4.88Z"/><path d="m506.41,244.35c-.44,1.6-1.25,3.63-1.79,4.5l-1.06.13c.42-1.12.91-3.1,1.12-4.46l1.73-.17Z"/><path d="m507.22,259.66c1.35-1.88,2.39-4.35,2.39-7.77s-1.03-5.83-2.39-7.71h1.29c1.22,1.56,2.49,3.99,2.49,7.73s-1.27,6.14-2.49,7.75h-1.29Z"/></g><g><path d="m472.78,278.53c0-.7.47-1.2,1.14-1.2s1.12.49,1.12,1.2-.44,1.2-1.14,1.2c-.67,0-1.12-.51-1.12-1.2Z"/><path d="m476.72,278.53c0-.7.47-1.2,1.14-1.2s1.12.49,1.12,1.2-.44,1.2-1.14,1.2c-.67,0-1.12-.51-1.12-1.2Z"/><path d="m480.65,278.53c0-.7.47-1.2,1.14-1.2s1.12.49,1.12,1.2-.44,1.2-1.14,1.2c-.67,0-1.12-.51-1.12-1.2Z"/></g><g><path d="m396.58,360.47c.29.19.79.38,1.28.38.7,0,1.03-.35,1.03-.79s-.28-.71-.99-.98c-.96-.34-1.41-.87-1.41-1.51,0-.86.69-1.56,1.84-1.56.54,0,1.01.15,1.31.33l-.24.7c-.21-.13-.59-.31-1.09-.31-.57,0-.89.33-.89.73,0,.44.32.64,1.01.9.92.35,1.4.81,1.4,1.61,0,.94-.73,1.6-1.99,1.6-.58,0-1.12-.14-1.5-.36l.24-.74Z"/><path d="m402.23,354.6v1.53h1.39v.74h-1.39v2.87c0,.66.19,1.03.73,1.03.25,0,.44-.03.56-.07l.04.73c-.19.08-.48.13-.86.13-.45,0-.81-.14-1.04-.41-.28-.29-.37-.76-.37-1.39v-2.9h-.83v-.74h.83v-1.28l.95-.25Z"/><path d="m407.66,361.46l-.08-.67h-.03c-.3.42-.87.79-1.63.79-1.08,0-1.63-.76-1.63-1.53,0-1.29,1.14-1.99,3.2-1.98v-.11c0-.44-.12-1.23-1.21-1.23-.5,0-1.01.15-1.39.4l-.22-.64c.44-.29,1.08-.47,1.75-.47,1.63,0,2.02,1.11,2.02,2.18v1.99c0,.46.02.91.09,1.28h-.88Zm-.14-2.72c-1.06-.02-2.25.17-2.25,1.2,0,.63.42.92.91.92.69,0,1.13-.44,1.29-.89.03-.1.05-.21.05-.31v-.92Z"/><path d="m411.13,354.6v1.53h1.39v.74h-1.39v2.87c0,.66.19,1.03.73,1.03.25,0,.44-.03.56-.07l.04.73c-.19.08-.48.13-.86.13-.45,0-.81-.14-1.04-.41-.28-.29-.37-.76-.37-1.39v-2.9h-.83v-.74h.83v-1.28l.95-.25Z"/><path d="m414.08,358.97c.02,1.31.86,1.85,1.83,1.85.69,0,1.11-.12,1.47-.28l.17.69c-.34.15-.92.33-1.77.33-1.64,0-2.62-1.08-2.62-2.68s.95-2.87,2.5-2.87c1.74,0,2.2,1.53,2.2,2.51,0,.2-.02.35-.03.45h-3.74Zm2.84-.69c.01-.62-.25-1.57-1.34-1.57-.98,0-1.41.9-1.49,1.57h2.83Z"/><path d="m402.55,374.66l.29-2.16h-.9v-.65h1l.21-1.59h-.95v-.65h1.04l.29-2.1h.64l-.28,2.1h1.14l.29-2.1h.65l-.27,2.1h.9v.65h-1l-.2,1.59h.95v.65h-1.04l-.29,2.16h-.66l.29-2.16h-1.14l-.29,2.16h-.66Zm2.19-2.81l.21-1.59h-1.14l-.21,1.59h1.14Z"/><path d="m407.72,373.55c.27.18.91.45,1.58.45,1.24,0,1.63-.79,1.62-1.39-.01-1-.91-1.43-1.85-1.43h-.54v-.73h.54c.7,0,1.6-.36,1.6-1.21,0-.57-.36-1.08-1.25-1.08-.57,0-1.12.25-1.43.47l-.25-.7c.37-.28,1.1-.55,1.87-.55,1.41,0,2.05.84,2.05,1.71,0,.74-.44,1.36-1.32,1.68v.02c.88.18,1.6.84,1.6,1.84,0,1.14-.89,2.15-2.61,2.15-.8,0-1.51-.25-1.86-.48l.26-.75Z"/></g><g><g><polygon class="c" points="383.65 220.04 383.65 151.04 430.5 151.04 430.5 204.3 414.76 220.04 383.65 220.04"/><path d="m429,152.54v51.14l-14.86,14.86h-28.99v-66h43.85m3-3h-49.85v72h33.23l16.62-16.62v-55.38h0Z"/></g><polygon points="432 202.15 415.38 202.15 412.62 202.15 412.62 204.92 412.62 221.54 415.38 221.54 415.38 204.92 432 204.92 432 202.15"/></g><g><path d="m395.47,170.66c.02,1.31.86,1.85,1.83,1.85.69,0,1.11-.12,1.47-.28l.17.69c-.34.15-.92.33-1.77.33-1.64,0-2.62-1.08-2.62-2.68s.95-2.87,2.5-2.87c1.74,0,2.2,1.53,2.2,2.51,0,.2-.02.35-.03.45h-3.74Zm2.84-.69c.01-.62-.25-1.57-1.34-1.57-.98,0-1.41.9-1.49,1.57h2.83Z"/><path d="m400.81,167.83l1.05,2.99c.18.48.32.92.43,1.36h.03c.12-.44.27-.88.45-1.36l1.03-2.99h1.01l-2.09,5.33h-.92l-2.02-5.33h1.03Z"/><path d="m406.16,170.66c.02,1.31.86,1.85,1.83,1.85.69,0,1.11-.12,1.47-.28l.17.69c-.34.15-.92.33-1.77.33-1.64,0-2.62-1.08-2.62-2.68s.95-2.87,2.5-2.87c1.74,0,2.2,1.53,2.2,2.51,0,.2-.02.35-.03.45h-3.74Zm2.84-.69c.01-.62-.25-1.57-1.34-1.57-.98,0-1.41.9-1.49,1.57h2.83Z"/><path d="m411.13,169.27c0-.55-.01-1-.04-1.44h.86l.05.88h.02c.26-.51.88-1,1.76-1,.74,0,1.88.44,1.88,2.27v3.18h-.97v-3.07c0-.86-.32-1.57-1.23-1.57-.64,0-1.13.45-1.3.99-.04.12-.07.29-.07.45v3.2h-.97v-3.88Z"/><path d="m418.36,166.3v1.53h1.39v.74h-1.39v2.87c0,.66.19,1.03.73,1.03.25,0,.44-.03.56-.07l.04.73c-.19.08-.48.13-.86.13-.45,0-.81-.14-1.04-.41-.28-.29-.37-.76-.37-1.39v-2.9h-.83v-.74h.83v-1.28l.95-.25Z"/><path d="m402.55,186.35l.29-2.16h-.9v-.65h1l.21-1.59h-.95v-.65h1.04l.29-2.1h.64l-.28,2.1h1.14l.29-2.1h.65l-.27,2.1h.9v.65h-1l-.2,1.59h.95v.65h-1.04l-.29,2.16h-.66l.29-2.16h-1.14l-.29,2.16h-.66Zm2.19-2.81l.21-1.59h-1.14l-.21,1.59h1.14Z"/><path d="m407.72,185.24c.27.18.91.45,1.58.45,1.24,0,1.63-.79,1.62-1.39-.01-1-.91-1.43-1.85-1.43h-.54v-.73h.54c.7,0,1.6-.36,1.6-1.21,0-.57-.36-1.08-1.25-1.08-.57,0-1.12.25-1.43.47l-.25-.7c.37-.28,1.1-.55,1.87-.55,1.41,0,2.05.84,2.05,1.71,0,.74-.44,1.36-1.32,1.68v.02c.88.18,1.6.84,1.6,1.84,0,1.14-.89,2.15-2.61,2.15-.8,0-1.51-.25-1.86-.48l.26-.75Z"/></g><g><polyline class="d" points="407.08 290.77 407.08 301.85 437.54 301.85 437.54 271.38 448.46 271.38"/><polygon points="445.33 275.97 462.46 271.38 445.33 266.79 445.33 275.97"/></g><g><line class="d" x1="407.08" y1="290.77" x2="407.08" y2="323.85"/><polygon points="402.49 320.72 407.08 337.85 411.67 320.72 402.49 320.72"/></g><g><line class="d" x1="407.08" y1="221.54" x2="407.08" y2="240.77"/><polygon points="402.49 237.64 407.08 254.77 411.67 237.64 402.49 237.64"/></g><g><line class="d" x1="492.92" y1="271.38" x2="509.39" y2="271.38"/><polygon points="506.26 275.97 523.38 271.38 506.26 266.79 506.26 275.97"/></g><g><g><polygon class="c" points="516.58 408.35 516.58 339.35 563.42 339.35 563.42 392.61 547.69 408.35 516.58 408.35"/><path d="m561.92,340.85v51.14l-14.86,14.86h-28.99v-66h43.85m3-3h-49.85v72h33.23l16.62-16.62v-55.38h0Z"/></g><polygon points="564.92 390.46 548.31 390.46 545.54 390.46 545.54 393.23 545.54 409.85 548.31 409.85 548.31 393.23 564.92 393.23 564.92 390.46"/></g><g><g><rect class="c" x="524.17" y="255.55" width="31.67" height="34.43"/><path d="m555.05,256.34v32.87h-30.1v-32.87h30.1m1.57-1.57h-33.23v36h33.23v-36h0Z"/></g><g><path d="m533.39,279.51v-7.92h-1.29v-1.27h1.29v-.44c0-1.29.29-2.47,1.06-3.21.63-.61,1.46-.86,2.24-.86.59,0,1.1.13,1.42.27l-.23,1.29c-.25-.11-.59-.21-1.06-.21-1.42,0-1.79,1.25-1.79,2.66v.49h2.22v1.27h-2.22v7.92h-1.65Z"/><path d="m542.39,266.33c-1.39,1.86-2.39,4.33-2.39,7.77s1.04,5.81,2.39,7.71h-1.31c-1.2-1.58-2.49-4.01-2.49-7.71.02-3.74,1.29-6.17,2.49-7.77h1.31Z"/><path d="m543.15,281.81c1.35-1.88,2.39-4.35,2.39-7.77s-1.03-5.83-2.39-7.71h1.29c1.22,1.56,2.49,3.99,2.49,7.73s-1.27,6.14-2.49,7.75h-1.29Z"/></g></g><g><path d="m529.5,360.47c.29.19.79.38,1.28.38.7,0,1.03-.35,1.03-.79s-.28-.71-.99-.98c-.96-.34-1.41-.87-1.41-1.51,0-.86.69-1.56,1.84-1.56.54,0,1.01.15,1.31.33l-.24.7c-.21-.13-.59-.31-1.09-.31-.57,0-.89.33-.89.73,0,.44.32.64,1.01.9.92.35,1.4.81,1.4,1.61,0,.94-.73,1.6-1.99,1.6-.58,0-1.12-.14-1.5-.36l.24-.74Z"/><path d="m535.16,354.6v1.53h1.39v.74h-1.39v2.87c0,.66.19,1.03.73,1.03.25,0,.44-.03.56-.07l.04.73c-.19.08-.48.13-.86.13-.45,0-.81-.14-1.04-.41-.28-.29-.37-.76-.37-1.39v-2.9h-.83v-.74h.83v-1.28l.95-.25Z"/><path d="m540.58,361.46l-.08-.67h-.03c-.3.42-.87.79-1.63.79-1.08,0-1.63-.76-1.63-1.53,0-1.29,1.14-1.99,3.2-1.98v-.11c0-.44-.12-1.23-1.21-1.23-.5,0-1.01.15-1.39.4l-.22-.64c.44-.29,1.08-.47,1.75-.47,1.63,0,2.02,1.11,2.02,2.18v1.99c0,.46.02.91.09,1.28h-.88Zm-.14-2.72c-1.06-.02-2.25.17-2.25,1.2,0,.63.42.92.91.92.69,0,1.13-.44,1.29-.89.03-.1.05-.21.05-.31v-.92Z"/><path d="m544.05,354.6v1.53h1.39v.74h-1.39v2.87c0,.66.19,1.03.73,1.03.25,0,.44-.03.56-.07l.04.73c-.19.08-.48.13-.86.13-.45,0-.81-.14-1.04-.41-.28-.29-.37-.76-.37-1.39v-2.9h-.83v-.74h.83v-1.28l.95-.25Z"/><path d="m547,358.97c.02,1.31.86,1.85,1.83,1.85.69,0,1.11-.12,1.47-.28l.17.69c-.34.15-.92.33-1.77.33-1.64,0-2.62-1.08-2.62-2.68s.95-2.87,2.5-2.87c1.74,0,2.2,1.53,2.2,2.51,0,.2-.02.35-.03.45h-3.74Zm2.84-.69c.01-.62-.25-1.57-1.34-1.57-.98,0-1.41.9-1.49,1.57h2.83Z"/><path d="m535.24,374.66l.29-2.16h-.9v-.65h1l.21-1.59h-.95v-.65h1.04l.29-2.1h.64l-.28,2.1h1.14l.29-2.1h.65l-.27,2.1h.9v.65h-1l-.2,1.59h.95v.65h-1.04l-.29,2.16h-.66l.29-2.16h-1.14l-.29,2.16h-.66Zm2.19-2.81l.21-1.59h-1.14l-.21,1.59h1.14Z"/><path d="m540.48,370.77c0-.55-.01-1-.04-1.44h.86l.05.88h.02c.26-.51.88-1,1.76-1,.74,0,1.88.44,1.88,2.27v3.18h-.97v-3.07c0-.86-.32-1.57-1.23-1.57-.64,0-1.13.45-1.3.99-.04.12-.07.29-.07.45v3.2h-.97v-3.88Z"/></g><g><g><polygon class="c" points="516.58 220.04 516.58 151.04 563.42 151.04 563.42 204.3 547.69 220.04 516.58 220.04"/><path d="m561.92,152.54v51.14l-14.86,14.86h-28.99v-66h43.85m3-3h-49.85v72h33.23l16.62-16.62v-55.38h0Z"/></g><polygon points="564.92 202.15 548.31 202.15 545.54 202.15 545.54 204.92 545.54 221.54 548.31 221.54 548.31 204.92 564.92 204.92 564.92 202.15"/></g><g><path d="m528.39,170.66c.02,1.31.86,1.85,1.83,1.85.69,0,1.11-.12,1.47-.28l.17.69c-.34.15-.92.33-1.77.33-1.64,0-2.62-1.08-2.62-2.68s.95-2.87,2.5-2.87c1.74,0,2.2,1.53,2.2,2.51,0,.2-.02.35-.03.45h-3.74Zm2.84-.69c.01-.62-.25-1.57-1.34-1.57-.98,0-1.41.9-1.49,1.57h2.83Z"/><path d="m533.74,167.83l1.05,2.99c.18.48.32.92.43,1.36h.03c.12-.44.27-.88.45-1.36l1.03-2.99h1.01l-2.09,5.33h-.92l-2.02-5.33h1.03Z"/><path d="m539.08,170.66c.02,1.31.86,1.85,1.83,1.85.69,0,1.11-.12,1.47-.28l.17.69c-.34.15-.92.33-1.77.33-1.64,0-2.62-1.08-2.62-2.68s.95-2.87,2.5-2.87c1.74,0,2.2,1.53,2.2,2.51,0,.2-.02.35-.03.45h-3.74Zm2.84-.69c.01-.62-.25-1.57-1.34-1.57-.98,0-1.41.9-1.49,1.57h2.83Z"/><path d="m544.05,169.27c0-.55-.01-1-.04-1.44h.86l.05.88h.02c.26-.51.88-1,1.76-1,.74,0,1.88.44,1.88,2.27v3.18h-.97v-3.07c0-.86-.32-1.57-1.23-1.57-.64,0-1.13.45-1.3.99-.04.12-.07.29-.07.45v3.2h-.97v-3.88Z"/><path d="m551.28,166.3v1.53h1.39v.74h-1.39v2.87c0,.66.19,1.03.73,1.03.25,0,.44-.03.56-.07l.04.73c-.19.08-.48.13-.86.13-.45,0-.81-.14-1.04-.41-.28-.29-.37-.76-.37-1.39v-2.9h-.83v-.74h.83v-1.28l.95-.25Z"/><path d="m535.24,186.35l.29-2.16h-.9v-.65h1l.21-1.59h-.95v-.65h1.04l.29-2.1h.64l-.28,2.1h1.14l.29-2.1h.65l-.27,2.1h.9v.65h-1l-.2,1.59h.95v.65h-1.04l-.29,2.16h-.66l.29-2.16h-1.14l-.29,2.16h-.66Zm2.19-2.81l.21-1.59h-1.14l-.21,1.59h1.14Z"/><path d="m540.48,182.47c0-.55-.01-1-.04-1.44h.86l.05.88h.02c.26-.51.88-1,1.76-1,.74,0,1.88.44,1.88,2.27v3.18h-.97v-3.07c0-.86-.32-1.57-1.23-1.57-.64,0-1.13.45-1.3.99-.04.12-.07.29-.07.45v3.2h-.97v-3.88Z"/></g><g><line class="d" x1="540" y1="290.77" x2="540" y2="323.85"/><polygon points="535.41 320.72 540 337.85 544.59 320.72 535.41 320.72"/></g><g><line class="d" x1="540" y1="221.54" x2="540" y2="240.77"/><polygon points="535.41 237.64 540 254.77 544.59 237.64 535.41 237.64"/></g><g><path class="f" d="m199.38,66.46c6.12,0,11.08-13.02,11.08-29.08s-4.96-29.08-11.08-29.08h-24.92c6.12,0,11.08,13.02,11.08,29.08s-4.96,29.08-11.08,29.08h24.92Z"/><g><path d="m193.47,41.29l.29-2.16h-.9v-.65h1l.21-1.59h-.95v-.65h1.04l.29-2.1h.64l-.28,2.1h1.14l.29-2.1h.65l-.28,2.1h.9v.65h-1l-.2,1.59h.95v.65h-1.04l-.29,2.16h-.66l.29-2.16h-1.14l-.29,2.16h-.66Zm2.19-2.81l.21-1.59h-1.14l-.21,1.59h1.14Z"/><path d="m203.16,37.64c0,2.43-.9,3.77-2.49,3.77-1.4,0-2.34-1.31-2.37-3.67,0-2.4,1.04-3.72,2.49-3.72s2.37,1.34,2.37,3.62Zm-3.88.11c0,1.86.57,2.92,1.45,2.92.99,0,1.46-1.16,1.46-2.98s-.45-2.92-1.45-2.92c-.85,0-1.46,1.03-1.46,2.98Z"/></g><path class="f" d="m224.31,66.46c6.12,0,11.08-13.02,11.08-29.08s-4.96-29.08-11.08-29.08h-24.92c6.12,0,11.08,13.02,11.08,29.08s-4.96,29.08-11.08,29.08h24.92Z"/><g><path d="m218.39,41.29l.29-2.16h-.9v-.65h1l.21-1.59h-.95v-.65h1.04l.29-2.1h.64l-.28,2.1h1.14l.29-2.1h.65l-.27,2.1h.9v.65h-1l-.2,1.59h.95v.65h-1.04l-.29,2.16h-.66l.29-2.16h-1.14l-.29,2.16h-.66Zm2.19-2.81l.21-1.59h-1.14l-.21,1.59h1.14Z"/><path d="m225.43,35.04h-.02l-1.24.67-.19-.74,1.56-.84h.83v7.15h-.93v-6.25Z"/></g><path class="f" d="m249.23,66.46c6.12,0,11.08-13.02,11.08-29.08s-4.96-29.08-11.08-29.08h-24.92c6.12,0,11.08,13.02,11.08,29.08s-4.96,29.08-11.08,29.08h24.92Z"/><g><path d="m243.32,41.29l.29-2.16h-.9v-.65h1l.21-1.59h-.95v-.65h1.04l.29-2.1h.64l-.28,2.1h1.14l.29-2.1h.65l-.27,2.1h.9v.65h-1l-.2,1.59h.95v.65h-1.04l-.29,2.16h-.66l.29-2.16h-1.14l-.29,2.16h-.66Zm2.19-2.81l.21-1.59h-1.14l-.21,1.59h1.14Z"/><path d="m248.25,41.29v-.59l.76-.74c1.83-1.74,2.65-2.66,2.66-3.74,0-.73-.35-1.4-1.42-1.4-.65,0-1.19.33-1.52.6l-.31-.68c.5-.42,1.2-.73,2.02-.73,1.54,0,2.19,1.06,2.19,2.08,0,1.32-.96,2.39-2.46,3.84l-.57.53v.02h3.21v.8h-4.57Z"/></g><path class="f" d="m274.15,66.46c6.12,0,11.08-13.02,11.08-29.08s-4.96-29.08-11.08-29.08h-24.92c6.12,0,11.08,13.02,11.08,29.08s-4.96,29.08-11.08,29.08h24.92Z"/><g><path d="m268.24,41.29l.29-2.16h-.9v-.65h1l.21-1.59h-.95v-.65h1.04l.29-2.1h.64l-.28,2.1h1.14l.29-2.1h.65l-.27,2.1h.9v.65h-1l-.2,1.59h.95v.65h-1.04l-.29,2.16h-.66l.29-2.16h-1.14l-.29,2.16h-.66Zm2.19-2.81l.21-1.59h-1.14l-.21,1.59h1.14Z"/><path d="m273.41,40.18c.27.18.91.45,1.58.45,1.24,0,1.63-.79,1.62-1.39-.01-1-.91-1.43-1.85-1.43h-.54v-.73h.54c.7,0,1.6-.36,1.6-1.21,0-.57-.36-1.08-1.25-1.08-.57,0-1.12.25-1.43.47l-.25-.7c.37-.28,1.1-.55,1.87-.55,1.41,0,2.05.84,2.05,1.71,0,.74-.44,1.36-1.32,1.68v.02c.88.18,1.6.84,1.6,1.84,0,1.14-.89,2.15-2.61,2.15-.8,0-1.51-.25-1.86-.48l.26-.75Z"/></g><path class="f" d="m299.08,66.46c6.12,0,11.08-13.02,11.08-29.08s-4.96-29.08-11.08-29.08h-24.92c6.12,0,11.08,13.02,11.08,29.08s-4.96,29.08-11.08,29.08h24.92Z"/><g><path d="m294.85,40.72c0-.41.27-.69.66-.69s.65.29.65.69-.25.69-.66.69c-.38,0-.65-.3-.65-.69Z"/><path d="m297.13,40.72c0-.41.27-.69.66-.69s.65.29.65.69-.25.69-.66.69c-.38,0-.65-.3-.65-.69Z"/><path d="m299.4,40.72c0-.41.27-.69.66-.69s.65.29.65.69-.25.69-.66.69c-.38,0-.65-.3-.65-.69Z"/></g><path class="f" d="m324,66.46c6.12,0,11.08-13.02,11.08-29.08s-4.96-29.08-11.08-29.08h-24.92c6.12,0,11.08,13.02,11.08,29.08s-4.96,29.08-11.08,29.08h24.92Z"/><g><path d="m317.85,41.29l.29-2.16h-.9v-.65h1l.21-1.59h-.95v-.65h1.04l.29-2.1h.64l-.28,2.1h1.14l.29-2.1h.65l-.28,2.1h.9v.65h-1l-.2,1.59h.95v.65h-1.04l-.29,2.16h-.66l.29-2.16h-1.14l-.29,2.16h-.66Zm2.19-2.81l.21-1.59h-1.14l-.21,1.59h1.14Z"/><path d="m323.1,37.41c0-.55,0-1-.04-1.44h.86l.05.88h.02c.26-.51.88-1,1.76-1,.74,0,1.88.44,1.88,2.27v3.18h-.97v-3.07c0-.86-.32-1.57-1.23-1.57-.64,0-1.13.45-1.3.99-.04.12-.07.29-.07.45v3.2h-.97v-3.88Z"/></g><path class="b" d="m348.92,66.46c6.12,0,11.08-13.02,11.08-29.08s-4.96-29.08-11.08-29.08h-24.92c6.12,0,11.08,13.02,11.08,29.08s-4.96,29.08-11.08,29.08h24.92Z"/><ellipse class="f" cx="174.46" cy="37.38" rx="11.08" ry="29.08"/></g><g><line class="d" x1="188.31" y1="66.46" x2="188.31" y2="135.54"/><polygon points="183.72 132.41 188.31 149.54 192.9 132.41 183.72 132.41"/></g><g><polyline class="d" points="216 66.46 216 119.08 263.08 119.08 263.08 135.54"/><polygon points="258.49 132.41 263.08 149.54 267.67 132.41 258.49 132.41"/></g><g><polyline class="d" points="240.92 66.46 240.92 110.77 335.08 110.77 335.08 135.54"/><polygon points="330.49 132.41 335.08 149.54 339.67 132.41 330.49 132.41"/></g><g><polyline class="d" points="265.85 66.46 265.85 102.46 407.08 102.46 407.08 135.54"/><polygon points="402.49 132.41 407.08 149.54 411.67 132.41 402.49 132.41"/></g><g><polyline class="d" points="315.69 66.46 315.69 74.77 540 74.77 540 135.54"/><polygon points="535.41 132.41 540 149.54 544.59 132.41 535.41 132.41"/></g></svg>