<?xml version="1.0" encoding="UTF-8"?><svg id="a" xmlns="http://www.w3.org/2000/svg" viewBox="0 0 1052.31 520.62"><defs><style>.b,.c,.d,.e,.f,.g,.h,.i,.j,.k,.l{stroke-miterlimit:10;}.b,.m,.l{fill:#fff;}.b,.f,.h,.i,.j,.k,.l{stroke:#000;}.b,.k{stroke-width:1.35px;}.c{stroke:#666;}.c,.d,.e,.f,.g,.h,.i,.j{fill:none;}.c,.h{stroke-linecap:round;}.c,.h,.j{stroke-width:2px;}.d,.e,.g{stroke:#999;stroke-width:5px;}.e{stroke-dasharray:0 0 16.28 16.28;}.f{stroke-width:2.12px;}.g{stroke-dasharray:0 0 16.16 16.16;}.i{stroke-width:3px;}.k{fill:#e6e6e6;}.n{fill:#ccc;}.l{stroke-width:1.22px;}.o{fill:#666;}</style></defs><rect class="m" y="0" width="1052.31" height="520.62"/><g><g><rect class="n" x="225.1" y="19.41" width="520.62" height="484.59"/><g><polyline class="d" points="745.72 496.09 745.72 504 737.81 504"/><line class="e" x1="721.53" y1="504" x2="241.15" y2="504"/><polyline class="d" points="233.01 504 225.1 504 225.1 496.09"/><line class="g" x1="225.1" y1="479.93" x2="225.1" y2="35.4"/><polyline class="d" points="225.1 27.32 225.1 19.41 233.01 19.41"/><line class="e" x1="249.29" y1="19.41" x2="729.67" y2="19.41"/><polyline class="d" points="737.81 19.41 745.72 19.41 745.72 27.32"/><line class="g" x1="745.72" y1="43.48" x2="745.72" y2="488.01"/></g></g><g><line class="i" x1="507.56" y1="85.87" x2="549.88" y2="85.87"/><polygon points="545.72 91.97 568.49 85.87 545.72 79.77 545.72 91.97"/></g><g><rect class="m" x="365.06" y="54.14" width="141" height="63.46"/><path d="m504.56,55.64v60.46h-138v-60.46h138m3-3h-144v66.46h144V52.64h0Z"/></g><g><path d="m386.41,80.26c-.67.34-2.02.67-3.74.67-3.99,0-6.99-2.52-6.99-7.16s3-7.43,7.39-7.43c1.76,0,2.88.38,3.36.63l-.44,1.49c-.69-.34-1.68-.59-2.86-.59-3.32,0-5.52,2.12-5.52,5.84,0,3.46,1.99,5.69,5.44,5.69,1.11,0,2.25-.23,2.98-.59l.38,1.45Z"/><path d="m397.6,75.56c0,3.76-2.6,5.4-5.06,5.4-2.75,0-4.87-2.02-4.87-5.23,0-3.4,2.23-5.4,5.04-5.4s4.89,2.12,4.89,5.23Zm-8.06.11c0,2.23,1.28,3.91,3.09,3.91s3.09-1.66,3.09-3.95c0-1.72-.86-3.91-3.04-3.91s-3.13,2.02-3.13,3.95Z"/><path d="m399.94,73.31c0-1.05-.02-1.91-.08-2.75h1.64l.1,1.68h.04c.5-.97,1.68-1.91,3.36-1.91,1.41,0,3.59.84,3.59,4.33v6.07h-1.85v-5.86c0-1.64-.61-3-2.35-3-1.22,0-2.16.86-2.48,1.89-.08.23-.13.55-.13.86v6.11h-1.85v-7.41Z"/><path d="m411.78,80.72v-8.75h-1.43v-1.41h1.43v-.55c0-2.69,1.58-4.43,4.43-4.43.94,0,2.06.29,2.58.67l-.53,1.41c-.44-.31-1.24-.59-2.14-.59-1.95,0-2.52,1.37-2.52,2.98v.5h5.9v10.16h-1.83v-8.75h-4.07v8.75h-1.83Z"/><path d="m431.33,70.56c-.04.74-.08,1.55-.08,2.79v5.9c0,2.33-.46,3.76-1.45,4.64-.99.92-2.42,1.22-3.7,1.22s-2.56-.29-3.38-.84l.46-1.41c.67.42,1.72.8,2.98.8,1.89,0,3.28-.99,3.28-3.55v-1.13h-.04c-.57.94-1.66,1.7-3.23,1.7-2.52,0-4.33-2.14-4.33-4.96,0-3.44,2.25-5.4,4.58-5.4,1.76,0,2.73.92,3.17,1.76h.04l.08-1.53h1.62Zm-1.91,4.01c0-.32-.02-.59-.11-.84-.34-1.07-1.24-1.95-2.58-1.95-1.76,0-3.02,1.49-3.02,3.84,0,1.99,1.01,3.65,3,3.65,1.13,0,2.16-.71,2.56-1.89.1-.32.15-.67.15-.99v-1.83Z"/><path d="m442.82,77.95c0,1.05.02,1.97.08,2.77h-1.64l-.1-1.66h-.04c-.48.82-1.55,1.89-3.36,1.89-1.6,0-3.51-.88-3.51-4.45v-5.94h1.85v5.63c0,1.93.59,3.23,2.27,3.23,1.24,0,2.1-.86,2.44-1.68.1-.27.17-.61.17-.94v-6.24h1.85v7.39Z"/><path d="m445.88,73.73c0-1.2-.02-2.23-.08-3.17h1.62l.06,2h.08c.46-1.37,1.57-2.23,2.81-2.23.21,0,.36.02.52.06v1.74c-.19-.04-.38-.06-.63-.06-1.3,0-2.23.99-2.48,2.37-.04.25-.08.55-.08.86v5.42h-1.83v-6.99Z"/><path d="m458.27,80.72l-.15-1.28h-.06c-.57.8-1.66,1.51-3.11,1.51-2.06,0-3.11-1.45-3.11-2.92,0-2.46,2.18-3.8,6.11-3.78v-.21c0-.84-.23-2.35-2.31-2.35-.94,0-1.93.29-2.65.76l-.42-1.22c.84-.55,2.06-.9,3.34-.9,3.11,0,3.86,2.12,3.86,4.16v3.8c0,.88.04,1.74.17,2.44h-1.68Zm-.27-5.19c-2.02-.04-4.3.31-4.3,2.29,0,1.2.8,1.76,1.74,1.76,1.32,0,2.16-.84,2.46-1.7.06-.19.1-.4.1-.59v-1.76Z"/><path d="m464.91,67.64v2.92h2.65v1.41h-2.65v5.48c0,1.26.36,1.97,1.39,1.97.48,0,.84-.06,1.07-.13l.08,1.39c-.36.15-.92.25-1.64.25-.86,0-1.55-.27-2-.78-.52-.55-.71-1.45-.71-2.65v-5.54h-1.58v-1.41h1.58v-2.44l1.8-.48Z"/><path d="m471.69,67.71c.02.63-.44,1.13-1.18,1.13-.65,0-1.11-.5-1.11-1.13s.48-1.15,1.16-1.15,1.13.5,1.13,1.15Zm-2.06,13.02v-10.16h1.85v10.16h-1.85Z"/><path d="m483.74,75.56c0,3.76-2.6,5.4-5.06,5.4-2.75,0-4.87-2.02-4.87-5.23,0-3.4,2.23-5.4,5.04-5.4s4.89,2.12,4.89,5.23Zm-8.06.11c0,2.23,1.28,3.91,3.09,3.91s3.09-1.66,3.09-3.95c0-1.72-.86-3.91-3.04-3.91s-3.13,2.02-3.13,3.95Z"/><path d="m486.08,73.31c0-1.05-.02-1.91-.08-2.75h1.64l.1,1.68h.04c.5-.97,1.68-1.91,3.36-1.91,1.41,0,3.59.84,3.59,4.33v6.07h-1.85v-5.86c0-1.64-.61-3-2.35-3-1.22,0-2.16.86-2.48,1.89-.08.23-.13.55-.13.86v6.11h-1.85v-7.41Z"/><path d="m407.9,104.04c.55.36,1.51.73,2.44.73,1.34,0,1.97-.67,1.97-1.51,0-.88-.53-1.36-1.89-1.87-1.83-.65-2.69-1.66-2.69-2.88,0-1.64,1.32-2.98,3.51-2.98,1.03,0,1.93.29,2.5.63l-.46,1.34c-.4-.25-1.13-.59-2.08-.59-1.09,0-1.7.63-1.7,1.39,0,.84.61,1.22,1.93,1.72,1.76.67,2.67,1.55,2.67,3.07,0,1.79-1.39,3.04-3.8,3.04-1.11,0-2.14-.27-2.86-.69l.46-1.41Z"/><path d="m425.67,100.76c0,3.76-2.6,5.4-5.06,5.4-2.75,0-4.87-2.02-4.87-5.23,0-3.4,2.22-5.4,5.04-5.4s4.89,2.12,4.89,5.23Zm-8.06.1c0,2.23,1.28,3.91,3.09,3.91s3.09-1.66,3.09-3.95c0-1.72-.86-3.91-3.04-3.91s-3.13,2.02-3.13,3.95Z"/><path d="m436.5,103.15c0,1.05.02,1.97.08,2.77h-1.64l-.11-1.66h-.04c-.48.82-1.55,1.89-3.36,1.89-1.6,0-3.51-.88-3.51-4.45v-5.94h1.85v5.63c0,1.93.59,3.23,2.27,3.23,1.24,0,2.1-.86,2.44-1.68.1-.27.17-.61.17-.95v-6.24h1.85v7.39Z"/><path d="m439.57,98.93c0-1.2-.02-2.23-.08-3.17h1.62l.06,1.99h.08c.46-1.36,1.57-2.23,2.81-2.23.21,0,.36.02.52.06v1.74c-.19-.04-.38-.06-.63-.06-1.3,0-2.23.99-2.48,2.37-.04.25-.08.55-.08.86v5.42h-1.83v-6.99Z"/><path d="m453.47,105.55c-.48.25-1.55.59-2.92.59-3.07,0-5.06-2.08-5.06-5.19s2.14-5.4,5.46-5.4c1.09,0,2.06.27,2.56.52l-.42,1.43c-.44-.25-1.13-.48-2.14-.48-2.33,0-3.59,1.72-3.59,3.84,0,2.35,1.51,3.8,3.53,3.8,1.05,0,1.74-.27,2.27-.5l.31,1.39Z"/><path d="m456.54,101.18c.04,2.5,1.64,3.53,3.49,3.53,1.32,0,2.12-.23,2.81-.53l.32,1.32c-.65.29-1.76.63-3.38.63-3.13,0-5-2.06-5-5.12s1.81-5.48,4.77-5.48c3.32,0,4.2,2.92,4.2,4.79,0,.38-.04.67-.06.86h-7.14Zm5.42-1.32c.02-1.18-.48-3-2.56-3-1.87,0-2.69,1.72-2.83,3h5.4Z"/></g><g><line class="f" x1="476.37" y1="299.08" x2="502.03" y2="299.08"/><path d="m476.77,307.05c-4.4,0-7.98-3.57-7.98-7.98s3.57-7.98,7.98-7.98,7.98,3.57,7.98,7.98-3.57,7.98-7.98,7.98Z"/></g><g><line class="f" x1="476.37" y1="382.15" x2="502.03" y2="382.15"/><circle cx="476.77" cy="382.15" r="7.98"/></g><g><line class="f" x1="199.45" y1="382.15" x2="247.26" y2="382.15"/><circle cx="199.85" cy="382.15" r="7.98"/></g><g><line class="f" x1="854.96" y1="381.77" x2="875.08" y2="381.77"/><circle cx="855.36" cy="381.77" r="7.98"/></g><g><rect class="m" x="876.58" y="344.5" width="141" height="69"/><path d="m1016.08,346v66h-138v-66h138m3-3h-144v72h144v-72h0Z"/></g><g><path d="m920.32,367.22h-5.5v5.1h6.13v1.53h-7.96v-14.15h7.64v1.53h-5.82v4.47h5.5v1.51Z"/><path d="m924.12,363.69l1.45,2.18c.38.57.69,1.09,1.03,1.66h.06c.34-.61.67-1.13,1.01-1.68l1.43-2.16h2l-3.46,4.91,3.57,5.25h-2.1l-1.49-2.29c-.4-.59-.73-1.16-1.09-1.76h-.04c-.34.61-.69,1.15-1.07,1.76l-1.47,2.29h-2.04l3.61-5.19-3.44-4.98h2.06Z"/><path d="m935.48,360.77v2.92h2.65v1.41h-2.65v5.48c0,1.26.36,1.97,1.39,1.97.48,0,.84-.06,1.07-.13l.08,1.39c-.36.15-.92.25-1.64.25-.86,0-1.55-.27-1.99-.78-.53-.55-.71-1.45-.71-2.65v-5.54h-1.58v-1.41h1.58v-2.44l1.81-.48Z"/><path d="m941.11,369.11c.04,2.5,1.64,3.53,3.48,3.53,1.32,0,2.12-.23,2.81-.52l.31,1.32c-.65.29-1.76.63-3.38.63-3.13,0-5-2.06-5-5.12s1.8-5.48,4.77-5.48c3.32,0,4.2,2.92,4.2,4.79,0,.38-.04.67-.06.86h-7.14Zm5.42-1.32c.02-1.18-.48-3-2.56-3-1.87,0-2.69,1.72-2.83,3h5.4Z"/><path d="m950.6,366.86c0-1.2-.02-2.23-.08-3.17h1.62l.06,2h.08c.46-1.37,1.57-2.23,2.81-2.23.21,0,.36.02.53.06v1.74c-.19-.04-.38-.06-.63-.06-1.3,0-2.23.99-2.48,2.37-.04.25-.08.55-.08.86v5.42h-1.83v-6.99Z"/><path d="m957.55,366.44c0-1.05-.02-1.91-.08-2.75h1.64l.1,1.68h.04c.5-.97,1.68-1.91,3.36-1.91,1.41,0,3.59.84,3.59,4.33v6.07h-1.85v-5.86c0-1.64-.61-3-2.35-3-1.22,0-2.16.86-2.48,1.89-.08.23-.13.55-.13.86v6.11h-1.85v-7.41Z"/><path d="m974.84,373.85l-.15-1.28h-.06c-.57.8-1.66,1.51-3.11,1.51-2.06,0-3.11-1.45-3.11-2.92,0-2.46,2.18-3.8,6.11-3.78v-.21c0-.84-.23-2.35-2.31-2.35-.95,0-1.93.29-2.65.76l-.42-1.22c.84-.55,2.06-.9,3.34-.9,3.11,0,3.86,2.12,3.86,4.16v3.8c0,.88.04,1.74.17,2.44h-1.68Zm-.27-5.19c-2.02-.04-4.3.31-4.3,2.29,0,1.2.8,1.76,1.74,1.76,1.32,0,2.16-.84,2.46-1.7.06-.19.11-.4.11-.59v-1.76Z"/><path d="m979.33,358.95h1.85v14.91h-1.85v-14.91Z"/><path d="m902.29,384.15v12.28c0,.9.02,1.93.08,2.62h-1.66l-.08-1.76h-.04c-.57,1.13-1.81,1.99-3.46,1.99-2.46,0-4.35-2.08-4.35-5.17-.02-3.38,2.08-5.46,4.56-5.46,1.55,0,2.6.74,3.07,1.55h.04v-6.07h1.85Zm-1.85,8.88c0-.23-.02-.55-.08-.78-.27-1.18-1.28-2.14-2.67-2.14-1.91,0-3.04,1.68-3.04,3.93,0,2.06,1.01,3.76,3,3.76,1.24,0,2.37-.82,2.71-2.21.06-.25.08-.5.08-.8v-1.76Z"/><path d="m906.39,394.31c.04,2.5,1.64,3.53,3.49,3.53,1.32,0,2.12-.23,2.81-.53l.32,1.32c-.65.29-1.76.63-3.38.63-3.13,0-5-2.06-5-5.12s1.81-5.48,4.77-5.48c3.32,0,4.2,2.92,4.2,4.79,0,.38-.04.67-.06.86h-7.14Zm5.42-1.32c.02-1.18-.48-3-2.56-3-1.87,0-2.69,1.72-2.83,3h5.4Z"/><path d="m915.88,392.21c0-1.3-.04-2.35-.08-3.32h1.66l.08,1.74h.04c.76-1.24,1.95-1.97,3.61-1.97,2.46,0,4.3,2.08,4.3,5.17,0,3.65-2.23,5.46-4.62,5.46-1.34,0-2.52-.59-3.13-1.6h-.04v5.52h-1.83v-11Zm1.83,2.71c0,.27.04.53.08.76.34,1.28,1.45,2.16,2.77,2.16,1.95,0,3.09-1.6,3.09-3.93,0-2.04-1.07-3.78-3.02-3.78-1.26,0-2.44.9-2.79,2.29-.06.23-.12.5-.12.76v1.74Z"/><path d="m928.86,394.31c.04,2.5,1.64,3.53,3.49,3.53,1.32,0,2.12-.23,2.81-.53l.31,1.32c-.65.29-1.76.63-3.38.63-3.13,0-5-2.06-5-5.12s1.81-5.48,4.77-5.48c3.32,0,4.2,2.92,4.2,4.79,0,.38-.04.67-.06.86h-7.14Zm5.42-1.32c.02-1.18-.48-3-2.56-3-1.87,0-2.69,1.72-2.83,3h5.4Z"/><path d="m938.35,391.64c0-1.05-.02-1.91-.08-2.75h1.64l.1,1.68h.04c.5-.97,1.68-1.91,3.36-1.91,1.41,0,3.59.84,3.59,4.33v6.07h-1.85v-5.86c0-1.64-.61-3-2.35-3-1.22,0-2.16.86-2.48,1.89-.08.23-.13.55-.13.86v6.11h-1.85v-7.41Z"/><path d="m958.78,384.15v12.28c0,.9.02,1.93.08,2.62h-1.66l-.08-1.76h-.04c-.57,1.13-1.81,1.99-3.46,1.99-2.46,0-4.35-2.08-4.35-5.17-.02-3.38,2.08-5.46,4.56-5.46,1.55,0,2.6.74,3.06,1.55h.04v-6.07h1.85Zm-1.85,8.88c0-.23-.02-.55-.08-.78-.27-1.18-1.28-2.14-2.67-2.14-1.91,0-3.04,1.68-3.04,3.93,0,2.06,1.01,3.76,3,3.76,1.24,0,2.37-.82,2.71-2.21.06-.25.08-.5.08-.8v-1.76Z"/><path d="m962.88,394.31c.04,2.5,1.64,3.53,3.49,3.53,1.32,0,2.12-.23,2.81-.53l.31,1.32c-.65.29-1.76.63-3.38.63-3.13,0-5-2.06-5-5.12s1.81-5.48,4.77-5.48c3.32,0,4.2,2.92,4.2,4.79,0,.38-.04.67-.06.86h-7.14Zm5.42-1.32c.02-1.18-.48-3-2.56-3-1.87,0-2.69,1.72-2.83,3h5.4Z"/><path d="m972.37,391.64c0-1.05-.02-1.91-.08-2.75h1.64l.1,1.68h.04c.5-.97,1.68-1.91,3.36-1.91,1.41,0,3.59.84,3.59,4.33v6.07h-1.85v-5.86c0-1.64-.61-3-2.35-3-1.22,0-2.16.86-2.48,1.89-.08.23-.13.55-.13.86v6.11h-1.85v-7.41Z"/><path d="m991.27,398.67c-.48.25-1.55.59-2.92.59-3.07,0-5.06-2.08-5.06-5.19s2.14-5.4,5.46-5.4c1.09,0,2.06.27,2.56.52l-.42,1.43c-.44-.25-1.13-.48-2.14-.48-2.33,0-3.59,1.72-3.59,3.84,0,2.35,1.51,3.8,3.53,3.8,1.05,0,1.74-.27,2.27-.5l.31,1.39Z"/><path d="m994.48,388.89l2.22,6c.23.67.48,1.47.65,2.08h.04c.19-.61.4-1.39.65-2.12l2.02-5.96h1.95l-2.77,7.24c-1.32,3.49-2.23,5.27-3.49,6.36-.9.8-1.81,1.11-2.27,1.2l-.46-1.55c.46-.15,1.07-.44,1.62-.9.5-.4,1.13-1.11,1.55-2.06.08-.19.15-.34.15-.44s-.04-.25-.13-.48l-3.76-9.36h2.02Z"/></g><g><rect class="m" x="10.58" y="344.87" width="137.47" height="69.04"/><path d="m146.58,346.35v66.07H12.07v-66.07h134.51m2.96-2.96H9.1v72h140.44v-72h0Z"/></g><g><path d="m65.26,386.38c-.67.34-2.02.67-3.74.67-3.99,0-6.99-2.52-6.99-7.16s3-7.43,7.39-7.43c1.76,0,2.88.38,3.36.63l-.44,1.49c-.69-.34-1.68-.59-2.86-.59-3.32,0-5.52,2.12-5.52,5.84,0,3.46,1.99,5.69,5.44,5.69,1.11,0,2.25-.23,2.98-.59l.38,1.45Z"/><path d="m67.49,371.93h1.85v14.91h-1.85v-14.91Z"/><path d="m74.5,373.82c.02.63-.44,1.13-1.18,1.13-.65,0-1.11-.5-1.11-1.13s.48-1.16,1.15-1.16,1.13.5,1.13,1.16Zm-2.06,13.02v-10.16h1.85v10.16h-1.85Z"/><path d="m78.38,382.09c.04,2.5,1.64,3.53,3.49,3.53,1.32,0,2.12-.23,2.81-.53l.31,1.32c-.65.29-1.76.63-3.38.63-3.13,0-5-2.06-5-5.12s1.81-5.48,4.77-5.48c3.32,0,4.2,2.92,4.2,4.79,0,.38-.04.67-.06.86h-7.14Zm5.42-1.32c.02-1.18-.48-3-2.56-3-1.87,0-2.69,1.72-2.83,3h5.4Z"/><path d="m87.88,379.43c0-1.05-.02-1.91-.08-2.75h1.64l.1,1.68h.04c.5-.97,1.68-1.91,3.36-1.91,1.41,0,3.59.84,3.59,4.33v6.07h-1.85v-5.86c0-1.64-.61-3-2.35-3-1.22,0-2.16.86-2.48,1.89-.08.23-.13.55-.13.86v6.11h-1.85v-7.41Z"/><path d="m101.67,373.76v2.92h2.64v1.41h-2.64v5.48c0,1.26.36,1.97,1.38,1.97.48,0,.84-.06,1.07-.13l.08,1.39c-.36.15-.92.25-1.64.25-.86,0-1.55-.27-1.99-.78-.53-.55-.71-1.45-.71-2.65v-5.54h-1.57v-1.41h1.57v-2.44l1.81-.48Z"/></g><g><line class="f" x1="478.35" y1="454.15" x2="498.46" y2="454.15"/><circle cx="478.74" cy="454.15" r="7.98"/></g><g><rect class="m" x="248.76" y="344.88" width="141" height="69"/><path d="m388.26,346.38v66h-138v-66h138m3-3h-144v72h144v-72h0Z"/></g><g><path d="m299.29,360.09h1.83v12.62h6.05v1.53h-7.87v-14.15Z"/><path d="m318.04,369.07c0,3.76-2.6,5.4-5.06,5.4-2.75,0-4.87-2.02-4.87-5.23,0-3.4,2.23-5.4,5.04-5.4s4.89,2.12,4.89,5.23Zm-8.06.11c0,2.23,1.28,3.91,3.09,3.91s3.09-1.66,3.09-3.95c0-1.72-.86-3.91-3.04-3.91s-3.13,2.02-3.13,3.95Z"/><path d="m326,374.24l-.15-1.28h-.06c-.57.8-1.66,1.51-3.11,1.51-2.06,0-3.11-1.45-3.11-2.92,0-2.46,2.18-3.8,6.11-3.78v-.21c0-.84-.23-2.35-2.31-2.35-.95,0-1.93.29-2.65.76l-.42-1.22c.84-.55,2.06-.9,3.34-.9,3.11,0,3.86,2.12,3.86,4.16v3.8c0,.88.04,1.74.17,2.44h-1.68Zm-.27-5.19c-2.02-.04-4.3.31-4.3,2.29,0,1.2.8,1.76,1.74,1.76,1.32,0,2.16-.84,2.46-1.7.06-.19.11-.4.11-.59v-1.76Z"/><path d="m339.28,359.33v12.28c0,.9.02,1.93.08,2.62h-1.66l-.08-1.76h-.04c-.57,1.13-1.81,2-3.46,2-2.46,0-4.35-2.08-4.35-5.17-.02-3.38,2.08-5.46,4.56-5.46,1.55,0,2.6.73,3.07,1.55h.04v-6.07h1.85Zm-1.85,8.88c0-.23-.02-.55-.08-.78-.27-1.18-1.28-2.14-2.67-2.14-1.91,0-3.04,1.68-3.04,3.93,0,2.06,1.01,3.76,3,3.76,1.24,0,2.37-.82,2.71-2.2.06-.25.08-.5.08-.8v-1.76Z"/><path d="m282.97,399.44c.04-.69.08-1.72.08-2.62v-12.28h1.83v6.38h.04c.65-1.13,1.83-1.87,3.46-1.87,2.52,0,4.3,2.1,4.28,5.19,0,3.63-2.29,5.44-4.56,5.44-1.47,0-2.65-.57-3.4-1.91h-.06l-.08,1.68h-1.6Zm1.91-4.07c0,.23.04.46.08.67.36,1.28,1.43,2.16,2.77,2.16,1.93,0,3.09-1.57,3.09-3.91,0-2.04-1.05-3.78-3.02-3.78-1.26,0-2.44.86-2.81,2.27-.04.21-.1.46-.1.76v1.83Z"/><path d="m300.63,399.44l-.15-1.28h-.06c-.57.8-1.66,1.51-3.11,1.51-2.06,0-3.11-1.45-3.11-2.92,0-2.46,2.18-3.8,6.11-3.78v-.21c0-.84-.23-2.35-2.31-2.35-.94,0-1.93.29-2.64.76l-.42-1.22c.84-.55,2.06-.9,3.34-.9,3.11,0,3.86,2.12,3.86,4.16v3.8c0,.88.04,1.74.17,2.44h-1.68Zm-.27-5.19c-2.02-.04-4.3.32-4.3,2.29,0,1.2.8,1.76,1.74,1.76,1.32,0,2.16-.84,2.46-1.7.06-.19.1-.4.1-.59v-1.76Z"/><path d="m305.12,384.53h1.85v14.91h-1.85v-14.91Z"/><path d="m315.71,399.44l-.15-1.28h-.06c-.57.8-1.66,1.51-3.11,1.51-2.06,0-3.11-1.45-3.11-2.92,0-2.46,2.18-3.8,6.11-3.78v-.21c0-.84-.23-2.35-2.31-2.35-.94,0-1.93.29-2.64.76l-.42-1.22c.84-.55,2.06-.9,3.34-.9,3.11,0,3.86,2.12,3.86,4.16v3.8c0,.88.04,1.74.17,2.44h-1.68Zm-.27-5.19c-2.02-.04-4.3.32-4.3,2.29,0,1.2.8,1.76,1.74,1.76,1.32,0,2.16-.84,2.46-1.7.06-.19.1-.4.1-.59v-1.76Z"/><path d="m320.2,392.03c0-1.05-.02-1.91-.08-2.75h1.64l.11,1.68h.04c.5-.97,1.68-1.91,3.36-1.91,1.41,0,3.59.84,3.59,4.33v6.07h-1.85v-5.86c0-1.64-.61-3-2.35-3-1.22,0-2.16.86-2.48,1.89-.08.23-.13.55-.13.86v6.11h-1.85v-7.41Z"/><path d="m339.1,399.06c-.48.25-1.55.59-2.92.59-3.06,0-5.06-2.08-5.06-5.19s2.14-5.4,5.46-5.4c1.09,0,2.06.27,2.56.52l-.42,1.43c-.44-.25-1.13-.48-2.14-.48-2.33,0-3.59,1.72-3.59,3.84,0,2.35,1.51,3.8,3.53,3.8,1.05,0,1.74-.27,2.27-.5l.32,1.39Z"/><path d="m342.17,394.69c.04,2.5,1.64,3.53,3.49,3.53,1.32,0,2.12-.23,2.81-.53l.31,1.32c-.65.29-1.76.63-3.38.63-3.13,0-5-2.06-5-5.12s1.81-5.48,4.77-5.48c3.32,0,4.2,2.92,4.2,4.79,0,.38-.04.67-.06.86h-7.14Zm5.42-1.32c.02-1.18-.48-3-2.56-3-1.87,0-2.69,1.72-2.83,3h5.4Z"/><path d="m351.66,392.45c0-1.2-.02-2.23-.08-3.17h1.62l.06,1.99h.08c.46-1.36,1.57-2.23,2.81-2.23.21,0,.36.02.52.06v1.74c-.19-.04-.38-.06-.63-.06-1.3,0-2.23.99-2.48,2.37-.04.25-.08.55-.08.86v5.42h-1.83v-6.99Z"/></g><g><path class="h" d="m391.26,382.15h16.62c9.14,0,16.62-9,16.62-20v-43.08c0-11,9-20,20-20h11.9"/><polygon points="453.62 303.14 468.79 299.08 453.62 295.01 453.62 303.14"/></g><g><path class="h" d="m391.26,382.15h16.62c9.14,0,16.86,9,17.16,19.99l.88,32.02c.3,11,9.55,19.99,20.55,19.99h11.9"/><polygon points="455.59 458.22 470.77 454.15 455.59 450.09 455.59 458.22"/></g><g><line class="h" x1="391.26" y1="382.15" x2="456.39" y2="382.15"/><polygon points="453.62 386.22 468.79 382.15 453.62 378.09 453.62 386.22"/></g><g><line class="h" x1="149.54" y1="382.15" x2="181.44" y2="381.88"/><polygon points="178.7 385.97 193.85 381.77 178.63 377.83 178.7 385.97"/></g><g><path class="c" d="m640.49,299.08h154.15c6.6,0,12.13,5.4,12.29,12l1.4,58.7c.16,6.6,5.69,12,12.29,12h14.37"/><polygon class="o" points="832.21 385.84 847.38 381.77 832.21 377.7 832.21 385.84"/></g><g><path class="c" d="m640.49,465.23h154.15c6.6,0,12.13-5.4,12.28-12l1.41-59.47c.16-6.6,5.68-12,12.28-12h14.37"/><polygon class="o" points="832.21 385.84 847.38 381.77 832.21 377.7 832.21 385.84"/></g><g><line class="c" x1="640.49" y1="382.15" x2="834.98" y2="381.79"/><polygon class="o" points="832.22 385.86 847.38 381.77 832.2 377.73 832.22 385.86"/></g><g><g><path class="m" d="m191.87,361.5c-6.93,0-12.58-5.64-12.58-12.58s5.64-12.58,12.58-12.58,12.58,5.64,12.58,12.58-5.64,12.58-12.58,12.58Z"/><path d="m191.87,337.85c6.12,0,11.08,4.96,11.08,11.08s-4.96,11.08-11.08,11.08-11.08-4.96-11.08-11.08,4.96-11.08,11.08-11.08m0-3c-7.76,0-14.08,6.31-14.08,14.08s6.31,14.08,14.08,14.08,14.08-6.31,14.08-14.08-6.31-14.08-14.08-14.08h0Z"/></g><path d="m193.97,356.38l-.15-1.28h-.06c-.57.8-1.66,1.51-3.11,1.51-2.06,0-3.11-1.45-3.11-2.92,0-2.46,2.18-3.8,6.11-3.78v-.21c0-.84-.23-2.35-2.31-2.35-.94,0-1.93.29-2.64.76l-.42-1.22c.84-.55,2.06-.9,3.34-.9,3.11,0,3.86,2.12,3.86,4.16v3.8c0,.88.04,1.74.17,2.44h-1.68Zm-.27-5.19c-2.02-.04-4.3.31-4.3,2.29,0,1.2.8,1.76,1.74,1.76,1.32,0,2.16-.84,2.46-1.7.06-.19.1-.4.1-.59v-1.76Z"/></g><g><g><circle class="m" cx="446.64" cy="326.77" r="12.58"/><path d="m446.64,315.69c6.12,0,11.08,4.96,11.08,11.08s-4.96,11.08-11.08,11.08-11.08-4.96-11.08-11.08,4.96-11.08,11.08-11.08m0-3c-7.76,0-14.08,6.31-14.08,14.08s6.31,14.08,14.08,14.08,14.08-6.31,14.08-14.08-6.31-14.08-14.08-14.08h0Z"/></g><path d="m442.11,334.22c.04-.69.08-1.72.08-2.62v-12.28h1.83v6.38h.04c.65-1.13,1.83-1.87,3.46-1.87,2.52,0,4.3,2.1,4.28,5.19,0,3.63-2.29,5.44-4.56,5.44-1.47,0-2.65-.57-3.4-1.91h-.06l-.08,1.68h-1.6Zm1.91-4.07c0,.23.04.46.08.67.36,1.28,1.43,2.16,2.77,2.16,1.93,0,3.09-1.57,3.09-3.91,0-2.04-1.05-3.78-3.02-3.78-1.26,0-2.44.86-2.81,2.27-.04.21-.1.46-.1.76v1.83Z"/></g><g><g><circle class="m" cx="535.26" cy="58.18" r="12.58"/><path d="m535.26,47.1c6.12,0,11.08,4.96,11.08,11.08s-4.96,11.08-11.08,11.08-11.08-4.96-11.08-11.08,4.96-11.08,11.08-11.08m0-3c-7.76,0-14.08,6.31-14.08,14.08s6.31,14.08,14.08,14.08,14.08-6.31,14.08-14.08-6.31-14.08-14.08-14.08h0Z"/></g><path d="m539.33,65.25c-.48.25-1.55.59-2.92.59-3.07,0-5.06-2.08-5.06-5.19s2.14-5.4,5.46-5.4c1.09,0,2.06.27,2.56.52l-.42,1.43c-.44-.25-1.13-.48-2.14-.48-2.33,0-3.59,1.72-3.59,3.84,0,2.35,1.51,3.8,3.53,3.8,1.05,0,1.74-.27,2.27-.5l.31,1.39Z"/></g><g><g><path class="m" d="m657.1,259.06c-6.93,0-12.58-5.64-12.58-12.58s5.64-12.58,12.58-12.58,12.58,5.64,12.58,12.58-5.64,12.58-12.58,12.58Z"/><path d="m657.1,235.41c6.12,0,11.08,4.96,11.08,11.08s-4.96,11.08-11.08,11.08-11.08-4.96-11.08-11.08,4.96-11.08,11.08-11.08m0-3c-7.76,0-14.08,6.31-14.08,14.08s6.31,14.08,14.08,14.08,14.08-6.31,14.08-14.08-6.31-14.08-14.08-14.08h0Z"/></g><path d="m654.4,249.2c.04,2.5,1.64,3.53,3.48,3.53,1.32,0,2.12-.23,2.81-.53l.31,1.32c-.65.29-1.76.63-3.38.63-3.13,0-5-2.06-5-5.12s1.8-5.48,4.77-5.48c3.32,0,4.2,2.92,4.2,4.79,0,.38-.04.67-.06.86h-7.14Zm5.42-1.32c.02-1.18-.48-3-2.56-3-1.87,0-2.69,1.72-2.83,3h5.4Z"/></g><g><g><path class="m" d="m778.95,336.6c-6.94,0-12.58-5.64-12.58-12.58s5.64-12.58,12.58-12.58,12.58,5.64,12.58,12.58-5.64,12.58-12.58,12.58Z"/><path d="m778.95,312.95c6.12,0,11.08,4.96,11.08,11.08s-4.96,11.08-11.08,11.08-11.08-4.96-11.08-11.08,4.96-11.08,11.08-11.08m0-3c-7.76,0-14.08,6.31-14.08,14.08s6.31,14.08,14.08,14.08,14.08-6.31,14.08-14.08-6.31-14.08-14.08-14.08h0Z"/></g><path d="m777.6,331.48v-8.75h-1.43v-1.41h1.43v-.48c0-1.43.32-2.73,1.18-3.55.69-.67,1.62-.94,2.48-.94.65,0,1.22.15,1.57.29l-.25,1.43c-.27-.13-.65-.23-1.18-.23-1.57,0-1.97,1.39-1.97,2.94v.55h2.46v1.41h-2.46v8.75h-1.83Z"/></g><g><g><path class="m" d="m546.33,203.68c-6.94,0-12.58-5.64-12.58-12.58s5.64-12.58,12.58-12.58,12.58,5.64,12.58,12.58-5.64,12.58-12.58,12.58Z"/><path d="m546.33,180.03c6.12,0,11.08,4.96,11.08,11.08s-4.96,11.08-11.08,11.08-11.08-4.96-11.08-11.08,4.96-11.08,11.08-11.08m0-3c-7.76,0-14.08,6.31-14.08,14.08s6.31,14.08,14.08,14.08,14.08-6.31,14.08-14.08-6.31-14.08-14.08-14.08h0Z"/></g><path d="m550.72,183.65v12.28c0,.9.02,1.93.08,2.62h-1.66l-.08-1.76h-.04c-.57,1.13-1.8,2-3.46,2-2.46,0-4.35-2.08-4.35-5.17-.02-3.38,2.08-5.46,4.56-5.46,1.55,0,2.6.73,3.07,1.55h.04v-6.07h1.85Zm-1.85,8.88c0-.23-.02-.55-.08-.78-.27-1.18-1.28-2.14-2.67-2.14-1.91,0-3.04,1.68-3.04,3.93,0,2.06,1.01,3.76,3,3.76,1.24,0,2.37-.82,2.71-2.2.06-.25.08-.5.08-.8v-1.76Z"/></g><g><g><rect class="m" x="497.99" y="261.81" width="141" height="69"/><path d="m637.49,263.31v66h-138v-66h138m3-3h-144v72h144v-72h0Z"/></g><g><path d="m517.01,291.16l-3.59-14.15h1.93l1.68,7.16c.42,1.76.8,3.53,1.05,4.89h.04c.23-1.41.67-3.09,1.15-4.91l1.89-7.14h1.91l1.72,7.18c.4,1.68.78,3.36.99,4.85h.04c.29-1.55.69-3.13,1.13-4.89l1.87-7.14h1.87l-4.01,14.15h-1.91l-1.78-7.37c-.44-1.81-.74-3.19-.92-4.62h-.04c-.25,1.41-.57,2.79-1.09,4.62l-2.02,7.37h-1.91Z"/><path d="m532.73,286.42c.04,2.5,1.64,3.53,3.49,3.53,1.32,0,2.12-.23,2.81-.53l.32,1.32c-.65.29-1.76.63-3.38.63-3.13,0-5-2.06-5-5.12s1.81-5.48,4.77-5.48c3.32,0,4.2,2.92,4.2,4.79,0,.38-.04.67-.06.86h-7.14Zm5.42-1.32c.02-1.18-.48-3-2.56-3-1.87,0-2.69,1.72-2.83,3h5.4Z"/><path d="m542.14,291.16c.04-.69.08-1.72.08-2.62v-12.28h1.83v6.38h.04c.65-1.13,1.83-1.87,3.46-1.87,2.52,0,4.3,2.1,4.28,5.19,0,3.63-2.29,5.44-4.56,5.44-1.47,0-2.65-.57-3.4-1.91h-.06l-.08,1.68h-1.6Zm1.91-4.07c0,.23.04.46.08.67.36,1.28,1.43,2.16,2.77,2.16,1.93,0,3.09-1.57,3.09-3.91,0-2.04-1.05-3.78-3.02-3.78-1.26,0-2.44.86-2.81,2.27-.04.21-.1.46-.1.76v1.83Z"/><path d="m520.26,316.36l-.15-1.28h-.06c-.57.8-1.66,1.51-3.11,1.51-2.06,0-3.11-1.45-3.11-2.92,0-2.46,2.18-3.8,6.11-3.78v-.21c0-.84-.23-2.35-2.31-2.35-.94,0-1.93.29-2.65.76l-.42-1.22c.84-.55,2.06-.9,3.34-.9,3.11,0,3.86,2.12,3.86,4.16v3.8c0,.88.04,1.74.17,2.44h-1.68Zm-.27-5.19c-2.02-.04-4.3.31-4.3,2.29,0,1.2.8,1.76,1.74,1.76,1.32,0,2.16-.84,2.46-1.7.06-.19.1-.4.1-.59v-1.76Z"/><path d="m524.76,309.51c0-1.3-.04-2.35-.08-3.32h1.66l.08,1.74h.04c.76-1.24,1.95-1.97,3.61-1.97,2.46,0,4.3,2.08,4.3,5.17,0,3.65-2.22,5.46-4.62,5.46-1.34,0-2.52-.59-3.13-1.6h-.04v5.52h-1.83v-11Zm1.83,2.71c0,.27.04.52.08.76.34,1.28,1.45,2.16,2.77,2.16,1.95,0,3.09-1.6,3.09-3.93,0-2.04-1.07-3.78-3.02-3.78-1.26,0-2.44.9-2.79,2.29-.06.23-.13.5-.13.76v1.74Z"/><path d="m536.7,309.51c0-1.3-.04-2.35-.08-3.32h1.66l.08,1.74h.04c.76-1.24,1.95-1.97,3.61-1.97,2.46,0,4.3,2.08,4.3,5.17,0,3.65-2.23,5.46-4.62,5.46-1.34,0-2.52-.59-3.13-1.6h-.04v5.52h-1.83v-11Zm1.83,2.71c0,.27.04.52.08.76.34,1.28,1.45,2.16,2.77,2.16,1.95,0,3.09-1.6,3.09-3.93,0-2.04-1.07-3.78-3.02-3.78-1.26,0-2.44.9-2.79,2.29-.06.23-.12.5-.12.76v1.74Z"/></g><g><ellipse class="l" cx="610.03" cy="276.92" rx="19.38" ry="5.54"/><path class="l" d="m629.41,288c0,3.06-8.68,5.54-19.38,5.54s-19.38-2.48-19.38-5.54v-11.08c0,3.06,8.68,5.54,19.38,5.54s19.38-2.48,19.38-5.54v11.08Z"/></g><g><path d="m596.89,299.54h1.13v7.81h3.74v.95h-4.88v-8.76Z"/><path d="m608.5,305.11c0,2.33-1.61,3.34-3.13,3.34-1.7,0-3.02-1.25-3.02-3.24,0-2.11,1.38-3.34,3.12-3.34s3.03,1.31,3.03,3.24Zm-4.99.07c0,1.38.79,2.42,1.91,2.42s1.91-1.03,1.91-2.44c0-1.07-.53-2.42-1.89-2.42s-1.94,1.25-1.94,2.44Z"/><path d="m614.43,308.07c-.3.16-.96.36-1.81.36-1.9,0-3.13-1.29-3.13-3.21s1.33-3.34,3.38-3.34c.68,0,1.27.17,1.59.32l-.26.88c-.27-.16-.7-.3-1.33-.3-1.44,0-2.22,1.07-2.22,2.38,0,1.46.94,2.35,2.18,2.35.65,0,1.08-.17,1.4-.31l.2.86Z"/><path d="m619.25,308.31l-.09-.79h-.04c-.35.49-1.03.94-1.92.94-1.27,0-1.92-.9-1.92-1.81,0-1.52,1.35-2.35,3.78-2.34v-.13c0-.52-.14-1.46-1.43-1.46-.58,0-1.2.18-1.64.47l-.26-.75c.52-.34,1.27-.56,2.07-.56,1.92,0,2.39,1.31,2.39,2.57v2.35c0,.55.03,1.08.1,1.51h-1.04Zm-.17-3.21c-1.25-.03-2.67.2-2.67,1.42,0,.74.49,1.09,1.08,1.09.82,0,1.34-.52,1.52-1.05.04-.12.07-.25.07-.36v-1.09Z"/><path d="m622.03,299.08h1.14v9.23h-1.14v-9.23Z"/><path d="m599.64,323.67c-.3.16-.96.36-1.81.36-1.9,0-3.13-1.29-3.13-3.21s1.33-3.34,3.38-3.34c.68,0,1.27.17,1.59.32l-.26.88c-.27-.16-.7-.3-1.33-.3-1.44,0-2.22,1.07-2.22,2.38,0,1.46.94,2.35,2.18,2.35.65,0,1.08-.17,1.4-.31l.2.86Z"/><path d="m604.46,323.91l-.09-.79h-.04c-.35.49-1.03.94-1.92.94-1.27,0-1.92-.9-1.92-1.81,0-1.52,1.35-2.35,3.78-2.34v-.13c0-.52-.14-1.46-1.43-1.46-.58,0-1.2.18-1.64.47l-.26-.75c.52-.34,1.27-.56,2.07-.56,1.92,0,2.39,1.31,2.39,2.57v2.35c0,.55.03,1.08.1,1.51h-1.04Zm-.17-3.21c-1.25-.03-2.67.19-2.67,1.42,0,.74.49,1.09,1.08,1.09.82,0,1.34-.52,1.52-1.05.04-.12.07-.25.07-.36v-1.09Z"/><path d="m611.73,323.67c-.3.16-.96.36-1.81.36-1.9,0-3.13-1.29-3.13-3.21s1.33-3.34,3.38-3.34c.68,0,1.27.17,1.59.32l-.26.88c-.27-.16-.7-.3-1.33-.3-1.44,0-2.22,1.07-2.22,2.38,0,1.46.94,2.35,2.18,2.35.65,0,1.08-.17,1.4-.31l.2.86Z"/><path d="m613.07,314.68h1.14v3.93h.03c.18-.33.47-.61.82-.81.34-.2.74-.33,1.17-.33.84,0,2.2.52,2.2,2.69v3.74h-1.14v-3.61c0-1.01-.38-1.87-1.46-1.87-.74,0-1.33.52-1.53,1.14-.06.16-.08.32-.08.55v3.8h-1.14v-9.23Z"/><path d="m620.92,320.97c.03,1.55,1.01,2.18,2.16,2.18.82,0,1.31-.14,1.74-.33l.2.82c-.4.18-1.09.39-2.09.39-1.94,0-3.09-1.27-3.09-3.17s1.12-3.39,2.95-3.39c2.05,0,2.6,1.81,2.6,2.96,0,.23-.03.42-.04.53h-4.42Zm3.35-.82c.01-.73-.3-1.86-1.59-1.86-1.16,0-1.66,1.07-1.76,1.86h3.34Z"/></g></g><g><g><rect class="m" x="497.99" y="339.35" width="141" height="69"/><path d="m637.49,340.85v66h-138v-66h138m3-3h-144v72h144v-72h0Z"/></g><g><path d="m517.01,368.7l-3.59-14.15h1.93l1.68,7.16c.42,1.76.8,3.53,1.05,4.89h.04c.23-1.41.67-3.09,1.15-4.91l1.89-7.14h1.91l1.72,7.18c.4,1.68.78,3.36.99,4.85h.04c.29-1.55.69-3.13,1.13-4.89l1.87-7.14h1.87l-4.01,14.15h-1.91l-1.78-7.37c-.44-1.81-.74-3.19-.92-4.62h-.04c-.25,1.41-.57,2.79-1.09,4.62l-2.02,7.37h-1.91Z"/><path d="m532.73,363.95c.04,2.5,1.64,3.53,3.49,3.53,1.32,0,2.12-.23,2.81-.52l.32,1.32c-.65.29-1.76.63-3.38.63-3.13,0-5-2.06-5-5.12s1.81-5.48,4.77-5.48c3.32,0,4.2,2.92,4.2,4.79,0,.38-.04.67-.06.86h-7.14Zm5.42-1.32c.02-1.18-.48-3-2.56-3-1.87,0-2.69,1.72-2.83,3h5.4Z"/><path d="m542.14,368.7c.04-.69.08-1.72.08-2.62v-12.28h1.83v6.38h.04c.65-1.13,1.83-1.87,3.46-1.87,2.52,0,4.3,2.1,4.28,5.19,0,3.63-2.29,5.44-4.56,5.44-1.47,0-2.65-.57-3.4-1.91h-.06l-.08,1.68h-1.6Zm1.91-4.07c0,.23.04.46.08.67.36,1.28,1.43,2.16,2.77,2.16,1.93,0,3.09-1.58,3.09-3.91,0-2.04-1.05-3.78-3.02-3.78-1.26,0-2.44.86-2.81,2.27-.04.21-.1.46-.1.76v1.83Z"/><path d="m520.26,393.9l-.15-1.28h-.06c-.57.8-1.66,1.51-3.11,1.51-2.06,0-3.11-1.45-3.11-2.92,0-2.46,2.18-3.8,6.11-3.78v-.21c0-.84-.23-2.35-2.31-2.35-.94,0-1.93.29-2.65.76l-.42-1.22c.84-.55,2.06-.9,3.34-.9,3.11,0,3.86,2.12,3.86,4.16v3.8c0,.88.04,1.74.17,2.44h-1.68Zm-.27-5.19c-2.02-.04-4.3.32-4.3,2.29,0,1.2.8,1.76,1.74,1.76,1.32,0,2.16-.84,2.46-1.7.06-.19.1-.4.1-.59v-1.76Z"/><path d="m524.76,387.05c0-1.3-.04-2.35-.08-3.32h1.66l.08,1.74h.04c.76-1.24,1.95-1.97,3.61-1.97,2.46,0,4.3,2.08,4.3,5.17,0,3.65-2.22,5.46-4.62,5.46-1.34,0-2.52-.59-3.13-1.6h-.04v5.52h-1.83v-11Zm1.83,2.71c0,.27.04.53.08.76.34,1.28,1.45,2.16,2.77,2.16,1.95,0,3.09-1.6,3.09-3.93,0-2.04-1.07-3.78-3.02-3.78-1.26,0-2.44.9-2.79,2.29-.06.23-.13.5-.13.76v1.74Z"/><path d="m536.7,387.05c0-1.3-.04-2.35-.08-3.32h1.66l.08,1.74h.04c.76-1.24,1.95-1.97,3.61-1.97,2.46,0,4.3,2.08,4.3,5.17,0,3.65-2.23,5.46-4.62,5.46-1.34,0-2.52-.59-3.13-1.6h-.04v5.52h-1.83v-11Zm1.83,2.71c0,.27.04.53.08.76.34,1.28,1.45,2.16,2.77,2.16,1.95,0,3.09-1.6,3.09-3.93,0-2.04-1.07-3.78-3.02-3.78-1.26,0-2.44.9-2.79,2.29-.06.23-.12.5-.12.76v1.74Z"/></g><g><ellipse class="l" cx="610.03" cy="354.46" rx="19.38" ry="5.54"/><path class="l" d="m629.41,365.54c0,3.06-8.68,5.54-19.38,5.54s-19.38-2.48-19.38-5.54v-11.08c0,3.06,8.68,5.54,19.38,5.54s19.38-2.48,19.38-5.54v11.08Z"/></g><g><path d="m596.89,377.08h1.13v7.81h3.74v.95h-4.88v-8.76Z"/><path d="m608.5,382.65c0,2.33-1.61,3.34-3.13,3.34-1.7,0-3.02-1.25-3.02-3.24,0-2.11,1.38-3.34,3.12-3.34s3.03,1.31,3.03,3.24Zm-4.99.07c0,1.38.79,2.42,1.91,2.42s1.91-1.03,1.91-2.44c0-1.07-.53-2.42-1.89-2.42s-1.94,1.25-1.94,2.44Z"/><path d="m614.43,385.61c-.3.16-.96.36-1.81.36-1.9,0-3.13-1.29-3.13-3.21s1.33-3.34,3.38-3.34c.68,0,1.27.17,1.59.32l-.26.88c-.27-.16-.7-.3-1.33-.3-1.44,0-2.22,1.07-2.22,2.38,0,1.46.94,2.35,2.18,2.35.65,0,1.08-.17,1.4-.31l.2.86Z"/><path d="m619.25,385.85l-.09-.79h-.04c-.35.49-1.03.94-1.92.94-1.27,0-1.92-.9-1.92-1.81,0-1.52,1.35-2.35,3.78-2.34v-.13c0-.52-.14-1.46-1.43-1.46-.58,0-1.2.18-1.64.47l-.26-.75c.52-.34,1.27-.56,2.07-.56,1.92,0,2.39,1.31,2.39,2.57v2.35c0,.55.03,1.08.1,1.51h-1.04Zm-.17-3.21c-1.25-.03-2.67.2-2.67,1.42,0,.74.49,1.09,1.08,1.09.82,0,1.34-.52,1.52-1.05.04-.12.07-.25.07-.36v-1.09Z"/><path d="m622.03,376.62h1.14v9.23h-1.14v-9.23Z"/><path d="m599.64,401.21c-.3.16-.96.36-1.81.36-1.9,0-3.13-1.29-3.13-3.21s1.33-3.34,3.38-3.34c.68,0,1.27.17,1.59.32l-.26.88c-.27-.16-.7-.3-1.33-.3-1.44,0-2.22,1.07-2.22,2.38,0,1.46.94,2.35,2.18,2.35.65,0,1.08-.17,1.4-.31l.2.86Z"/><path d="m604.46,401.45l-.09-.79h-.04c-.35.49-1.03.94-1.92.94-1.27,0-1.92-.9-1.92-1.81,0-1.52,1.35-2.35,3.78-2.34v-.13c0-.52-.14-1.46-1.43-1.46-.58,0-1.2.18-1.64.47l-.26-.75c.52-.34,1.27-.56,2.07-.56,1.92,0,2.39,1.31,2.39,2.57v2.35c0,.55.03,1.08.1,1.51h-1.04Zm-.17-3.21c-1.25-.03-2.67.19-2.67,1.42,0,.74.49,1.09,1.08,1.09.82,0,1.34-.52,1.52-1.05.04-.12.07-.25.07-.36v-1.09Z"/><path d="m611.73,401.21c-.3.16-.96.36-1.81.36-1.9,0-3.13-1.29-3.13-3.21s1.33-3.34,3.38-3.34c.68,0,1.27.17,1.59.32l-.26.88c-.27-.16-.7-.3-1.33-.3-1.44,0-2.22,1.07-2.22,2.38,0,1.46.94,2.35,2.18,2.35.65,0,1.08-.17,1.4-.31l.2.86Z"/><path d="m613.07,392.22h1.14v3.93h.03c.18-.33.47-.61.82-.81.34-.2.74-.33,1.17-.33.84,0,2.2.52,2.2,2.69v3.74h-1.14v-3.61c0-1.01-.38-1.87-1.46-1.87-.74,0-1.33.52-1.53,1.14-.06.16-.08.32-.08.55v3.8h-1.14v-9.23Z"/><path d="m620.92,398.51c.03,1.55,1.01,2.18,2.16,2.18.82,0,1.31-.14,1.74-.33l.2.82c-.4.18-1.09.39-2.09.39-1.94,0-3.09-1.27-3.09-3.17s1.12-3.39,2.95-3.39c2.05,0,2.6,1.81,2.6,2.96,0,.23-.03.42-.04.53h-4.42Zm3.35-.82c.01-.73-.3-1.86-1.59-1.86-1.16,0-1.66,1.07-1.76,1.86h3.34Z"/></g></g><g><g><rect class="m" x="497.99" y="416.88" width="141" height="69"/><path d="m637.49,418.38v66h-138v-66h138m3-3h-144v72h144v-72h0Z"/></g><g><path d="m517.01,446.24l-3.59-14.15h1.93l1.68,7.16c.42,1.76.8,3.53,1.05,4.89h.04c.23-1.41.67-3.09,1.15-4.91l1.89-7.14h1.91l1.72,7.18c.4,1.68.78,3.36.99,4.85h.04c.29-1.55.69-3.13,1.13-4.89l1.87-7.14h1.87l-4.01,14.15h-1.91l-1.78-7.37c-.44-1.81-.74-3.19-.92-4.62h-.04c-.25,1.41-.57,2.79-1.09,4.62l-2.02,7.37h-1.91Z"/><path d="m532.73,441.49c.04,2.5,1.64,3.53,3.49,3.53,1.32,0,2.12-.23,2.81-.53l.32,1.32c-.65.29-1.76.63-3.38.63-3.13,0-5-2.06-5-5.12s1.81-5.48,4.77-5.48c3.32,0,4.2,2.92,4.2,4.79,0,.38-.04.67-.06.86h-7.14Zm5.42-1.32c.02-1.18-.48-3-2.56-3-1.87,0-2.69,1.72-2.83,3h5.4Z"/><path d="m542.14,446.24c.04-.69.08-1.72.08-2.62v-12.28h1.83v6.38h.04c.65-1.13,1.83-1.87,3.46-1.87,2.52,0,4.3,2.1,4.28,5.19,0,3.63-2.29,5.44-4.56,5.44-1.47,0-2.65-.57-3.4-1.91h-.06l-.08,1.68h-1.6Zm1.91-4.07c0,.23.04.46.08.67.36,1.28,1.43,2.16,2.77,2.16,1.93,0,3.09-1.57,3.09-3.91,0-2.04-1.05-3.78-3.02-3.78-1.26,0-2.44.86-2.81,2.27-.04.21-.1.46-.1.76v1.83Z"/><path d="m520.26,471.44l-.15-1.28h-.06c-.57.8-1.66,1.51-3.11,1.51-2.06,0-3.11-1.45-3.11-2.92,0-2.46,2.18-3.8,6.11-3.78v-.21c0-.84-.23-2.35-2.31-2.35-.94,0-1.93.29-2.65.76l-.42-1.22c.84-.55,2.06-.9,3.34-.9,3.11,0,3.86,2.12,3.86,4.16v3.8c0,.88.04,1.74.17,2.44h-1.68Zm-.27-5.19c-2.02-.04-4.3.31-4.3,2.29,0,1.2.8,1.76,1.74,1.76,1.32,0,2.16-.84,2.46-1.7.06-.19.1-.4.1-.59v-1.76Z"/><path d="m524.76,464.59c0-1.3-.04-2.35-.08-3.32h1.66l.08,1.74h.04c.76-1.24,1.95-1.97,3.61-1.97,2.46,0,4.3,2.08,4.3,5.17,0,3.65-2.22,5.46-4.62,5.46-1.34,0-2.52-.59-3.13-1.6h-.04v5.52h-1.83v-11Zm1.83,2.71c0,.27.04.52.08.76.34,1.28,1.45,2.16,2.77,2.16,1.95,0,3.09-1.6,3.09-3.93,0-2.04-1.07-3.78-3.02-3.78-1.26,0-2.44.9-2.79,2.29-.06.23-.13.5-.13.76v1.74Z"/><path d="m536.7,464.59c0-1.3-.04-2.35-.08-3.32h1.66l.08,1.74h.04c.76-1.24,1.95-1.97,3.61-1.97,2.46,0,4.3,2.08,4.3,5.17,0,3.65-2.23,5.46-4.62,5.46-1.34,0-2.52-.59-3.13-1.6h-.04v5.52h-1.83v-11Zm1.83,2.71c0,.27.04.52.08.76.34,1.28,1.45,2.16,2.77,2.16,1.95,0,3.09-1.6,3.09-3.93,0-2.04-1.07-3.78-3.02-3.78-1.26,0-2.44.9-2.79,2.29-.06.23-.12.5-.12.76v1.74Z"/></g><g><ellipse class="l" cx="610.03" cy="432" rx="19.38" ry="5.54"/><path class="l" d="m629.41,443.08c0,3.06-8.68,5.54-19.38,5.54s-19.38-2.48-19.38-5.54v-11.08c0,3.06,8.68,5.54,19.38,5.54s19.38-2.48,19.38-5.54v11.08Z"/></g><g><path d="m596.89,454.62h1.13v7.81h3.74v.95h-4.88v-8.76Z"/><path d="m608.5,460.18c0,2.33-1.61,3.34-3.13,3.34-1.7,0-3.02-1.25-3.02-3.24,0-2.11,1.38-3.34,3.12-3.34s3.03,1.31,3.03,3.24Zm-4.99.07c0,1.38.79,2.42,1.91,2.42s1.91-1.03,1.91-2.44c0-1.07-.53-2.42-1.89-2.42s-1.94,1.25-1.94,2.44Z"/><path d="m614.43,463.15c-.3.16-.96.36-1.81.36-1.9,0-3.13-1.29-3.13-3.21s1.33-3.34,3.38-3.34c.68,0,1.27.17,1.59.32l-.26.88c-.27-.16-.7-.3-1.33-.3-1.44,0-2.22,1.07-2.22,2.38,0,1.46.94,2.35,2.18,2.35.65,0,1.08-.17,1.4-.31l.2.86Z"/><path d="m619.25,463.38l-.09-.79h-.04c-.35.49-1.03.94-1.92.94-1.27,0-1.92-.9-1.92-1.81,0-1.52,1.35-2.35,3.78-2.34v-.13c0-.52-.14-1.46-1.43-1.46-.58,0-1.2.18-1.64.47l-.26-.75c.52-.34,1.27-.56,2.07-.56,1.92,0,2.39,1.31,2.39,2.57v2.35c0,.55.03,1.08.1,1.51h-1.04Zm-.17-3.21c-1.25-.03-2.67.2-2.67,1.42,0,.74.49,1.09,1.08,1.09.82,0,1.34-.52,1.52-1.05.04-.12.07-.25.07-.36v-1.09Z"/><path d="m622.03,454.15h1.14v9.23h-1.14v-9.23Z"/><path d="m599.64,478.75c-.3.16-.96.36-1.81.36-1.9,0-3.13-1.29-3.13-3.21s1.33-3.34,3.38-3.34c.68,0,1.27.17,1.59.32l-.26.88c-.27-.16-.7-.3-1.33-.3-1.44,0-2.22,1.07-2.22,2.38,0,1.46.94,2.35,2.18,2.35.65,0,1.08-.17,1.4-.31l.2.86Z"/><path d="m604.46,478.98l-.09-.79h-.04c-.35.49-1.03.94-1.92.94-1.27,0-1.92-.9-1.92-1.81,0-1.52,1.35-2.35,3.78-2.34v-.13c0-.52-.14-1.46-1.43-1.46-.58,0-1.2.18-1.64.47l-.26-.75c.52-.34,1.27-.56,2.07-.56,1.92,0,2.39,1.31,2.39,2.57v2.35c0,.55.03,1.08.1,1.51h-1.04Zm-.17-3.21c-1.25-.03-2.67.19-2.67,1.42,0,.74.49,1.09,1.08,1.09.82,0,1.34-.52,1.52-1.05.04-.12.07-.25.07-.36v-1.09Z"/><path d="m611.73,478.75c-.3.16-.96.36-1.81.36-1.9,0-3.13-1.29-3.13-3.21s1.33-3.34,3.38-3.34c.68,0,1.27.17,1.59.32l-.26.88c-.27-.16-.7-.3-1.33-.3-1.44,0-2.22,1.07-2.22,2.38,0,1.46.94,2.35,2.18,2.35.65,0,1.08-.17,1.4-.31l.2.86Z"/><path d="m613.07,469.75h1.14v3.93h.03c.18-.33.47-.61.82-.81.34-.2.74-.33,1.17-.33.84,0,2.2.52,2.2,2.69v3.74h-1.14v-3.61c0-1.01-.38-1.87-1.46-1.87-.74,0-1.33.52-1.53,1.14-.06.16-.08.32-.08.55v3.8h-1.14v-9.23Z"/><path d="m620.92,476.04c.03,1.55,1.01,2.18,2.16,2.18.82,0,1.31-.14,1.74-.33l.2.82c-.4.18-1.09.39-2.09.39-1.94,0-3.09-1.27-3.09-3.17s1.12-3.39,2.95-3.39c2.05,0,2.6,1.81,2.6,2.96,0,.23-.03.42-.04.53h-4.42Zm3.35-.82c.01-.73-.3-1.86-1.59-1.86-1.16,0-1.66,1.07-1.76,1.86h3.34Z"/></g></g><g><path class="j" d="m684.79,102.49v159.97c0,11-9,20-20,20h-21.39"/><polygon points="646.54 277.87 629.41 282.46 646.54 287.05 646.54 277.87"/></g><g><path class="j" d="m679.26,102.49v46.46c0,11-9,20-20,20h-137.69"/><polygon points="524.69 164.36 507.56 168.95 524.69 173.54 524.69 164.36"/></g><g><path class="j" d="m690.33,102.49v237.51c0,11-9,20-20,20h-26.93"/><polygon points="646.54 355.41 629.41 360 646.54 364.59 646.54 355.41"/></g><g><path class="j" d="m695.87,102.49v315.05c0,11-9,20-20,20h-32.46"/><polygon points="646.54 432.95 629.41 437.54 646.54 442.13 646.54 432.95"/></g><ellipse class="k" cx="579.56" cy="85.87" rx="11.08" ry="16.62"/><path class="k" d="m579.56,102.49c6.12,0,11.08-7.44,11.08-16.62s-4.96-16.62-11.08-16.62h116.31c6.12,0,11.08,7.44,11.08,16.62s-4.96,16.62-11.08,16.62h-116.31Z"/><path class="b" d="m695.87,102.49c6.12,0,11.08-7.44,11.08-16.62s-4.96-16.62-11.08-16.62h16.62c6.12,0,11.08,7.44,11.08,16.62s-4.96,16.62-11.08,16.62h-16.62Z"/><g><path d="m610.58,85.84h-5.5v5.1h6.13v1.53h-7.96v-14.15h7.64v1.53h-5.82v4.47h5.5v1.51Z"/><path d="m614.09,82.31l1.99,5.71c.34.92.61,1.76.82,2.6h.06c.23-.84.52-1.68.86-2.6l1.97-5.71h1.93l-3.99,10.16h-1.76l-3.86-10.16h1.97Z"/><path d="m624.29,87.73c.04,2.5,1.64,3.53,3.49,3.53,1.32,0,2.12-.23,2.81-.53l.31,1.32c-.65.29-1.76.63-3.38.63-3.13,0-5-2.06-5-5.12s1.81-5.48,4.77-5.48c3.32,0,4.2,2.92,4.2,4.79,0,.38-.04.67-.06.86h-7.14Zm5.42-1.32c.02-1.18-.48-3-2.56-3-1.87,0-2.69,1.72-2.83,3h5.4Z"/><path d="m633.78,85.06c0-1.05-.02-1.91-.08-2.75h1.64l.11,1.68h.04c.5-.97,1.68-1.91,3.36-1.91,1.41,0,3.59.84,3.59,4.33v6.07h-1.85v-5.86c0-1.64-.61-3-2.35-3-1.22,0-2.16.86-2.48,1.89-.08.23-.12.55-.12.86v6.11h-1.85v-7.41Z"/><path d="m647.58,79.39v2.92h2.64v1.41h-2.64v5.48c0,1.26.36,1.97,1.38,1.97.48,0,.84-.06,1.07-.13l.08,1.39c-.36.15-.92.25-1.64.25-.86,0-1.55-.27-1.99-.78-.53-.55-.71-1.45-.71-2.65v-5.54h-1.57v-1.41h1.57v-2.44l1.81-.48Z"/><path d="m656.76,77.57h1.85v6.34h.04c.29-.53.76-.99,1.32-1.3.54-.32,1.2-.53,1.89-.53,1.37,0,3.55.84,3.55,4.35v6.05h-1.85v-5.84c0-1.64-.61-3.02-2.35-3.02-1.2,0-2.14.84-2.48,1.85-.1.25-.12.52-.12.88v6.13h-1.85v-14.91Z"/><path d="m676.92,89.7c0,1.05.02,1.97.08,2.77h-1.64l-.11-1.66h-.04c-.48.82-1.55,1.89-3.36,1.89-1.6,0-3.51-.88-3.51-4.45v-5.94h1.85v5.63c0,1.93.59,3.23,2.27,3.23,1.24,0,2.1-.86,2.44-1.68.11-.27.17-.61.17-.95v-6.24h1.85v7.39Z"/><path d="m679.9,92.47c.04-.69.08-1.72.08-2.62v-12.28h1.83v6.38h.04c.65-1.13,1.83-1.87,3.46-1.87,2.52,0,4.3,2.1,4.28,5.19,0,3.63-2.29,5.44-4.55,5.44-1.47,0-2.65-.57-3.4-1.91h-.06l-.08,1.68h-1.6Zm1.91-4.07c0,.23.04.46.08.67.36,1.28,1.43,2.16,2.77,2.16,1.93,0,3.09-1.57,3.09-3.91,0-2.04-1.05-3.78-3.02-3.78-1.26,0-2.44.86-2.81,2.27-.04.21-.11.46-.11.76v1.83Z"/></g><g><rect class="m" x="365.04" y="153.81" width="141.05" height="69.05"/><path d="m504.62,155.28v66.11h-138.11v-66.11h138.11m2.94-2.94h-144v72h144v-72h0Z"/></g><g><path d="m395.64,180.96c.82.5,2.02.92,3.28.92,1.87,0,2.96-.99,2.96-2.42,0-1.32-.76-2.08-2.67-2.81-2.31-.82-3.74-2.02-3.74-4.01,0-2.21,1.83-3.84,4.58-3.84,1.45,0,2.5.34,3.13.69l-.5,1.49c-.46-.25-1.41-.67-2.69-.67-1.93,0-2.67,1.16-2.67,2.12,0,1.32.86,1.97,2.81,2.73,2.39.92,3.61,2.08,3.61,4.16,0,2.18-1.62,4.07-4.96,4.07-1.37,0-2.86-.4-3.61-.9l.46-1.53Z"/><path d="m406.18,175.77c0-1.05-.02-1.91-.08-2.75h1.64l.11,1.68h.04c.5-.97,1.68-1.91,3.36-1.91,1.41,0,3.59.84,3.59,4.33v6.07h-1.85v-5.86c0-1.64-.61-3-2.35-3-1.22,0-2.16.86-2.48,1.89-.08.23-.12.55-.12.86v6.11h-1.85v-7.41Z"/><path d="m423.46,183.19l-.15-1.28h-.06c-.57.8-1.66,1.51-3.11,1.51-2.06,0-3.11-1.45-3.11-2.92,0-2.46,2.18-3.8,6.11-3.78v-.21c0-.84-.23-2.35-2.31-2.35-.94,0-1.93.29-2.64.76l-.42-1.22c.84-.55,2.06-.9,3.34-.9,3.11,0,3.86,2.12,3.86,4.16v3.8c0,.88.04,1.74.17,2.44h-1.68Zm-.27-5.19c-2.02-.04-4.3.32-4.3,2.29,0,1.2.8,1.76,1.74,1.76,1.32,0,2.16-.84,2.46-1.7.06-.19.1-.4.1-.59v-1.76Z"/><path d="m427.96,176.34c0-1.3-.04-2.35-.08-3.32h1.66l.08,1.74h.04c.76-1.24,1.95-1.97,3.61-1.97,2.46,0,4.3,2.08,4.3,5.17,0,3.65-2.23,5.46-4.62,5.46-1.34,0-2.52-.59-3.13-1.6h-.04v5.52h-1.83v-11Zm1.83,2.71c0,.27.04.53.08.76.34,1.28,1.45,2.16,2.77,2.16,1.95,0,3.09-1.6,3.09-3.93,0-2.04-1.07-3.78-3.02-3.78-1.26,0-2.44.9-2.79,2.29-.06.23-.12.5-.12.76v1.74Z"/><path d="m439.66,181.3c.55.36,1.51.73,2.44.73,1.34,0,1.97-.67,1.97-1.51,0-.88-.53-1.36-1.89-1.87-1.83-.65-2.69-1.66-2.69-2.88,0-1.64,1.32-2.98,3.51-2.98,1.03,0,1.93.29,2.5.63l-.46,1.34c-.4-.25-1.13-.59-2.08-.59-1.09,0-1.7.63-1.7,1.39,0,.84.61,1.22,1.93,1.72,1.76.67,2.67,1.55,2.67,3.07,0,1.79-1.39,3.04-3.8,3.04-1.11,0-2.14-.27-2.86-.69l.46-1.41Z"/><path d="m448.22,168.28h1.85v6.34h.04c.29-.53.76-.99,1.32-1.3.54-.32,1.2-.53,1.89-.53,1.37,0,3.55.84,3.55,4.35v6.05h-1.85v-5.84c0-1.64-.61-3.02-2.35-3.02-1.2,0-2.14.84-2.48,1.85-.1.25-.13.52-.13.88v6.13h-1.85v-14.91Z"/><path d="m469.08,178.02c0,3.76-2.6,5.4-5.06,5.4-2.75,0-4.87-2.02-4.87-5.23,0-3.4,2.23-5.4,5.04-5.4s4.89,2.12,4.89,5.23Zm-8.06.1c0,2.23,1.28,3.91,3.09,3.91s3.09-1.66,3.09-3.95c0-1.72-.86-3.91-3.04-3.91s-3.13,2.02-3.13,3.95Z"/><path d="m473.63,170.11v2.92h2.65v1.41h-2.65v5.48c0,1.26.36,1.97,1.39,1.97.48,0,.84-.06,1.07-.13l.08,1.39c-.36.15-.92.25-1.64.25-.86,0-1.55-.27-2-.78-.52-.55-.71-1.45-.71-2.65v-5.54h-1.57v-1.41h1.57v-2.44l1.81-.48Z"/><path d="m397.71,198.22c-.04.74-.08,1.55-.08,2.79v5.9c0,2.33-.46,3.76-1.45,4.64-.99.92-2.42,1.22-3.7,1.22s-2.56-.29-3.38-.84l.46-1.41c.67.42,1.72.8,2.98.8,1.89,0,3.28-.99,3.28-3.55v-1.13h-.04c-.57.94-1.66,1.7-3.23,1.7-2.52,0-4.33-2.14-4.33-4.96,0-3.44,2.25-5.4,4.58-5.4,1.76,0,2.73.92,3.17,1.76h.04l.08-1.53h1.62Zm-1.91,4.01c0-.32-.02-.59-.1-.84-.34-1.07-1.24-1.95-2.58-1.95-1.76,0-3.02,1.49-3.02,3.84,0,1.99,1.01,3.65,3,3.65,1.13,0,2.16-.71,2.56-1.89.11-.32.15-.67.15-.99v-1.83Z"/><path d="m401.72,203.64c.04,2.5,1.64,3.53,3.48,3.53,1.32,0,2.12-.23,2.81-.52l.31,1.32c-.65.29-1.76.63-3.38.63-3.13,0-5-2.06-5-5.12s1.8-5.48,4.77-5.48c3.32,0,4.2,2.92,4.2,4.79,0,.38-.04.67-.06.86h-7.14Zm5.42-1.32c.02-1.18-.48-3-2.56-3-1.87,0-2.69,1.72-2.83,3h5.4Z"/><path d="m411.21,200.97c0-1.05-.02-1.91-.08-2.75h1.64l.11,1.68h.04c.5-.97,1.68-1.91,3.36-1.91,1.41,0,3.59.84,3.59,4.33v6.07h-1.85v-5.86c0-1.64-.61-3-2.35-3-1.22,0-2.16.86-2.48,1.89-.08.23-.12.55-.12.86v6.11h-1.85v-7.41Z"/><path d="m423.9,203.64c.04,2.5,1.64,3.53,3.48,3.53,1.32,0,2.12-.23,2.81-.52l.31,1.32c-.65.29-1.76.63-3.38.63-3.13,0-5-2.06-5-5.12s1.8-5.48,4.77-5.48c3.32,0,4.2,2.92,4.2,4.79,0,.38-.04.67-.06.86h-7.14Zm5.42-1.32c.02-1.18-.48-3-2.56-3-1.87,0-2.69,1.72-2.83,3h5.4Z"/><path d="m433.39,201.39c0-1.2-.02-2.23-.08-3.17h1.62l.06,2h.08c.46-1.37,1.57-2.23,2.81-2.23.21,0,.36.02.53.06v1.74c-.19-.04-.38-.06-.63-.06-1.3,0-2.23.99-2.48,2.37-.04.25-.08.55-.08.86v5.42h-1.83v-6.99Z"/><path d="m445.78,208.39l-.15-1.28h-.06c-.57.8-1.66,1.51-3.11,1.51-2.06,0-3.11-1.45-3.11-2.92,0-2.46,2.18-3.8,6.11-3.78v-.21c0-.84-.23-2.35-2.31-2.35-.95,0-1.93.29-2.65.76l-.42-1.22c.84-.55,2.06-.9,3.34-.9,3.11,0,3.86,2.12,3.86,4.16v3.8c0,.88.04,1.74.17,2.44h-1.68Zm-.27-5.19c-2.02-.04-4.3.31-4.3,2.29,0,1.2.8,1.76,1.74,1.76,1.32,0,2.16-.84,2.46-1.7.06-.19.11-.4.11-.59v-1.76Z"/><path d="m452.41,195.31v2.92h2.64v1.41h-2.64v5.48c0,1.26.36,1.97,1.38,1.97.48,0,.84-.06,1.07-.13l.08,1.39c-.36.15-.92.25-1.64.25-.86,0-1.55-.27-1.99-.78-.53-.55-.71-1.45-.71-2.65v-5.54h-1.57v-1.41h1.57v-2.44l1.81-.48Z"/><path d="m459.2,195.37c.02.63-.44,1.13-1.18,1.13-.65,0-1.11-.5-1.11-1.13s.48-1.15,1.15-1.15,1.13.5,1.13,1.15Zm-2.06,13.02v-10.16h1.85v10.16h-1.85Z"/><path d="m471.25,203.22c0,3.76-2.6,5.4-5.06,5.4-2.75,0-4.87-2.02-4.87-5.23,0-3.4,2.22-5.4,5.04-5.4s4.89,2.12,4.89,5.23Zm-8.06.11c0,2.23,1.28,3.91,3.09,3.91s3.09-1.66,3.09-3.95c0-1.72-.86-3.91-3.04-3.91s-3.13,2.02-3.13,3.95Z"/><path d="m473.58,200.97c0-1.05-.02-1.91-.08-2.75h1.64l.11,1.68h.04c.5-.97,1.68-1.91,3.36-1.91,1.41,0,3.59.84,3.59,4.33v6.07h-1.85v-5.86c0-1.64-.61-3-2.35-3-1.22,0-2.16.86-2.48,1.89-.08.23-.12.55-.12.86v6.11h-1.85v-7.41Z"/></g><ellipse class="l" cx="612.79" cy="199.38" rx="33.23" ry="5.54"/><path class="l" d="m646.03,227.08c0,3.06-14.88,5.54-33.23,5.54s-33.23-2.48-33.23-5.54v-27.69c0,3.06,14.88,5.54,33.23,5.54s33.23-2.48,33.23-5.54v27.69Z"/><g><path d="m585.51,218.31c.51.31,1.25.57,2.03.57,1.16,0,1.83-.61,1.83-1.5,0-.82-.47-1.29-1.65-1.74-1.43-.51-2.31-1.25-2.31-2.48,0-1.37,1.13-2.38,2.83-2.38.9,0,1.55.21,1.94.43l-.31.92c-.29-.16-.87-.42-1.66-.42-1.2,0-1.65.71-1.65,1.31,0,.82.53,1.22,1.74,1.69,1.48.57,2.24,1.29,2.24,2.57,0,1.35-1,2.52-3.07,2.52-.85,0-1.77-.25-2.24-.56l.29-.95Z"/><path d="m592.04,215.1c0-.65-.01-1.18-.05-1.7h1.01l.07,1.04h.03c.31-.6,1.04-1.18,2.08-1.18.87,0,2.22.52,2.22,2.68v3.76h-1.14v-3.63c0-1.01-.38-1.86-1.46-1.86-.75,0-1.34.53-1.54,1.17-.05.14-.08.34-.08.53v3.78h-1.14v-4.59Z"/><path d="m602.73,219.69l-.09-.79h-.04c-.35.49-1.03.94-1.92.94-1.27,0-1.92-.9-1.92-1.81,0-1.52,1.35-2.35,3.78-2.34v-.13c0-.52-.14-1.46-1.43-1.46-.59,0-1.2.18-1.64.47l-.26-.75c.52-.34,1.27-.56,2.07-.56,1.92,0,2.39,1.31,2.39,2.57v2.35c0,.55.03,1.08.1,1.51h-1.04Zm-.17-3.21c-1.25-.03-2.67.19-2.67,1.42,0,.74.49,1.09,1.08,1.09.82,0,1.34-.52,1.52-1.05.04-.12.06-.25.06-.36v-1.09Z"/><path d="m605.52,215.45c0-.81-.03-1.46-.05-2.05h1.03l.05,1.08h.03c.47-.77,1.21-1.22,2.24-1.22,1.52,0,2.66,1.29,2.66,3.2,0,2.26-1.38,3.38-2.86,3.38-.83,0-1.56-.36-1.94-.99h-.03v3.42h-1.13v-6.81Zm1.13,1.68c0,.17.03.33.05.47.21.79.9,1.34,1.72,1.34,1.21,0,1.91-.99,1.91-2.43,0-1.26-.66-2.34-1.87-2.34-.78,0-1.51.56-1.73,1.42-.04.14-.08.31-.08.47v1.08Z"/><path d="m612.76,218.52c.34.22.94.46,1.51.46.83,0,1.22-.42,1.22-.94s-.33-.84-1.17-1.16c-1.13-.4-1.66-1.03-1.66-1.78,0-1.01.82-1.85,2.17-1.85.64,0,1.2.18,1.55.39l-.29.83c-.25-.16-.7-.36-1.29-.36-.68,0-1.05.39-1.05.86,0,.52.38.75,1.2,1.07,1.09.42,1.65.96,1.65,1.9,0,1.1-.86,1.88-2.35,1.88-.69,0-1.33-.17-1.77-.43l.29-.87Z"/><path d="m618.06,210.46h1.14v3.93h.03c.18-.33.47-.61.82-.81.34-.2.74-.33,1.17-.33.85,0,2.2.52,2.2,2.69v3.74h-1.14v-3.61c0-1.01-.38-1.87-1.46-1.87-.74,0-1.33.52-1.54,1.14-.06.16-.08.33-.08.55v3.8h-1.14v-9.23Z"/><path d="m630.97,216.49c0,2.33-1.61,3.34-3.13,3.34-1.7,0-3.02-1.25-3.02-3.24,0-2.11,1.38-3.34,3.12-3.34s3.03,1.31,3.03,3.24Zm-4.99.06c0,1.38.79,2.42,1.91,2.42s1.91-1.03,1.91-2.44c0-1.07-.53-2.42-1.88-2.42s-1.94,1.25-1.94,2.44Z"/><path d="m633.79,211.59v1.81h1.64v.87h-1.64v3.39c0,.78.22,1.22.86,1.22.3,0,.52-.04.66-.08l.05.86c-.22.09-.57.16-1.02.16-.53,0-.96-.17-1.23-.48-.32-.34-.44-.9-.44-1.64v-3.43h-.97v-.87h.97v-1.51l1.12-.3Z"/><path d="m636.56,218.52c.34.22.94.46,1.51.46.83,0,1.22-.42,1.22-.94s-.33-.84-1.17-1.16c-1.13-.4-1.66-1.03-1.66-1.78,0-1.01.82-1.85,2.17-1.85.64,0,1.2.18,1.55.39l-.29.83c-.25-.16-.7-.36-1.29-.36-.68,0-1.05.39-1.05.86,0,.52.38.75,1.2,1.07,1.09.42,1.65.96,1.65,1.9,0,1.1-.86,1.88-2.35,1.88-.69,0-1.33-.17-1.77-.43l.29-.87Z"/></g><g><line class="j" x1="507.56" y1="210.46" x2="565.57" y2="210.46"/><polygon points="562.44 215.05 579.56 210.46 562.44 205.87 562.44 215.05"/></g><g><line class="j" x1="612.79" y1="232.62" x2="612.79" y2="257.39"/><polygon points="608.2 254.26 612.79 271.38 617.39 254.26 608.2 254.26"/></g></g></svg>