<?xml version="1.0" encoding="UTF-8"?><svg id="a" xmlns="http://www.w3.org/2000/svg" viewBox="0 0 581.54 440.31"><defs><style>.e,.f{fill:#fff;}.e,.g,.h,.i{stroke:#000;stroke-miterlimit:10;}.e,.i{stroke-width:1.35px;}.g{fill:none;stroke-width:2px;}.h{stroke-width:1.3px;}.h,.i{fill:#e6e6e6;}</style></defs><ellipse class="i" cx="103.85" cy="23.54" rx="90" ry="15.23"/><g><path d="m64.29,23.97h-2.88v2.67h3.21v.8h-4.17v-7.42h4v.8h-3.05v2.34h2.88v.79Z"/><path d="m66.12,22.12l1.04,2.99c.18.48.32.92.43,1.36h.03c.12-.44.27-.88.45-1.36l1.03-2.99h1.01l-2.09,5.33h-.92l-2.03-5.33h1.04Z"/><path d="m71.47,24.96c.02,1.31.86,1.85,1.83,1.85.69,0,1.11-.12,1.47-.28l.17.69c-.34.15-.92.33-1.77.33-1.64,0-2.62-1.08-2.62-2.68s.95-2.87,2.5-2.87c1.74,0,2.2,1.53,2.2,2.51,0,.2-.02.35-.03.45h-3.74Zm2.84-.69c0-.62-.25-1.57-1.34-1.57-.98,0-1.41.9-1.49,1.57h2.83Z"/><path d="m76.44,23.56c0-.55-.01-1-.04-1.44h.86l.05.88h.02c.26-.51.88-1,1.76-1,.74,0,1.88.44,1.88,2.27v3.18h-.97v-3.07c0-.86-.32-1.57-1.23-1.57-.64,0-1.13.45-1.3.99-.04.12-.06.29-.06.45v3.2h-.97v-3.88Z"/><path d="m83.67,20.59v1.53h1.39v.74h-1.39v2.87c0,.66.19,1.03.73,1.03.25,0,.44-.03.56-.07l.04.73c-.19.08-.48.13-.86.13-.45,0-.81-.14-1.04-.41-.28-.29-.37-.76-.37-1.39v-2.9h-.83v-.74h.83v-1.28l.95-.25Z"/><path d="m87.13,20.03v3.1h3.59v-3.1h.97v7.42h-.97v-3.48h-3.59v3.48h-.96v-7.42h.96Z"/><path d="m97.77,25.99c0,.55.01,1.03.04,1.45h-.86l-.05-.87h-.02c-.25.43-.81.99-1.76.99-.84,0-1.84-.46-1.84-2.33v-3.11h.97v2.95c0,1.01.31,1.69,1.19,1.69.65,0,1.1-.45,1.28-.88.06-.14.09-.32.09-.5v-3.27h.97v3.87Z"/><path d="m99.33,27.44c.02-.36.04-.9.04-1.38v-6.44h.96v3.34h.02c.34-.59.96-.98,1.82-.98,1.32,0,2.25,1.1,2.24,2.72,0,1.9-1.2,2.85-2.39,2.85-.77,0-1.38-.3-1.78-1h-.03l-.04.88h-.84Zm1-2.13c0,.12.02.24.04.35.19.67.75,1.13,1.45,1.13,1.01,0,1.62-.83,1.62-2.05,0-1.07-.55-1.98-1.58-1.98-.66,0-1.28.45-1.47,1.19-.02.11-.05.24-.05.4v.96Z"/><path d="m105.5,26.45c.29.19.79.38,1.28.38.71,0,1.04-.35,1.04-.79s-.28-.71-.99-.98c-.96-.34-1.41-.87-1.41-1.51,0-.86.69-1.56,1.84-1.56.54,0,1.01.15,1.31.33l-.24.7c-.21-.13-.59-.31-1.09-.31-.57,0-.89.33-.89.73,0,.44.32.64,1.01.9.92.35,1.4.81,1.4,1.61,0,.94-.73,1.6-1.99,1.6-.58,0-1.12-.14-1.5-.36l.24-.74Z"/><path d="m117.54,27.2c-.35.18-1.06.35-1.96.35-2.09,0-3.66-1.32-3.66-3.75s1.57-3.89,3.87-3.89c.92,0,1.51.2,1.76.33l-.23.78c-.36-.18-.88-.31-1.5-.31-1.74,0-2.89,1.11-2.89,3.06,0,1.82,1.04,2.98,2.85,2.98.58,0,1.18-.12,1.56-.31l.2.76Z"/><path d="m121.57,27.44l-.08-.67h-.03c-.3.42-.87.79-1.63.79-1.08,0-1.63-.76-1.63-1.53,0-1.29,1.14-1.99,3.2-1.98v-.11c0-.44-.12-1.23-1.21-1.23-.49,0-1.01.15-1.38.4l-.22-.64c.44-.29,1.08-.47,1.75-.47,1.63,0,2.02,1.11,2.02,2.18v1.99c0,.46.02.91.09,1.28h-.88Zm-.14-2.72c-1.05-.02-2.25.17-2.25,1.2,0,.63.42.92.91.92.69,0,1.13-.44,1.29-.89.03-.1.05-.21.05-.31v-.92Z"/><path d="m123.92,23.86c0-.68-.02-1.23-.04-1.74h.87l.04.91h.02c.39-.65,1.02-1.03,1.89-1.03,1.29,0,2.25,1.09,2.25,2.71,0,1.91-1.17,2.86-2.42,2.86-.7,0-1.32-.31-1.64-.84h-.02v2.89h-.96v-5.77Zm.96,1.42c0,.14.02.27.04.4.18.67.76,1.13,1.45,1.13,1.02,0,1.62-.84,1.62-2.06,0-1.07-.56-1.98-1.59-1.98-.66,0-1.28.47-1.46,1.2-.03.12-.06.26-.06.4v.91Z"/><path d="m131.35,20.59v1.53h1.39v.74h-1.39v2.87c0,.66.19,1.03.73,1.03.25,0,.44-.03.56-.07l.04.73c-.19.08-.48.13-.86.13-.45,0-.81-.14-1.04-.41-.28-.29-.37-.76-.37-1.39v-2.9h-.83v-.74h.83v-1.28l.95-.25Z"/><path d="m138.28,25.99c0,.55.01,1.03.04,1.45h-.86l-.05-.87h-.02c-.25.43-.81.99-1.76.99-.84,0-1.84-.46-1.84-2.33v-3.11h.97v2.95c0,1.01.31,1.69,1.19,1.69.65,0,1.1-.45,1.28-.88.06-.14.09-.32.09-.5v-3.27h.97v3.87Z"/><path d="m139.89,23.78c0-.63-.01-1.17-.04-1.66h.85l.03,1.05h.04c.24-.72.82-1.17,1.47-1.17.11,0,.19.01.28.03v.91c-.1-.02-.2-.03-.33-.03-.68,0-1.17.52-1.3,1.24-.02.13-.04.29-.04.45v2.84h-.96v-3.66Z"/><path d="m143.91,24.96c.02,1.31.86,1.85,1.83,1.85.69,0,1.11-.12,1.47-.28l.16.69c-.34.15-.92.33-1.77.33-1.64,0-2.62-1.08-2.62-2.68s.95-2.87,2.5-2.87c1.74,0,2.2,1.53,2.2,2.51,0,.2-.02.35-.03.45h-3.74Zm2.84-.69c.01-.62-.25-1.57-1.34-1.57-.98,0-1.41.9-1.48,1.57h2.83Z"/></g><rect class="h" x="229.85" y="254.77" width="343.38" height="83.08"/><g><g><polygon class="f" points="247.96 433.27 247.96 364.27 294.81 364.27 294.81 417.53 279.07 433.27 247.96 433.27"/><path d="m293.31,365.77v51.14l-14.86,14.86h-28.99v-66h43.85m3-3h-49.85v72h33.23l16.62-16.62v-55.38h0Z"/></g><polygon points="296.31 415.38 279.69 415.38 276.92 415.38 276.92 418.15 276.92 434.77 279.69 434.77 279.69 418.15 296.31 418.15 296.31 415.38"/></g><g><g><rect class="f" x="255.55" y="280.48" width="31.67" height="34.43"/><path d="m286.43,281.26v32.87h-30.1v-32.87h30.1m1.57-1.57h-33.23v36h33.23v-36h0Z"/></g><g><path d="m264.77,304.44v-7.92h-1.29v-1.27h1.29v-.44c0-1.29.29-2.47,1.06-3.21.63-.61,1.46-.86,2.24-.86.59,0,1.1.13,1.42.27l-.23,1.29c-.25-.11-.59-.21-1.06-.21-1.42,0-1.79,1.25-1.79,2.66v.49h2.22v1.27h-2.22v7.92h-1.65Z"/><path d="m273.78,291.25c-1.39,1.86-2.39,4.33-2.39,7.77s1.04,5.81,2.39,7.71h-1.31c-1.2-1.58-2.49-4.01-2.49-7.71.02-3.74,1.29-6.17,2.49-7.77h1.31Z"/><path d="m274.54,306.74c1.35-1.88,2.39-4.35,2.39-7.77s-1.03-5.83-2.39-7.71h1.29c1.22,1.56,2.49,3.99,2.49,7.73s-1.27,6.14-2.49,7.75h-1.29Z"/></g></g><g><path d="m260.89,385.39c.29.19.79.38,1.28.38.7,0,1.03-.35,1.03-.79s-.28-.71-.99-.98c-.96-.34-1.41-.87-1.41-1.51,0-.86.69-1.56,1.84-1.56.54,0,1.01.15,1.31.33l-.24.7c-.21-.13-.59-.31-1.09-.31-.57,0-.89.33-.89.73,0,.44.32.64,1.01.9.92.35,1.4.81,1.4,1.61,0,.94-.73,1.6-1.99,1.6-.58,0-1.12-.14-1.5-.36l.24-.74Z"/><path d="m266.54,379.53v1.53h1.39v.74h-1.39v2.87c0,.66.19,1.03.73,1.03.25,0,.44-.03.56-.07l.04.73c-.19.08-.48.13-.86.13-.45,0-.81-.14-1.04-.41-.28-.29-.37-.76-.37-1.39v-2.9h-.83v-.74h.83v-1.28l.95-.25Z"/><path d="m271.96,386.38l-.08-.67h-.03c-.3.42-.87.79-1.63.79-1.08,0-1.63-.76-1.63-1.53,0-1.29,1.14-1.99,3.2-1.98v-.11c0-.44-.12-1.23-1.21-1.23-.5,0-1.01.15-1.39.4l-.22-.64c.44-.29,1.08-.47,1.75-.47,1.63,0,2.02,1.11,2.02,2.18v1.99c0,.46.02.91.09,1.28h-.88Zm-.14-2.72c-1.06-.02-2.25.17-2.25,1.2,0,.63.42.92.91.92.69,0,1.13-.44,1.29-.89.03-.1.05-.21.05-.31v-.92Z"/><path d="m275.44,379.53v1.53h1.39v.74h-1.39v2.87c0,.66.19,1.03.73,1.03.25,0,.44-.03.56-.07l.04.73c-.19.08-.48.13-.86.13-.45,0-.81-.14-1.04-.41-.28-.29-.37-.76-.37-1.39v-2.9h-.83v-.74h.83v-1.28l.95-.25Z"/><path d="m278.38,383.9c.02,1.31.86,1.85,1.83,1.85.69,0,1.11-.12,1.47-.28l.17.69c-.34.15-.92.33-1.77.33-1.64,0-2.62-1.08-2.62-2.68s.95-2.87,2.5-2.87c1.74,0,2.2,1.53,2.2,2.51,0,.2-.02.35-.03.45h-3.74Zm2.84-.69c.01-.62-.25-1.57-1.34-1.57-.98,0-1.41.9-1.49,1.57h2.83Z"/><path d="m261.21,399.58l.29-2.16h-.9v-.65h1l.21-1.59h-.95v-.65h1.04l.29-2.1h.64l-.28,2.1h1.14l.29-2.1h.65l-.27,2.1h.9v.65h-1l-.2,1.59h.95v.65h-1.04l-.29,2.16h-.66l.29-2.16h-1.14l-.29,2.16h-.66Zm2.19-2.81l.21-1.59h-1.14l-.21,1.59h1.14Z"/><path d="m269.14,399.58v-1.95h-3.32v-.64l3.19-4.57h1.04v4.45h1v.76h-1v1.95h-.91Zm0-2.71v-2.39c0-.37.01-.75.03-1.12h-.03c-.22.42-.4.73-.59,1.06l-1.75,2.43v.02h2.34Z"/><path d="m273.89,393.33h-.02l-1.24.67-.19-.74,1.56-.84h.83v7.15h-.93v-6.25Z"/><path d="m282.19,395.93c0,2.43-.9,3.77-2.49,3.77-1.4,0-2.34-1.31-2.37-3.67,0-2.4,1.03-3.72,2.49-3.72s2.37,1.34,2.37,3.62Zm-3.88.11c0,1.86.57,2.92,1.45,2.92.99,0,1.46-1.16,1.46-2.98s-.45-2.92-1.45-2.92c-.85,0-1.46,1.03-1.46,2.98Z"/></g><g><g><polygon class="f" points="247.96 244.96 247.96 175.96 294.81 175.96 294.81 229.22 279.07 244.96 247.96 244.96"/><path d="m293.31,177.46v51.14l-14.86,14.86h-28.99v-66h43.85m3-3h-49.85v72h33.23l16.62-16.62v-55.38h0Z"/></g><polygon points="296.31 227.08 279.69 227.08 276.92 227.08 276.92 229.85 276.92 246.46 279.69 246.46 279.69 229.85 296.31 229.85 296.31 227.08"/></g><g><path d="m259.77,195.59c.02,1.31.86,1.85,1.83,1.85.69,0,1.11-.12,1.47-.28l.17.69c-.34.15-.92.33-1.77.33-1.64,0-2.62-1.08-2.62-2.68s.95-2.87,2.5-2.87c1.74,0,2.2,1.53,2.2,2.51,0,.2-.02.35-.03.45h-3.74Zm2.84-.69c.01-.62-.25-1.57-1.34-1.57-.98,0-1.41.9-1.49,1.57h2.83Z"/><path d="m265.12,192.75l1.05,2.99c.18.48.32.92.43,1.36h.03c.12-.44.27-.88.45-1.36l1.03-2.99h1.01l-2.09,5.33h-.92l-2.02-5.33h1.03Z"/><path d="m270.47,195.59c.02,1.31.86,1.85,1.83,1.85.69,0,1.11-.12,1.47-.28l.17.69c-.34.15-.92.33-1.77.33-1.64,0-2.62-1.08-2.62-2.68s.95-2.87,2.5-2.87c1.74,0,2.2,1.53,2.2,2.51,0,.2-.02.35-.03.45h-3.74Zm2.84-.69c.01-.62-.25-1.57-1.34-1.57-.98,0-1.41.9-1.49,1.57h2.83Z"/><path d="m275.44,194.19c0-.55-.01-1-.04-1.44h.86l.05.88h.02c.26-.51.88-1,1.76-1,.74,0,1.88.44,1.88,2.27v3.18h-.97v-3.07c0-.86-.32-1.57-1.23-1.57-.64,0-1.13.45-1.3.99-.04.12-.07.29-.07.45v3.2h-.97v-3.88Z"/><path d="m282.66,191.22v1.53h1.39v.74h-1.39v2.87c0,.66.19,1.03.73,1.03.25,0,.44-.03.56-.07l.04.73c-.19.08-.48.13-.86.13-.45,0-.81-.14-1.04-.41-.28-.29-.37-.76-.37-1.39v-2.9h-.83v-.74h.83v-1.28l.95-.25Z"/><path d="m261.21,211.27l.29-2.16h-.9v-.65h1l.21-1.59h-.95v-.65h1.04l.29-2.1h.64l-.28,2.1h1.14l.29-2.1h.65l-.27,2.1h.9v.65h-1l-.2,1.59h.95v.65h-1.04l-.29,2.16h-.66l.29-2.16h-1.14l-.29,2.16h-.66Zm2.19-2.81l.21-1.59h-1.14l-.21,1.59h1.14Z"/><path d="m269.14,211.27v-1.95h-3.32v-.64l3.19-4.57h1.04v4.45h1v.76h-1v1.95h-.91Zm0-2.71v-2.39c0-.37.01-.75.03-1.12h-.03c-.22.42-.4.73-.59,1.06l-1.75,2.43v.02h2.34Z"/><path d="m273.89,205.03h-.02l-1.24.67-.19-.74,1.56-.84h.83v7.15h-.93v-6.25Z"/><path d="m282.19,207.62c0,2.43-.9,3.77-2.49,3.77-1.4,0-2.34-1.31-2.37-3.67,0-2.4,1.03-3.72,2.49-3.72s2.37,1.34,2.37,3.62Zm-3.88.11c0,1.86.57,2.92,1.45,2.92.99,0,1.46-1.16,1.46-2.98s-.45-2.92-1.45-2.92c-.85,0-1.46,1.03-1.46,2.98Z"/></g><g><polyline class="g" points="271.38 315.69 271.38 326.77 301.85 326.77 301.85 296.31 312.77 296.31"/><polygon points="309.64 300.9 326.77 296.31 309.64 291.72 309.64 300.9"/></g><g><line class="g" x1="271.38" y1="315.69" x2="271.38" y2="348.77"/><polygon points="266.79 345.64 271.38 362.77 275.98 345.64 266.79 345.64"/></g><g><line class="g" x1="271.38" y1="246.46" x2="271.38" y2="265.69"/><polygon points="266.79 262.56 271.38 279.69 275.98 262.56 266.79 262.56"/></g><g><g><polygon class="f" points="319.96 433.27 319.96 364.27 366.81 364.27 366.81 417.53 351.07 433.27 319.96 433.27"/><path d="m365.31,365.77v51.14l-14.86,14.86h-28.99v-66h43.85m3-3h-49.85v72h33.23l16.62-16.62v-55.38h0Z"/></g><polygon points="368.31 415.38 351.69 415.38 348.92 415.38 348.92 418.15 348.92 434.77 351.69 434.77 351.69 418.15 368.31 418.15 368.31 415.38"/></g><g><g><rect class="f" x="327.55" y="280.48" width="31.67" height="34.43"/><path d="m358.43,281.26v32.87h-30.1v-32.87h30.1m1.57-1.57h-33.23v36h33.23v-36h0Z"/></g><g><path d="m336.77,304.44v-7.92h-1.29v-1.27h1.29v-.44c0-1.29.29-2.47,1.06-3.21.63-.61,1.46-.86,2.24-.86.59,0,1.1.13,1.42.27l-.23,1.29c-.25-.11-.59-.21-1.06-.21-1.42,0-1.79,1.25-1.79,2.66v.49h2.22v1.27h-2.22v7.92h-1.65Z"/><path d="m345.78,291.25c-1.39,1.86-2.39,4.33-2.39,7.77s1.04,5.81,2.39,7.71h-1.31c-1.2-1.58-2.49-4.01-2.49-7.71.02-3.74,1.29-6.17,2.49-7.77h1.31Z"/><path d="m346.54,306.74c1.35-1.88,2.39-4.35,2.39-7.77s-1.03-5.83-2.39-7.71h1.29c1.22,1.56,2.49,3.99,2.49,7.73s-1.27,6.14-2.49,7.75h-1.29Z"/></g></g><g><path d="m332.89,385.39c.29.19.79.38,1.28.38.7,0,1.03-.35,1.03-.79s-.28-.71-.99-.98c-.96-.34-1.41-.87-1.41-1.51,0-.86.69-1.56,1.84-1.56.54,0,1.01.15,1.31.33l-.24.7c-.21-.13-.59-.31-1.09-.31-.57,0-.89.33-.89.73,0,.44.32.64,1.01.9.92.35,1.4.81,1.4,1.61,0,.94-.73,1.6-1.99,1.6-.58,0-1.12-.14-1.5-.36l.24-.74Z"/><path d="m338.54,379.53v1.53h1.39v.74h-1.39v2.87c0,.66.19,1.03.73,1.03.25,0,.44-.03.56-.07l.04.73c-.19.08-.48.13-.86.13-.45,0-.81-.14-1.04-.41-.28-.29-.37-.76-.37-1.39v-2.9h-.83v-.74h.83v-1.28l.95-.25Z"/><path d="m343.96,386.38l-.08-.67h-.03c-.3.42-.87.79-1.63.79-1.08,0-1.63-.76-1.63-1.53,0-1.29,1.14-1.99,3.2-1.98v-.11c0-.44-.12-1.23-1.21-1.23-.5,0-1.01.15-1.39.4l-.22-.64c.44-.29,1.08-.47,1.75-.47,1.63,0,2.02,1.11,2.02,2.18v1.99c0,.46.02.91.09,1.28h-.88Zm-.14-2.72c-1.06-.02-2.25.17-2.25,1.2,0,.63.42.92.91.92.69,0,1.13-.44,1.29-.89.03-.1.05-.21.05-.31v-.92Z"/><path d="m347.44,379.53v1.53h1.39v.74h-1.39v2.87c0,.66.19,1.03.73,1.03.25,0,.44-.03.56-.07l.04.73c-.19.08-.48.13-.86.13-.45,0-.81-.14-1.04-.41-.28-.29-.37-.76-.37-1.39v-2.9h-.83v-.74h.83v-1.28l.95-.25Z"/><path d="m350.38,383.9c.02,1.31.86,1.85,1.83,1.85.69,0,1.11-.12,1.47-.28l.17.69c-.34.15-.92.33-1.77.33-1.64,0-2.62-1.08-2.62-2.68s.95-2.87,2.5-2.87c1.74,0,2.2,1.53,2.2,2.51,0,.2-.02.35-.03.45h-3.74Zm2.84-.69c.01-.62-.25-1.57-1.34-1.57-.98,0-1.41.9-1.49,1.57h2.83Z"/><path d="m333.21,399.58l.29-2.16h-.9v-.65h1l.21-1.59h-.95v-.65h1.04l.29-2.1h.64l-.28,2.1h1.14l.29-2.1h.65l-.27,2.1h.9v.65h-1l-.2,1.59h.95v.65h-1.04l-.29,2.16h-.66l.29-2.16h-1.14l-.29,2.16h-.66Zm2.19-2.81l.21-1.59h-1.14l-.21,1.59h1.14Z"/><path d="m341.14,399.58v-1.95h-3.32v-.64l3.19-4.57h1.04v4.45h1v.76h-1v1.95h-.91Zm0-2.71v-2.39c0-.37.01-.75.03-1.12h-.03c-.22.42-.4.73-.59,1.06l-1.75,2.43v.02h2.34Z"/><path d="m345.89,393.33h-.02l-1.24.67-.19-.74,1.56-.84h.83v7.15h-.93v-6.25Z"/><path d="m351.54,393.33h-.02l-1.24.67-.19-.74,1.56-.84h.83v7.15h-.93v-6.25Z"/></g><g><g><polygon class="f" points="319.96 244.96 319.96 175.96 366.81 175.96 366.81 229.22 351.07 244.96 319.96 244.96"/><path d="m365.31,177.46v51.14l-14.86,14.86h-28.99v-66h43.85m3-3h-49.85v72h33.23l16.62-16.62v-55.38h0Z"/></g><polygon points="368.31 227.08 351.69 227.08 348.92 227.08 348.92 229.85 348.92 246.46 351.69 246.46 351.69 229.85 368.31 229.85 368.31 227.08"/></g><g><path d="m331.78,195.59c.02,1.31.86,1.85,1.83,1.85.69,0,1.11-.12,1.47-.28l.17.69c-.34.15-.92.33-1.77.33-1.64,0-2.62-1.08-2.62-2.68s.95-2.87,2.5-2.87c1.74,0,2.2,1.53,2.2,2.51,0,.2-.02.35-.03.45h-3.74Zm2.84-.69c.01-.62-.25-1.57-1.34-1.57-.98,0-1.41.9-1.49,1.57h2.83Z"/><path d="m337.12,192.75l1.05,2.99c.18.48.32.92.43,1.36h.03c.12-.44.27-.88.45-1.36l1.03-2.99h1.01l-2.09,5.33h-.92l-2.02-5.33h1.03Z"/><path d="m342.47,195.59c.02,1.31.86,1.85,1.83,1.85.69,0,1.11-.12,1.47-.28l.17.69c-.34.15-.92.33-1.77.33-1.64,0-2.62-1.08-2.62-2.68s.95-2.87,2.5-2.87c1.74,0,2.2,1.53,2.2,2.51,0,.2-.02.35-.03.45h-3.74Zm2.84-.69c.01-.62-.25-1.57-1.34-1.57-.98,0-1.41.9-1.49,1.57h2.83Z"/><path d="m347.44,194.19c0-.55-.01-1-.04-1.44h.86l.05.88h.02c.26-.51.88-1,1.76-1,.74,0,1.88.44,1.88,2.27v3.18h-.97v-3.07c0-.86-.32-1.57-1.23-1.57-.64,0-1.13.45-1.3.99-.04.12-.07.29-.07.45v3.2h-.97v-3.88Z"/><path d="m354.67,191.22v1.53h1.39v.74h-1.39v2.87c0,.66.19,1.03.73,1.03.25,0,.44-.03.56-.07l.04.73c-.19.08-.48.13-.86.13-.45,0-.81-.14-1.04-.41-.28-.29-.37-.76-.37-1.39v-2.9h-.83v-.74h.83v-1.28l.95-.25Z"/><path d="m333.21,211.27l.29-2.16h-.9v-.65h1l.21-1.59h-.95v-.65h1.04l.29-2.1h.64l-.28,2.1h1.14l.29-2.1h.65l-.27,2.1h.9v.65h-1l-.2,1.59h.95v.65h-1.04l-.29,2.16h-.66l.29-2.16h-1.14l-.29,2.16h-.66Zm2.19-2.81l.21-1.59h-1.14l-.21,1.59h1.14Z"/><path d="m341.14,211.27v-1.95h-3.32v-.64l3.19-4.57h1.04v4.45h1v.76h-1v1.95h-.91Zm0-2.71v-2.39c0-.37.01-.75.03-1.12h-.03c-.22.42-.4.73-.59,1.06l-1.75,2.43v.02h2.34Z"/><path d="m345.89,205.03h-.02l-1.24.67-.19-.74,1.56-.84h.83v7.15h-.93v-6.25Z"/><path d="m351.54,205.03h-.02l-1.24.67-.19-.74,1.56-.84h.83v7.15h-.93v-6.25Z"/></g><g><polyline class="g" points="343.38 315.69 343.38 326.77 373.85 326.77 373.85 296.31 384.77 296.31"/><polygon points="381.64 300.9 398.77 296.31 381.64 291.72 381.64 300.9"/></g><g><line class="g" x1="343.38" y1="315.69" x2="343.38" y2="348.77"/><polygon points="338.79 345.64 343.38 362.77 347.98 345.64 338.79 345.64"/></g><g><line class="g" x1="343.38" y1="246.46" x2="343.38" y2="265.69"/><polygon points="338.79 262.56 343.38 279.69 347.98 262.56 338.79 262.56"/></g><g><g><polygon class="f" points="391.96 433.27 391.96 364.27 438.81 364.27 438.81 417.53 423.07 433.27 391.96 433.27"/><path d="m437.31,365.77v51.14l-14.86,14.86h-28.99v-66h43.85m3-3h-49.85v72h33.23l16.62-16.62v-55.38h0Z"/></g><polygon points="440.31 415.38 423.69 415.38 420.92 415.38 420.92 418.15 420.92 434.77 423.69 434.77 423.69 418.15 440.31 418.15 440.31 415.38"/></g><g><g><rect class="f" x="399.55" y="280.48" width="31.67" height="34.43"/><path d="m430.43,281.26v32.87h-30.1v-32.87h30.1m1.57-1.57h-33.23v36h33.23v-36h0Z"/></g><g><path d="m408.77,304.44v-7.92h-1.29v-1.27h1.29v-.44c0-1.29.29-2.47,1.06-3.21.63-.61,1.46-.86,2.24-.86.59,0,1.1.13,1.42.27l-.23,1.29c-.25-.11-.59-.21-1.06-.21-1.42,0-1.79,1.25-1.79,2.66v.49h2.22v1.27h-2.22v7.92h-1.65Z"/><path d="m417.78,291.25c-1.39,1.86-2.39,4.33-2.39,7.77s1.04,5.81,2.39,7.71h-1.31c-1.2-1.58-2.49-4.01-2.49-7.71.02-3.74,1.29-6.17,2.49-7.77h1.31Z"/><path d="m418.54,306.74c1.35-1.88,2.39-4.35,2.39-7.77s-1.03-5.83-2.39-7.71h1.29c1.22,1.56,2.49,3.99,2.49,7.73s-1.27,6.14-2.49,7.75h-1.29Z"/></g></g><g><path d="m404.89,385.39c.29.19.79.38,1.28.38.7,0,1.03-.35,1.03-.79s-.28-.71-.99-.98c-.96-.34-1.41-.87-1.41-1.51,0-.86.69-1.56,1.84-1.56.54,0,1.01.15,1.31.33l-.24.7c-.21-.13-.59-.31-1.09-.31-.57,0-.89.33-.89.73,0,.44.32.64,1.01.9.92.35,1.4.81,1.4,1.61,0,.94-.73,1.6-1.99,1.6-.58,0-1.12-.14-1.5-.36l.24-.74Z"/><path d="m410.54,379.53v1.53h1.39v.74h-1.39v2.87c0,.66.19,1.03.73,1.03.25,0,.44-.03.56-.07l.04.73c-.19.08-.48.13-.86.13-.45,0-.81-.14-1.04-.41-.28-.29-.37-.76-.37-1.39v-2.9h-.83v-.74h.83v-1.28l.95-.25Z"/><path d="m415.96,386.38l-.08-.67h-.03c-.3.42-.87.79-1.63.79-1.08,0-1.63-.76-1.63-1.53,0-1.29,1.14-1.99,3.2-1.98v-.11c0-.44-.12-1.23-1.21-1.23-.5,0-1.01.15-1.39.4l-.22-.64c.44-.29,1.08-.47,1.75-.47,1.63,0,2.02,1.11,2.02,2.18v1.99c0,.46.02.91.09,1.28h-.88Zm-.14-2.72c-1.06-.02-2.25.17-2.25,1.2,0,.63.42.92.91.92.69,0,1.13-.44,1.29-.89.03-.1.05-.21.05-.31v-.92Z"/><path d="m419.44,379.53v1.53h1.39v.74h-1.39v2.87c0,.66.19,1.03.73,1.03.25,0,.44-.03.56-.07l.04.73c-.19.08-.48.13-.86.13-.45,0-.81-.14-1.04-.41-.28-.29-.37-.76-.37-1.39v-2.9h-.83v-.74h.83v-1.28l.95-.25Z"/><path d="m422.38,383.9c.02,1.31.86,1.85,1.83,1.85.69,0,1.11-.12,1.47-.28l.17.69c-.34.15-.92.33-1.77.33-1.64,0-2.62-1.08-2.62-2.68s.95-2.87,2.5-2.87c1.74,0,2.2,1.53,2.2,2.51,0,.2-.02.35-.03.45h-3.74Zm2.84-.69c.01-.62-.25-1.57-1.34-1.57-.98,0-1.41.9-1.49,1.57h2.83Z"/><path d="m405.21,399.58l.29-2.16h-.9v-.65h1l.21-1.59h-.95v-.65h1.04l.29-2.1h.64l-.28,2.1h1.14l.29-2.1h.65l-.27,2.1h.9v.65h-1l-.2,1.59h.95v.65h-1.04l-.29,2.16h-.66l.29-2.16h-1.14l-.29,2.16h-.66Zm2.19-2.81l.21-1.59h-1.14l-.21,1.59h1.14Z"/><path d="m413.14,399.58v-1.95h-3.32v-.64l3.19-4.57h1.04v4.45h1v.76h-1v1.95h-.91Zm0-2.71v-2.39c0-.37.01-.75.03-1.12h-.03c-.22.42-.4.73-.59,1.06l-1.75,2.43v.02h2.34Z"/><path d="m417.89,393.33h-.02l-1.24.67-.19-.74,1.56-.84h.83v7.15h-.93v-6.25Z"/><path d="m421.43,399.58v-.59l.76-.74c1.83-1.74,2.65-2.66,2.66-3.74,0-.73-.35-1.4-1.42-1.4-.65,0-1.19.33-1.52.6l-.31-.68c.5-.42,1.2-.73,2.02-.73,1.54,0,2.19,1.06,2.19,2.08,0,1.32-.96,2.39-2.46,3.84l-.57.53v.02h3.21v.8h-4.57Z"/></g><g><g><polygon class="f" points="391.96 244.96 391.96 175.96 438.81 175.96 438.81 229.22 423.07 244.96 391.96 244.96"/><path d="m437.31,177.46v51.14l-14.86,14.86h-28.99v-66h43.85m3-3h-49.85v72h33.23l16.62-16.62v-55.38h0Z"/></g><polygon points="440.31 227.08 423.69 227.08 420.92 227.08 420.92 229.85 420.92 246.46 423.69 246.46 423.69 229.85 440.31 229.85 440.31 227.08"/></g><g><path d="m403.77,195.59c.02,1.31.86,1.85,1.83,1.85.69,0,1.11-.12,1.47-.28l.17.69c-.34.15-.92.33-1.77.33-1.64,0-2.62-1.08-2.62-2.68s.95-2.87,2.5-2.87c1.74,0,2.2,1.53,2.2,2.51,0,.2-.02.35-.03.45h-3.74Zm2.84-.69c.01-.62-.25-1.57-1.34-1.57-.98,0-1.41.9-1.49,1.57h2.83Z"/><path d="m409.12,192.75l1.05,2.99c.18.48.32.92.43,1.36h.03c.12-.44.27-.88.45-1.36l1.03-2.99h1.01l-2.09,5.33h-.92l-2.02-5.33h1.03Z"/><path d="m414.47,195.59c.02,1.31.86,1.85,1.83,1.85.69,0,1.11-.12,1.47-.28l.17.69c-.34.15-.92.33-1.77.33-1.64,0-2.62-1.08-2.62-2.68s.95-2.87,2.5-2.87c1.74,0,2.2,1.53,2.2,2.51,0,.2-.02.35-.03.45h-3.74Zm2.84-.69c.01-.62-.25-1.57-1.34-1.57-.98,0-1.41.9-1.49,1.57h2.83Z"/><path d="m419.44,194.19c0-.55-.01-1-.04-1.44h.86l.05.88h.02c.26-.51.88-1,1.76-1,.74,0,1.88.44,1.88,2.27v3.18h-.97v-3.07c0-.86-.32-1.57-1.23-1.57-.64,0-1.13.45-1.3.99-.04.12-.07.29-.07.45v3.2h-.97v-3.88Z"/><path d="m426.66,191.22v1.53h1.39v.74h-1.39v2.87c0,.66.19,1.03.73,1.03.25,0,.44-.03.56-.07l.04.73c-.19.08-.48.13-.86.13-.45,0-.81-.14-1.04-.41-.28-.29-.37-.76-.37-1.39v-2.9h-.83v-.74h.83v-1.28l.95-.25Z"/><path d="m405.21,211.27l.29-2.16h-.9v-.65h1l.21-1.59h-.95v-.65h1.04l.29-2.1h.64l-.28,2.1h1.14l.29-2.1h.65l-.27,2.1h.9v.65h-1l-.2,1.59h.95v.65h-1.04l-.29,2.16h-.66l.29-2.16h-1.14l-.29,2.16h-.66Zm2.19-2.81l.21-1.59h-1.14l-.21,1.59h1.14Z"/><path d="m413.14,211.27v-1.95h-3.32v-.64l3.19-4.57h1.04v4.45h1v.76h-1v1.95h-.91Zm0-2.71v-2.39c0-.37.01-.75.03-1.12h-.03c-.22.42-.4.73-.59,1.06l-1.75,2.43v.02h2.34Z"/><path d="m417.89,205.03h-.02l-1.24.67-.19-.74,1.56-.84h.83v7.15h-.93v-6.25Z"/><path d="m421.43,211.27v-.59l.76-.74c1.83-1.74,2.65-2.66,2.66-3.74,0-.73-.35-1.4-1.42-1.4-.65,0-1.19.33-1.52.6l-.31-.68c.5-.42,1.2-.73,2.02-.73,1.54,0,2.19,1.06,2.19,2.08,0,1.32-.96,2.39-2.46,3.84l-.57.53v.02h3.21v.8h-4.57Z"/></g><g><polyline class="g" points="415.38 315.69 415.38 326.77 445.85 326.77 445.85 296.31 456.77 296.31"/><polygon points="453.64 300.9 470.77 296.31 453.64 291.72 453.64 300.9"/></g><g><line class="g" x1="415.38" y1="315.69" x2="415.38" y2="348.77"/><polygon points="410.79 345.64 415.38 362.77 419.98 345.64 410.79 345.64"/></g><g><line class="g" x1="415.38" y1="246.46" x2="415.38" y2="265.69"/><polygon points="410.79 262.56 415.38 279.69 419.98 262.56 410.79 262.56"/></g><g><path d="m444.3,280.57c.49.32,1.37.67,2.2.67,1.21,0,1.79-.61,1.79-1.37s-.47-1.23-1.71-1.69c-1.65-.59-2.43-1.5-2.43-2.6,0-1.48,1.2-2.7,3.17-2.7.93,0,1.75.27,2.26.57l-.42,1.22c-.36-.23-1.03-.53-1.88-.53-.99,0-1.54.57-1.54,1.25,0,.76.55,1.1,1.75,1.56,1.6.61,2.41,1.41,2.41,2.77,0,1.61-1.25,2.75-3.44,2.75-1.01,0-1.94-.25-2.58-.63l.42-1.27Z"/><path d="m453.84,269.27c-.44,1.6-1.25,3.63-1.79,4.5l-1.06.13c.42-1.12.91-3.1,1.12-4.46l1.73-.17Z"/><path d="m457.66,274.61c0-.7.47-1.2,1.14-1.2s1.1.49,1.12,1.2c0,.67-.44,1.18-1.14,1.18-.67,0-1.12-.51-1.12-1.18Zm0,6.71c0-.7.47-1.2,1.14-1.2s1.1.49,1.12,1.2c0,.67-.44,1.18-1.14,1.18-.67,0-1.12-.51-1.12-1.18Z"/><path d="m461.36,275.88v-1.14h9.8v1.14h-9.8Zm0,3.72v-1.14h9.8v1.14h-9.8Z"/><path d="m477.51,282.28v-7.92h-1.29v-1.27h1.29v-.44c0-1.29.29-2.47,1.06-3.21.63-.61,1.46-.86,2.24-.86.59,0,1.1.13,1.42.27l-.23,1.29c-.25-.11-.59-.21-1.06-.21-1.43,0-1.79,1.25-1.79,2.66v.49h2.22v1.27h-2.22v7.92h-1.65Z"/><path d="m486.52,269.1c-1.39,1.86-2.39,4.33-2.39,7.77s1.04,5.81,2.39,7.71h-1.31c-1.2-1.58-2.49-4.01-2.49-7.71.02-3.74,1.29-6.17,2.49-7.77h1.31Z"/><path d="m488.06,280.57c.49.32,1.37.67,2.2.67,1.22,0,1.79-.61,1.79-1.37s-.48-1.23-1.71-1.69c-1.65-.59-2.43-1.5-2.43-2.6,0-1.48,1.2-2.7,3.17-2.7.93,0,1.75.27,2.26.57l-.42,1.22c-.36-.23-1.03-.53-1.88-.53-.99,0-1.54.57-1.54,1.25,0,.76.55,1.1,1.75,1.56,1.6.61,2.41,1.41,2.41,2.77,0,1.61-1.25,2.75-3.44,2.75-1.01,0-1.94-.25-2.58-.63l.42-1.27Z"/><path d="m494.52,284.62c.42-1.12.93-3.15,1.14-4.54l1.86-.19c-.44,1.61-1.27,3.72-1.8,4.62l-1.2.11Z"/><path d="m504.49,277.99c.04,2.26,1.48,3.19,3.15,3.19,1.2,0,1.92-.21,2.54-.48l.29,1.2c-.59.27-1.6.57-3.06.57-2.83,0-4.52-1.86-4.52-4.64s1.63-4.96,4.31-4.96c3,0,3.8,2.64,3.8,4.33,0,.34-.04.61-.06.78h-6.46Zm4.9-1.2c.02-1.06-.44-2.72-2.32-2.72-1.69,0-2.43,1.56-2.56,2.72h4.88Z"/><path d="m514.71,269.27c-.44,1.6-1.25,3.63-1.79,4.5l-1.06.13c.42-1.12.91-3.1,1.12-4.46l1.73-.17Z"/><path d="m515.53,284.58c1.35-1.88,2.39-4.35,2.39-7.77s-1.03-5.83-2.39-7.71h1.29c1.22,1.56,2.49,3.99,2.49,7.73s-1.27,6.14-2.49,7.75h-1.29Z"/></g><g><path d="m478.32,303.45c0-.7.47-1.2,1.14-1.2s1.12.49,1.12,1.2-.44,1.2-1.14,1.2c-.67,0-1.12-.51-1.12-1.2Z"/><path d="m482.25,303.45c0-.7.47-1.2,1.14-1.2s1.12.49,1.12,1.2-.44,1.2-1.14,1.2c-.67,0-1.12-.51-1.12-1.2Z"/><path d="m486.19,303.45c0-.7.47-1.2,1.14-1.2s1.12.49,1.12,1.2-.44,1.2-1.14,1.2c-.67,0-1.12-.51-1.12-1.2Z"/></g><g><line class="g" x1="498.46" y1="296.31" x2="514.93" y2="296.31"/><polygon points="511.79 300.9 528.92 296.31 511.79 291.72 511.79 300.9"/></g><g><g><polygon class="f" points="522.12 433.27 522.12 364.27 568.96 364.27 568.96 417.53 553.23 433.27 522.12 433.27"/><path d="m567.46,365.77v51.14l-14.86,14.86h-28.99v-66h43.85m3-3h-49.85v72h33.23l16.62-16.62v-55.38h0Z"/></g><polygon points="570.46 415.38 553.85 415.38 551.08 415.38 551.08 418.15 551.08 434.77 553.85 434.77 553.85 418.15 570.46 418.15 570.46 415.38"/></g><g><g><rect class="f" x="529.71" y="280.48" width="31.66" height="34.43"/><path d="m560.59,281.26v32.87h-30.1v-32.87h30.1m1.57-1.57h-33.23v36h33.23v-36h0Z"/></g><g><path d="m538.93,304.44v-7.92h-1.29v-1.27h1.29v-.44c0-1.29.29-2.47,1.06-3.21.62-.61,1.46-.86,2.24-.86.59,0,1.1.13,1.43.27l-.23,1.29c-.25-.11-.59-.21-1.06-.21-1.42,0-1.79,1.25-1.79,2.66v.49h2.22v1.27h-2.22v7.92h-1.65Z"/><path d="m547.93,291.25c-1.39,1.86-2.39,4.33-2.39,7.77s1.04,5.81,2.39,7.71h-1.31c-1.2-1.58-2.49-4.01-2.49-7.71.02-3.74,1.29-6.17,2.49-7.77h1.31Z"/><path d="m548.69,306.74c1.35-1.88,2.39-4.35,2.39-7.77s-1.03-5.83-2.39-7.71h1.29c1.22,1.56,2.49,3.99,2.49,7.73s-1.27,6.14-2.49,7.75h-1.29Z"/></g></g><g><path d="m535.04,385.39c.29.19.79.38,1.28.38.7,0,1.03-.35,1.03-.79s-.28-.71-.99-.98c-.96-.34-1.41-.87-1.41-1.51,0-.86.69-1.56,1.84-1.56.54,0,1.01.15,1.31.33l-.24.7c-.21-.13-.59-.31-1.09-.31-.57,0-.89.33-.89.73,0,.44.32.64,1.01.9.92.35,1.4.81,1.4,1.61,0,.94-.73,1.6-1.99,1.6-.58,0-1.12-.14-1.5-.36l.24-.74Z"/><path d="m540.69,379.53v1.53h1.39v.74h-1.39v2.87c0,.66.19,1.03.73,1.03.25,0,.44-.03.56-.07l.04.73c-.19.08-.48.13-.86.13-.45,0-.81-.14-1.04-.41-.28-.29-.37-.76-.37-1.39v-2.9h-.83v-.74h.83v-1.28l.95-.25Z"/><path d="m546.12,386.38l-.08-.67h-.03c-.3.42-.87.79-1.63.79-1.08,0-1.63-.76-1.63-1.53,0-1.29,1.14-1.99,3.2-1.98v-.11c0-.44-.12-1.23-1.21-1.23-.5,0-1.01.15-1.39.4l-.22-.64c.44-.29,1.08-.47,1.75-.47,1.63,0,2.02,1.11,2.02,2.18v1.99c0,.46.02.91.09,1.28h-.88Zm-.14-2.72c-1.06-.02-2.25.17-2.25,1.2,0,.63.42.92.91.92.69,0,1.13-.44,1.29-.89.03-.1.05-.21.05-.31v-.92Z"/><path d="m549.59,379.53v1.53h1.39v.74h-1.39v2.87c0,.66.19,1.03.73,1.03.25,0,.44-.03.56-.07l.04.73c-.19.08-.48.13-.86.13-.45,0-.81-.14-1.04-.41-.28-.29-.37-.76-.37-1.39v-2.9h-.83v-.74h.83v-1.28l.95-.25Z"/><path d="m552.54,383.9c.02,1.31.86,1.85,1.83,1.85.69,0,1.11-.12,1.47-.28l.17.69c-.34.15-.92.33-1.77.33-1.64,0-2.62-1.08-2.62-2.68s.95-2.87,2.5-2.87c1.74,0,2.2,1.53,2.2,2.51,0,.2-.02.35-.03.45h-3.74Zm2.84-.69c.01-.62-.25-1.57-1.34-1.57-.98,0-1.41.9-1.49,1.57h2.83Z"/><path d="m540.78,399.58l.29-2.16h-.9v-.65h1l.21-1.59h-.95v-.65h1.04l.29-2.1h.64l-.28,2.1h1.14l.29-2.1h.65l-.27,2.1h.9v.65h-1l-.2,1.59h.95v.65h-1.04l-.29,2.16h-.66l.29-2.16h-1.14l-.29,2.16h-.66Zm2.19-2.81l.21-1.59h-1.14l-.21,1.59h1.14Z"/><path d="m546.02,395.7c0-.55-.01-1-.04-1.44h.86l.05.88h.02c.26-.51.88-1,1.76-1,.74,0,1.88.44,1.88,2.27v3.18h-.97v-3.07c0-.86-.32-1.57-1.23-1.57-.64,0-1.13.45-1.3.99-.04.12-.07.29-.07.45v3.2h-.97v-3.88Z"/></g><g><g><polygon class="f" points="522.12 244.96 522.12 175.96 568.96 175.96 568.96 229.22 553.23 244.96 522.12 244.96"/><path d="m567.46,177.46v51.14l-14.86,14.86h-28.99v-66h43.85m3-3h-49.85v72h33.23l16.62-16.62v-55.38h0Z"/></g><polygon points="570.46 227.08 553.85 227.08 551.08 227.08 551.08 229.85 551.08 246.46 553.85 246.46 553.85 229.85 570.46 229.85 570.46 227.08"/></g><g><path d="m533.93,195.59c.02,1.31.86,1.85,1.83,1.85.69,0,1.11-.12,1.47-.28l.17.69c-.34.15-.92.33-1.77.33-1.64,0-2.62-1.08-2.62-2.68s.95-2.87,2.5-2.87c1.74,0,2.2,1.53,2.2,2.51,0,.2-.02.35-.03.45h-3.74Zm2.84-.69c.01-.62-.25-1.57-1.34-1.57-.98,0-1.41.9-1.49,1.57h2.83Z"/><path d="m539.27,192.75l1.05,2.99c.18.48.32.92.43,1.36h.03c.12-.44.27-.88.45-1.36l1.03-2.99h1.01l-2.09,5.33h-.92l-2.02-5.33h1.03Z"/><path d="m544.62,195.59c.02,1.31.86,1.85,1.83,1.85.69,0,1.11-.12,1.47-.28l.17.69c-.34.15-.92.33-1.77.33-1.64,0-2.62-1.08-2.62-2.68s.95-2.87,2.5-2.87c1.74,0,2.2,1.53,2.2,2.51,0,.2-.02.35-.03.45h-3.74Zm2.84-.69c.01-.62-.25-1.57-1.34-1.57-.98,0-1.41.9-1.49,1.57h2.83Z"/><path d="m549.59,194.19c0-.55-.01-1-.04-1.44h.86l.05.88h.02c.26-.51.88-1,1.76-1,.74,0,1.88.44,1.88,2.27v3.18h-.97v-3.07c0-.86-.32-1.57-1.23-1.57-.64,0-1.13.45-1.3.99-.04.12-.07.29-.07.45v3.2h-.97v-3.88Z"/><path d="m556.82,191.22v1.53h1.39v.74h-1.39v2.87c0,.66.19,1.03.73,1.03.25,0,.44-.03.56-.07l.04.73c-.19.08-.48.13-.86.13-.45,0-.81-.14-1.04-.41-.28-.29-.37-.76-.37-1.39v-2.9h-.83v-.74h.83v-1.28l.95-.25Z"/><path d="m540.78,211.27l.29-2.16h-.9v-.65h1l.21-1.59h-.95v-.65h1.04l.29-2.1h.64l-.28,2.1h1.14l.29-2.1h.65l-.27,2.1h.9v.65h-1l-.2,1.59h.95v.65h-1.04l-.29,2.16h-.66l.29-2.16h-1.14l-.29,2.16h-.66Zm2.19-2.81l.21-1.59h-1.14l-.21,1.59h1.14Z"/><path d="m546.02,207.39c0-.55-.01-1-.04-1.44h.86l.05.88h.02c.26-.51.88-1,1.76-1,.74,0,1.88.44,1.88,2.27v3.18h-.97v-3.07c0-.86-.32-1.57-1.23-1.57-.64,0-1.13.45-1.3.99-.04.12-.07.29-.07.45v3.2h-.97v-3.88Z"/></g><g><line class="g" x1="545.54" y1="315.69" x2="545.54" y2="348.77"/><polygon points="540.95 345.64 545.54 362.77 550.13 345.64 540.95 345.64"/></g><g><line class="g" x1="545.54" y1="246.46" x2="545.54" y2="265.69"/><polygon points="540.95 262.56 545.54 279.69 550.13 262.56 540.95 262.56"/></g><path class="i" d="m279.69,108c6.12,0,11.08-13.02,11.08-29.08s-4.96-29.08-11.08-29.08h-24.92c6.12,0,11.08,13.02,11.08,29.08s-4.96,29.08-11.08,29.08h24.92Z"/><g><path d="m269.98,82.12l.23-1.76h-.74v-.53h.82l.17-1.3h-.77v-.53h.86l.23-1.72h.52l-.22,1.72h.94l.23-1.72h.53l-.22,1.72h.74v.53h-.82l-.16,1.3h.77v.53h-.86l-.23,1.76h-.54l.23-1.76h-.94l-.23,1.76h-.54Zm1.79-2.3l.17-1.3h-.94l-.17,1.3h.94Z"/><path d="m276.47,82.12v-1.59h-2.72v-.52l2.61-3.74h.86v3.64h.82v.62h-.82v1.59h-.75Zm0-2.21v-1.95c0-.31,0-.61.03-.92h-.03c-.18.34-.32.59-.49.86l-1.43,1.99v.02h1.92Z"/><path d="m280.36,77.01h-.02l-1.02.55-.15-.6,1.28-.68h.67v5.85h-.76v-5.11Z"/><path d="m283.26,82.12v-.49l.62-.6c1.49-1.42,2.17-2.18,2.18-3.06,0-.59-.29-1.14-1.16-1.14-.53,0-.97.27-1.24.5l-.25-.56c.41-.34.98-.59,1.66-.59,1.26,0,1.79.86,1.79,1.7,0,1.08-.78,1.95-2.02,3.14l-.47.43v.02h2.63v.66h-3.74Z"/></g><path class="i" d="m304.62,108c6.12,0,11.08-13.02,11.08-29.08s-4.96-29.08-11.08-29.08h-24.92c6.12,0,11.08,13.02,11.08,29.08s-4.96,29.08-11.08,29.08h24.92Z"/><g><path d="m300.9,81.65c0-.33.23-.57.54-.57s.53.23.53.57-.21.57-.54.57c-.31,0-.53-.24-.53-.57Z"/><path d="m302.77,81.65c0-.33.23-.57.54-.57s.53.23.53.57-.21.57-.54.57c-.31,0-.53-.24-.53-.57Z"/><path d="m304.63,81.65c0-.33.23-.57.54-.57s.53.23.53.57-.21.57-.54.57c-.31,0-.53-.24-.53-.57Z"/></g><path class="i" d="m329.54,108c6.12,0,11.08-13.02,11.08-29.08s-4.96-29.08-11.08-29.08h-24.92c6.12,0,11.08,13.02,11.08,29.08s-4.96,29.08-11.08,29.08h24.92Z"/><g><path d="m324.26,82.12l.23-1.76h-.74v-.53h.82l.17-1.3h-.77v-.53h.86l.23-1.72h.52l-.22,1.72h.94l.23-1.72h.53l-.22,1.72h.74v.53h-.82l-.16,1.3h.77v.53h-.86l-.23,1.76h-.54l.23-1.76h-.94l-.23,1.76h-.54Zm1.79-2.3l.17-1.3h-.94l-.17,1.3h.94Z"/><path d="m328.55,78.94c0-.45,0-.82-.04-1.18h.7l.04.72h.02c.22-.41.72-.82,1.44-.82.6,0,1.54.36,1.54,1.85v2.6h-.79v-2.51c0-.7-.26-1.29-1.01-1.29-.52,0-.93.37-1.06.81-.04.1-.05.23-.05.37v2.62h-.79v-3.18Z"/></g><path class="e" d="m354.46,108c6.12,0,11.08-13.02,11.08-29.08s-4.96-29.08-11.08-29.08h-24.92c6.12,0,11.08,13.02,11.08,29.08s-4.96,29.08-11.08,29.08h24.92Z"/><ellipse class="i" cx="254.77" cy="78.92" rx="11.08" ry="29.08"/><g><polyline class="g" points="321.23 108 321.23 116.31 545.54 116.31 545.54 160.46"/><polygon points="540.95 157.33 545.54 174.46 550.13 157.33 540.95 157.33"/></g><ellipse class="i" cx="119.08" cy="249.23" rx="38.77" ry="13.85"/><path class="i" d="m157.85,249.23c0,7.65-17.36,13.85-38.77,13.85s-38.77-6.2-38.77-13.85v94.15c0,7.65,17.36,13.85,38.77,13.85s38.77-6.2,38.77-13.85v-94.15Z"/><g><g><g><polygon class="f" points="95.65 341.88 95.65 272.88 142.5 272.88 142.5 326.15 126.76 341.88 95.65 341.88"/><path d="m141,274.38v51.14l-14.86,14.86h-28.99v-66h43.85m3-3h-49.85v72h33.23l16.62-16.62v-55.38h0Z"/></g><polygon points="144 324 127.38 324 124.62 324 124.62 326.77 124.62 343.38 127.38 343.38 127.38 326.77 144 326.77 144 324"/></g><g><path d="m108.58,294.01c.29.19.79.38,1.28.38.7,0,1.03-.35,1.03-.79s-.28-.71-.99-.98c-.96-.34-1.41-.87-1.41-1.51,0-.86.69-1.56,1.84-1.56.54,0,1.01.15,1.31.33l-.24.7c-.21-.13-.59-.31-1.09-.31-.57,0-.89.33-.89.73,0,.44.32.64,1.01.9.92.35,1.4.81,1.4,1.61,0,.94-.73,1.6-1.99,1.6-.58,0-1.12-.14-1.5-.36l.24-.74Z"/><path d="m114.23,288.14v1.53h1.39v.74h-1.39v2.87c0,.66.19,1.03.73,1.03.25,0,.44-.03.56-.07l.04.73c-.19.08-.48.13-.86.13-.45,0-.81-.14-1.04-.41-.28-.29-.37-.76-.37-1.39v-2.9h-.83v-.74h.83v-1.28l.95-.25Z"/><path d="m119.65,295l-.08-.67h-.03c-.3.42-.87.79-1.63.79-1.08,0-1.63-.76-1.63-1.53,0-1.29,1.14-1.99,3.2-1.98v-.11c0-.44-.12-1.23-1.21-1.23-.5,0-1.01.15-1.39.4l-.22-.64c.44-.29,1.08-.47,1.75-.47,1.63,0,2.02,1.11,2.02,2.18v1.99c0,.46.02.91.09,1.28h-.88Zm-.14-2.72c-1.06-.02-2.25.17-2.25,1.2,0,.63.42.92.91.92.69,0,1.13-.44,1.29-.89.03-.1.05-.21.05-.31v-.92Z"/><path d="m123.13,288.14v1.53h1.39v.74h-1.39v2.87c0,.66.19,1.03.73,1.03.25,0,.44-.03.56-.07l.04.73c-.19.08-.48.13-.86.13-.45,0-.81-.14-1.04-.41-.28-.29-.37-.76-.37-1.39v-2.9h-.83v-.74h.83v-1.28l.95-.25Z"/><path d="m126.08,292.51c.02,1.31.86,1.85,1.83,1.85.69,0,1.11-.12,1.47-.28l.17.69c-.34.15-.92.33-1.77.33-1.64,0-2.62-1.08-2.62-2.68s.95-2.87,2.5-2.87c1.74,0,2.2,1.53,2.2,2.51,0,.2-.02.35-.03.45h-3.74Zm2.84-.69c.01-.62-.25-1.57-1.34-1.57-.98,0-1.41.9-1.49,1.57h2.83Z"/><path d="m108.9,308.2l.29-2.16h-.9v-.65h1l.21-1.59h-.95v-.65h1.04l.29-2.1h.64l-.28,2.1h1.14l.29-2.1h.65l-.27,2.1h.9v.65h-1l-.2,1.59h.95v.65h-1.04l-.29,2.16h-.66l.29-2.16h-1.14l-.29,2.16h-.66Zm2.19-2.81l.21-1.59h-1.14l-.21,1.59h1.14Z"/><path d="m116.83,308.2v-1.95h-3.32v-.64l3.19-4.57h1.04v4.45h1v.76h-1v1.95h-.91Zm0-2.71v-2.39c0-.37.01-.75.03-1.12h-.03c-.22.42-.4.73-.59,1.06l-1.75,2.43v.02h2.34Z"/><path d="m124.24,304.55c0,2.43-.9,3.77-2.49,3.77-1.4,0-2.34-1.31-2.37-3.67,0-2.4,1.03-3.72,2.49-3.72s2.37,1.34,2.37,3.62Zm-3.88.11c0,1.86.57,2.92,1.45,2.92.99,0,1.46-1.16,1.46-2.98s-.45-2.92-1.45-2.92c-.85,0-1.46,1.03-1.46,2.98Z"/><path d="m125.69,307.52c.21.02.45,0,.78-.03.56-.08,1.09-.31,1.5-.69.47-.43.81-1.06.95-1.9h-.03c-.4.48-.97.77-1.68.77-1.29,0-2.11-.97-2.11-2.19,0-1.35.98-2.54,2.44-2.54s2.37,1.19,2.37,3.01c0,1.57-.53,2.67-1.23,3.36-.55.54-1.31.87-2.08.96-.35.06-.66.07-.89.06v-.79Zm.35-4.12c0,.89.54,1.52,1.38,1.52.65,0,1.16-.32,1.41-.75.06-.09.09-.2.09-.35,0-1.22-.45-2.16-1.46-2.16-.83,0-1.41.73-1.41,1.74Z"/></g></g><g><line class="g" x1="144" y1="296.31" x2="240.77" y2="296.31"/><polygon points="237.64 300.9 254.77 296.31 237.64 291.72 237.64 300.9"/></g><path class="i" d="m193.85,157.85c0,8.41-40.29,15.23-90,15.23s-90-6.82-90-15.23V23.54c0,8.41,40.29,15.23,90,15.23s90-6.82,90-15.23v134.31Z"/><g><g><g><polygon class="f" points="36.5 65.96 36.5 44.81 173.96 44.81 173.96 57.95 165.95 65.96 36.5 65.96"/><path d="m173.46,45.31v12.43l-7.72,7.72H37v-20.15h136.46m1-1H36v22.15h130.15l8.31-8.31v-13.85h0Z"/></g><polygon points="165.15 66.46 165.15 57.15 174.46 57.15 174.46 58.15 166.15 58.15 166.15 66.46 165.15 66.46"/></g><g><path d="m93.37,59.29l.29-2.16h-.9v-.65h1l.21-1.59h-.95v-.65h1.04l.29-2.1h.64l-.28,2.1h1.14l.29-2.1h.65l-.27,2.1h.9v.65h-1l-.2,1.59h.95v.65h-1.04l-.29,2.16h-.66l.29-2.16h-1.14l-.29,2.16h-.66Zm2.19-2.81l.21-1.59h-1.14l-.21,1.59h1.14Z"/><path d="m103.06,55.64c0,2.43-.9,3.77-2.49,3.77-1.4,0-2.34-1.31-2.37-3.67,0-2.4,1.03-3.72,2.49-3.72s2.37,1.34,2.37,3.62Zm-3.88.11c0,1.86.57,2.92,1.45,2.92.99,0,1.46-1.16,1.46-2.98s-.45-2.92-1.45-2.92c-.85,0-1.46,1.03-1.46,2.98Z"/><path d="m106.5,55.96v.71h-2.72v-.71h2.72Z"/><path d="m109.43,53.04h-.02l-1.24.67-.19-.74,1.56-.84h.83v7.15h-.93v-6.25Z"/><path d="m112.88,57.47c0-.9.54-1.54,1.42-1.91v-.03c-.8-.37-1.14-.99-1.14-1.61,0-1.13.96-1.9,2.21-1.9,1.39,0,2.08.87,2.08,1.76,0,.61-.3,1.25-1.18,1.67v.03c.89.35,1.44.98,1.44,1.85,0,1.24-1.07,2.08-2.43,2.08-1.5,0-2.4-.89-2.4-1.94Zm3.85-.04c0-.87-.61-1.29-1.57-1.56-.84.24-1.29.79-1.29,1.47-.03.73.52,1.36,1.43,1.36s1.43-.54,1.43-1.28Zm-2.66-3.58c0,.71.54,1.1,1.36,1.32.62-.21,1.09-.65,1.09-1.3,0-.57-.34-1.17-1.21-1.17-.8,0-1.24.53-1.24,1.14Z"/></g></g><g><g><g><polygon class="f" points="36.5 93.65 36.5 72.5 173.96 72.5 173.96 85.64 165.95 93.65 36.5 93.65"/><path d="m173.46,73v12.43l-7.72,7.72H37v-20.15h136.46m1-1H36v22.15h130.15l8.31-8.31v-13.85h0Z"/></g><polygon points="165.15 94.15 165.15 84.85 174.46 84.85 174.46 85.85 166.15 85.85 166.15 94.15 165.15 94.15"/></g><g><path d="m87.73,86.98l.29-2.16h-.9v-.65h1l.21-1.59h-.95v-.65h1.04l.29-2.1h.64l-.28,2.1h1.14l.29-2.1h.65l-.27,2.1h.9v.65h-1l-.2,1.59h.95v.65h-1.04l-.29,2.16h-.66l.29-2.16h-1.14l-.29,2.16h-.66Zm2.19-2.81l.21-1.59h-1.14l-.21,1.59h1.14Z"/><path d="m94.77,80.73h-.02l-1.24.67-.19-.74,1.56-.84h.83v7.15h-.93v-6.25Z"/><path d="m98.87,86.3c.21.02.45,0,.78-.03.56-.08,1.09-.31,1.5-.69.47-.43.81-1.06.95-1.9h-.03c-.4.48-.97.77-1.68.77-1.29,0-2.11-.97-2.11-2.19,0-1.35.98-2.54,2.44-2.54s2.37,1.19,2.37,3.01c0,1.57-.53,2.67-1.23,3.36-.55.54-1.31.87-2.08.96-.35.06-.66.07-.89.06v-.79Zm.35-4.12c0,.89.54,1.52,1.38,1.52.65,0,1.16-.32,1.41-.75.06-.09.09-.2.09-.35,0-1.22-.45-2.16-1.46-2.16-.83,0-1.41.73-1.41,1.74Z"/><path d="m106.5,83.65v.71h-2.72v-.71h2.72Z"/><path d="m107.33,86.98v-.59l.76-.74c1.83-1.74,2.65-2.66,2.66-3.74,0-.73-.35-1.4-1.42-1.4-.65,0-1.19.33-1.52.6l-.31-.68c.5-.42,1.2-.73,2.02-.73,1.54,0,2.19,1.06,2.19,2.08,0,1.32-.96,2.39-2.46,3.84l-.57.53v.02h3.21v.8h-4.57Z"/><path d="m115.07,80.73h-.02l-1.24.67-.19-.74,1.56-.84h.83v7.15h-.93v-6.25Z"/><path d="m118.84,85.87c.27.18.91.45,1.58.45,1.24,0,1.63-.79,1.62-1.39-.01-1-.91-1.43-1.85-1.43h-.54v-.73h.54c.7,0,1.6-.36,1.6-1.21,0-.57-.36-1.08-1.25-1.08-.57,0-1.12.25-1.43.47l-.25-.7c.37-.28,1.1-.55,1.87-.55,1.41,0,2.05.84,2.05,1.71,0,.74-.44,1.36-1.32,1.68v.02c.88.18,1.6.84,1.6,1.84,0,1.14-.89,2.15-2.61,2.15-.8,0-1.51-.25-1.86-.48l.26-.75Z"/></g></g><g><g><g><polygon class="f" points="36.5 121.35 36.5 100.19 173.96 100.19 173.96 113.33 165.95 121.35 36.5 121.35"/><path d="m173.46,100.69v12.43l-7.72,7.72H37v-20.15h136.46m1-1H36v22.15h130.15l8.31-8.31v-13.85h0Z"/></g><polygon points="165.15 121.85 165.15 112.54 174.46 112.54 174.46 113.54 166.15 113.54 166.15 121.85 165.15 121.85"/></g><g><path d="m84.9,114.67l.29-2.16h-.9v-.65h1l.21-1.59h-.95v-.65h1.04l.29-2.1h.64l-.28,2.1h1.14l.29-2.1h.65l-.27,2.1h.9v.65h-1l-.2,1.59h.95v.65h-1.04l-.29,2.16h-.66l.29-2.16h-1.14l-.29,2.16h-.66Zm2.19-2.81l.21-1.59h-1.14l-.21,1.59h1.14Z"/><path d="m89.84,114.67v-.59l.76-.74c1.83-1.74,2.65-2.66,2.66-3.74,0-.73-.35-1.4-1.42-1.4-.65,0-1.19.33-1.52.6l-.31-.68c.5-.42,1.2-.73,2.02-.73,1.54,0,2.19,1.06,2.19,2.08,0,1.32-.96,2.39-2.46,3.84l-.57.53v.02h3.21v.8h-4.57Z"/><path d="m97.59,108.43h-.02l-1.24.67-.19-.74,1.56-.84h.83v7.15h-.93v-6.25Z"/><path d="m104.12,114.67v-1.95h-3.32v-.64l3.19-4.57h1.04v4.45h1v.76h-1v1.95h-.91Zm0-2.71v-2.39c0-.37.01-.75.03-1.12h-.03c-.22.42-.4.73-.59,1.06l-1.75,2.43v.02h2.34Z"/><path d="m109.32,111.34v.71h-2.72v-.71h2.72Z"/><path d="m110.15,114.67v-.59l.76-.74c1.83-1.74,2.65-2.66,2.66-3.74,0-.73-.35-1.4-1.42-1.4-.65,0-1.19.33-1.52.6l-.31-.68c.5-.42,1.2-.73,2.02-.73,1.54,0,2.19,1.06,2.19,2.08,0,1.32-.96,2.39-2.46,3.84l-.57.53v.02h3.21v.8h-4.57Z"/><path d="m115.79,114.67v-.59l.76-.74c1.83-1.74,2.65-2.66,2.66-3.74,0-.73-.35-1.4-1.42-1.4-.65,0-1.19.33-1.52.6l-.31-.68c.5-.42,1.2-.73,2.02-.73,1.54,0,2.19,1.06,2.19,2.08,0,1.32-.96,2.39-2.46,3.84l-.57.53v.02h3.21v.8h-4.57Z"/><path d="m126.08,107.52v.64l-3.11,6.51h-1l3.1-6.33v-.02h-3.5v-.8h4.51Z"/></g></g><g><g><polygon class="f" points="36.5 157.35 36.5 127.88 173.96 127.88 173.96 149.33 165.95 157.35 36.5 157.35"/><path d="m173.46,128.38v20.74l-7.72,7.72H37v-28.46h136.46m1-1H36v30.46h130.15l8.31-8.31v-22.15h0Z"/></g><polygon points="165.15 157.85 165.15 148.54 174.46 148.54 174.46 149.54 166.15 149.54 166.15 157.85 165.15 157.85"/></g><g><path d="m84.9,146.52l.29-2.16h-.9v-.65h1l.21-1.59h-.95v-.65h1.04l.29-2.1h.64l-.28,2.1h1.14l.29-2.1h.65l-.27,2.1h.9v.65h-1l-.2,1.59h.95v.65h-1.04l-.29,2.16h-.66l.29-2.16h-1.14l-.29,2.16h-.66Zm2.19-2.81l.21-1.59h-1.14l-.21,1.59h1.14Z"/><path d="m89.84,146.52v-.59l.76-.74c1.83-1.74,2.65-2.66,2.66-3.74,0-.73-.35-1.4-1.42-1.4-.65,0-1.19.33-1.52.6l-.31-.68c.5-.42,1.2-.73,2.02-.73,1.54,0,2.19,1.06,2.19,2.08,0,1.32-.96,2.39-2.46,3.84l-.57.53v.02h3.21v.8h-4.57Z"/><path d="m95.48,146.52v-.59l.76-.74c1.83-1.74,2.65-2.66,2.66-3.74,0-.73-.35-1.4-1.42-1.4-.65,0-1.19.33-1.52.6l-.31-.68c.5-.42,1.2-.73,2.02-.73,1.54,0,2.19,1.06,2.19,2.08,0,1.32-.96,2.39-2.46,3.84l-.57.53v.02h3.21v.8h-4.57Z"/><path d="m101.04,144.71c0-.9.54-1.54,1.42-1.91v-.03c-.8-.37-1.14-.99-1.14-1.61,0-1.13.96-1.9,2.21-1.9,1.39,0,2.08.87,2.08,1.76,0,.61-.3,1.25-1.18,1.67v.03c.89.35,1.44.98,1.44,1.85,0,1.24-1.07,2.08-2.43,2.08-1.5,0-2.4-.89-2.4-1.94Zm3.85-.04c0-.87-.61-1.29-1.57-1.56-.84.24-1.29.79-1.29,1.47-.03.73.52,1.36,1.43,1.36s1.43-.54,1.43-1.28Zm-2.66-3.58c0,.71.54,1.1,1.36,1.32.62-.21,1.09-.65,1.09-1.3,0-.57-.34-1.17-1.21-1.17-.8,0-1.24.53-1.24,1.14Z"/><path d="m109.32,143.19v.71h-2.72v-.71h2.72Z"/><path d="m113.14,146.52v-1.95h-3.32v-.64l3.19-4.57h1.04v4.45h1v.76h-1v1.95h-.91Zm0-2.71v-2.39c0-.37.01-.75.03-1.12h-.03c-.22.42-.4.73-.59,1.06l-1.75,2.43v.02h2.34Z"/><path d="m117.89,140.27h-.02l-1.24.67-.19-.74,1.56-.84h.83v7.15h-.93v-6.25Z"/><path d="m123.53,140.27h-.02l-1.24.67-.19-.74,1.56-.84h.83v7.15h-.93v-6.25Z"/></g><g><path d="m107.32,246.07c.35.22.86.4,1.4.4.8,0,1.27-.42,1.27-1.04,0-.57-.32-.89-1.14-1.21-.99-.35-1.6-.86-1.6-1.72,0-.95.78-1.65,1.96-1.65.62,0,1.07.14,1.34.3l-.22.64c-.2-.11-.6-.29-1.15-.29-.83,0-1.14.5-1.14.91,0,.57.37.85,1.21,1.17,1.03.4,1.55.89,1.55,1.78,0,.94-.69,1.75-2.12,1.75-.58,0-1.22-.17-1.55-.39l.2-.66Z"/><path d="m112.77,241.42v1.25h1.13v.6h-1.13v2.35c0,.54.15.85.59.85.21,0,.36-.03.46-.05l.04.59c-.15.06-.4.11-.7.11-.37,0-.67-.12-.86-.33-.23-.23-.31-.62-.31-1.13v-2.38h-.67v-.6h.67v-1.04l.77-.21Z"/><path d="m117.2,247.03l-.06-.55h-.03c-.24.34-.71.65-1.33.65-.88,0-1.33-.62-1.33-1.25,0-1.05.94-1.63,2.62-1.62v-.09c0-.36-.1-1.01-.99-1.01-.41,0-.83.13-1.13.32l-.18-.52c.36-.23.88-.39,1.43-.39,1.33,0,1.66.91,1.66,1.78v1.63c0,.38.02.75.07,1.04h-.72Zm-.12-2.22c-.86-.02-1.85.13-1.85.98,0,.51.34.76.75.76.57,0,.93-.36,1.05-.73.03-.08.04-.17.04-.25v-.76Z"/><path d="m120.05,241.42v1.25h1.13v.6h-1.13v2.35c0,.54.15.85.59.85.21,0,.36-.03.46-.05l.04.59c-.15.06-.4.11-.7.11-.37,0-.67-.12-.86-.33-.23-.23-.31-.62-.31-1.13v-2.38h-.67v-.6h.67v-1.04l.77-.21Z"/><path d="m122.46,244.99c.02,1.07.7,1.51,1.49,1.51.57,0,.91-.1,1.21-.22l.14.57c-.28.13-.76.27-1.45.27-1.34,0-2.14-.88-2.14-2.2s.77-2.35,2.04-2.35c1.42,0,1.8,1.25,1.8,2.05,0,.16-.02.29-.03.37h-3.06Zm2.32-.57c0-.5-.21-1.29-1.1-1.29-.8,0-1.15.74-1.21,1.29h2.31Z"/><path d="m97.42,256.87c.35.22.86.4,1.4.4.8,0,1.27-.42,1.27-1.04,0-.57-.32-.89-1.14-1.21-.99-.35-1.6-.86-1.6-1.72,0-.95.78-1.65,1.96-1.65.62,0,1.07.14,1.34.3l-.22.64c-.2-.11-.6-.29-1.15-.29-.83,0-1.14.5-1.14.91,0,.57.37.85,1.21,1.17,1.03.4,1.55.89,1.55,1.78,0,.94-.69,1.75-2.12,1.75-.58,0-1.22-.17-1.55-.39l.2-.66Z"/><path d="m101.94,254.65c0-.45,0-.82-.04-1.18h.7l.04.72h.02c.22-.41.72-.82,1.44-.82.6,0,1.54.36,1.54,1.85v2.6h-.79v-2.51c0-.7-.26-1.29-1.01-1.29-.52,0-.93.37-1.06.81-.04.1-.05.23-.05.37v2.62h-.79v-3.18Z"/><path d="m109.34,257.83l-.06-.55h-.03c-.24.34-.71.65-1.33.65-.88,0-1.33-.62-1.33-1.25,0-1.05.94-1.63,2.62-1.62v-.09c0-.36-.1-1.01-.99-1.01-.41,0-.83.13-1.13.32l-.18-.52c.36-.23.88-.39,1.43-.39,1.33,0,1.66.91,1.66,1.78v1.63c0,.38.02.75.07,1.04h-.72Zm-.12-2.22c-.86-.02-1.85.13-1.85.98,0,.51.34.76.75.76.57,0,.93-.36,1.05-.73.03-.08.04-.17.04-.25v-.76Z"/><path d="m111.27,254.89c0-.56-.02-1.01-.04-1.42h.71l.04.75h.02c.32-.53.84-.85,1.55-.85,1.05,0,1.85.89,1.85,2.21,0,1.57-.95,2.34-1.98,2.34-.58,0-1.08-.25-1.34-.68h-.02v2.37h-.78v-4.72Zm.78,1.16c0,.12.02.22.04.32.14.55.62.93,1.19.93.84,0,1.32-.68,1.32-1.68,0-.87-.46-1.62-1.3-1.62-.54,0-1.04.39-1.2.98-.03.1-.05.22-.05.32v.75Z"/><path d="m116.28,257.02c.23.15.65.32,1.04.32.58,0,.85-.29.85-.65s-.22-.58-.81-.8c-.78-.28-1.15-.71-1.15-1.23,0-.7.57-1.28,1.5-1.28.44,0,.83.13,1.07.27l-.2.58c-.17-.11-.49-.25-.89-.25-.47,0-.73.27-.73.59,0,.36.26.52.83.74.76.29,1.14.67,1.14,1.31,0,.77-.59,1.31-1.63,1.31-.48,0-.92-.12-1.22-.3l.2-.6Z"/><path d="m119.95,251.43h.79v2.72h.02c.13-.23.32-.42.57-.56.23-.13.51-.22.81-.22.58,0,1.52.36,1.52,1.86v2.59h-.79v-2.5c0-.7-.26-1.3-1.01-1.3-.51,0-.92.36-1.06.79-.05.11-.05.22-.05.38v2.63h-.79v-6.39Z"/><path d="m128.89,255.61c0,1.61-1.12,2.31-2.17,2.31-1.18,0-2.09-.86-2.09-2.24,0-1.46.95-2.31,2.16-2.31s2.1.91,2.1,2.24Zm-3.46.04c0,.95.55,1.67,1.32,1.67s1.32-.71,1.32-1.69c0-.74-.37-1.67-1.31-1.67s-1.34.86-1.34,1.69Z"/><path d="m130.84,252.22v1.25h1.13v.6h-1.13v2.35c0,.54.15.85.59.85.21,0,.36-.03.46-.05l.04.59c-.15.06-.4.11-.7.11-.37,0-.67-.12-.86-.33-.23-.23-.31-.62-.31-1.13v-2.38h-.67v-.6h.67v-1.04l.77-.21Z"/><path d="m132.76,257.02c.23.15.65.32,1.04.32.58,0,.85-.29.85-.65s-.22-.58-.81-.8c-.78-.28-1.15-.71-1.15-1.23,0-.7.57-1.28,1.5-1.28.44,0,.83.13,1.07.27l-.2.58c-.17-.11-.49-.25-.89-.25-.47,0-.73.27-.73.59,0,.36.26.52.83.74.76.29,1.14.67,1.14,1.31,0,.77-.59,1.31-1.63,1.31-.48,0-.92-.12-1.22-.3l.2-.6Z"/></g><g><polyline class="g" points="174.46 144 271.38 144 271.38 160.46"/><polygon points="266.79 157.33 271.38 174.46 275.97 157.33 266.79 157.33"/></g><g><polyline class="g" points="174.46 135.69 343.38 135.69 343.38 160.46"/><polygon points="338.79 157.33 343.38 174.46 347.97 157.33 338.79 157.33"/></g><g><polyline class="g" points="268.62 108 268.62 124.62 415.38 124.62 415.38 160.46"/><polygon points="410.79 157.33 415.38 174.46 419.97 157.33 410.79 157.33"/></g></svg>