<?xml version="1.0" encoding="UTF-8"?><svg id="a" xmlns="http://www.w3.org/2000/svg" viewBox="0 0 675.69 537.23"><defs><style>.e{fill:#ccc;}.e,.f,.g,.h,.i,.j,.k,.l,.m,.n{stroke-miterlimit:10;}.e,.f,.h,.i,.j,.k,.l,.m,.n{stroke:#000;}.e,.i{stroke-width:1.35px;}.f,.o,.i,.m,.n{fill:#fff;}.f,.l{stroke-width:1.35px;}.g{stroke:#666;stroke-linecap:round;}.g,.h,.j,.k{fill:none;}.g,.k{stroke-width:2px;}.h{stroke-width:2.12px;}.j{stroke-width:3px;}.l{fill:#e6e6e6;}.m{stroke-width:1.22px;}.n{stroke-width:1.31px;}.p{fill:#666;}</style></defs><g><rect class="o" x="112.27" y="234.12" width="307.15" height="285"/><path d="m417.92,235.62v282H113.77V235.62h304.15m3-3H110.77v288h310.15V232.62h0Z"/></g><rect class="e" x="188.31" y="243.69" width="221.54" height="188.31"/><g><line class="j" x1="288" y1="49.85" x2="330.32" y2="49.85"/><polygon points="326.16 55.95 348.92 49.85 326.16 43.75 326.16 55.95"/></g><g><rect class="o" x="145.5" y="18.12" width="141" height="63.46"/><path d="m285,19.62v60.46h-138V19.62h138m3-3h-144v66.46h144V16.62h0Z"/></g><g><path d="m166.85,44.24c-.67.34-2.02.67-3.74.67-3.99,0-6.99-2.52-6.99-7.16s3-7.43,7.39-7.43c1.76,0,2.88.38,3.36.63l-.44,1.49c-.69-.34-1.68-.59-2.86-.59-3.32,0-5.52,2.12-5.52,5.84,0,3.46,1.99,5.69,5.44,5.69,1.11,0,2.25-.23,2.98-.59l.38,1.45Z"/><path d="m178.04,39.54c0,3.76-2.6,5.4-5.06,5.4-2.75,0-4.87-2.02-4.87-5.23,0-3.4,2.23-5.4,5.04-5.4s4.89,2.12,4.89,5.23Zm-8.06.11c0,2.23,1.28,3.91,3.09,3.91s3.09-1.66,3.09-3.95c0-1.72-.86-3.91-3.04-3.91s-3.13,2.02-3.13,3.95Z"/><path d="m180.37,37.29c0-1.05-.02-1.91-.08-2.75h1.64l.11,1.68h.04c.5-.97,1.68-1.91,3.36-1.91,1.41,0,3.59.84,3.59,4.33v6.07h-1.85v-5.86c0-1.64-.61-3-2.35-3-1.22,0-2.16.86-2.48,1.89-.08.23-.13.55-.13.86v6.11h-1.85v-7.41Z"/><path d="m192.22,44.7v-8.75h-1.43v-1.41h1.43v-.55c0-2.69,1.57-4.43,4.43-4.43.95,0,2.06.29,2.58.67l-.53,1.41c-.44-.31-1.24-.59-2.14-.59-1.95,0-2.52,1.37-2.52,2.98v.5h5.9v10.16h-1.83v-8.75h-4.07v8.75h-1.83Z"/><path d="m211.77,34.54c-.04.74-.08,1.55-.08,2.79v5.9c0,2.33-.46,3.76-1.45,4.64-.99.92-2.41,1.22-3.7,1.22s-2.56-.29-3.38-.84l.46-1.41c.67.42,1.72.8,2.98.8,1.89,0,3.28-.99,3.28-3.55v-1.13h-.04c-.57.94-1.66,1.7-3.23,1.7-2.52,0-4.33-2.14-4.33-4.96,0-3.44,2.25-5.4,4.58-5.4,1.76,0,2.73.92,3.17,1.76h.04l.08-1.53h1.62Zm-1.91,4.01c0-.32-.02-.59-.1-.84-.34-1.07-1.24-1.95-2.58-1.95-1.76,0-3.02,1.49-3.02,3.84,0,1.99,1.01,3.65,3,3.65,1.13,0,2.16-.71,2.56-1.89.1-.32.15-.67.15-.99v-1.83Z"/><path d="m223.25,41.93c0,1.05.02,1.97.08,2.77h-1.64l-.11-1.66h-.04c-.48.82-1.55,1.89-3.36,1.89-1.6,0-3.51-.88-3.51-4.45v-5.94h1.85v5.63c0,1.93.59,3.23,2.27,3.23,1.24,0,2.1-.86,2.44-1.68.1-.27.17-.61.17-.94v-6.24h1.85v7.39Z"/><path d="m226.32,37.71c0-1.2-.02-2.23-.08-3.17h1.62l.06,2h.08c.46-1.37,1.58-2.23,2.81-2.23.21,0,.36.02.53.06v1.74c-.19-.04-.38-.06-.63-.06-1.3,0-2.23.99-2.48,2.37-.04.25-.08.55-.08.86v5.42h-1.83v-6.99Z"/><path d="m238.71,44.7l-.15-1.28h-.06c-.57.8-1.66,1.51-3.11,1.51-2.06,0-3.11-1.45-3.11-2.92,0-2.46,2.18-3.8,6.11-3.78v-.21c0-.84-.23-2.35-2.31-2.35-.94,0-1.93.29-2.65.76l-.42-1.22c.84-.55,2.06-.9,3.34-.9,3.11,0,3.86,2.12,3.86,4.16v3.8c0,.88.04,1.74.17,2.44h-1.68Zm-.27-5.19c-2.02-.04-4.3.31-4.3,2.29,0,1.2.8,1.76,1.74,1.76,1.32,0,2.16-.84,2.46-1.7.06-.19.1-.4.1-.59v-1.76Z"/><path d="m245.35,31.62v2.92h2.65v1.41h-2.65v5.48c0,1.26.36,1.97,1.39,1.97.48,0,.84-.06,1.07-.13l.08,1.39c-.36.15-.92.25-1.64.25-.86,0-1.55-.27-1.99-.78-.53-.55-.71-1.45-.71-2.65v-5.54h-1.58v-1.41h1.58v-2.44l1.81-.48Z"/><path d="m252.13,31.68c.02.63-.44,1.13-1.18,1.13-.65,0-1.11-.5-1.11-1.13s.48-1.15,1.15-1.15,1.13.5,1.13,1.15Zm-2.06,13.02v-10.16h1.85v10.16h-1.85Z"/><path d="m264.18,39.54c0,3.76-2.6,5.4-5.06,5.4-2.75,0-4.87-2.02-4.87-5.23,0-3.4,2.23-5.4,5.04-5.4s4.89,2.12,4.89,5.23Zm-8.06.11c0,2.23,1.28,3.91,3.09,3.91s3.09-1.66,3.09-3.95c0-1.72-.86-3.91-3.04-3.91s-3.13,2.02-3.13,3.95Z"/><path d="m266.51,37.29c0-1.05-.02-1.91-.08-2.75h1.64l.1,1.68h.04c.5-.97,1.68-1.91,3.36-1.91,1.41,0,3.59.84,3.59,4.33v6.07h-1.85v-5.86c0-1.64-.61-3-2.35-3-1.22,0-2.16.86-2.48,1.89-.08.23-.13.55-.13.86v6.11h-1.85v-7.41Z"/><path d="m187.32,67.68c.82.5,2.02.92,3.28.92,1.87,0,2.96-.99,2.96-2.42,0-1.32-.76-2.08-2.67-2.81-2.31-.82-3.74-2.02-3.74-4.01,0-2.21,1.83-3.84,4.58-3.84,1.45,0,2.5.34,3.13.69l-.5,1.49c-.46-.25-1.41-.67-2.69-.67-1.93,0-2.67,1.16-2.67,2.12,0,1.32.86,1.97,2.81,2.73,2.39.92,3.61,2.08,3.61,4.16,0,2.18-1.62,4.07-4.96,4.07-1.36,0-2.86-.4-3.61-.9l.46-1.53Z"/><path d="m207.19,64.74c0,3.76-2.6,5.4-5.06,5.4-2.75,0-4.87-2.02-4.87-5.23,0-3.4,2.23-5.4,5.04-5.4s4.89,2.12,4.89,5.23Zm-8.06.1c0,2.23,1.28,3.91,3.09,3.91s3.09-1.66,3.09-3.95c0-1.72-.86-3.91-3.04-3.91s-3.13,2.02-3.13,3.95Z"/><path d="m218.02,67.13c0,1.05.02,1.97.08,2.77h-1.64l-.1-1.66h-.04c-.48.82-1.55,1.89-3.36,1.89-1.6,0-3.51-.88-3.51-4.45v-5.94h1.85v5.63c0,1.93.59,3.23,2.27,3.23,1.24,0,2.1-.86,2.44-1.68.11-.27.17-.61.17-.95v-6.24h1.85v7.39Z"/><path d="m221.09,62.91c0-1.2-.02-2.23-.08-3.17h1.62l.06,1.99h.08c.46-1.36,1.58-2.23,2.81-2.23.21,0,.36.02.53.06v1.74c-.19-.04-.38-.06-.63-.06-1.3,0-2.23.99-2.48,2.37-.04.25-.08.55-.08.86v5.42h-1.83v-6.99Z"/><path d="m234.99,69.52c-.48.25-1.55.59-2.92.59-3.07,0-5.06-2.08-5.06-5.19s2.14-5.4,5.46-5.4c1.09,0,2.06.27,2.56.52l-.42,1.43c-.44-.25-1.13-.48-2.14-.48-2.33,0-3.59,1.72-3.59,3.84,0,2.35,1.51,3.8,3.53,3.8,1.05,0,1.74-.27,2.27-.5l.31,1.39Z"/><path d="m238.06,65.16c.04,2.5,1.64,3.53,3.49,3.53,1.32,0,2.12-.23,2.81-.53l.31,1.32c-.65.29-1.76.63-3.38.63-3.13,0-5-2.06-5-5.12s1.81-5.48,4.77-5.48c3.32,0,4.2,2.92,4.2,4.79,0,.38-.04.67-.06.86h-7.14Zm5.42-1.32c.02-1.18-.48-3-2.56-3-1.87,0-2.69,1.72-2.83,3h5.4Z"/></g><g><line class="h" x1="483.88" y1="492.92" x2="504" y2="492.92"/><path d="m484.28,500.9c-4.4,0-7.98-3.57-7.98-7.98s3.57-7.98,7.98-7.98,7.98,3.57,7.98,7.98-3.57,7.98-7.98,7.98Z"/></g><g><rect class="o" x="505.5" y="455.65" width="152.08" height="69"/><path d="m656.08,457.15v66h-149.08v-66h149.08m3-3h-155.08v72h155.08v-72h0Z"/></g><g><path d="m554.78,478.37h-5.5v5.1h6.13v1.53h-7.96v-14.15h7.64v1.53h-5.82v4.47h5.5v1.51Z"/><path d="m558.58,474.85l1.45,2.18c.38.57.69,1.09,1.03,1.66h.06c.34-.61.67-1.13,1.01-1.68l1.43-2.16h1.99l-3.46,4.91,3.57,5.25h-2.1l-1.49-2.29c-.4-.59-.73-1.15-1.09-1.76h-.04c-.34.61-.69,1.16-1.07,1.76l-1.47,2.29h-2.04l3.61-5.19-3.44-4.98h2.06Z"/><path d="m569.94,471.93v2.92h2.65v1.41h-2.65v5.48c0,1.26.36,1.97,1.39,1.97.48,0,.84-.06,1.07-.13l.08,1.39c-.36.15-.92.25-1.64.25-.86,0-1.55-.27-2-.78-.52-.55-.71-1.45-.71-2.65v-5.54h-1.57v-1.41h1.57v-2.44l1.81-.48Z"/><path d="m575.57,480.26c.04,2.5,1.64,3.53,3.49,3.53,1.32,0,2.12-.23,2.81-.52l.31,1.32c-.65.29-1.76.63-3.38.63-3.13,0-5-2.06-5-5.12s1.81-5.48,4.77-5.48c3.32,0,4.2,2.92,4.2,4.79,0,.38-.04.67-.06.86h-7.14Zm5.42-1.32c.02-1.18-.48-3-2.56-3-1.87,0-2.69,1.72-2.83,3h5.4Z"/><path d="m585.07,478.02c0-1.2-.02-2.22-.08-3.17h1.62l.06,1.99h.08c.46-1.36,1.57-2.22,2.81-2.22.21,0,.36.02.52.06v1.74c-.19-.04-.38-.06-.63-.06-1.3,0-2.23.99-2.48,2.37-.04.25-.08.54-.08.86v5.42h-1.83v-6.99Z"/><path d="m592.02,477.6c0-1.05-.02-1.91-.08-2.75h1.64l.11,1.68h.04c.5-.97,1.68-1.91,3.36-1.91,1.41,0,3.59.84,3.59,4.32v6.07h-1.85v-5.86c0-1.64-.61-3-2.35-3-1.22,0-2.16.86-2.48,1.89-.08.23-.13.55-.13.86v6.11h-1.85v-7.41Z"/><path d="m609.3,485.01l-.15-1.28h-.06c-.57.8-1.66,1.51-3.11,1.51-2.06,0-3.11-1.45-3.11-2.92,0-2.46,2.18-3.8,6.11-3.78v-.21c0-.84-.23-2.35-2.31-2.35-.95,0-1.93.29-2.65.76l-.42-1.22c.84-.55,2.06-.9,3.34-.9,3.11,0,3.86,2.12,3.86,4.16v3.8c0,.88.04,1.74.17,2.44h-1.68Zm-.27-5.19c-2.02-.04-4.3.31-4.3,2.29,0,1.2.8,1.76,1.74,1.76,1.32,0,2.16-.84,2.46-1.7.06-.19.11-.4.11-.59v-1.76Z"/><path d="m613.79,470.1h1.85v14.91h-1.85v-14.91Z"/><path d="m520.19,496.25c1.11-.17,2.44-.29,3.88-.29,2.62,0,4.49.61,5.73,1.76,1.26,1.15,2,2.79,2,5.08s-.71,4.2-2.04,5.5c-1.32,1.32-3.51,2.04-6.26,2.04-1.3,0-2.39-.06-3.32-.17v-13.92Zm1.83,12.51c.46.08,1.13.1,1.85.1,3.91,0,6.03-2.18,6.03-6,.02-3.34-1.87-5.46-5.73-5.46-.95,0-1.66.08-2.14.19v11.17Z"/><path d="m535.22,505.46c.04,2.5,1.64,3.53,3.49,3.53,1.32,0,2.12-.23,2.81-.53l.31,1.32c-.65.29-1.76.63-3.38.63-3.13,0-5-2.06-5-5.12s1.81-5.48,4.77-5.48c3.32,0,4.2,2.92,4.2,4.79,0,.38-.04.67-.06.86h-7.14Zm5.42-1.32c.02-1.18-.48-3-2.56-3-1.87,0-2.69,1.72-2.83,3h5.4Z"/><path d="m544.71,503.36c0-1.3-.04-2.35-.08-3.32h1.66l.08,1.74h.04c.76-1.24,1.95-1.97,3.61-1.97,2.46,0,4.3,2.08,4.3,5.17,0,3.65-2.23,5.46-4.62,5.46-1.34,0-2.52-.59-3.13-1.6h-.04v5.52h-1.83v-11Zm1.83,2.71c0,.27.04.52.08.76.34,1.28,1.45,2.16,2.77,2.16,1.95,0,3.09-1.6,3.09-3.93,0-2.04-1.07-3.78-3.02-3.78-1.26,0-2.44.9-2.79,2.29-.06.23-.13.5-.13.76v1.74Z"/><path d="m557.69,505.46c.04,2.5,1.64,3.53,3.49,3.53,1.32,0,2.12-.23,2.81-.53l.31,1.32c-.65.29-1.76.63-3.38.63-3.13,0-5-2.06-5-5.12s1.81-5.48,4.77-5.48c3.32,0,4.2,2.92,4.2,4.79,0,.38-.04.67-.06.86h-7.14Zm5.42-1.32c.02-1.18-.48-3-2.56-3-1.87,0-2.69,1.72-2.83,3h5.4Z"/><path d="m567.18,502.8c0-1.05-.02-1.91-.08-2.75h1.64l.1,1.68h.04c.5-.96,1.68-1.91,3.36-1.91,1.41,0,3.59.84,3.59,4.33v6.07h-1.85v-5.86c0-1.64-.61-3-2.35-3-1.22,0-2.16.86-2.48,1.89-.08.23-.13.55-.13.86v6.11h-1.85v-7.41Z"/><path d="m587.62,495.3v12.28c0,.9.02,1.93.08,2.62h-1.66l-.08-1.76h-.04c-.57,1.13-1.81,2-3.46,2-2.46,0-4.35-2.08-4.35-5.17-.02-3.38,2.08-5.46,4.56-5.46,1.55,0,2.6.73,3.07,1.55h.04v-6.07h1.85Zm-1.85,8.88c0-.23-.02-.55-.08-.78-.27-1.18-1.28-2.14-2.67-2.14-1.91,0-3.04,1.68-3.04,3.93,0,2.06,1.01,3.76,3,3.76,1.24,0,2.37-.82,2.71-2.2.06-.25.08-.5.08-.8v-1.76Z"/><path d="m591.71,505.46c.04,2.5,1.64,3.53,3.49,3.53,1.32,0,2.12-.23,2.81-.53l.31,1.32c-.65.29-1.76.63-3.38.63-3.13,0-5-2.06-5-5.12s1.81-5.48,4.77-5.48c3.32,0,4.2,2.92,4.2,4.79,0,.38-.04.67-.06.86h-7.14Zm5.42-1.32c.02-1.18-.48-3-2.56-3-1.87,0-2.69,1.72-2.83,3h5.4Z"/><path d="m601.2,502.8c0-1.05-.02-1.91-.08-2.75h1.64l.1,1.68h.04c.5-.96,1.68-1.91,3.36-1.91,1.41,0,3.59.84,3.59,4.33v6.07h-1.85v-5.86c0-1.64-.61-3-2.35-3-1.22,0-2.16.86-2.48,1.89-.08.23-.13.55-.13.86v6.11h-1.85v-7.41Z"/><path d="m620.1,509.83c-.48.25-1.55.59-2.92.59-3.07,0-5.06-2.08-5.06-5.19s2.14-5.4,5.46-5.4c1.09,0,2.06.27,2.56.52l-.42,1.43c-.44-.25-1.13-.48-2.14-.48-2.33,0-3.59,1.72-3.59,3.84,0,2.35,1.51,3.8,3.53,3.8,1.05,0,1.74-.27,2.27-.5l.32,1.39Z"/><path d="m624.32,497.19c.02.63-.44,1.13-1.18,1.13-.65,0-1.11-.5-1.11-1.13s.48-1.15,1.15-1.15,1.13.5,1.13,1.15Zm-2.06,13.02v-10.16h1.85v10.16h-1.85Z"/><path d="m628.21,505.46c.04,2.5,1.64,3.53,3.49,3.53,1.32,0,2.12-.23,2.81-.53l.31,1.32c-.65.29-1.76.63-3.38.63-3.13,0-5-2.06-5-5.12s1.81-5.48,4.77-5.48c3.32,0,4.2,2.92,4.2,4.79,0,.38-.04.67-.06.86h-7.14Zm5.42-1.32c.02-1.18-.48-3-2.56-3-1.87,0-2.69,1.72-2.83,3h5.4Z"/><path d="m637.45,508.32c.55.36,1.51.73,2.44.73,1.34,0,1.97-.67,1.97-1.51,0-.88-.53-1.37-1.89-1.87-1.83-.65-2.69-1.66-2.69-2.88,0-1.64,1.32-2.98,3.51-2.98,1.03,0,1.93.29,2.5.63l-.46,1.34c-.4-.25-1.13-.59-2.08-.59-1.09,0-1.7.63-1.7,1.39,0,.84.61,1.22,1.93,1.72,1.76.67,2.67,1.55,2.67,3.07,0,1.79-1.39,3.04-3.8,3.04-1.11,0-2.14-.27-2.86-.69l.46-1.41Z"/></g><g><line class="g" x1="393.23" y1="492.92" x2="463.9" y2="492.92"/><polygon class="p" points="461.13 496.99 476.31 492.92 461.13 488.86 461.13 496.99"/></g><g><path class="k" d="m459.69,66.46v46.46c0,11-9,20-20,20h-137.69"/><polygon points="305.13 128.33 288 132.92 305.13 137.51 305.13 128.33"/></g><g><path class="k" d="m470.77,66.46v256.92c0,11-9,20-20,20h-121.08"/><polygon points="332.82 338.79 315.69 343.38 332.82 347.97 332.82 338.79"/></g><ellipse class="l" cx="360" cy="49.85" rx="11.08" ry="16.62"/><path class="l" d="m360,66.46c6.12,0,11.08-7.44,11.08-16.62s-4.96-16.62-11.08-16.62h116.31c6.12,0,11.08,7.44,11.08,16.62s-4.96,16.62-11.08,16.62h-116.31Z"/><path class="f" d="m476.31,66.46c6.12,0,11.08-7.44,11.08-16.62s-4.96-16.62-11.08-16.62h16.62c6.12,0,11.08,7.44,11.08,16.62s-4.96,16.62-11.08,16.62h-16.62Z"/><g><path d="m389.99,49.81h-5.5v5.1h6.13v1.53h-7.96v-14.15h7.64v1.53h-5.82v4.47h5.5v1.51Z"/><path d="m393.5,46.29l2,5.71c.34.92.61,1.76.82,2.6h.06c.23-.84.53-1.68.86-2.6l1.97-5.71h1.93l-3.99,10.16h-1.76l-3.86-10.16h1.97Z"/><path d="m403.71,51.7c.04,2.5,1.64,3.53,3.49,3.53,1.32,0,2.12-.23,2.81-.52l.32,1.32c-.65.29-1.76.63-3.38.63-3.13,0-5-2.06-5-5.12s1.81-5.48,4.77-5.48c3.32,0,4.2,2.92,4.2,4.79,0,.38-.04.67-.06.86h-7.14Zm5.42-1.32c.02-1.18-.48-3-2.56-3-1.87,0-2.69,1.72-2.83,3h5.4Z"/><path d="m413.2,49.04c0-1.05-.02-1.91-.08-2.75h1.64l.1,1.68h.04c.5-.97,1.68-1.91,3.36-1.91,1.41,0,3.59.84,3.59,4.33v6.07h-1.85v-5.86c0-1.64-.61-3-2.35-3-1.22,0-2.16.86-2.48,1.89-.08.23-.13.55-.13.86v6.11h-1.85v-7.41Z"/><path d="m427,43.37v2.92h2.65v1.41h-2.65v5.48c0,1.26.36,1.97,1.39,1.97.48,0,.84-.06,1.07-.13l.08,1.39c-.36.15-.92.25-1.64.25-.86,0-1.55-.27-2-.78-.52-.55-.71-1.45-.71-2.65v-5.54h-1.58v-1.41h1.58v-2.44l1.8-.48Z"/><path d="m438.06,42.3v5.92h6.84v-5.92h1.85v14.15h-1.85v-6.63h-6.84v6.63h-1.83v-14.15h1.83Z"/><path d="m458.37,53.68c0,1.05.02,1.97.08,2.77h-1.64l-.1-1.66h-.04c-.48.82-1.55,1.89-3.36,1.89-1.6,0-3.51-.88-3.51-4.45v-5.94h1.85v5.63c0,1.93.59,3.23,2.27,3.23,1.24,0,2.1-.86,2.44-1.68.11-.27.17-.61.17-.94v-6.24h1.85v7.39Z"/><path d="m461.35,56.45c.04-.69.08-1.72.08-2.62v-12.28h1.83v6.38h.04c.65-1.13,1.83-1.87,3.46-1.87,2.52,0,4.3,2.1,4.28,5.19,0,3.63-2.29,5.44-4.56,5.44-1.47,0-2.65-.57-3.4-1.91h-.06l-.08,1.68h-1.6Zm1.91-4.07c0,.23.04.46.08.67.36,1.28,1.43,2.16,2.77,2.16,1.93,0,3.09-1.58,3.09-3.91,0-2.04-1.05-3.78-3.02-3.78-1.26,0-2.44.86-2.81,2.27-.04.21-.11.46-.11.76v1.83Z"/></g><g><rect class="o" x="145.47" y="117.78" width="141.05" height="69.05"/><path d="m285.06,119.25v66.11h-138.11v-66.11h138.11m2.94-2.94h-144v72h144v-72h0Z"/></g><g><path d="m176.08,144.94c.82.5,2.02.92,3.28.92,1.87,0,2.96-.99,2.96-2.42,0-1.32-.76-2.08-2.67-2.81-2.31-.82-3.74-2.02-3.74-4.01,0-2.21,1.83-3.84,4.58-3.84,1.45,0,2.5.34,3.13.69l-.5,1.49c-.46-.25-1.41-.67-2.69-.67-1.93,0-2.67,1.16-2.67,2.12,0,1.32.86,1.97,2.81,2.73,2.39.92,3.61,2.08,3.61,4.16,0,2.18-1.62,4.07-4.96,4.07-1.37,0-2.86-.4-3.61-.9l.46-1.53Z"/><path d="m186.62,139.75c0-1.05-.02-1.91-.08-2.75h1.64l.1,1.68h.04c.5-.97,1.68-1.91,3.36-1.91,1.41,0,3.59.84,3.59,4.33v6.07h-1.85v-5.86c0-1.64-.61-3-2.35-3-1.22,0-2.16.86-2.48,1.89-.08.23-.13.55-.13.86v6.11h-1.85v-7.41Z"/><path d="m203.9,147.16l-.15-1.28h-.06c-.57.8-1.66,1.51-3.11,1.51-2.06,0-3.11-1.45-3.11-2.92,0-2.46,2.18-3.8,6.11-3.78v-.21c0-.84-.23-2.35-2.31-2.35-.95,0-1.93.29-2.65.76l-.42-1.22c.84-.55,2.06-.9,3.34-.9,3.11,0,3.86,2.12,3.86,4.16v3.8c0,.88.04,1.74.17,2.44h-1.68Zm-.27-5.19c-2.02-.04-4.3.32-4.3,2.29,0,1.2.8,1.76,1.74,1.76,1.32,0,2.16-.84,2.46-1.7.06-.19.11-.4.11-.59v-1.76Z"/><path d="m208.4,140.32c0-1.3-.04-2.35-.08-3.32h1.66l.08,1.74h.04c.76-1.24,1.95-1.97,3.61-1.97,2.46,0,4.3,2.08,4.3,5.17,0,3.65-2.23,5.46-4.62,5.46-1.34,0-2.52-.59-3.13-1.6h-.04v5.52h-1.83v-11Zm1.83,2.71c0,.27.04.53.08.76.34,1.28,1.45,2.16,2.77,2.16,1.95,0,3.09-1.6,3.09-3.93,0-2.04-1.07-3.78-3.02-3.78-1.26,0-2.44.9-2.79,2.29-.06.23-.13.5-.13.76v1.74Z"/><path d="m220.09,145.27c.55.36,1.51.73,2.44.73,1.34,0,1.97-.67,1.97-1.51,0-.88-.53-1.36-1.89-1.87-1.83-.65-2.69-1.66-2.69-2.88,0-1.64,1.32-2.98,3.51-2.98,1.03,0,1.93.29,2.5.63l-.46,1.34c-.4-.25-1.13-.59-2.08-.59-1.09,0-1.7.63-1.7,1.39,0,.84.61,1.22,1.93,1.72,1.76.67,2.67,1.55,2.67,3.07,0,1.79-1.39,3.04-3.8,3.04-1.11,0-2.14-.27-2.86-.69l.46-1.41Z"/><path d="m228.66,132.26h1.85v6.34h.04c.29-.53.76-.99,1.32-1.3.55-.32,1.2-.53,1.89-.53,1.36,0,3.55.84,3.55,4.35v6.05h-1.85v-5.84c0-1.64-.61-3.02-2.35-3.02-1.2,0-2.14.84-2.48,1.85-.1.25-.13.52-.13.88v6.13h-1.85v-14.91Z"/><path d="m249.51,142c0,3.76-2.6,5.4-5.06,5.4-2.75,0-4.87-2.02-4.87-5.23,0-3.4,2.23-5.4,5.04-5.4s4.89,2.12,4.89,5.23Zm-8.06.1c0,2.23,1.28,3.91,3.09,3.91s3.09-1.66,3.09-3.95c0-1.72-.86-3.91-3.04-3.91s-3.13,2.02-3.13,3.95Z"/><path d="m254.07,134.08v2.92h2.65v1.41h-2.65v5.48c0,1.26.36,1.97,1.39,1.97.48,0,.84-.06,1.07-.13l.08,1.39c-.36.15-.92.25-1.64.25-.86,0-1.55-.27-2-.78-.52-.55-.71-1.45-.71-2.65v-5.54h-1.57v-1.41h1.57v-2.44l1.81-.48Z"/><path d="m179.26,171.73c-.82.29-2.44.78-4.35.78-2.14,0-3.91-.55-5.29-1.87-1.22-1.18-1.97-3.07-1.97-5.27.02-4.22,2.92-7.31,7.66-7.31,1.64,0,2.92.36,3.53.65l-.44,1.49c-.76-.34-1.7-.61-3.13-.61-3.44,0-5.69,2.14-5.69,5.69s2.16,5.71,5.46,5.71c1.2,0,2.02-.17,2.44-.38v-4.22h-2.88v-1.47h4.66v6.8Z"/><path d="m183.12,167.62c.04,2.5,1.64,3.53,3.49,3.53,1.32,0,2.12-.23,2.81-.52l.32,1.32c-.65.29-1.76.63-3.38.63-3.13,0-5-2.06-5-5.12s1.81-5.48,4.77-5.48c3.32,0,4.2,2.92,4.2,4.79,0,.38-.04.67-.06.86h-7.14Zm5.42-1.32c.02-1.18-.48-3-2.56-3-1.87,0-2.69,1.72-2.83,3h5.4Z"/><path d="m192.62,164.95c0-1.05-.02-1.91-.08-2.75h1.64l.11,1.68h.04c.5-.97,1.68-1.91,3.36-1.91,1.41,0,3.59.84,3.59,4.33v6.07h-1.85v-5.86c0-1.64-.61-3-2.35-3-1.22,0-2.16.86-2.48,1.89-.08.23-.13.55-.13.86v6.11h-1.85v-7.41Z"/><path d="m205.3,167.62c.04,2.5,1.64,3.53,3.49,3.53,1.32,0,2.12-.23,2.81-.52l.32,1.32c-.65.29-1.76.63-3.38.63-3.13,0-5-2.06-5-5.12s1.81-5.48,4.77-5.48c3.32,0,4.2,2.92,4.2,4.79,0,.38-.04.67-.06.86h-7.14Zm5.42-1.32c.02-1.18-.48-3-2.56-3-1.87,0-2.69,1.72-2.83,3h5.4Z"/><path d="m214.79,165.37c0-1.2-.02-2.23-.08-3.17h1.62l.06,2h.08c.46-1.37,1.58-2.23,2.81-2.23.21,0,.36.02.53.06v1.74c-.19-.04-.38-.06-.63-.06-1.3,0-2.23.99-2.48,2.37-.04.25-.08.55-.08.86v5.42h-1.83v-6.99Z"/><path d="m227.18,172.36l-.15-1.28h-.06c-.57.8-1.66,1.51-3.11,1.51-2.06,0-3.11-1.45-3.11-2.92,0-2.46,2.18-3.8,6.11-3.78v-.21c0-.84-.23-2.35-2.31-2.35-.95,0-1.93.29-2.65.76l-.42-1.22c.84-.55,2.06-.9,3.34-.9,3.11,0,3.86,2.12,3.86,4.16v3.8c0,.88.04,1.74.17,2.44h-1.68Zm-.27-5.19c-2.02-.04-4.3.31-4.3,2.29,0,1.2.8,1.76,1.74,1.76,1.32,0,2.16-.84,2.46-1.7.06-.19.11-.4.11-.59v-1.76Z"/><path d="m233.82,159.28v2.92h2.65v1.41h-2.65v5.48c0,1.26.36,1.97,1.39,1.97.48,0,.84-.06,1.07-.13l.08,1.39c-.36.15-.92.25-1.64.25-.86,0-1.55-.27-2-.78-.52-.55-.71-1.45-.71-2.65v-5.54h-1.57v-1.41h1.57v-2.44l1.81-.48Z"/><path d="m240.6,159.34c.02.63-.44,1.13-1.18,1.13-.65,0-1.11-.5-1.11-1.13s.48-1.15,1.16-1.15,1.13.5,1.13,1.15Zm-2.06,13.02v-10.16h1.85v10.16h-1.85Z"/><path d="m252.65,167.2c0,3.76-2.6,5.4-5.06,5.4-2.75,0-4.87-2.02-4.87-5.23,0-3.4,2.23-5.4,5.04-5.4s4.89,2.12,4.89,5.23Zm-8.06.11c0,2.23,1.28,3.91,3.09,3.91s3.09-1.66,3.09-3.95c0-1.72-.86-3.91-3.04-3.91s-3.13,2.02-3.13,3.95Z"/><path d="m254.99,164.95c0-1.05-.02-1.91-.08-2.75h1.64l.11,1.68h.04c.5-.97,1.68-1.91,3.36-1.91,1.41,0,3.59.84,3.59,4.33v6.07h-1.85v-5.86c0-1.64-.61-3-2.35-3-1.22,0-2.16.86-2.48,1.89-.08.23-.13.55-.13.86v6.11h-1.85v-7.41Z"/></g><ellipse class="m" cx="393.23" cy="160.62" rx="33.23" ry="5.54"/><path class="m" d="m426.46,188.31c0,3.06-14.88,5.54-33.23,5.54s-33.23-2.48-33.23-5.54v-27.69c0,3.06,14.88,5.54,33.23,5.54s33.23-2.48,33.23-5.54v27.69Z"/><g><path d="m365.94,179.55c.51.31,1.25.57,2.03.57,1.16,0,1.83-.61,1.83-1.5,0-.82-.47-1.29-1.65-1.74-1.43-.51-2.31-1.25-2.31-2.48,0-1.37,1.13-2.38,2.83-2.38.9,0,1.55.21,1.94.43l-.31.92c-.29-.16-.87-.42-1.66-.42-1.2,0-1.65.71-1.65,1.31,0,.82.53,1.22,1.74,1.69,1.48.57,2.24,1.29,2.24,2.57,0,1.35-1,2.52-3.07,2.52-.84,0-1.77-.25-2.24-.56l.29-.95Z"/><path d="m372.47,176.33c0-.65-.01-1.18-.05-1.7h1.01l.07,1.04h.03c.31-.6,1.04-1.18,2.08-1.18.87,0,2.22.52,2.22,2.68v3.76h-1.14v-3.63c0-1.01-.38-1.86-1.46-1.86-.75,0-1.34.53-1.53,1.17-.05.14-.08.34-.08.53v3.78h-1.14v-4.59Z"/><path d="m383.17,180.92l-.09-.79h-.04c-.35.49-1.03.94-1.92.94-1.27,0-1.92-.9-1.92-1.81,0-1.52,1.35-2.35,3.78-2.34v-.13c0-.52-.14-1.46-1.43-1.46-.59,0-1.2.18-1.64.47l-.26-.75c.52-.34,1.27-.56,2.07-.56,1.92,0,2.39,1.31,2.39,2.57v2.35c0,.55.03,1.08.1,1.51h-1.04Zm-.17-3.21c-1.25-.03-2.67.19-2.67,1.42,0,.74.49,1.09,1.08,1.09.82,0,1.34-.52,1.52-1.05.04-.12.06-.25.06-.36v-1.09Z"/><path d="m385.95,176.69c0-.81-.03-1.46-.05-2.05h1.03l.05,1.08h.03c.47-.77,1.21-1.22,2.24-1.22,1.52,0,2.67,1.29,2.67,3.2,0,2.26-1.38,3.38-2.86,3.38-.83,0-1.56-.36-1.94-.99h-.03v3.42h-1.13v-6.81Zm1.13,1.68c0,.17.03.33.05.47.21.79.9,1.34,1.72,1.34,1.21,0,1.91-.99,1.91-2.43,0-1.26-.66-2.34-1.87-2.34-.78,0-1.51.56-1.73,1.42-.04.14-.08.31-.08.47v1.08Z"/><path d="m393.19,179.75c.34.22.94.46,1.51.46.83,0,1.22-.42,1.22-.94s-.33-.84-1.17-1.16c-1.13-.4-1.66-1.03-1.66-1.78,0-1.01.82-1.85,2.17-1.85.64,0,1.2.18,1.55.39l-.29.83c-.25-.16-.7-.36-1.29-.36-.68,0-1.05.39-1.05.86,0,.52.38.75,1.2,1.07,1.09.42,1.65.96,1.65,1.9,0,1.1-.86,1.88-2.35,1.88-.69,0-1.33-.17-1.77-.43l.29-.87Z"/><path d="m398.5,171.69h1.14v3.93h.03c.18-.33.47-.61.82-.81.34-.2.74-.33,1.17-.33.84,0,2.2.52,2.2,2.69v3.74h-1.14v-3.61c0-1.01-.38-1.87-1.46-1.87-.74,0-1.33.52-1.53,1.14-.06.16-.08.33-.08.55v3.8h-1.14v-9.23Z"/><path d="m411.4,177.73c0,2.33-1.61,3.34-3.13,3.34-1.7,0-3.02-1.25-3.02-3.24,0-2.11,1.38-3.34,3.12-3.34s3.03,1.31,3.03,3.24Zm-4.99.06c0,1.38.79,2.42,1.91,2.42s1.91-1.03,1.91-2.44c0-1.07-.53-2.42-1.89-2.42s-1.94,1.25-1.94,2.44Z"/><path d="m414.22,172.82v1.81h1.64v.87h-1.64v3.39c0,.78.22,1.22.86,1.22.3,0,.52-.04.66-.08l.05.86c-.22.09-.57.16-1.01.16-.53,0-.96-.17-1.23-.48-.33-.34-.44-.9-.44-1.64v-3.43h-.97v-.87h.97v-1.51l1.12-.3Z"/><path d="m416.99,179.75c.34.22.94.46,1.51.46.83,0,1.22-.42,1.22-.94s-.33-.84-1.17-1.16c-1.13-.4-1.66-1.03-1.66-1.78,0-1.01.82-1.85,2.17-1.85.64,0,1.2.18,1.55.39l-.29.83c-.25-.16-.7-.36-1.29-.36-.68,0-1.05.39-1.05.86,0,.52.38.75,1.2,1.07,1.09.42,1.65.96,1.65,1.9,0,1.1-.86,1.88-2.35,1.88-.69,0-1.33-.17-1.77-.43l.29-.87Z"/></g><g><line class="k" x1="288" y1="174.44" x2="346" y2="174.44"/><polygon points="342.87 179.03 360 174.44 342.87 169.85 342.87 179.03"/></g><g><ellipse class="n" cx="260.31" cy="371.08" rx="22.15" ry="5.54"/><path class="n" d="m282.46,415.38c0,3.06-9.92,5.54-22.15,5.54s-22.15-2.48-22.15-5.54v-44.31c0,3.06,9.92,5.54,22.15,5.54s22.15-2.48,22.15-5.54v44.31Z"/></g><g><path d="m250.2,382.52h.87v6.01h2.88v.73h-3.75v-6.74Z"/><path d="m259.13,386.79c0,1.79-1.24,2.57-2.41,2.57-1.31,0-2.32-.96-2.32-2.49,0-1.62,1.06-2.57,2.4-2.57s2.33,1.01,2.33,2.49Zm-3.84.05c0,1.06.61,1.86,1.47,1.86s1.47-.79,1.47-1.88c0-.82-.41-1.86-1.45-1.86s-1.49.96-1.49,1.88Z"/><path d="m263.69,389.07c-.23.12-.74.28-1.39.28-1.46,0-2.41-.99-2.41-2.47s1.02-2.57,2.6-2.57c.52,0,.98.13,1.22.25l-.2.68c-.21-.12-.54-.23-1.02-.23-1.11,0-1.71.82-1.71,1.83,0,1.12.72,1.81,1.68,1.81.5,0,.83-.13,1.08-.24l.15.66Z"/><path d="m267.4,389.25l-.07-.61h-.03c-.27.38-.79.72-1.48.72-.98,0-1.48-.69-1.48-1.39,0-1.17,1.04-1.81,2.91-1.8v-.1c0-.4-.11-1.12-1.1-1.12-.45,0-.92.14-1.26.36l-.2-.58c.4-.26.98-.43,1.59-.43,1.48,0,1.84,1.01,1.84,1.98v1.81c0,.42.02.83.08,1.16h-.8Zm-.13-2.47c-.96-.02-2.05.15-2.05,1.09,0,.57.38.84.83.84.63,0,1.03-.4,1.17-.81.03-.09.05-.19.05-.28v-.84Z"/><path d="m269.54,382.16h.88v7.1h-.88v-7.1Z"/><path d="m250.32,400.19c.39.24.96.44,1.56.44.89,0,1.41-.47,1.41-1.15,0-.63-.36-.99-1.27-1.34-1.1-.39-1.78-.96-1.78-1.91,0-1.05.87-1.83,2.18-1.83.69,0,1.19.16,1.49.33l-.24.71c-.22-.12-.67-.32-1.28-.32-.92,0-1.27.55-1.27,1.01,0,.63.41.94,1.34,1.3,1.14.44,1.72.99,1.72,1.98,0,1.04-.77,1.94-2.36,1.94-.65,0-1.36-.19-1.72-.43l.22-.73Z"/><path d="m256.37,395.03v1.39h1.26v.67h-1.26v2.61c0,.6.17.94.66.94.23,0,.4-.03.51-.06l.04.66c-.17.07-.44.12-.78.12-.41,0-.74-.13-.95-.37-.25-.26-.34-.69-.34-1.26v-2.64h-.75v-.67h.75v-1.16l.86-.23Z"/><path d="m261.3,401.25l-.07-.61h-.03c-.27.38-.79.72-1.48.72-.98,0-1.48-.69-1.48-1.39,0-1.17,1.04-1.81,2.91-1.8v-.1c0-.4-.11-1.12-1.1-1.12-.45,0-.92.14-1.26.36l-.2-.58c.4-.26.98-.43,1.59-.43,1.48,0,1.84,1.01,1.84,1.98v1.81c0,.42.02.83.08,1.16h-.8Zm-.13-2.47c-.96-.02-2.05.15-2.05,1.09,0,.57.38.84.83.84.63,0,1.03-.4,1.17-.81.03-.09.05-.19.05-.28v-.84Z"/><path d="m264.46,395.03v1.39h1.26v.67h-1.26v2.61c0,.6.17.94.66.94.23,0,.4-.03.51-.06l.04.66c-.17.07-.44.12-.78.12-.41,0-.74-.13-.95-.37-.25-.26-.34-.69-.34-1.26v-2.64h-.75v-.67h.75v-1.16l.86-.23Z"/><path d="m267.14,399c.02,1.19.78,1.68,1.66,1.68.63,0,1.01-.11,1.34-.25l.15.63c-.31.14-.84.3-1.61.3-1.49,0-2.38-.98-2.38-2.44s.86-2.61,2.27-2.61c1.58,0,2,1.39,2,2.28,0,.18-.02.32-.03.41h-3.4Zm2.58-.63c0-.56-.23-1.43-1.22-1.43-.89,0-1.28.82-1.35,1.43h2.57Z"/><path d="m252.98,413.03c-.32.16-.96.32-1.78.32-1.9,0-3.33-1.2-3.33-3.41s1.43-3.54,3.52-3.54c.84,0,1.37.18,1.6.3l-.21.71c-.33-.16-.8-.28-1.36-.28-1.58,0-2.63,1.01-2.63,2.78,0,1.65.95,2.71,2.59,2.71.53,0,1.07-.11,1.42-.28l.18.69Z"/><path d="m256.65,413.25l-.07-.61h-.03c-.27.38-.79.72-1.48.72-.98,0-1.48-.69-1.48-1.39,0-1.17,1.04-1.81,2.91-1.8v-.1c0-.4-.11-1.12-1.1-1.12-.45,0-.92.14-1.26.36l-.2-.58c.4-.26.98-.43,1.59-.43,1.48,0,1.84,1.01,1.84,1.98v1.81c0,.42.02.83.08,1.16h-.8Zm-.13-2.47c-.96-.02-2.05.15-2.05,1.09,0,.57.38.84.83.84.63,0,1.03-.4,1.17-.81.03-.09.05-.19.05-.28v-.84Z"/><path d="m262.24,413.07c-.23.12-.74.28-1.39.28-1.46,0-2.41-.99-2.41-2.47s1.02-2.57,2.6-2.57c.52,0,.98.13,1.22.25l-.2.68c-.21-.12-.54-.23-1.02-.23-1.11,0-1.71.82-1.71,1.83,0,1.12.72,1.81,1.68,1.81.5,0,.83-.13,1.08-.24l.15.66Z"/><path d="m263.27,406.16h.88v3.02h.02c.14-.25.36-.47.63-.62.26-.15.57-.25.9-.25.65,0,1.69.4,1.69,2.07v2.88h-.88v-2.78c0-.78-.29-1.44-1.12-1.44-.57,0-1.02.4-1.18.88-.05.12-.06.25-.06.42v2.92h-.88v-7.1Z"/><path d="m269.31,411c.02,1.19.78,1.68,1.66,1.68.63,0,1.01-.11,1.34-.25l.15.63c-.31.14-.84.3-1.61.3-1.49,0-2.38-.98-2.38-2.44s.86-2.61,2.27-2.61c1.58,0,2,1.39,2,2.28,0,.18-.02.32-.03.41h-3.4Zm2.58-.63c0-.56-.23-1.43-1.22-1.43-.89,0-1.28.82-1.35,1.43h2.57Z"/></g><rect class="i" x="216" y="315.69" width="99.69" height="38.77"/><g><path d="m221.32,337.73c.26.17.72.35,1.16.35.64,0,.94-.32.94-.72s-.25-.65-.9-.89c-.87-.31-1.28-.79-1.28-1.37,0-.78.63-1.42,1.67-1.42.49,0,.92.14,1.19.3l-.22.64c-.19-.12-.54-.28-.99-.28-.52,0-.81.3-.81.66,0,.4.29.58.92.82.84.32,1.27.74,1.27,1.46,0,.85-.66,1.45-1.81,1.45-.53,0-1.02-.13-1.36-.33l.22-.67Z"/><path d="m226.46,332.4v1.39h1.26v.67h-1.26v2.61c0,.6.17.94.66.94.23,0,.4-.03.51-.06l.04.66c-.17.07-.44.12-.78.12-.41,0-.74-.13-.95-.37-.25-.26-.34-.69-.34-1.26v-2.64h-.75v-.67h.75v-1.16l.86-.23Z"/><path d="m231.39,338.63l-.07-.61h-.03c-.27.38-.79.72-1.48.72-.98,0-1.48-.69-1.48-1.39,0-1.17,1.04-1.81,2.91-1.8v-.1c0-.4-.11-1.12-1.1-1.12-.45,0-.92.14-1.26.36l-.2-.58c.4-.26.98-.43,1.59-.43,1.48,0,1.84,1.01,1.84,1.98v1.81c0,.42.02.83.08,1.16h-.8Zm-.13-2.47c-.96-.02-2.05.15-2.05,1.09,0,.57.38.84.83.84.63,0,1.03-.4,1.17-.81.03-.09.05-.19.05-.28v-.84Z"/><path d="m234.55,332.4v1.39h1.26v.67h-1.26v2.61c0,.6.17.94.66.94.23,0,.4-.03.51-.06l.04.66c-.17.07-.44.12-.78.12-.41,0-.74-.13-.95-.37-.25-.26-.34-.69-.34-1.26v-2.64h-.75v-.67h.75v-1.16l.86-.23Z"/><path d="m237.23,336.37c.02,1.19.78,1.68,1.66,1.68.63,0,1.01-.11,1.34-.25l.15.63c-.31.14-.84.3-1.61.3-1.49,0-2.38-.98-2.38-2.44s.86-2.61,2.27-2.61c1.58,0,2,1.39,2,2.28,0,.18-.02.32-.03.41h-3.4Zm2.58-.63c.01-.56-.23-1.43-1.22-1.43-.89,0-1.28.82-1.35,1.43h2.57Z"/><path d="m242.61,331.78c-.23.84-.66,1.91-.94,2.37l-.56.07c.22-.59.48-1.63.59-2.35l.91-.09Z"/><path d="m244.5,335.26v-.6h5.16v.6h-5.16Zm0,1.96v-.6h5.16v.6h-5.16Z"/><path d="m253,338.63v-4.17h-.68v-.67h.68v-.23c0-.68.15-1.3.56-1.69.33-.32.77-.45,1.18-.45.31,0,.58.07.75.14l-.12.68c-.13-.06-.31-.11-.56-.11-.75,0-.94.66-.94,1.4v.26h1.17v.67h-1.17v4.17h-.87Z"/><path d="m257.74,331.69c-.73.98-1.26,2.28-1.26,4.09s.55,3.06,1.26,4.06h-.69c-.63-.83-1.31-2.11-1.31-4.06,0-1.97.68-3.25,1.31-4.09h.69Z"/><path d="m258.55,337.73c.26.17.72.35,1.16.35.64,0,.94-.32.94-.72s-.25-.65-.9-.89c-.87-.31-1.28-.79-1.28-1.37,0-.78.63-1.42,1.67-1.42.49,0,.92.14,1.19.3l-.22.64c-.19-.12-.54-.28-.99-.28-.52,0-.81.3-.81.66,0,.4.29.58.92.82.84.32,1.27.74,1.27,1.46,0,.85-.66,1.45-1.81,1.45-.53,0-1.02-.13-1.36-.33l.22-.67Z"/><path d="m263.69,332.4v1.39h1.26v.67h-1.26v2.61c0,.6.17.94.66.94.23,0,.4-.03.51-.06l.04.66c-.17.07-.44.12-.78.12-.41,0-.74-.13-.95-.37-.25-.26-.34-.69-.34-1.26v-2.64h-.75v-.67h.75v-1.16l.86-.23Z"/><path d="m268.61,338.63l-.07-.61h-.03c-.27.38-.79.72-1.48.72-.98,0-1.48-.69-1.48-1.39,0-1.17,1.04-1.81,2.91-1.8v-.1c0-.4-.11-1.12-1.1-1.12-.45,0-.92.14-1.26.36l-.2-.58c.4-.26.98-.43,1.59-.43,1.48,0,1.84,1.01,1.84,1.98v1.81c0,.42.02.83.08,1.16h-.8Zm-.13-2.47c-.96-.02-2.05.15-2.05,1.09,0,.57.38.84.83.84.63,0,1.03-.4,1.17-.81.03-.09.05-.19.05-.28v-.84Z"/><path d="m271.78,332.4v1.39h1.26v.67h-1.26v2.61c0,.6.17.94.66.94.23,0,.4-.03.51-.06l.04.66c-.17.07-.44.12-.78.12-.41,0-.74-.13-.95-.37-.25-.26-.34-.69-.34-1.26v-2.64h-.75v-.67h.75v-1.16l.86-.23Z"/><path d="m274.46,336.37c.02,1.19.78,1.68,1.66,1.68.63,0,1.01-.11,1.34-.25l.15.63c-.31.14-.84.3-1.61.3-1.49,0-2.38-.98-2.38-2.44s.86-2.61,2.27-2.61c1.58,0,2,1.39,2,2.28,0,.18-.02.32-.03.41h-3.4Zm2.58-.63c0-.56-.23-1.43-1.22-1.43-.89,0-1.28.82-1.35,1.43h2.57Z"/><path d="m278.29,339.86c.22-.59.49-1.66.6-2.39l.98-.1c-.23.85-.67,1.96-.95,2.43l-.63.06Z"/><path d="m283.54,336.37c.02,1.19.78,1.68,1.66,1.68.63,0,1.01-.11,1.34-.25l.15.63c-.31.14-.84.3-1.61.3-1.49,0-2.38-.98-2.38-2.44s.86-2.61,2.27-2.61c1.58,0,2,1.39,2,2.28,0,.18-.02.32-.03.41h-3.4Zm2.58-.63c0-.56-.23-1.43-1.22-1.43-.89,0-1.28.82-1.35,1.43h2.57Z"/><path d="m288.4,333.79l.95,2.72c.16.44.29.84.39,1.24h.03c.11-.4.25-.8.41-1.24l.94-2.72h.92l-1.9,4.84h-.84l-1.84-4.84h.94Z"/><path d="m293.25,336.37c.02,1.19.78,1.68,1.66,1.68.63,0,1.01-.11,1.34-.25l.15.63c-.31.14-.84.3-1.61.3-1.49,0-2.38-.98-2.38-2.44s.86-2.61,2.27-2.61c1.58,0,2,1.39,2,2.28,0,.18-.02.32-.03.41h-3.4Zm2.58-.63c.01-.56-.23-1.43-1.22-1.43-.89,0-1.28.82-1.35,1.43h2.57Z"/><path d="m297.78,335.1c0-.5,0-.91-.04-1.31h.78l.05.8h.02c.24-.46.8-.91,1.6-.91.67,0,1.71.4,1.71,2.06v2.89h-.88v-2.79c0-.78-.29-1.43-1.12-1.43-.58,0-1.03.41-1.18.9-.04.11-.06.26-.06.41v2.91h-.88v-3.53Z"/><path d="m304.34,332.4v1.39h1.26v.67h-1.26v2.61c0,.6.17.94.66.94.23,0,.4-.03.51-.06l.04.66c-.17.07-.44.12-.78.12-.41,0-.74-.13-.95-.37-.25-.26-.34-.69-.34-1.26v-2.64h-.75v-.67h.75v-1.16l.86-.23Z"/><path d="m307.92,331.78c-.23.84-.66,1.91-.94,2.37l-.56.07c.22-.59.48-1.63.59-2.35l.91-.09Z"/><path d="m308.34,339.84c.71-.99,1.26-2.29,1.26-4.09s-.54-3.07-1.26-4.06h.68c.64.82,1.31,2.1,1.31,4.07s-.67,3.23-1.31,4.08h-.68Z"/></g><rect class="i" x="132.92" y="470.77" width="260.31" height="38.77"/><g><path d="m200.88,497.61l-3.59-14.15h1.93l1.68,7.16c.42,1.76.8,3.53,1.05,4.89h.04c.23-1.41.67-3.09,1.16-4.91l1.89-7.14h1.91l1.72,7.18c.4,1.68.78,3.36.99,4.85h.04c.29-1.55.69-3.13,1.13-4.89l1.87-7.14h1.87l-4.01,14.15h-1.91l-1.78-7.37c-.44-1.81-.74-3.19-.92-4.62h-.04c-.25,1.41-.57,2.79-1.09,4.62l-2.02,7.37h-1.91Z"/><path d="m216.6,492.86c.04,2.5,1.64,3.53,3.49,3.53,1.32,0,2.12-.23,2.81-.52l.31,1.32c-.65.29-1.76.63-3.38.63-3.13,0-5-2.06-5-5.12s1.81-5.48,4.77-5.48c3.32,0,4.2,2.92,4.2,4.79,0,.38-.04.67-.06.86h-7.14Zm5.42-1.32c.02-1.18-.48-3-2.56-3-1.87,0-2.69,1.72-2.83,3h5.4Z"/><path d="m226.01,497.61c.04-.69.08-1.72.08-2.62v-12.28h1.83v6.38h.04c.65-1.13,1.83-1.87,3.46-1.87,2.52,0,4.3,2.1,4.28,5.19,0,3.63-2.29,5.44-4.56,5.44-1.47,0-2.65-.57-3.4-1.91h-.06l-.08,1.68h-1.6Zm1.91-4.07c0,.23.04.46.08.67.36,1.28,1.43,2.16,2.77,2.16,1.93,0,3.09-1.58,3.09-3.91,0-2.04-1.05-3.78-3.02-3.78-1.26,0-2.44.86-2.81,2.27-.04.21-.11.46-.11.76v1.83Z"/><path d="m244.85,493.16l-1.47,4.45h-1.89l4.81-14.15h2.2l4.83,14.15h-1.95l-1.51-4.45h-5.02Zm4.64-1.43l-1.39-4.07c-.31-.92-.52-1.76-.73-2.58h-.04c-.21.84-.44,1.7-.71,2.56l-1.39,4.09h4.26Z"/><path d="m255.29,490.76c0-1.3-.04-2.35-.08-3.32h1.66l.08,1.74h.04c.76-1.24,1.95-1.97,3.61-1.97,2.46,0,4.3,2.08,4.3,5.17,0,3.65-2.23,5.46-4.62,5.46-1.34,0-2.52-.59-3.13-1.6h-.04v5.52h-1.83v-11Zm1.83,2.71c0,.27.04.52.08.76.34,1.28,1.45,2.16,2.77,2.16,1.95,0,3.09-1.6,3.09-3.93,0-2.04-1.07-3.78-3.02-3.78-1.26,0-2.44.9-2.79,2.29-.06.23-.13.5-.13.76v1.74Z"/><path d="m267.24,490.76c0-1.3-.04-2.35-.08-3.32h1.66l.08,1.74h.04c.76-1.24,1.95-1.97,3.61-1.97,2.46,0,4.3,2.08,4.3,5.17,0,3.65-2.23,5.46-4.62,5.46-1.34,0-2.52-.59-3.13-1.6h-.04v5.52h-1.83v-11Zm1.83,2.71c0,.27.04.52.08.76.34,1.28,1.45,2.16,2.77,2.16,1.95,0,3.09-1.6,3.09-3.93,0-2.04-1.07-3.78-3.02-3.78-1.26,0-2.44.9-2.79,2.29-.06.23-.13.5-.13.76v1.74Z"/><path d="m283.7,483.46h1.83v12.62h6.05v1.53h-7.87v-14.15Z"/><path d="m302.45,492.44c0,3.76-2.6,5.4-5.06,5.4-2.75,0-4.87-2.02-4.87-5.23,0-3.4,2.23-5.4,5.04-5.4s4.89,2.12,4.89,5.23Zm-8.06.11c0,2.23,1.28,3.91,3.09,3.91s3.09-1.66,3.09-3.95c0-1.72-.86-3.91-3.04-3.91s-3.13,2.02-3.13,3.95Z"/><path d="m313.54,487.45c-.04.74-.08,1.55-.08,2.79v5.9c0,2.33-.46,3.76-1.45,4.64-.99.92-2.41,1.22-3.7,1.22s-2.56-.29-3.38-.84l.46-1.41c.67.42,1.72.8,2.98.8,1.89,0,3.28-.99,3.28-3.55v-1.13h-.04c-.57.94-1.66,1.7-3.23,1.7-2.52,0-4.32-2.14-4.32-4.96,0-3.44,2.25-5.4,4.58-5.4,1.76,0,2.73.92,3.17,1.76h.04l.08-1.53h1.62Zm-1.91,4.01c0-.32-.02-.59-.1-.84-.34-1.07-1.24-1.95-2.58-1.95-1.76,0-3.02,1.49-3.02,3.84,0,1.99,1.01,3.65,3,3.65,1.13,0,2.16-.71,2.56-1.89.11-.32.15-.67.15-.99v-1.83Z"/><path d="m318.45,484.59c.02.63-.44,1.13-1.18,1.13-.65,0-1.11-.5-1.11-1.13s.48-1.15,1.16-1.15,1.13.5,1.13,1.15Zm-2.06,13.02v-10.16h1.85v10.16h-1.85Z"/><path d="m328.55,497.23c-.48.25-1.55.59-2.92.59-3.06,0-5.06-2.08-5.06-5.19s2.14-5.4,5.46-5.4c1.09,0,2.06.27,2.56.53l-.42,1.43c-.44-.25-1.13-.48-2.14-.48-2.33,0-3.59,1.72-3.59,3.84,0,2.35,1.51,3.8,3.53,3.8,1.05,0,1.74-.27,2.27-.5l.32,1.39Z"/></g><rect class="i" x="216" y="254.77" width="99.69" height="33.23"/><g><path d="m232.89,262.2h3.63v.73h-2.76v2.24h2.55v.72h-2.55v3.05h-.87v-6.74Z"/><path d="m237.91,266.68c.02,1.19.78,1.68,1.66,1.68.63,0,1.01-.11,1.34-.25l.15.63c-.31.14-.84.3-1.61.3-1.49,0-2.38-.98-2.38-2.44s.86-2.61,2.27-2.61c1.58,0,2,1.39,2,2.28,0,.18-.02.32-.03.41h-3.4Zm2.58-.63c.01-.56-.23-1.43-1.22-1.43-.89,0-1.28.82-1.35,1.43h2.57Z"/><path d="m242.92,266.68c.02,1.19.78,1.68,1.66,1.68.63,0,1.01-.11,1.34-.25l.15.63c-.31.14-.84.3-1.61.3-1.49,0-2.38-.98-2.38-2.44s.86-2.61,2.27-2.61c1.58,0,2,1.39,2,2.28,0,.18-.02.32-.03.41h-3.4Zm2.58-.63c.01-.56-.23-1.43-1.22-1.43-.89,0-1.28.82-1.35,1.43h2.57Z"/><path d="m251.61,261.84v5.85c0,.43.01.92.04,1.25h-.79l-.04-.84h-.02c-.27.54-.86.95-1.65.95-1.17,0-2.07-.99-2.07-2.46-.01-1.61.99-2.6,2.17-2.6.74,0,1.24.35,1.46.74h.02v-2.89h.88Zm-.88,4.23c0-.11,0-.26-.04-.37-.13-.56-.61-1.02-1.27-1.02-.91,0-1.45.8-1.45,1.87,0,.98.48,1.79,1.43,1.79.59,0,1.13-.39,1.29-1.05.03-.12.04-.24.04-.38v-.84Z"/><path d="m255.2,261.84h.88v7.1h-.88v-7.1Z"/><path d="m260.23,268.93l-.07-.61h-.03c-.27.38-.79.72-1.48.72-.98,0-1.48-.69-1.48-1.39,0-1.17,1.04-1.81,2.91-1.8v-.1c0-.4-.11-1.12-1.1-1.12-.45,0-.92.14-1.26.36l-.2-.58c.4-.26.98-.43,1.59-.43,1.48,0,1.84,1.01,1.84,1.98v1.81c0,.42.02.83.08,1.16h-.8Zm-.13-2.47c-.96-.02-2.05.15-2.05,1.09,0,.57.38.84.83.84.63,0,1.03-.4,1.17-.81.03-.09.05-.19.05-.28v-.84Z"/><path d="m263.4,262.71v1.39h1.26v.67h-1.26v2.61c0,.6.17.94.66.94.23,0,.4-.03.51-.06l.04.66c-.17.07-.44.12-.78.12-.41,0-.74-.13-.95-.37-.25-.26-.34-.69-.34-1.26v-2.64h-.75v-.67h.75v-1.16l.86-.23Z"/><path d="m266.08,266.68c.02,1.19.78,1.68,1.66,1.68.63,0,1.01-.11,1.34-.25l.15.63c-.31.14-.84.3-1.61.3-1.49,0-2.38-.98-2.38-2.44s.86-2.61,2.27-2.61c1.58,0,2,1.39,2,2.28,0,.18-.02.32-.03.41h-3.4Zm2.58-.63c.01-.56-.23-1.43-1.22-1.43-.89,0-1.28.82-1.35,1.43h2.57Z"/><path d="m270.48,268.04c.26.17.72.35,1.16.35.64,0,.94-.32.94-.72,0-.42-.25-.65-.9-.89-.87-.31-1.28-.79-1.28-1.37,0-.78.63-1.42,1.67-1.42.49,0,.92.14,1.19.3l-.22.64c-.19-.12-.54-.28-.99-.28-.52,0-.81.3-.81.66,0,.4.29.58.92.82.84.32,1.27.74,1.27,1.46,0,.85-.66,1.45-1.81,1.45-.53,0-1.02-.13-1.36-.33l.22-.67Z"/><path d="m275.62,262.71v1.39h1.26v.67h-1.26v2.61c0,.6.17.94.66.94.23,0,.4-.03.51-.06l.04.66c-.17.07-.44.12-.78.12-.41,0-.74-.13-.95-.37-.25-.26-.34-.69-.34-1.26v-2.64h-.75v-.67h.75v-1.16l.86-.23Z"/><path d="m279.87,268.04c.26.17.72.35,1.16.35.64,0,.94-.32.94-.72,0-.42-.25-.65-.9-.89-.87-.31-1.28-.79-1.28-1.37,0-.78.63-1.42,1.67-1.42.49,0,.92.14,1.19.3l-.22.64c-.19-.12-.54-.28-.99-.28-.52,0-.81.3-.81.66,0,.4.29.58.92.82.84.32,1.27.74,1.27,1.46,0,.85-.66,1.45-1.81,1.45-.53,0-1.02-.13-1.36-.33l.22-.67Z"/><path d="m285,262.71v1.39h1.26v.67h-1.26v2.61c0,.6.17.94.66.94.23,0,.4-.03.51-.06l.04.66c-.17.07-.44.12-.78.12-.41,0-.74-.13-.95-.37-.25-.26-.34-.69-.34-1.26v-2.64h-.75v-.67h.75v-1.16l.86-.23Z"/><path d="m289.93,268.93l-.07-.61h-.03c-.27.38-.79.72-1.48.72-.98,0-1.48-.69-1.48-1.39,0-1.17,1.04-1.81,2.91-1.8v-.1c0-.4-.11-1.12-1.1-1.12-.45,0-.92.14-1.26.36l-.2-.58c.4-.26.98-.43,1.59-.43,1.48,0,1.84,1.01,1.84,1.98v1.81c0,.42.02.83.08,1.16h-.8Zm-.13-2.47c-.96-.02-2.05.15-2.05,1.09,0,.57.38.84.83.84.63,0,1.03-.4,1.17-.81.03-.09.05-.19.05-.28v-.84Z"/><path d="m293.09,262.71v1.39h1.26v.67h-1.26v2.61c0,.6.17.94.66.94.23,0,.4-.03.51-.06l.04.66c-.17.07-.44.12-.78.12-.41,0-.74-.13-.95-.37-.25-.26-.34-.69-.34-1.26v-2.64h-.75v-.67h.75v-1.16l.86-.23Z"/><path d="m295.78,266.68c.02,1.19.78,1.68,1.66,1.68.63,0,1.01-.11,1.34-.25l.15.63c-.31.14-.84.3-1.61.3-1.49,0-2.38-.98-2.38-2.44s.86-2.61,2.27-2.61c1.58,0,2,1.39,2,2.28,0,.18-.02.32-.03.41h-3.4Zm2.58-.63c0-.56-.23-1.43-1.22-1.43-.89,0-1.28.82-1.35,1.43h2.57Z"/><path d="m225.26,280.93v-4.17h-.68v-.67h.68v-.23c0-.68.15-1.3.56-1.69.33-.32.77-.45,1.18-.45.31,0,.58.07.75.14l-.12.68c-.13-.06-.31-.11-.56-.11-.75,0-.94.66-.94,1.4v.26h1.17v.67h-1.17v4.17h-.87Z"/><path d="m228.09,277.61c0-.57,0-1.06-.04-1.51h.77l.03.95h.04c.22-.65.75-1.06,1.34-1.06.1,0,.17,0,.25.03v.83c-.09-.02-.18-.03-.3-.03-.62,0-1.06.47-1.18,1.13-.02.12-.04.26-.04.41v2.58h-.87v-3.33Z"/><path d="m235.64,278.48c0,1.79-1.24,2.57-2.41,2.57-1.31,0-2.32-.96-2.32-2.49,0-1.62,1.06-2.57,2.4-2.57s2.33,1.01,2.33,2.49Zm-3.84.05c0,1.06.61,1.86,1.47,1.86s1.47-.79,1.47-1.88c0-.82-.41-1.86-1.45-1.86s-1.49.96-1.49,1.88Z"/><path d="m236.75,277.41c0-.5,0-.91-.04-1.31h.77l.04.78h.03c.27-.46.72-.89,1.52-.89.66,0,1.16.4,1.37.97h.02c.15-.27.34-.48.54-.63.29-.22.61-.34,1.07-.34.64,0,1.59.42,1.59,2.1v2.85h-.86v-2.74c0-.93-.34-1.49-1.05-1.49-.5,0-.89.37-1.04.8-.04.12-.07.28-.07.44v2.99h-.86v-2.9c0-.77-.34-1.33-1.01-1.33-.55,0-.95.44-1.09.88-.05.13-.07.28-.07.43v2.92h-.86v-3.53Z"/><path d="m247.09,280.04c.26.17.72.35,1.16.35.64,0,.94-.32.94-.72,0-.42-.25-.65-.9-.89-.87-.31-1.28-.79-1.28-1.37,0-.78.63-1.42,1.67-1.42.49,0,.92.14,1.19.3l-.22.64c-.19-.12-.54-.28-.99-.28-.52,0-.81.3-.81.66,0,.4.29.58.92.82.84.32,1.27.74,1.27,1.46,0,.85-.66,1.45-1.81,1.45-.53,0-1.02-.13-1.36-.33l.22-.67Z"/><path d="m252.23,274.71v1.39h1.26v.67h-1.26v2.61c0,.6.17.94.66.94.23,0,.4-.03.51-.06l.04.66c-.17.07-.44.12-.78.12-.41,0-.74-.13-.95-.37-.25-.26-.34-.69-.34-1.26v-2.64h-.75v-.67h.75v-1.16l.86-.23Z"/><path d="m258.8,278.48c0,1.79-1.24,2.57-2.41,2.57-1.31,0-2.32-.96-2.32-2.49,0-1.62,1.06-2.57,2.4-2.57s2.33,1.01,2.33,2.49Zm-3.84.05c0,1.06.61,1.86,1.47,1.86s1.47-.79,1.47-1.88c0-.82-.41-1.86-1.45-1.86s-1.49.96-1.49,1.88Z"/><path d="m259.91,277.61c0-.57,0-1.06-.04-1.51h.77l.03.95h.04c.22-.65.75-1.06,1.34-1.06.1,0,.17,0,.25.03v.83c-.09-.02-.18-.03-.3-.03-.62,0-1.06.47-1.18,1.13-.02.12-.04.26-.04.41v2.58h-.87v-3.33Z"/><path d="m265.81,280.93l-.07-.61h-.03c-.27.38-.79.72-1.48.72-.98,0-1.48-.69-1.48-1.39,0-1.17,1.04-1.81,2.91-1.8v-.1c0-.4-.11-1.12-1.1-1.12-.45,0-.92.14-1.26.36l-.2-.58c.4-.26.98-.43,1.59-.43,1.48,0,1.84,1.01,1.84,1.98v1.81c0,.42.02.83.08,1.16h-.8Zm-.13-2.47c-.96-.02-2.05.15-2.05,1.09,0,.57.38.84.83.84.63,0,1.03-.4,1.17-.81.03-.09.05-.19.05-.28v-.84Z"/><path d="m272.12,276.1c-.02.35-.04.74-.04,1.33v2.81c0,1.11-.22,1.79-.69,2.21-.47.44-1.15.58-1.76.58s-1.22-.14-1.61-.4l.22-.67c.32.2.82.38,1.42.38.9,0,1.56-.47,1.56-1.69v-.54h-.02c-.27.45-.79.81-1.54.81-1.2,0-2.06-1.02-2.06-2.36,0-1.64,1.07-2.57,2.18-2.57.84,0,1.3.44,1.51.84h.02l.04-.73h.77Zm-.91,1.91c0-.15,0-.28-.05-.4-.16-.51-.59-.93-1.23-.93-.84,0-1.44.71-1.44,1.83,0,.95.48,1.74,1.43,1.74.54,0,1.03-.34,1.22-.9.05-.15.07-.32.07-.47v-.87Z"/><path d="m274.03,278.68c.02,1.19.78,1.68,1.66,1.68.63,0,1.01-.11,1.34-.25l.15.63c-.31.14-.84.3-1.61.3-1.49,0-2.38-.98-2.38-2.44s.86-2.61,2.27-2.61c1.58,0,2,1.39,2,2.28,0,.18-.02.32-.03.41h-3.4Zm2.58-.63c.01-.56-.23-1.43-1.22-1.43-.89,0-1.28.82-1.35,1.43h2.57Z"/><path d="m281.65,274.74c.01.3-.21.54-.56.54-.31,0-.53-.24-.53-.54s.23-.55.55-.55.54.24.54.55Zm-.98,6.2v-4.84h.88v4.84h-.88Z"/><path d="m283.01,277.41c0-.5,0-.91-.04-1.31h.78l.05.8h.02c.24-.46.8-.91,1.6-.91.67,0,1.71.4,1.71,2.06v2.89h-.88v-2.79c0-.78-.29-1.43-1.12-1.43-.58,0-1.03.41-1.18.9-.04.11-.06.26-.06.41v2.91h-.88v-3.53Z"/><path d="m289.58,274.71v1.39h1.26v.67h-1.26v2.61c0,.6.17.94.66.94.23,0,.4-.03.51-.06l.04.66c-.17.07-.44.12-.78.12-.41,0-.74-.13-.95-.37-.25-.26-.34-.69-.34-1.26v-2.64h-.75v-.67h.75v-1.16l.86-.23Z"/><path d="m296.15,278.48c0,1.79-1.24,2.57-2.41,2.57-1.31,0-2.32-.96-2.32-2.49,0-1.62,1.06-2.57,2.4-2.57s2.33,1.01,2.33,2.49Zm-3.84.05c0,1.06.61,1.86,1.47,1.86s1.47-.79,1.47-1.88c0-.82-.41-1.86-1.45-1.86s-1.49.96-1.49,1.88Z"/><path d="m299.47,280.93v-4.17h-.68v-.67h.68v-.23c0-.68.15-1.3.56-1.69.33-.32.77-.45,1.18-.45.31,0,.58.07.75.14l-.12.68c-.13-.06-.31-.11-.56-.11-.75,0-.94.66-.94,1.4v.26h1.17v.67h-1.17v4.17h-.87Z"/><path d="m304.21,274c-.73.98-1.26,2.28-1.26,4.09s.55,3.06,1.26,4.06h-.69c-.63-.83-1.31-2.11-1.31-4.06,0-1.97.68-3.25,1.31-4.09h.69Z"/><path d="m304.61,282.14c.71-.99,1.26-2.29,1.26-4.09s-.54-3.07-1.26-4.06h.68c.64.82,1.31,2.1,1.31,4.07s-.67,3.23-1.31,4.08h-.68Z"/></g><g><line class="k" x1="260.31" y1="470.77" x2="260.31" y2="434.92"/><polygon points="264.9 438.05 260.31 420.92 255.72 438.05 264.9 438.05"/></g><g><polyline class="k" points="199.38 337.85 199.38 299.08 343.38 299.08 343.38 326.77 329.69 326.77"/><polygon points="332.82 322.18 315.69 326.77 332.82 331.36 332.82 322.18"/></g><g><path d="m317.22,314.79c.26.17.72.35,1.16.35.64,0,.94-.32.94-.72s-.25-.65-.9-.89c-.87-.31-1.28-.79-1.28-1.37,0-.78.63-1.42,1.67-1.42.49,0,.92.14,1.19.3l-.22.64c-.19-.12-.54-.28-.99-.28-.52,0-.81.3-.81.66,0,.4.29.58.92.82.84.32,1.27.74,1.27,1.46,0,.85-.66,1.45-1.81,1.45-.53,0-1.02-.13-1.36-.33l.22-.67Z"/><path d="m322.36,309.47v1.39h1.26v.67h-1.26v2.61c0,.6.17.94.66.94.23,0,.4-.03.51-.06l.04.66c-.17.07-.44.12-.78.12-.41,0-.74-.13-.95-.37-.25-.26-.34-.69-.34-1.26v-2.64h-.75v-.67h.75v-1.16l.86-.23Z"/><path d="m327.29,315.69l-.07-.61h-.03c-.27.38-.79.72-1.48.72-.98,0-1.48-.69-1.48-1.39,0-1.17,1.04-1.81,2.91-1.8v-.1c0-.4-.11-1.12-1.1-1.12-.45,0-.92.14-1.26.36l-.2-.58c.4-.26.98-.43,1.59-.43,1.48,0,1.84,1.01,1.84,1.98v1.81c0,.42.02.83.08,1.16h-.8Zm-.13-2.47c-.96-.02-2.05.15-2.05,1.09,0,.57.38.84.83.84.63,0,1.03-.4,1.17-.81.03-.09.05-.19.05-.28v-.84Z"/><path d="m330.45,309.47v1.39h1.26v.67h-1.26v2.61c0,.6.17.94.66.94.23,0,.4-.03.51-.06l.04.66c-.17.07-.44.12-.78.12-.41,0-.74-.13-.95-.37-.25-.26-.34-.69-.34-1.26v-2.64h-.75v-.67h.75v-1.16l.86-.23Z"/><path d="m333.13,313.43c.02,1.19.78,1.68,1.66,1.68.63,0,1.01-.11,1.34-.25l.15.63c-.31.14-.84.3-1.61.3-1.49,0-2.38-.98-2.38-2.44s.86-2.61,2.27-2.61c1.58,0,2,1.39,2,2.28,0,.18-.02.32-.03.41h-3.4Zm2.58-.63c0-.56-.23-1.43-1.22-1.43-.89,0-1.28.82-1.35,1.43h2.57Z"/></g><g><path d="m206.78,371.08l-1.71-6.74h.92l.8,3.41c.2.84.38,1.68.5,2.33h.02c.11-.67.32-1.47.55-2.34l.9-3.4h.91l.82,3.42c.19.8.37,1.6.47,2.31h.02c.14-.74.33-1.49.54-2.33l.89-3.4h.89l-1.91,6.74h-.91l-.85-3.51c-.21-.86-.35-1.52-.44-2.2h-.02c-.12.67-.27,1.33-.52,2.2l-.96,3.51h-.91Z"/><path d="m213.95,367.75c0-.57,0-1.06-.04-1.51h.77l.03.95h.04c.22-.65.75-1.06,1.34-1.06.1,0,.17,0,.25.03v.83c-.09-.02-.18-.03-.3-.03-.62,0-1.06.47-1.18,1.13-.02.12-.04.26-.04.41v2.58h-.87v-3.33Z"/><path d="m218.24,364.88c0,.3-.21.54-.56.54-.31,0-.53-.24-.53-.54s.23-.55.55-.55.54.24.54.55Zm-.98,6.2v-4.84h.88v4.84h-.88Z"/><path d="m220.66,364.85v1.39h1.26v.67h-1.26v2.61c0,.6.17.94.66.94.23,0,.4-.03.51-.06l.04.66c-.17.07-.44.12-.78.12-.41,0-.74-.13-.95-.37-.25-.26-.34-.69-.34-1.26v-2.64h-.75v-.67h.75v-1.16l.86-.23Z"/><path d="m223.34,368.82c.02,1.19.78,1.68,1.66,1.68.63,0,1.01-.11,1.34-.25l.15.63c-.31.14-.84.3-1.61.3-1.49,0-2.38-.98-2.38-2.44s.86-2.61,2.27-2.61c1.58,0,2,1.39,2,2.28,0,.18-.02.32-.03.41h-3.4Zm2.58-.63c0-.56-.23-1.43-1.22-1.43-.89,0-1.28.82-1.35,1.43h2.57Z"/><path d="m205.53,382.18c.26.17.72.35,1.16.35.64,0,.94-.32.94-.72s-.25-.65-.9-.89c-.87-.31-1.28-.79-1.28-1.37,0-.78.63-1.42,1.67-1.42.49,0,.92.14,1.19.3l-.22.64c-.19-.12-.54-.28-.99-.28-.52,0-.81.3-.81.66,0,.4.29.58.92.82.84.32,1.27.74,1.27,1.46,0,.85-.66,1.45-1.81,1.45-.53,0-1.02-.13-1.36-.33l.22-.67Z"/><path d="m210.67,376.85v1.39h1.26v.67h-1.26v2.61c0,.6.17.94.66.94.23,0,.4-.03.51-.06l.04.66c-.17.07-.44.12-.78.12-.41,0-.74-.13-.95-.37-.25-.26-.34-.69-.34-1.26v-2.64h-.75v-.67h.75v-1.16l.86-.23Z"/><path d="m215.6,383.08l-.07-.61h-.03c-.27.38-.79.72-1.48.72-.98,0-1.48-.69-1.48-1.39,0-1.17,1.04-1.81,2.91-1.8v-.1c0-.4-.11-1.12-1.1-1.12-.45,0-.92.14-1.26.36l-.2-.58c.4-.26.98-.43,1.59-.43,1.48,0,1.84,1.01,1.84,1.98v1.81c0,.42.02.83.08,1.16h-.8Zm-.13-2.47c-.96-.02-2.05.15-2.05,1.09,0,.57.38.84.83.84.63,0,1.03-.4,1.17-.81.03-.09.05-.19.05-.28v-.84Z"/><path d="m218.76,376.85v1.39h1.26v.67h-1.26v2.61c0,.6.17.94.66.94.23,0,.4-.03.51-.06l.04.66c-.17.07-.44.12-.78.12-.41,0-.74-.13-.95-.37-.25-.26-.34-.69-.34-1.26v-2.64h-.75v-.67h.75v-1.16l.86-.23Z"/><path d="m221.44,380.82c.02,1.19.78,1.68,1.66,1.68.63,0,1.01-.11,1.34-.25l.15.63c-.31.14-.84.3-1.61.3-1.49,0-2.38-.98-2.38-2.44s.86-2.61,2.27-2.61c1.58,0,2,1.39,2,2.28,0,.18-.02.32-.03.41h-3.4Zm2.58-.63c0-.56-.23-1.43-1.22-1.43-.89,0-1.28.82-1.35,1.43h2.57Z"/></g><g><path d="m175.21,441.97c.44-.09,1.07-.14,1.67-.14.93,0,1.53.17,1.95.55.34.3.53.76.53,1.28,0,.89-.56,1.48-1.27,1.72v.03c.52.18.83.66.99,1.36.22.94.38,1.59.52,1.85h-.9c-.11-.19-.26-.77-.45-1.61-.2-.93-.56-1.28-1.35-1.31h-.82v2.92h-.87v-6.65Zm.87,3.07h.89c.93,0,1.52-.51,1.52-1.28,0-.87-.63-1.25-1.55-1.26-.42,0-.72.04-.86.08v2.46Z"/><path d="m181.09,446.36c.02,1.19.78,1.68,1.66,1.68.63,0,1.01-.11,1.34-.25l.15.63c-.31.14-.84.3-1.61.3-1.49,0-2.38-.98-2.38-2.44s.86-2.61,2.27-2.61c1.58,0,2,1.39,2,2.28,0,.18-.02.32-.03.41h-3.4Zm2.58-.63c0-.56-.23-1.43-1.22-1.43-.89,0-1.28.82-1.35,1.43h2.57Z"/><path d="m188.29,448.62l-.07-.61h-.03c-.27.38-.79.72-1.48.72-.98,0-1.48-.69-1.48-1.39,0-1.17,1.04-1.81,2.91-1.8v-.1c0-.4-.11-1.12-1.1-1.12-.45,0-.92.14-1.26.36l-.2-.58c.4-.26.98-.43,1.59-.43,1.48,0,1.84,1.01,1.84,1.98v1.81c0,.42.02.83.08,1.16h-.8Zm-.13-2.47c-.96-.02-2.05.15-2.05,1.09,0,.57.38.84.83.84.63,0,1.03-.4,1.17-.81.03-.09.05-.19.05-.28v-.84Z"/><path d="m194.61,441.52v5.85c0,.43,0,.92.04,1.25h-.79l-.04-.84h-.02c-.27.54-.86.95-1.65.95-1.17,0-2.07-.99-2.07-2.46,0-1.61.99-2.6,2.17-2.6.74,0,1.24.35,1.46.74h.02v-2.89h.88Zm-.88,4.23c0-.11,0-.26-.04-.37-.13-.56-.61-1.02-1.27-1.02-.91,0-1.45.8-1.45,1.87,0,.98.48,1.79,1.43,1.79.59,0,1.13-.39,1.29-1.05.03-.12.04-.24.04-.38v-.84Z"/><path d="m198.19,445.09c0-.5,0-.91-.04-1.31h.77l.04.78h.03c.27-.46.72-.89,1.52-.89.66,0,1.16.4,1.37.97h.02c.15-.27.34-.48.54-.63.29-.22.61-.34,1.07-.34.64,0,1.59.42,1.59,2.1v2.85h-.86v-2.74c0-.93-.34-1.49-1.05-1.49-.5,0-.89.37-1.04.8-.04.12-.07.28-.07.44v2.99h-.86v-2.9c0-.77-.34-1.33-1.01-1.33-.55,0-.95.44-1.09.88-.05.13-.07.28-.07.43v2.92h-.86v-3.53Z"/><path d="m210.91,446.16c0,1.79-1.24,2.57-2.41,2.57-1.31,0-2.32-.96-2.32-2.49,0-1.62,1.06-2.57,2.4-2.57s2.33,1.01,2.33,2.49Zm-3.84.05c0,1.06.61,1.86,1.47,1.86s1.47-.79,1.47-1.88c0-.82-.41-1.86-1.45-1.86s-1.49.96-1.49,1.88Z"/><path d="m211.9,447.72c.26.17.72.35,1.16.35.64,0,.94-.32.94-.72s-.25-.65-.9-.89c-.87-.31-1.28-.79-1.28-1.37,0-.78.63-1.42,1.67-1.42.49,0,.92.14,1.19.3l-.22.64c-.19-.12-.54-.28-.99-.28-.52,0-.81.3-.81.66,0,.4.29.58.92.82.84.32,1.27.74,1.27,1.46,0,.85-.66,1.45-1.81,1.45-.53,0-1.02-.13-1.36-.33l.22-.67Z"/><path d="m217.04,442.39v1.39h1.26v.67h-1.26v2.61c0,.6.17.94.66.94.23,0,.4-.03.51-.06l.04.66c-.17.07-.44.12-.78.12-.41,0-.74-.13-.95-.37-.25-.26-.34-.69-.34-1.26v-2.64h-.75v-.67h.75v-1.16l.86-.23Z"/><path d="m221.41,445.29c0-.57,0-1.06-.04-1.51h.77l.03.95h.04c.22-.65.75-1.06,1.34-1.06.1,0,.17,0,.25.03v.83c-.09-.02-.18-.03-.3-.03-.62,0-1.06.47-1.18,1.13-.02.12-.04.26-.04.41v2.58h-.87v-3.33Z"/><path d="m225.07,446.36c.02,1.19.78,1.68,1.66,1.68.63,0,1.01-.11,1.34-.25l.15.63c-.31.14-.84.3-1.61.3-1.49,0-2.38-.98-2.38-2.44s.86-2.61,2.27-2.61c1.58,0,2,1.39,2,2.28,0,.18-.02.32-.03.41h-3.4Zm2.58-.63c0-.56-.23-1.43-1.22-1.43-.89,0-1.28.82-1.35,1.43h2.57Z"/><path d="m233.04,448.44c-.23.12-.74.28-1.39.28-1.46,0-2.41-.99-2.41-2.47s1.02-2.57,2.6-2.57c.52,0,.98.13,1.22.25l-.2.68c-.21-.12-.54-.23-1.02-.23-1.11,0-1.71.82-1.71,1.83,0,1.12.72,1.81,1.68,1.81.5,0,.83-.13,1.08-.24l.15.66Z"/><path d="m234.5,446.36c.02,1.19.78,1.68,1.66,1.68.63,0,1.01-.11,1.34-.25l.15.63c-.31.14-.84.3-1.61.3-1.49,0-2.38-.98-2.38-2.44s.86-2.61,2.27-2.61c1.58,0,2,1.39,2,2.28,0,.18-.02.32-.03.41h-3.4Zm2.58-.63c0-.56-.23-1.43-1.22-1.43-.89,0-1.28.82-1.35,1.43h2.57Z"/><path d="m239.02,445.09c0-.5,0-.91-.04-1.31h.78l.05.8h.02c.24-.46.8-.91,1.6-.91.67,0,1.71.4,1.71,2.06v2.89h-.88v-2.79c0-.78-.29-1.43-1.12-1.43-.58,0-1.03.41-1.18.9-.04.11-.06.26-.06.41v2.91h-.88v-3.53Z"/><path d="m245.59,442.39v1.39h1.26v.67h-1.26v2.61c0,.6.17.94.66.94.23,0,.4-.03.51-.06l.04.66c-.17.07-.44.12-.78.12-.41,0-.74-.13-.95-.37-.25-.26-.34-.69-.34-1.26v-2.64h-.75v-.67h.75v-1.16l.86-.23Z"/><path d="m208.02,453.52h.88v7.1h-.88v-7.1Z"/><path d="m214.76,458.16c0,1.79-1.24,2.57-2.41,2.57-1.31,0-2.32-.96-2.32-2.49,0-1.62,1.06-2.57,2.4-2.57s2.33,1.01,2.33,2.49Zm-3.84.05c0,1.06.61,1.86,1.47,1.86s1.47-.79,1.47-1.88c0-.82-.41-1.86-1.45-1.86s-1.49.96-1.49,1.88Z"/><path d="m219.32,460.44c-.23.12-.74.28-1.39.28-1.46,0-2.41-.99-2.41-2.47s1.02-2.57,2.6-2.57c.52,0,.98.13,1.22.25l-.2.68c-.21-.12-.54-.23-1.02-.23-1.11,0-1.71.82-1.71,1.83,0,1.12.72,1.81,1.68,1.81.5,0,.83-.13,1.08-.24l.15.66Z"/><path d="m223.03,460.62l-.07-.61h-.03c-.27.38-.79.72-1.48.72-.98,0-1.48-.69-1.48-1.39,0-1.17,1.04-1.81,2.91-1.8v-.1c0-.4-.11-1.12-1.1-1.12-.45,0-.92.14-1.26.36l-.2-.58c.4-.26.98-.43,1.59-.43,1.48,0,1.84,1.01,1.84,1.98v1.81c0,.42.02.83.08,1.16h-.8Zm-.13-2.47c-.96-.02-2.05.15-2.05,1.09,0,.57.38.84.83.84.63,0,1.03-.4,1.17-.81.03-.09.05-.19.05-.28v-.84Z"/><path d="m225.17,453.52h.88v7.1h-.88v-7.1Z"/><path d="m229.53,459.72c.26.17.72.35,1.16.35.64,0,.94-.32.94-.72s-.25-.65-.9-.89c-.87-.31-1.28-.79-1.28-1.37,0-.78.63-1.42,1.67-1.42.49,0,.92.14,1.19.3l-.22.64c-.19-.12-.54-.28-.99-.28-.52,0-.81.3-.81.66,0,.4.29.58.92.82.84.32,1.27.74,1.27,1.46,0,.85-.66,1.45-1.81,1.45-.53,0-1.02-.13-1.36-.33l.22-.67Z"/><path d="m234.67,454.39v1.39h1.26v.67h-1.26v2.61c0,.6.17.94.66.94.23,0,.4-.03.51-.06l.04.66c-.17.07-.44.12-.78.12-.41,0-.74-.13-.95-.37-.25-.26-.34-.69-.34-1.26v-2.64h-.75v-.67h.75v-1.16l.86-.23Z"/><path d="m239.6,460.62l-.07-.61h-.03c-.27.38-.79.72-1.48.72-.98,0-1.48-.69-1.48-1.39,0-1.17,1.04-1.81,2.91-1.8v-.1c0-.4-.11-1.12-1.1-1.12-.45,0-.92.14-1.26.36l-.2-.58c.4-.26.98-.43,1.59-.43,1.48,0,1.84,1.01,1.84,1.98v1.81c0,.42.02.83.08,1.16h-.8Zm-.13-2.47c-.96-.02-2.05.15-2.05,1.09,0,.57.38.84.83.84.63,0,1.03-.4,1.17-.81.03-.09.05-.19.05-.28v-.84Z"/><path d="m242.76,454.39v1.39h1.26v.67h-1.26v2.61c0,.6.17.94.66.94.23,0,.4-.03.51-.06l.04.66c-.17.07-.44.12-.78.12-.41,0-.74-.13-.95-.37-.25-.26-.34-.69-.34-1.26v-2.64h-.75v-.67h.75v-1.16l.86-.23Z"/><path d="m245.44,458.36c.02,1.19.78,1.68,1.66,1.68.63,0,1.01-.11,1.34-.25l.15.63c-.31.14-.84.3-1.61.3-1.49,0-2.38-.98-2.38-2.44s.86-2.61,2.27-2.61c1.58,0,2,1.39,2,2.28,0,.18-.02.32-.03.41h-3.4Zm2.58-.63c0-.56-.23-1.43-1.22-1.43-.89,0-1.28.82-1.35,1.43h2.57Z"/></g><g><path d="m22.59,440v14.15h-1.83v-14.15h1.83Z"/><path d="m25.93,446.74c0-1.05-.02-1.91-.08-2.75h1.64l.1,1.68h.04c.5-.97,1.68-1.91,3.36-1.91,1.41,0,3.59.84,3.59,4.32v6.07h-1.85v-5.86c0-1.64-.61-3-2.35-3-1.22,0-2.16.86-2.48,1.89-.08.23-.13.55-.13.86v6.11h-1.85v-7.41Z"/><path d="m44.83,453.78c-.48.25-1.55.59-2.92.59-3.06,0-5.06-2.08-5.06-5.19s2.14-5.4,5.46-5.4c1.09,0,2.06.27,2.56.52l-.42,1.43c-.44-.25-1.13-.48-2.14-.48-2.33,0-3.59,1.72-3.59,3.84,0,2.35,1.51,3.8,3.53,3.8,1.05,0,1.74-.27,2.27-.5l.32,1.39Z"/><path d="m56.06,448.99c0,3.76-2.6,5.4-5.06,5.4-2.75,0-4.87-2.02-4.87-5.23,0-3.4,2.23-5.4,5.04-5.4s4.89,2.12,4.89,5.23Zm-8.06.1c0,2.23,1.28,3.91,3.09,3.91s3.09-1.66,3.09-3.95c0-1.72-.86-3.91-3.04-3.91s-3.13,2.02-3.13,3.95Z"/><path d="m58.39,446.74c0-1.05-.02-1.91-.08-2.75h1.62l.08,1.64h.06c.57-.97,1.51-1.87,3.19-1.87,1.38,0,2.44.84,2.88,2.04h.04c.31-.57.71-1.01,1.13-1.32.61-.46,1.28-.71,2.25-.71,1.34,0,3.34.88,3.34,4.41v5.98h-1.81v-5.75c0-1.95-.71-3.13-2.2-3.13-1.05,0-1.87.78-2.18,1.68-.08.25-.15.59-.15.92v6.28h-1.81v-6.09c0-1.62-.71-2.79-2.12-2.79-1.15,0-1.99.92-2.29,1.85-.1.27-.15.59-.15.9v6.13h-1.8v-7.41Z"/><path d="m77.96,441.14c.02.63-.44,1.13-1.18,1.13-.65,0-1.11-.5-1.11-1.13s.48-1.15,1.15-1.15,1.13.5,1.13,1.15Zm-2.06,13.02v-10.16h1.85v10.16h-1.85Z"/><path d="m80.82,446.74c0-1.05-.02-1.91-.08-2.75h1.64l.11,1.68h.04c.5-.97,1.68-1.91,3.36-1.91,1.41,0,3.59.84,3.59,4.32v6.07h-1.85v-5.86c0-1.64-.61-3-2.35-3-1.22,0-2.16.86-2.48,1.89-.08.23-.12.55-.12.86v6.11h-1.85v-7.41Z"/><path d="m101.23,443.99c-.04.73-.08,1.55-.08,2.79v5.9c0,2.33-.46,3.76-1.45,4.64-.99.92-2.41,1.22-3.7,1.22s-2.56-.29-3.38-.84l.46-1.41c.67.42,1.72.8,2.98.8,1.89,0,3.28-.99,3.28-3.55v-1.13h-.04c-.57.94-1.66,1.7-3.23,1.7-2.52,0-4.33-2.14-4.33-4.96,0-3.44,2.25-5.4,4.58-5.4,1.76,0,2.73.92,3.17,1.76h.04l.08-1.53h1.62Zm-1.91,4.01c0-.31-.02-.59-.11-.84-.34-1.07-1.24-1.95-2.58-1.95-1.76,0-3.02,1.49-3.02,3.84,0,1.99,1.01,3.65,3,3.65,1.13,0,2.16-.71,2.56-1.89.1-.32.15-.67.15-.99v-1.83Z"/><path d="m26.98,465.39c.92-.19,2.25-.29,3.51-.29,1.95,0,3.21.36,4.09,1.16.71.63,1.11,1.6,1.11,2.69,0,1.87-1.18,3.11-2.67,3.61v.06c1.09.38,1.74,1.38,2.08,2.86.46,1.97.8,3.34,1.09,3.88h-1.89c-.23-.4-.55-1.62-.95-3.38-.42-1.95-1.18-2.69-2.83-2.75h-1.72v6.13h-1.83v-13.96Zm1.83,6.45h1.87c1.95,0,3.19-1.07,3.19-2.69,0-1.83-1.32-2.62-3.25-2.65-.88,0-1.51.08-1.81.17v5.17Z"/><path d="m39.32,474.61c.04,2.5,1.64,3.53,3.49,3.53,1.32,0,2.12-.23,2.81-.53l.31,1.32c-.65.29-1.76.63-3.38.63-3.13,0-5-2.06-5-5.12s1.81-5.48,4.77-5.48c3.32,0,4.2,2.92,4.2,4.79,0,.38-.04.67-.06.86h-7.14Zm5.42-1.32c.02-1.18-.48-3-2.56-3-1.87,0-2.69,1.72-2.83,3h5.4Z"/><path d="m55.74,477.78h-.04c-.55,1.01-1.68,1.81-3.32,1.81-2.37,0-4.3-2.06-4.3-5.14,0-3.8,2.46-5.48,4.6-5.48,1.57,0,2.62.78,3.13,1.76h.04l.06-1.53h1.74c-.04.86-.06,1.74-.06,2.79v11.53h-1.85v-5.73Zm0-4.47c0-.25-.02-.55-.08-.78-.27-1.13-1.26-2.1-2.64-2.1-1.91,0-3.07,1.62-3.07,3.9,0,2.02.97,3.78,3,3.78,1.2,0,2.23-.73,2.65-2.02.08-.25.15-.61.15-.88v-1.91Z"/><path d="m69.14,476.58c0,1.05.02,1.97.08,2.77h-1.64l-.1-1.66h-.04c-.48.82-1.55,1.89-3.36,1.89-1.6,0-3.51-.88-3.51-4.45v-5.94h1.85v5.63c0,1.93.59,3.23,2.27,3.23,1.24,0,2.1-.86,2.44-1.68.11-.27.17-.61.17-.95v-6.24h1.85v7.39Z"/><path d="m73.24,474.61c.04,2.5,1.64,3.53,3.49,3.53,1.32,0,2.12-.23,2.81-.53l.31,1.32c-.65.29-1.76.63-3.38.63-3.13,0-5-2.06-5-5.12s1.81-5.48,4.77-5.48c3.32,0,4.2,2.92,4.2,4.79,0,.38-.04.67-.06.86h-7.14Zm5.42-1.32c.02-1.18-.48-3-2.56-3-1.87,0-2.69,1.72-2.83,3h5.4Z"/><path d="m82.48,477.46c.55.36,1.51.73,2.44.73,1.34,0,1.97-.67,1.97-1.51,0-.88-.53-1.36-1.89-1.87-1.83-.65-2.69-1.66-2.69-2.88,0-1.64,1.32-2.98,3.51-2.98,1.03,0,1.93.29,2.5.63l-.46,1.34c-.4-.25-1.13-.59-2.08-.59-1.09,0-1.7.63-1.7,1.38,0,.84.61,1.22,1.93,1.72,1.76.67,2.67,1.55,2.67,3.06,0,1.79-1.39,3.04-3.8,3.04-1.11,0-2.14-.27-2.86-.69l.46-1.41Z"/><path d="m93.27,466.27v2.92h2.65v1.41h-2.65v5.48c0,1.26.36,1.97,1.39,1.97.48,0,.84-.06,1.07-.13l.08,1.39c-.36.15-.92.25-1.64.25-.86,0-1.55-.27-2-.78-.52-.54-.71-1.45-.71-2.64v-5.54h-1.58v-1.41h1.58v-2.44l1.8-.48Z"/></g><g><path d="m361.65,334.69h-2.62v2.43h2.92v.73h-3.79v-6.74h3.64v.73h-2.77v2.13h2.62v.72Z"/><path d="m363.32,333.01l.95,2.72c.16.44.29.84.39,1.24h.03c.11-.4.25-.8.41-1.24l.94-2.72h.92l-1.9,4.84h-.84l-1.84-4.84h.94Z"/><path d="m368.18,335.59c.02,1.19.78,1.68,1.66,1.68.63,0,1.01-.11,1.34-.25l.15.63c-.31.14-.84.3-1.61.3-1.49,0-2.38-.98-2.38-2.44s.86-2.61,2.27-2.61c1.58,0,2,1.39,2,2.28,0,.18-.02.32-.03.41h-3.4Zm2.58-.63c0-.56-.23-1.43-1.22-1.43-.89,0-1.28.82-1.35,1.43h2.57Z"/><path d="m372.7,334.32c0-.5,0-.91-.04-1.31h.78l.05.8h.02c.24-.46.8-.91,1.6-.91.67,0,1.71.4,1.71,2.06v2.89h-.88v-2.79c0-.78-.29-1.43-1.12-1.43-.58,0-1.03.41-1.18.9-.04.11-.06.26-.06.41v2.91h-.88v-3.53Z"/><path d="m379.27,331.62v1.39h1.26v.67h-1.26v2.61c0,.6.17.94.66.94.23,0,.4-.03.51-.06l.04.66c-.17.07-.44.12-.78.12-.41,0-.74-.13-.95-.37-.25-.26-.34-.69-.34-1.26v-2.64h-.75v-.67h.75v-1.16l.86-.23Z"/><path d="m381.4,336.95c.26.17.72.35,1.16.35.64,0,.94-.32.94-.72s-.25-.65-.9-.89c-.87-.31-1.28-.79-1.28-1.37,0-.78.63-1.42,1.67-1.42.49,0,.92.14,1.19.3l-.22.64c-.19-.12-.54-.28-.99-.28-.52,0-.81.3-.81.66,0,.4.29.58.92.82.84.32,1.27.74,1.27,1.46,0,.85-.66,1.45-1.81,1.45-.53,0-1.02-.13-1.36-.33l.22-.67Z"/></g><g><polyline class="k" points="315.69 271.38 365.54 271.38 365.54 315.69 355.9 320.51"/><polygon points="356.65 315 343.38 326.77 360.76 323.21 356.65 315"/></g><g><polyline class="k" points="216 337.85 199.38 337.85 199.38 393.23 224.16 393.23"/><polygon points="221.03 397.82 238.15 393.23 221.03 388.64 221.03 397.82"/></g><g><polyline class="k" points="260.31 240.77 260.31 221.54 393.23 221.54 393.23 193.85"/><polygon points="264.9 237.64 260.31 254.77 255.72 237.64 264.9 237.64"/></g><g><line class="k" x1="22.15" y1="492.92" x2="118.93" y2="492.92"/><polygon points="115.79 497.51 132.92 492.92 115.79 488.33 115.79 497.51"/></g><g><path d="m270.97,209.35c.44-.09,1.07-.14,1.67-.14.93,0,1.53.17,1.95.55.34.3.53.76.53,1.28,0,.89-.56,1.48-1.27,1.72v.03c.52.18.83.66.99,1.36.22.94.38,1.59.52,1.85h-.9c-.11-.19-.26-.77-.45-1.61-.2-.93-.56-1.28-1.35-1.31h-.82v2.92h-.87v-6.65Zm.87,3.07h.89c.93,0,1.52-.51,1.52-1.28,0-.87-.63-1.25-1.55-1.26-.42,0-.72.04-.86.08v2.46Z"/><path d="m276.85,213.74c.02,1.19.78,1.68,1.66,1.68.63,0,1.01-.11,1.34-.25l.15.63c-.31.14-.84.3-1.61.3-1.49,0-2.38-.98-2.38-2.44s.86-2.61,2.27-2.61c1.58,0,2,1.39,2,2.28,0,.18-.02.32-.03.41h-3.4Zm2.58-.63c0-.56-.23-1.43-1.22-1.43-.89,0-1.28.82-1.35,1.43h2.57Z"/><path d="m284.05,216l-.07-.61h-.03c-.27.38-.79.72-1.48.72-.98,0-1.48-.69-1.48-1.39,0-1.17,1.04-1.81,2.91-1.8v-.1c0-.4-.11-1.12-1.1-1.12-.45,0-.92.14-1.26.36l-.2-.58c.4-.26.98-.43,1.59-.43,1.48,0,1.84,1.01,1.84,1.98v1.81c0,.42.02.83.08,1.16h-.8Zm-.13-2.47c-.96-.02-2.05.15-2.05,1.09,0,.57.38.84.83.84.63,0,1.03-.4,1.17-.81.03-.09.05-.19.05-.28v-.84Z"/><path d="m290.37,208.9v5.85c0,.43,0,.92.04,1.25h-.79l-.04-.84h-.02c-.27.54-.86.95-1.65.95-1.17,0-2.07-.99-2.07-2.46,0-1.61.99-2.6,2.17-2.6.74,0,1.24.35,1.46.74h.02v-2.89h.88Zm-.88,4.23c0-.11,0-.26-.04-.37-.13-.56-.61-1.02-1.27-1.02-.91,0-1.45.8-1.45,1.87,0,.98.48,1.79,1.43,1.79.59,0,1.13-.39,1.29-1.05.03-.12.04-.24.04-.38v-.84Z"/><path d="m293.95,212.47c0-.5,0-.91-.04-1.31h.77l.04.78h.03c.27-.46.72-.89,1.52-.89.66,0,1.16.4,1.37.97h.02c.15-.27.34-.48.54-.63.29-.22.61-.34,1.07-.34.64,0,1.59.42,1.59,2.1v2.85h-.86v-2.74c0-.93-.34-1.49-1.05-1.49-.5,0-.89.37-1.04.8-.04.12-.07.28-.07.44v2.99h-.86v-2.9c0-.77-.34-1.33-1.01-1.33-.55,0-.95.44-1.09.88-.05.13-.07.28-.07.43v2.92h-.86v-3.53Z"/><path d="m306.67,213.54c0,1.79-1.24,2.57-2.41,2.57-1.31,0-2.32-.96-2.32-2.49,0-1.62,1.06-2.57,2.4-2.57s2.33,1.01,2.33,2.49Zm-3.84.05c0,1.06.61,1.86,1.47,1.86s1.47-.79,1.47-1.88c0-.82-.41-1.86-1.45-1.86s-1.49.96-1.49,1.88Z"/><path d="m307.66,215.1c.26.17.72.35,1.16.35.64,0,.94-.32.94-.72s-.25-.65-.9-.89c-.87-.31-1.28-.79-1.28-1.37,0-.78.63-1.42,1.67-1.42.49,0,.92.14,1.19.3l-.22.64c-.19-.12-.54-.28-.99-.28-.52,0-.81.3-.81.66,0,.4.29.58.92.82.84.32,1.27.74,1.27,1.46,0,.85-.66,1.45-1.81,1.45-.53,0-1.02-.13-1.36-.33l.22-.67Z"/><path d="m312.8,209.77v1.39h1.26v.67h-1.26v2.61c0,.6.17.94.66.94.23,0,.4-.03.51-.06l.04.66c-.17.07-.44.12-.78.12-.41,0-.74-.13-.95-.37-.25-.26-.34-.69-.34-1.26v-2.64h-.75v-.67h.75v-1.16l.86-.23Z"/><path d="m317.17,212.67c0-.57,0-1.06-.04-1.51h.77l.03.95h.04c.22-.65.75-1.06,1.34-1.06.1,0,.17,0,.25.03v.83c-.09-.02-.18-.03-.3-.03-.62,0-1.06.47-1.18,1.13-.02.12-.04.26-.04.41v2.58h-.87v-3.33Z"/><path d="m320.83,213.74c.02,1.19.78,1.68,1.66,1.68.63,0,1.01-.11,1.34-.25l.15.63c-.31.14-.84.3-1.61.3-1.49,0-2.38-.98-2.38-2.44s.86-2.61,2.27-2.61c1.58,0,2,1.39,2,2.28,0,.18-.02.32-.03.41h-3.4Zm2.58-.63c0-.56-.23-1.43-1.22-1.43-.89,0-1.28.82-1.35,1.43h2.57Z"/><path d="m328.8,215.82c-.23.12-.74.28-1.39.28-1.46,0-2.41-.99-2.41-2.47s1.02-2.57,2.6-2.57c.52,0,.98.13,1.22.25l-.2.68c-.21-.12-.54-.23-1.02-.23-1.11,0-1.71.82-1.71,1.83,0,1.12.72,1.81,1.68,1.81.5,0,.83-.13,1.08-.24l.15.66Z"/><path d="m330.26,213.74c.02,1.19.78,1.68,1.66,1.68.63,0,1.01-.11,1.34-.25l.15.63c-.31.14-.84.3-1.61.3-1.49,0-2.38-.98-2.38-2.44s.86-2.61,2.27-2.61c1.58,0,2,1.39,2,2.28,0,.18-.02.32-.03.41h-3.4Zm2.58-.63c0-.56-.23-1.43-1.22-1.43-.89,0-1.28.82-1.35,1.43h2.57Z"/><path d="m334.78,212.47c0-.5,0-.91-.04-1.31h.78l.05.8h.02c.24-.46.8-.91,1.6-.91.67,0,1.71.4,1.71,2.06v2.89h-.88v-2.79c0-.78-.29-1.43-1.12-1.43-.58,0-1.03.41-1.18.9-.04.11-.06.26-.06.41v2.91h-.88v-3.53Z"/><path d="m341.35,209.77v1.39h1.26v.67h-1.26v2.61c0,.6.17.94.66.94.23,0,.4-.03.51-.06l.04.66c-.17.07-.44.12-.78.12-.41,0-.74-.13-.95-.37-.25-.26-.34-.69-.34-1.26v-2.64h-.75v-.67h.75v-1.16l.86-.23Z"/><path d="m345.6,215.1c.26.17.72.35,1.16.35.64,0,.94-.32.94-.72s-.25-.65-.9-.89c-.87-.31-1.28-.79-1.28-1.37,0-.78.63-1.42,1.67-1.42.49,0,.92.14,1.19.3l-.22.64c-.19-.12-.54-.28-.99-.28-.52,0-.81.3-.81.66,0,.4.29.58.92.82.84.32,1.27.74,1.27,1.46,0,.85-.66,1.45-1.81,1.45-.53,0-1.02-.13-1.36-.33l.22-.67Z"/><path d="m349.68,212.47c0-.5,0-.91-.04-1.31h.78l.05.8h.02c.24-.46.8-.91,1.6-.91.67,0,1.71.4,1.71,2.06v2.89h-.88v-2.79c0-.78-.29-1.43-1.12-1.43-.58,0-1.03.41-1.18.9-.04.11-.06.26-.06.41v2.91h-.88v-3.53Z"/><path d="m357.91,216l-.07-.61h-.03c-.27.38-.79.72-1.48.72-.98,0-1.48-.69-1.48-1.39,0-1.17,1.04-1.81,2.91-1.8v-.1c0-.4-.11-1.12-1.1-1.12-.45,0-.92.14-1.26.36l-.2-.58c.4-.26.98-.43,1.59-.43,1.48,0,1.84,1.01,1.84,1.98v1.81c0,.42.02.83.08,1.16h-.8Zm-.13-2.47c-.96-.02-2.05.15-2.05,1.09,0,.57.38.84.83.84.63,0,1.03-.4,1.17-.81.03-.09.05-.19.05-.28v-.84Z"/><path d="m360.05,212.74c0-.62-.02-1.12-.04-1.58h.79l.04.83h.02c.36-.59.93-.94,1.72-.94,1.17,0,2.05.99,2.05,2.46,0,1.74-1.06,2.6-2.2,2.6-.64,0-1.2-.28-1.49-.76h-.02v2.63h-.87v-5.24Zm.87,1.29c0,.13.02.25.04.36.16.61.69,1.03,1.32,1.03.93,0,1.47-.76,1.47-1.87,0-.97-.51-1.8-1.44-1.8-.6,0-1.16.43-1.33,1.09-.03.11-.06.24-.06.36v.83Z"/><path d="m365.62,215.1c.26.17.72.35,1.16.35.64,0,.94-.32.94-.72s-.25-.65-.9-.89c-.87-.31-1.28-.79-1.28-1.37,0-.78.63-1.42,1.67-1.42.49,0,.92.14,1.19.3l-.22.64c-.19-.12-.54-.28-.99-.28-.52,0-.81.3-.81.66,0,.4.29.58.92.82.84.32,1.27.74,1.27,1.46,0,.85-.66,1.45-1.81,1.45-.53,0-1.02-.13-1.36-.33l.22-.67Z"/><path d="m369.7,208.9h.88v3.02h.02c.14-.25.36-.47.63-.62.26-.15.57-.25.9-.25.65,0,1.69.4,1.69,2.07v2.88h-.88v-2.78c0-.78-.29-1.44-1.12-1.44-.57,0-1.02.4-1.18.88-.05.12-.06.25-.06.42v2.92h-.88v-7.1Z"/><path d="m379.63,213.54c0,1.79-1.24,2.57-2.41,2.57-1.31,0-2.32-.96-2.32-2.49,0-1.62,1.06-2.57,2.4-2.57s2.33,1.01,2.33,2.49Zm-3.84.05c0,1.06.61,1.86,1.47,1.86s1.47-.79,1.47-1.88c0-.82-.41-1.86-1.45-1.86s-1.49.96-1.49,1.88Z"/><path d="m381.8,209.77v1.39h1.26v.67h-1.26v2.61c0,.6.17.94.66.94.23,0,.4-.03.51-.06l.04.66c-.17.07-.44.12-.78.12-.41,0-.74-.13-.95-.37-.25-.26-.34-.69-.34-1.26v-2.64h-.75v-.67h.75v-1.16l.86-.23Z"/></g></svg>