<?xml version="1.0" encoding="UTF-8"?><svg id="a" xmlns="http://www.w3.org/2000/svg" viewBox="0 0 498.46 415.38"><defs><style>.e,.f{fill:#fff;}.e,.g,.h,.i{stroke:#000;stroke-miterlimit:10;}.e,.i{stroke-width:1.35px;}.g{fill:none;stroke-width:2px;}.h{stroke-width:1.3px;}.h,.i{fill:#e6e6e6;}</style></defs><rect class="h" x="74.77" y="229.85" width="418.15" height="83.08"/><g><g><g><polygon class="f" points="12.58 305.88 12.58 236.88 62.19 236.88 62.19 290.15 46.46 305.88 12.58 305.88"/><path d="m60.69,238.38v51.14l-14.86,14.86H14.08v-66h46.62m3-3H11.08v72h36l16.62-16.62v-55.38h0Z"/></g><polygon points="63.69 288 47.08 288 44.31 288 44.31 290.77 44.31 307.38 47.08 307.38 47.08 290.77 63.69 290.77 63.69 288"/></g><path d="m24.98,285.41l2.78-3.95c-2.51-2.69-4-6.69-4-11.18,0-9.56,6.06-15.81,13.97-15.81,2.78,0,5.39.81,7.54,2.38l2.65-3.64,2.38,1.62-2.78,3.86c2.51,2.74,3.91,6.69,3.91,11.14,0,10.55-6.51,15.9-13.74,15.9-2.87,0-5.52-.85-7.68-2.42l-2.83,3.86-2.2-1.75Zm18.37-25.69c-1.53-1.3-3.41-2.11-5.66-2.11-6.6,0-9.92,6.11-9.92,12.44,0,3.37.9,5.79,2.25,8.13l.04-.04,13.29-18.41Zm-11.41,20.7c1.48,1.39,3.23,2.16,5.66,2.16,6.33,0,9.83-5.79,9.83-12.62,0-2.56-.54-5.3-2.11-7.86h-.13l-13.25,18.32Z"/></g><g><g><polygon class="f" points="92.88 408.35 92.88 339.35 139.73 339.35 139.73 392.61 123.99 408.35 92.88 408.35"/><path d="m138.23,340.85v51.14l-14.86,14.86h-28.99v-66h43.85m3-3h-49.85v72h33.23l16.62-16.62v-55.38h0Z"/></g><polygon points="141.23 390.46 124.62 390.46 121.85 390.46 121.85 393.23 121.85 409.85 124.62 409.85 124.62 393.23 141.23 393.23 141.23 390.46"/></g><g><g><rect class="f" x="100.48" y="255.55" width="31.67" height="34.43"/><path d="m131.36,256.34v32.87h-30.1v-32.87h30.1m1.57-1.57h-33.23v36h33.23v-36h0Z"/></g><g><path d="m109.7,279.51v-7.92h-1.29v-1.27h1.29v-.44c0-1.29.29-2.47,1.06-3.21.63-.61,1.46-.86,2.24-.86.59,0,1.1.13,1.42.27l-.23,1.29c-.25-.11-.59-.21-1.06-.21-1.42,0-1.79,1.25-1.79,2.66v.49h2.22v1.27h-2.22v7.92h-1.65Z"/><path d="m118.7,266.33c-1.39,1.86-2.39,4.33-2.39,7.77s1.04,5.81,2.39,7.71h-1.31c-1.2-1.58-2.49-4.01-2.49-7.71.02-3.74,1.29-6.17,2.49-7.77h1.31Z"/><path d="m119.46,281.81c1.35-1.88,2.39-4.35,2.39-7.77s-1.03-5.83-2.39-7.71h1.29c1.22,1.56,2.49,3.99,2.49,7.73s-1.27,6.14-2.49,7.75h-1.29Z"/></g></g><g><path d="m105.81,360.47c.29.19.79.38,1.28.38.7,0,1.03-.35,1.03-.79s-.28-.71-.99-.98c-.96-.34-1.41-.87-1.41-1.51,0-.86.69-1.56,1.84-1.56.54,0,1.01.15,1.31.33l-.24.7c-.21-.13-.59-.31-1.09-.31-.57,0-.89.33-.89.73,0,.44.32.64,1.01.9.92.35,1.4.81,1.4,1.61,0,.94-.73,1.6-1.99,1.6-.58,0-1.12-.14-1.5-.36l.24-.74Z"/><path d="m111.46,354.61v1.53h1.39v.74h-1.39v2.87c0,.66.19,1.03.73,1.03.25,0,.44-.03.56-.07l.04.73c-.19.08-.48.13-.86.13-.45,0-.81-.14-1.04-.41-.28-.29-.37-.76-.37-1.39v-2.9h-.83v-.74h.83v-1.28l.95-.25Z"/><path d="m116.89,361.46l-.08-.67h-.03c-.3.42-.87.79-1.63.79-1.08,0-1.63-.76-1.63-1.53,0-1.29,1.14-1.99,3.2-1.98v-.11c0-.44-.12-1.23-1.21-1.23-.5,0-1.01.15-1.39.4l-.22-.64c.44-.29,1.08-.47,1.75-.47,1.63,0,2.02,1.11,2.02,2.18v1.99c0,.46.02.91.09,1.28h-.88Zm-.14-2.72c-1.06-.02-2.25.17-2.25,1.2,0,.63.42.92.91.92.69,0,1.13-.44,1.29-.89.03-.1.05-.21.05-.31v-.92Z"/><path d="m120.36,354.61v1.53h1.39v.74h-1.39v2.87c0,.66.19,1.03.73,1.03.25,0,.44-.03.56-.07l.04.73c-.19.08-.48.13-.86.13-.45,0-.81-.14-1.04-.41-.28-.29-.37-.76-.37-1.39v-2.9h-.83v-.74h.83v-1.28l.95-.25Z"/><path d="m123.31,358.97c.02,1.31.86,1.85,1.83,1.85.69,0,1.11-.12,1.47-.28l.17.69c-.34.15-.92.33-1.77.33-1.64,0-2.62-1.08-2.62-2.68s.95-2.87,2.5-2.87c1.74,0,2.2,1.53,2.2,2.51,0,.2-.02.35-.03.45h-3.74Zm2.84-.69c.01-.62-.25-1.57-1.34-1.57-.98,0-1.41.9-1.49,1.57h2.83Z"/><path d="m111.78,374.66l.29-2.16h-.9v-.65h1l.21-1.59h-.95v-.65h1.04l.29-2.1h.64l-.28,2.1h1.14l.29-2.1h.65l-.27,2.1h.9v.65h-1l-.2,1.59h.95v.65h-1.04l-.29,2.16h-.66l.29-2.16h-1.14l-.29,2.16h-.66Zm2.19-2.81l.21-1.59h-1.14l-.21,1.59h1.14Z"/><path d="m121.47,371.01c0,2.43-.9,3.77-2.49,3.77-1.4,0-2.34-1.31-2.37-3.67,0-2.4,1.03-3.72,2.49-3.72s2.37,1.34,2.37,3.62Zm-3.88.11c0,1.86.57,2.92,1.45,2.92.99,0,1.46-1.16,1.46-2.98s-.45-2.92-1.45-2.92c-.85,0-1.46,1.03-1.46,2.98Z"/></g><g><g><polygon class="f" points="92.88 220.04 92.88 151.04 139.73 151.04 139.73 204.3 123.99 220.04 92.88 220.04"/><path d="m138.23,152.54v51.14l-14.86,14.86h-28.99v-66h43.85m3-3h-49.85v72h33.23l16.62-16.62v-55.38h0Z"/></g><polygon points="141.23 202.15 124.62 202.15 121.85 202.15 121.85 204.92 121.85 221.54 124.62 221.54 124.62 204.92 141.23 204.92 141.23 202.15"/></g><g><path d="m104.7,170.67c.02,1.31.86,1.85,1.83,1.85.69,0,1.11-.12,1.47-.28l.17.69c-.34.15-.92.33-1.77.33-1.64,0-2.62-1.08-2.62-2.68s.95-2.87,2.5-2.87c1.74,0,2.2,1.53,2.2,2.51,0,.2-.02.35-.03.45h-3.74Zm2.84-.69c.01-.62-.25-1.57-1.34-1.57-.98,0-1.41.9-1.49,1.57h2.83Z"/><path d="m110.04,167.83l1.05,2.99c.18.48.32.92.43,1.36h.03c.12-.44.27-.88.45-1.36l1.03-2.99h1.01l-2.09,5.33h-.92l-2.02-5.33h1.03Z"/><path d="m115.39,170.67c.02,1.31.86,1.85,1.83,1.85.69,0,1.11-.12,1.47-.28l.17.69c-.34.15-.92.33-1.77.33-1.64,0-2.62-1.08-2.62-2.68s.95-2.87,2.5-2.87c1.74,0,2.2,1.53,2.2,2.51,0,.2-.02.35-.03.45h-3.74Zm2.84-.69c.01-.62-.25-1.57-1.34-1.57-.98,0-1.41.9-1.49,1.57h2.83Z"/><path d="m120.36,169.27c0-.55-.01-1-.04-1.44h.86l.05.88h.02c.26-.51.88-1,1.76-1,.74,0,1.88.44,1.88,2.27v3.18h-.97v-3.07c0-.86-.32-1.57-1.23-1.57-.64,0-1.13.45-1.3.99-.04.12-.07.29-.07.45v3.2h-.97v-3.88Z"/><path d="m127.59,166.3v1.53h1.39v.74h-1.39v2.87c0,.66.19,1.03.73,1.03.25,0,.44-.03.56-.07l.04.73c-.19.08-.48.13-.86.13-.45,0-.81-.14-1.04-.41-.28-.29-.37-.76-.37-1.39v-2.9h-.83v-.74h.83v-1.28l.95-.25Z"/><path d="m111.78,186.35l.29-2.16h-.9v-.65h1l.21-1.59h-.95v-.65h1.04l.29-2.1h.64l-.28,2.1h1.14l.29-2.1h.65l-.27,2.1h.9v.65h-1l-.2,1.59h.95v.65h-1.04l-.29,2.16h-.66l.29-2.16h-1.14l-.29,2.16h-.66Zm2.19-2.81l.21-1.59h-1.14l-.21,1.59h1.14Z"/><path d="m121.47,182.7c0,2.43-.9,3.77-2.49,3.77-1.4,0-2.34-1.31-2.37-3.67,0-2.4,1.03-3.72,2.49-3.72s2.37,1.34,2.37,3.62Zm-3.88.11c0,1.86.57,2.92,1.45,2.92.99,0,1.46-1.16,1.46-2.98s-.45-2.92-1.45-2.92c-.85,0-1.46,1.03-1.46,2.98Z"/></g><g><path d="m25.79,200.46h-2.88v2.67h3.21v.8h-4.17v-7.42h4v.8h-3.05v2.34h2.88v.79Z"/><path d="m27.33,200.05c0-.55-.01-1-.04-1.44h.85l.04.86h.03c.3-.51.79-.98,1.67-.98.73,0,1.28.44,1.51,1.07h.02c.17-.3.37-.53.59-.69.32-.24.67-.37,1.18-.37.7,0,1.75.46,1.75,2.31v3.14h-.95v-3.01c0-1.02-.37-1.64-1.16-1.64-.55,0-.98.41-1.14.88-.04.13-.08.31-.08.48v3.29h-.95v-3.19c0-.85-.37-1.46-1.11-1.46-.61,0-1.04.48-1.2.97-.05.14-.08.31-.08.47v3.21h-.95v-3.88Z"/><path d="m36.51,200.35c0-.68-.02-1.23-.04-1.74h.87l.04.91h.02c.4-.65,1.02-1.03,1.89-1.03,1.29,0,2.25,1.09,2.25,2.71,0,1.91-1.17,2.86-2.42,2.86-.7,0-1.32-.31-1.64-.84h-.02v2.89h-.96v-5.77Zm.96,1.42c0,.14.02.27.04.4.18.67.76,1.13,1.45,1.13,1.02,0,1.62-.84,1.62-2.06,0-1.07-.56-1.98-1.58-1.98-.66,0-1.28.47-1.46,1.2-.03.12-.07.26-.07.4v.91Z"/><path d="m43.93,197.08v1.53h1.39v.74h-1.39v2.87c0,.66.19,1.03.73,1.03.25,0,.44-.03.56-.07l.04.73c-.19.08-.48.13-.86.13-.45,0-.81-.14-1.04-.41-.28-.29-.37-.76-.37-1.39v-2.9h-.83v-.74h.83v-1.28l.95-.25Z"/><path d="m46.86,198.61l1.17,3.15c.12.35.25.77.34,1.09h.02c.1-.32.21-.73.34-1.11l1.06-3.12h1.02l-1.45,3.8c-.69,1.83-1.17,2.76-1.83,3.33-.47.42-.95.58-1.19.63l-.24-.81c.24-.08.56-.23.85-.47.26-.21.59-.58.81-1.08.04-.1.08-.18.08-.23s-.02-.13-.07-.25l-1.97-4.91h1.06Z"/><path d="m27.1,209.5c-.8,1.08-1.39,2.51-1.39,4.5s.6,3.37,1.39,4.47h-.76c-.69-.91-1.44-2.32-1.44-4.47.01-2.17.75-3.58,1.44-4.5h.76Z"/><path d="m28.12,213.25c0-.55-.01-1-.04-1.44h.86l.05.88h.02c.26-.51.88-1,1.76-1,.74,0,1.88.44,1.88,2.27v3.18h-.97v-3.07c0-.86-.32-1.57-1.23-1.57-.64,0-1.13.45-1.3.99-.04.12-.07.29-.07.45v3.2h-.97v-3.88Z"/><path d="m38.69,215.68c0,.55.01,1.03.04,1.45h-.86l-.05-.87h-.02c-.25.43-.81.99-1.76.99-.84,0-1.84-.46-1.84-2.33v-3.11h.97v2.95c0,1.01.31,1.69,1.19,1.69.65,0,1.1-.45,1.28-.88.06-.14.09-.32.09-.5v-3.27h.97v3.87Z"/><path d="m40.29,209.32h.97v7.81h-.97v-7.81Z"/><path d="m42.89,209.32h.97v7.81h-.97v-7.81Z"/><path d="m44.9,218.47c.78-1.09,1.39-2.52,1.39-4.5s-.59-3.38-1.39-4.47h.75c.7.9,1.44,2.31,1.44,4.48s-.74,3.55-1.44,4.49h-.75Z"/><path d="m25.5,229.35c.29.19.79.38,1.28.38.7,0,1.03-.35,1.03-.79s-.28-.71-.99-.98c-.96-.34-1.41-.87-1.41-1.51,0-.86.69-1.56,1.84-1.56.54,0,1.01.15,1.31.33l-.24.7c-.21-.13-.59-.31-1.09-.31-.57,0-.89.33-.89.73,0,.44.32.64,1.01.9.92.35,1.4.81,1.4,1.61,0,.94-.73,1.6-1.99,1.6-.58,0-1.12-.14-1.5-.36l.24-.74Z"/><path d="m31.16,223.48v1.53h1.39v.74h-1.39v2.87c0,.66.19,1.03.73,1.03.25,0,.44-.03.56-.07l.04.73c-.19.08-.48.13-.86.13-.45,0-.81-.14-1.04-.41-.28-.29-.37-.76-.37-1.39v-2.9h-.83v-.74h.83v-1.28l.95-.25Z"/><path d="m36.58,230.34l-.08-.67h-.03c-.3.42-.87.79-1.63.79-1.08,0-1.63-.76-1.63-1.53,0-1.29,1.14-1.99,3.2-1.98v-.11c0-.44-.12-1.23-1.21-1.23-.5,0-1.01.15-1.39.4l-.22-.64c.44-.29,1.08-.47,1.75-.47,1.63,0,2.02,1.11,2.02,2.18v1.99c0,.46.02.91.09,1.28h-.88Zm-.14-2.72c-1.06-.02-2.25.17-2.25,1.2,0,.63.42.92.91.92.69,0,1.13-.44,1.29-.89.03-.1.05-.21.05-.31v-.92Z"/><path d="m40.06,223.48v1.53h1.39v.74h-1.39v2.87c0,.66.19,1.03.73,1.03.25,0,.44-.03.56-.07l.04.73c-.19.08-.48.13-.86.13-.45,0-.81-.14-1.04-.41-.28-.29-.37-.76-.37-1.39v-2.9h-.83v-.74h.83v-1.28l.95-.25Z"/><path d="m43,227.85c.02,1.31.86,1.85,1.83,1.85.69,0,1.11-.12,1.47-.28l.17.69c-.34.15-.92.33-1.77.33-1.64,0-2.62-1.08-2.62-2.68s.95-2.87,2.5-2.87c1.74,0,2.2,1.53,2.2,2.51,0,.2-.02.35-.03.45h-3.74Zm2.84-.69c.01-.62-.25-1.57-1.34-1.57-.98,0-1.41.9-1.49,1.57h2.83Z"/></g><g><line class="g" x1="63.69" y1="271.38" x2="85.69" y2="271.38"/><polygon points="82.56 275.97 99.69 271.38 82.56 266.79 82.56 275.97"/></g><g><polyline class="g" points="116.31 290.77 116.31 301.85 146.77 301.85 146.77 271.38 157.69 271.38"/><polygon points="154.56 275.97 171.69 271.38 154.56 266.79 154.56 275.97"/></g><g><line class="g" x1="116.31" y1="290.77" x2="116.31" y2="323.85"/><polygon points="111.72 320.72 116.31 337.85 120.9 320.72 111.72 320.72"/></g><g><line class="g" x1="116.31" y1="221.54" x2="116.31" y2="240.77"/><polygon points="111.72 237.64 116.31 254.77 120.9 237.64 111.72 237.64"/></g><g><g><polygon class="f" points="164.88 408.35 164.88 339.35 211.73 339.35 211.73 392.61 195.99 408.35 164.88 408.35"/><path d="m210.23,340.85v51.14l-14.86,14.86h-28.99v-66h43.85m3-3h-49.85v72h33.23l16.62-16.62v-55.38h0Z"/></g><polygon points="213.23 390.46 196.62 390.46 193.85 390.46 193.85 393.23 193.85 409.85 196.62 409.85 196.62 393.23 213.23 393.23 213.23 390.46"/></g><g><g><rect class="f" x="172.48" y="255.55" width="31.67" height="34.43"/><path d="m203.36,256.34v32.87h-30.1v-32.87h30.1m1.57-1.57h-33.23v36h33.23v-36h0Z"/></g><g><path d="m181.7,279.51v-7.92h-1.29v-1.27h1.29v-.44c0-1.29.29-2.47,1.06-3.21.63-.61,1.46-.86,2.24-.86.59,0,1.1.13,1.42.27l-.23,1.29c-.25-.11-.59-.21-1.06-.21-1.42,0-1.79,1.25-1.79,2.66v.49h2.22v1.27h-2.22v7.92h-1.65Z"/><path d="m190.7,266.33c-1.39,1.86-2.39,4.33-2.39,7.77s1.04,5.81,2.39,7.71h-1.31c-1.2-1.58-2.49-4.01-2.49-7.71.02-3.74,1.29-6.17,2.49-7.77h1.31Z"/><path d="m191.46,281.81c1.35-1.88,2.39-4.35,2.39-7.77s-1.03-5.83-2.39-7.71h1.29c1.22,1.56,2.49,3.99,2.49,7.73s-1.27,6.14-2.49,7.75h-1.29Z"/></g></g><g><path d="m177.81,360.47c.29.19.79.38,1.28.38.7,0,1.03-.35,1.03-.79s-.28-.71-.99-.98c-.96-.34-1.41-.87-1.41-1.51,0-.86.69-1.56,1.84-1.56.54,0,1.01.15,1.31.33l-.24.7c-.21-.13-.59-.31-1.09-.31-.57,0-.89.33-.89.73,0,.44.32.64,1.01.9.92.35,1.4.81,1.4,1.61,0,.94-.73,1.6-1.99,1.6-.58,0-1.12-.14-1.5-.36l.24-.74Z"/><path d="m183.46,354.61v1.53h1.39v.74h-1.39v2.87c0,.66.19,1.03.73,1.03.25,0,.44-.03.56-.07l.04.73c-.19.08-.48.13-.86.13-.45,0-.81-.14-1.04-.41-.28-.29-.37-.76-.37-1.39v-2.9h-.83v-.74h.83v-1.28l.95-.25Z"/><path d="m188.89,361.46l-.08-.67h-.03c-.3.42-.87.79-1.63.79-1.08,0-1.63-.76-1.63-1.53,0-1.29,1.14-1.99,3.2-1.98v-.11c0-.44-.12-1.23-1.21-1.23-.5,0-1.01.15-1.39.4l-.22-.64c.44-.29,1.08-.47,1.75-.47,1.63,0,2.02,1.11,2.02,2.18v1.99c0,.46.02.91.09,1.28h-.88Zm-.14-2.72c-1.06-.02-2.25.17-2.25,1.2,0,.63.42.92.91.92.69,0,1.13-.44,1.29-.89.03-.1.05-.21.05-.31v-.92Z"/><path d="m192.36,354.61v1.53h1.39v.74h-1.39v2.87c0,.66.19,1.03.73,1.03.25,0,.44-.03.56-.07l.04.73c-.19.08-.48.13-.86.13-.45,0-.81-.14-1.04-.41-.28-.29-.37-.76-.37-1.39v-2.9h-.83v-.74h.83v-1.28l.95-.25Z"/><path d="m195.31,358.97c.02,1.31.86,1.85,1.83,1.85.69,0,1.11-.12,1.47-.28l.17.69c-.34.15-.92.33-1.77.33-1.64,0-2.62-1.08-2.62-2.68s.95-2.87,2.5-2.87c1.74,0,2.2,1.53,2.2,2.51,0,.2-.02.35-.03.45h-3.74Zm2.84-.69c.01-.62-.25-1.57-1.34-1.57-.98,0-1.41.9-1.49,1.57h2.83Z"/><path d="m183.78,374.66l.29-2.16h-.9v-.65h1l.21-1.59h-.95v-.65h1.04l.29-2.1h.64l-.28,2.1h1.14l.29-2.1h.65l-.27,2.1h.9v.65h-1l-.2,1.59h.95v.65h-1.04l-.29,2.16h-.66l.29-2.16h-1.14l-.29,2.16h-.66Zm2.19-2.81l.21-1.59h-1.14l-.21,1.59h1.14Z"/><path d="m190.82,368.41h-.02l-1.24.67-.19-.74,1.56-.84h.83v7.15h-.93v-6.25Z"/></g><g><g><polygon class="f" points="164.88 220.04 164.88 151.04 211.73 151.04 211.73 204.3 195.99 220.04 164.88 220.04"/><path d="m210.23,152.54v51.14l-14.86,14.86h-28.99v-66h43.85m3-3h-49.85v72h33.23l16.62-16.62v-55.38h0Z"/></g><polygon points="213.23 202.15 196.62 202.15 193.85 202.15 193.85 204.92 193.85 221.54 196.62 221.54 196.62 204.92 213.23 204.92 213.23 202.15"/></g><g><path d="m176.7,170.67c.02,1.31.86,1.85,1.83,1.85.69,0,1.11-.12,1.47-.28l.17.69c-.34.15-.92.33-1.77.33-1.64,0-2.62-1.08-2.62-2.68s.95-2.87,2.5-2.87c1.74,0,2.2,1.53,2.2,2.51,0,.2-.02.35-.03.45h-3.74Zm2.84-.69c.01-.62-.25-1.57-1.34-1.57-.98,0-1.41.9-1.49,1.57h2.83Z"/><path d="m182.04,167.83l1.05,2.99c.18.48.32.92.43,1.36h.03c.12-.44.27-.88.45-1.36l1.03-2.99h1.01l-2.09,5.33h-.92l-2.02-5.33h1.03Z"/><path d="m187.39,170.67c.02,1.31.86,1.85,1.83,1.85.69,0,1.11-.12,1.47-.28l.17.69c-.34.15-.92.33-1.77.33-1.64,0-2.62-1.08-2.62-2.68s.95-2.87,2.5-2.87c1.74,0,2.2,1.53,2.2,2.51,0,.2-.02.35-.03.45h-3.74Zm2.84-.69c.01-.62-.25-1.57-1.34-1.57-.98,0-1.41.9-1.49,1.57h2.83Z"/><path d="m192.36,169.27c0-.55-.01-1-.04-1.44h.86l.05.88h.02c.26-.51.88-1,1.76-1,.74,0,1.88.44,1.88,2.27v3.18h-.97v-3.07c0-.86-.32-1.57-1.23-1.57-.64,0-1.13.45-1.3.99-.04.12-.07.29-.07.45v3.2h-.97v-3.88Z"/><path d="m199.59,166.3v1.53h1.39v.74h-1.39v2.87c0,.66.19,1.03.73,1.03.25,0,.44-.03.56-.07l.04.73c-.19.08-.48.13-.86.13-.45,0-.81-.14-1.04-.41-.28-.29-.37-.76-.37-1.39v-2.9h-.83v-.74h.83v-1.28l.95-.25Z"/><path d="m183.78,186.35l.29-2.16h-.9v-.65h1l.21-1.59h-.95v-.65h1.04l.29-2.1h.64l-.28,2.1h1.14l.29-2.1h.65l-.27,2.1h.9v.65h-1l-.2,1.59h.95v.65h-1.04l-.29,2.16h-.66l.29-2.16h-1.14l-.29,2.16h-.66Zm2.19-2.81l.21-1.59h-1.14l-.21,1.59h1.14Z"/><path d="m190.82,180.1h-.02l-1.24.67-.19-.74,1.56-.84h.83v7.15h-.93v-6.25Z"/></g><g><polyline class="g" points="188.31 290.77 188.31 301.85 218.77 301.85 218.77 271.38 229.69 271.38"/><polygon points="226.56 275.97 243.69 271.38 226.56 266.79 226.56 275.97"/></g><g><line class="g" x1="188.31" y1="290.77" x2="188.31" y2="323.85"/><polygon points="183.72 320.72 188.31 337.85 192.9 320.72 183.72 320.72"/></g><g><line class="g" x1="188.31" y1="221.54" x2="188.31" y2="240.77"/><polygon points="183.72 237.64 188.31 254.77 192.9 237.64 183.72 237.64"/></g><g><g><polygon class="f" points="236.88 408.35 236.88 339.35 283.73 339.35 283.73 392.61 267.99 408.35 236.88 408.35"/><path d="m282.23,340.85v51.14l-14.86,14.86h-28.99v-66h43.85m3-3h-49.85v72h33.23l16.62-16.62v-55.38h0Z"/></g><polygon points="285.23 390.46 268.62 390.46 265.85 390.46 265.85 393.23 265.85 409.85 268.62 409.85 268.62 393.23 285.23 393.23 285.23 390.46"/></g><g><g><rect class="f" x="244.48" y="255.55" width="31.67" height="34.43"/><path d="m275.36,256.34v32.87h-30.1v-32.87h30.1m1.57-1.57h-33.23v36h33.23v-36h0Z"/></g><g><path d="m253.7,279.51v-7.92h-1.29v-1.27h1.29v-.44c0-1.29.29-2.47,1.06-3.21.63-.61,1.46-.86,2.24-.86.59,0,1.1.13,1.42.27l-.23,1.29c-.25-.11-.59-.21-1.06-.21-1.42,0-1.79,1.25-1.79,2.66v.49h2.22v1.27h-2.22v7.92h-1.65Z"/><path d="m262.7,266.33c-1.39,1.86-2.39,4.33-2.39,7.77s1.04,5.81,2.39,7.71h-1.31c-1.2-1.58-2.49-4.01-2.49-7.71.02-3.74,1.29-6.17,2.49-7.77h1.31Z"/><path d="m263.46,281.81c1.35-1.88,2.39-4.35,2.39-7.77s-1.03-5.83-2.39-7.71h1.29c1.22,1.56,2.49,3.99,2.49,7.73s-1.27,6.14-2.49,7.75h-1.29Z"/></g></g><g><path d="m249.81,360.47c.29.19.79.38,1.28.38.7,0,1.03-.35,1.03-.79s-.28-.71-.99-.98c-.96-.34-1.41-.87-1.41-1.51,0-.86.69-1.56,1.84-1.56.54,0,1.01.15,1.31.33l-.24.7c-.21-.13-.59-.31-1.09-.31-.57,0-.89.33-.89.73,0,.44.32.64,1.01.9.92.35,1.4.81,1.4,1.61,0,.94-.73,1.6-1.99,1.6-.58,0-1.12-.14-1.5-.36l.24-.74Z"/><path d="m255.46,354.61v1.53h1.39v.74h-1.39v2.87c0,.66.19,1.03.73,1.03.25,0,.44-.03.56-.07l.04.73c-.19.08-.48.13-.86.13-.45,0-.81-.14-1.04-.41-.28-.29-.37-.76-.37-1.39v-2.9h-.83v-.74h.83v-1.28l.95-.25Z"/><path d="m260.89,361.46l-.08-.67h-.03c-.3.42-.87.79-1.63.79-1.08,0-1.63-.76-1.63-1.53,0-1.29,1.14-1.99,3.2-1.98v-.11c0-.44-.12-1.23-1.21-1.23-.5,0-1.01.15-1.39.4l-.22-.64c.44-.29,1.08-.47,1.75-.47,1.63,0,2.02,1.11,2.02,2.18v1.99c0,.46.02.91.09,1.28h-.88Zm-.14-2.72c-1.06-.02-2.25.17-2.25,1.2,0,.63.42.92.91.92.69,0,1.13-.44,1.29-.89.03-.1.05-.21.05-.31v-.92Z"/><path d="m264.36,354.61v1.53h1.39v.74h-1.39v2.87c0,.66.19,1.03.73,1.03.25,0,.44-.03.56-.07l.04.73c-.19.08-.48.13-.86.13-.45,0-.81-.14-1.04-.41-.28-.29-.37-.76-.37-1.39v-2.9h-.83v-.74h.83v-1.28l.95-.25Z"/><path d="m267.31,358.97c.02,1.31.86,1.85,1.83,1.85.69,0,1.11-.12,1.47-.28l.17.69c-.34.15-.92.33-1.77.33-1.64,0-2.62-1.08-2.62-2.68s.95-2.87,2.5-2.87c1.74,0,2.2,1.53,2.2,2.51,0,.2-.02.35-.03.45h-3.74Zm2.84-.69c.01-.62-.25-1.57-1.34-1.57-.98,0-1.41.9-1.49,1.57h2.83Z"/><path d="m255.78,374.66l.29-2.16h-.9v-.65h1l.21-1.59h-.95v-.65h1.04l.29-2.1h.64l-.28,2.1h1.14l.29-2.1h.65l-.27,2.1h.9v.65h-1l-.2,1.59h.95v.65h-1.04l-.29,2.16h-.66l.29-2.16h-1.14l-.29,2.16h-.66Zm2.19-2.81l.21-1.59h-1.14l-.21,1.59h1.14Z"/><path d="m260.71,374.66v-.59l.76-.74c1.83-1.74,2.65-2.66,2.66-3.74,0-.73-.35-1.4-1.42-1.4-.65,0-1.19.33-1.52.6l-.31-.68c.5-.42,1.2-.73,2.02-.73,1.54,0,2.19,1.06,2.19,2.08,0,1.32-.96,2.39-2.46,3.84l-.57.53v.02h3.21v.8h-4.57Z"/></g><g><g><polygon class="f" points="236.88 220.04 236.88 151.04 283.73 151.04 283.73 204.3 267.99 220.04 236.88 220.04"/><path d="m282.23,152.54v51.14l-14.86,14.86h-28.99v-66h43.85m3-3h-49.85v72h33.23l16.62-16.62v-55.38h0Z"/></g><polygon points="285.23 202.15 268.62 202.15 265.85 202.15 265.85 204.92 265.85 221.54 268.62 221.54 268.62 204.92 285.23 204.92 285.23 202.15"/></g><g><path d="m248.7,170.67c.02,1.31.86,1.85,1.83,1.85.69,0,1.11-.12,1.47-.28l.17.69c-.34.15-.92.33-1.77.33-1.64,0-2.62-1.08-2.62-2.68s.95-2.87,2.5-2.87c1.74,0,2.2,1.53,2.2,2.51,0,.2-.02.35-.03.45h-3.74Zm2.84-.69c.01-.62-.25-1.57-1.34-1.57-.98,0-1.41.9-1.49,1.57h2.83Z"/><path d="m254.04,167.83l1.05,2.99c.18.48.32.92.43,1.36h.03c.12-.44.27-.88.45-1.36l1.03-2.99h1.01l-2.09,5.33h-.92l-2.02-5.33h1.03Z"/><path d="m259.39,170.67c.02,1.31.86,1.85,1.83,1.85.69,0,1.11-.12,1.47-.28l.17.69c-.34.15-.92.33-1.77.33-1.64,0-2.62-1.08-2.62-2.68s.95-2.87,2.5-2.87c1.74,0,2.2,1.53,2.2,2.51,0,.2-.02.35-.03.45h-3.74Zm2.84-.69c.01-.62-.25-1.57-1.34-1.57-.98,0-1.41.9-1.49,1.57h2.83Z"/><path d="m264.36,169.27c0-.55-.01-1-.04-1.44h.86l.05.88h.02c.26-.51.88-1,1.76-1,.74,0,1.88.44,1.88,2.27v3.18h-.97v-3.07c0-.86-.32-1.57-1.23-1.57-.64,0-1.13.45-1.3.99-.04.12-.07.29-.07.45v3.2h-.97v-3.88Z"/><path d="m271.59,166.3v1.53h1.39v.74h-1.39v2.87c0,.66.19,1.03.73,1.03.25,0,.44-.03.56-.07l.04.73c-.19.08-.48.13-.86.13-.45,0-.81-.14-1.04-.41-.28-.29-.37-.76-.37-1.39v-2.9h-.83v-.74h.83v-1.28l.95-.25Z"/><path d="m255.78,186.35l.29-2.16h-.9v-.65h1l.21-1.59h-.95v-.65h1.04l.29-2.1h.64l-.28,2.1h1.14l.29-2.1h.65l-.27,2.1h.9v.65h-1l-.2,1.59h.95v.65h-1.04l-.29,2.16h-.66l.29-2.16h-1.14l-.29,2.16h-.66Zm2.19-2.81l.21-1.59h-1.14l-.21,1.59h1.14Z"/><path d="m260.71,186.35v-.59l.76-.74c1.83-1.74,2.65-2.66,2.66-3.74,0-.73-.35-1.4-1.42-1.4-.65,0-1.19.33-1.52.6l-.31-.68c.5-.42,1.2-.73,2.02-.73,1.54,0,2.19,1.06,2.19,2.08,0,1.32-.96,2.39-2.46,3.84l-.57.53v.02h3.21v.8h-4.57Z"/></g><g><polyline class="g" points="260.31 290.77 260.31 301.85 290.77 301.85 290.77 271.38 301.69 271.38"/><polygon points="298.56 275.97 315.69 271.38 298.56 266.79 298.56 275.97"/></g><g><line class="g" x1="260.31" y1="290.77" x2="260.31" y2="323.85"/><polygon points="255.72 320.72 260.31 337.85 264.9 320.72 255.72 320.72"/></g><g><line class="g" x1="260.31" y1="221.54" x2="260.31" y2="240.77"/><polygon points="255.72 237.64 260.31 254.77 264.9 237.64 255.72 237.64"/></g><g><g><polygon class="f" points="308.88 408.35 308.88 339.35 355.73 339.35 355.73 392.61 339.99 408.35 308.88 408.35"/><path d="m354.23,340.85v51.14l-14.86,14.86h-28.99v-66h43.85m3-3h-49.85v72h33.23l16.62-16.62v-55.38h0Z"/></g><polygon points="357.23 390.46 340.62 390.46 337.85 390.46 337.85 393.23 337.85 409.85 340.62 409.85 340.62 393.23 357.23 393.23 357.23 390.46"/></g><g><g><rect class="f" x="316.48" y="255.55" width="31.67" height="34.43"/><path d="m347.36,256.34v32.87h-30.1v-32.87h30.1m1.57-1.57h-33.23v36h33.23v-36h0Z"/></g><g><path d="m325.7,279.51v-7.92h-1.29v-1.27h1.29v-.44c0-1.29.29-2.47,1.06-3.21.63-.61,1.46-.86,2.24-.86.59,0,1.1.13,1.42.27l-.23,1.29c-.25-.11-.59-.21-1.06-.21-1.42,0-1.79,1.25-1.79,2.66v.49h2.22v1.27h-2.22v7.92h-1.65Z"/><path d="m334.7,266.33c-1.39,1.86-2.39,4.33-2.39,7.77s1.04,5.81,2.39,7.71h-1.31c-1.2-1.58-2.49-4.01-2.49-7.71.02-3.74,1.29-6.17,2.49-7.77h1.31Z"/><path d="m335.46,281.81c1.35-1.88,2.39-4.35,2.39-7.77s-1.03-5.83-2.39-7.71h1.29c1.22,1.56,2.49,3.99,2.49,7.73s-1.27,6.14-2.49,7.75h-1.29Z"/></g></g><g><path d="m361.23,255.65c.49.32,1.37.67,2.2.67,1.22,0,1.79-.61,1.79-1.37s-.48-1.23-1.71-1.69c-1.65-.59-2.43-1.5-2.43-2.6,0-1.48,1.2-2.7,3.17-2.7.93,0,1.75.27,2.26.57l-.42,1.22c-.36-.23-1.03-.53-1.88-.53-.99,0-1.54.57-1.54,1.25,0,.76.55,1.1,1.75,1.56,1.6.61,2.41,1.41,2.41,2.77,0,1.61-1.25,2.75-3.44,2.75-1.01,0-1.94-.25-2.58-.63l.42-1.27Z"/><path d="m370.76,244.35c-.44,1.6-1.25,3.63-1.79,4.5l-1.06.13c.42-1.12.91-3.1,1.12-4.46l1.73-.17Z"/><path d="m374.58,249.69c0-.7.47-1.2,1.14-1.2s1.1.49,1.12,1.2c0,.67-.44,1.18-1.14,1.18-.67,0-1.12-.51-1.12-1.18Zm0,6.71c0-.7.47-1.2,1.14-1.2s1.1.49,1.12,1.2c0,.67-.44,1.18-1.14,1.18-.67,0-1.12-.51-1.12-1.18Z"/><path d="m378.29,250.96v-1.14h9.8v1.14h-9.8Zm0,3.72v-1.14h9.8v1.14h-9.8Z"/><path d="m394.44,257.36v-7.92h-1.29v-1.27h1.29v-.44c0-1.29.29-2.47,1.06-3.21.63-.61,1.46-.86,2.24-.86.59,0,1.1.13,1.42.27l-.23,1.29c-.25-.11-.59-.21-1.06-.21-1.42,0-1.79,1.25-1.79,2.66v.49h2.22v1.27h-2.22v7.92h-1.65Z"/><path d="m403.44,244.18c-1.39,1.86-2.39,4.33-2.39,7.77s1.04,5.81,2.39,7.71h-1.31c-1.2-1.58-2.49-4.01-2.49-7.71.02-3.74,1.29-6.17,2.49-7.77h1.31Z"/><path d="m404.98,255.65c.49.32,1.37.67,2.2.67,1.22,0,1.79-.61,1.79-1.37s-.48-1.23-1.71-1.69c-1.65-.59-2.43-1.5-2.43-2.6,0-1.48,1.2-2.7,3.17-2.7.93,0,1.75.27,2.26.57l-.42,1.22c-.36-.23-1.03-.53-1.88-.53-.99,0-1.54.57-1.54,1.25,0,.76.55,1.1,1.75,1.56,1.6.61,2.41,1.41,2.41,2.77,0,1.61-1.25,2.75-3.44,2.75-1.01,0-1.94-.25-2.58-.63l.42-1.27Z"/><path d="m411.44,259.7c.42-1.12.93-3.15,1.14-4.54l1.86-.19c-.44,1.61-1.27,3.72-1.8,4.62l-1.2.11Z"/><path d="m421.41,253.07c.04,2.26,1.48,3.19,3.15,3.19,1.2,0,1.92-.21,2.54-.48l.29,1.2c-.59.27-1.6.57-3.06.57-2.83,0-4.52-1.86-4.52-4.64s1.63-4.96,4.31-4.96c3,0,3.8,2.64,3.8,4.33,0,.34-.04.61-.06.78h-6.46Zm4.9-1.2c.02-1.06-.44-2.72-2.32-2.72-1.69,0-2.43,1.56-2.56,2.72h4.88Z"/><path d="m431.64,244.35c-.44,1.6-1.25,3.63-1.79,4.5l-1.06.13c.42-1.12.91-3.1,1.12-4.46l1.73-.17Z"/><path d="m432.45,259.66c1.35-1.88,2.39-4.35,2.39-7.77s-1.03-5.83-2.39-7.71h1.29c1.22,1.56,2.49,3.99,2.49,7.73s-1.27,6.14-2.49,7.75h-1.29Z"/></g><g><path d="m398.01,278.53c0-.7.47-1.2,1.14-1.2s1.12.49,1.12,1.2-.44,1.2-1.14,1.2c-.67,0-1.12-.51-1.12-1.2Z"/><path d="m401.95,278.53c0-.7.47-1.2,1.14-1.2s1.12.49,1.12,1.2-.44,1.2-1.14,1.2c-.67,0-1.12-.51-1.12-1.2Z"/><path d="m405.88,278.53c0-.7.47-1.2,1.14-1.2s1.12.49,1.12,1.2-.44,1.2-1.14,1.2c-.67,0-1.12-.51-1.12-1.2Z"/></g><g><path d="m321.81,360.47c.29.19.79.38,1.28.38.7,0,1.03-.35,1.03-.79s-.28-.71-.99-.98c-.96-.34-1.41-.87-1.41-1.51,0-.86.69-1.56,1.84-1.56.54,0,1.01.15,1.31.33l-.24.7c-.21-.13-.59-.31-1.09-.31-.57,0-.89.33-.89.73,0,.44.32.64,1.01.9.92.35,1.4.81,1.4,1.61,0,.94-.73,1.6-1.99,1.6-.58,0-1.12-.14-1.5-.36l.24-.74Z"/><path d="m327.46,354.61v1.53h1.39v.74h-1.39v2.87c0,.66.19,1.03.73,1.03.25,0,.44-.03.56-.07l.04.73c-.19.08-.48.13-.86.13-.45,0-.81-.14-1.04-.41-.28-.29-.37-.76-.37-1.39v-2.9h-.83v-.74h.83v-1.28l.95-.25Z"/><path d="m332.89,361.46l-.08-.67h-.03c-.3.42-.87.79-1.63.79-1.08,0-1.63-.76-1.63-1.53,0-1.29,1.14-1.99,3.2-1.98v-.11c0-.44-.12-1.23-1.21-1.23-.5,0-1.01.15-1.39.4l-.22-.64c.44-.29,1.08-.47,1.75-.47,1.63,0,2.02,1.11,2.02,2.18v1.99c0,.46.02.91.09,1.28h-.88Zm-.14-2.72c-1.06-.02-2.25.17-2.25,1.2,0,.63.42.92.91.92.69,0,1.13-.44,1.29-.89.03-.1.05-.21.05-.31v-.92Z"/><path d="m336.36,354.61v1.53h1.39v.74h-1.39v2.87c0,.66.19,1.03.73,1.03.25,0,.44-.03.56-.07l.04.73c-.19.08-.48.13-.86.13-.45,0-.81-.14-1.04-.41-.28-.29-.37-.76-.37-1.39v-2.9h-.83v-.74h.83v-1.28l.95-.25Z"/><path d="m339.31,358.97c.02,1.31.86,1.85,1.83,1.85.69,0,1.11-.12,1.47-.28l.17.69c-.34.15-.92.33-1.77.33-1.64,0-2.62-1.08-2.62-2.68s.95-2.87,2.5-2.87c1.74,0,2.2,1.53,2.2,2.51,0,.2-.02.35-.03.45h-3.74Zm2.84-.69c.01-.62-.25-1.57-1.34-1.57-.98,0-1.41.9-1.49,1.57h2.83Z"/><path d="m327.78,374.66l.29-2.16h-.9v-.65h1l.21-1.59h-.95v-.65h1.04l.29-2.1h.64l-.28,2.1h1.14l.29-2.1h.65l-.27,2.1h.9v.65h-1l-.2,1.59h.95v.65h-1.04l-.29,2.16h-.66l.29-2.16h-1.14l-.29,2.16h-.66Zm2.19-2.81l.21-1.59h-1.14l-.21,1.59h1.14Z"/><path d="m332.95,373.55c.27.18.91.45,1.58.45,1.24,0,1.63-.79,1.62-1.39-.01-1-.91-1.43-1.85-1.43h-.54v-.73h.54c.7,0,1.6-.36,1.6-1.21,0-.57-.36-1.08-1.25-1.08-.57,0-1.12.25-1.43.47l-.25-.7c.37-.28,1.1-.55,1.87-.55,1.41,0,2.05.84,2.05,1.71,0,.74-.44,1.36-1.32,1.68v.02c.88.18,1.6.84,1.6,1.84,0,1.14-.89,2.15-2.61,2.15-.8,0-1.51-.25-1.86-.48l.26-.75Z"/></g><g><g><polygon class="f" points="308.88 220.04 308.88 151.04 355.73 151.04 355.73 204.3 339.99 220.04 308.88 220.04"/><path d="m354.23,152.54v51.14l-14.86,14.86h-28.99v-66h43.85m3-3h-49.85v72h33.23l16.62-16.62v-55.38h0Z"/></g><polygon points="357.23 202.15 340.62 202.15 337.85 202.15 337.85 204.92 337.85 221.54 340.62 221.54 340.62 204.92 357.23 204.92 357.23 202.15"/></g><g><path d="m320.7,170.67c.02,1.31.86,1.85,1.83,1.85.69,0,1.11-.12,1.47-.28l.17.69c-.34.15-.92.33-1.77.33-1.64,0-2.62-1.08-2.62-2.68s.95-2.87,2.5-2.87c1.74,0,2.2,1.53,2.2,2.51,0,.2-.02.35-.03.45h-3.74Zm2.84-.69c.01-.62-.25-1.57-1.34-1.57-.98,0-1.41.9-1.49,1.57h2.83Z"/><path d="m326.04,167.83l1.05,2.99c.18.48.32.92.43,1.36h.03c.12-.44.27-.88.45-1.36l1.03-2.99h1.01l-2.09,5.33h-.92l-2.02-5.33h1.03Z"/><path d="m331.39,170.67c.02,1.31.86,1.85,1.83,1.85.69,0,1.11-.12,1.47-.28l.17.69c-.34.15-.92.33-1.77.33-1.64,0-2.62-1.08-2.62-2.68s.95-2.87,2.5-2.87c1.74,0,2.2,1.53,2.2,2.51,0,.2-.02.35-.03.45h-3.74Zm2.84-.69c.01-.62-.25-1.57-1.34-1.57-.98,0-1.41.9-1.49,1.57h2.83Z"/><path d="m336.36,169.27c0-.55-.01-1-.04-1.44h.86l.05.88h.02c.26-.51.88-1,1.76-1,.74,0,1.88.44,1.88,2.27v3.18h-.97v-3.07c0-.86-.32-1.57-1.23-1.57-.64,0-1.13.45-1.3.99-.04.12-.07.29-.07.45v3.2h-.97v-3.88Z"/><path d="m343.59,166.3v1.53h1.39v.74h-1.39v2.87c0,.66.19,1.03.73,1.03.25,0,.44-.03.56-.07l.04.73c-.19.08-.48.13-.86.13-.45,0-.81-.14-1.04-.41-.28-.29-.37-.76-.37-1.39v-2.9h-.83v-.74h.83v-1.28l.95-.25Z"/><path d="m327.78,186.35l.29-2.16h-.9v-.65h1l.21-1.59h-.95v-.65h1.04l.29-2.1h.64l-.28,2.1h1.14l.29-2.1h.65l-.27,2.1h.9v.65h-1l-.2,1.59h.95v.65h-1.04l-.29,2.16h-.66l.29-2.16h-1.14l-.29,2.16h-.66Zm2.19-2.81l.21-1.59h-1.14l-.21,1.59h1.14Z"/><path d="m332.95,185.24c.27.18.91.45,1.58.45,1.24,0,1.63-.79,1.62-1.39-.01-1-.91-1.43-1.85-1.43h-.54v-.73h.54c.7,0,1.6-.36,1.6-1.21,0-.57-.36-1.08-1.25-1.08-.57,0-1.12.25-1.43.47l-.25-.7c.37-.28,1.1-.55,1.87-.55,1.41,0,2.05.84,2.05,1.71,0,.74-.44,1.36-1.32,1.68v.02c.88.18,1.6.84,1.6,1.84,0,1.14-.89,2.15-2.61,2.15-.8,0-1.51-.25-1.86-.48l.26-.75Z"/></g><g><polyline class="g" points="332.31 290.77 332.31 301.85 362.77 301.85 362.77 271.38 373.69 271.38"/><polygon points="370.56 275.97 387.69 271.38 370.56 266.79 370.56 275.97"/></g><g><line class="g" x1="332.31" y1="290.77" x2="332.31" y2="323.85"/><polygon points="327.72 320.72 332.31 337.85 336.9 320.72 327.72 320.72"/></g><g><line class="g" x1="332.31" y1="221.54" x2="332.31" y2="240.77"/><polygon points="327.72 237.64 332.31 254.77 336.9 237.64 327.72 237.64"/></g><g><line class="g" x1="418.15" y1="271.38" x2="434.62" y2="271.38"/><polygon points="431.49 275.97 448.62 271.38 431.49 266.79 431.49 275.97"/></g><g><g><polygon class="f" points="441.81 408.35 441.81 339.35 488.65 339.35 488.65 392.61 472.92 408.35 441.81 408.35"/><path d="m487.15,340.85v51.14l-14.86,14.86h-28.99v-66h43.85m3-3h-49.85v72h33.23l16.62-16.62v-55.38h0Z"/></g><polygon points="490.15 390.46 473.54 390.46 470.77 390.46 470.77 393.23 470.77 409.85 473.54 409.85 473.54 393.23 490.15 393.23 490.15 390.46"/></g><g><g><rect class="f" x="449.4" y="255.55" width="31.67" height="34.43"/><path d="m480.28,256.34v32.87h-30.1v-32.87h30.1m1.57-1.57h-33.23v36h33.23v-36h0Z"/></g><g><path d="m458.62,279.51v-7.92h-1.29v-1.27h1.29v-.44c0-1.29.29-2.47,1.06-3.21.63-.61,1.46-.86,2.24-.86.59,0,1.1.13,1.42.27l-.23,1.29c-.25-.11-.59-.21-1.06-.21-1.42,0-1.79,1.25-1.79,2.66v.49h2.22v1.27h-2.22v7.92h-1.65Z"/><path d="m467.62,266.33c-1.39,1.86-2.39,4.33-2.39,7.77s1.04,5.81,2.39,7.71h-1.31c-1.2-1.58-2.49-4.01-2.49-7.71.02-3.74,1.29-6.17,2.49-7.77h1.31Z"/><path d="m468.38,281.81c1.35-1.88,2.39-4.35,2.39-7.77s-1.03-5.83-2.39-7.71h1.29c1.22,1.56,2.49,3.99,2.49,7.73s-1.27,6.14-2.49,7.75h-1.29Z"/></g></g><g><path d="m454.73,360.47c.29.19.79.38,1.28.38.7,0,1.03-.35,1.03-.79s-.28-.71-.99-.98c-.96-.34-1.41-.87-1.41-1.51,0-.86.69-1.56,1.84-1.56.54,0,1.01.15,1.31.33l-.24.7c-.21-.13-.59-.31-1.09-.31-.57,0-.89.33-.89.73,0,.44.32.64,1.01.9.92.35,1.4.81,1.4,1.61,0,.94-.73,1.6-1.99,1.6-.58,0-1.12-.14-1.5-.36l.24-.74Z"/><path d="m460.39,354.61v1.53h1.39v.74h-1.39v2.87c0,.66.19,1.03.73,1.03.25,0,.44-.03.56-.07l.04.73c-.19.08-.48.13-.86.13-.45,0-.81-.14-1.04-.41-.28-.29-.37-.76-.37-1.39v-2.9h-.83v-.74h.83v-1.28l.95-.25Z"/><path d="m465.81,361.46l-.08-.67h-.03c-.3.42-.87.79-1.63.79-1.08,0-1.63-.76-1.63-1.53,0-1.29,1.14-1.99,3.2-1.98v-.11c0-.44-.12-1.23-1.21-1.23-.5,0-1.01.15-1.39.4l-.22-.64c.44-.29,1.08-.47,1.75-.47,1.63,0,2.02,1.11,2.02,2.18v1.99c0,.46.02.91.09,1.28h-.88Zm-.14-2.72c-1.06-.02-2.25.17-2.25,1.2,0,.63.42.92.91.92.69,0,1.13-.44,1.29-.89.03-.1.05-.21.05-.31v-.92Z"/><path d="m469.28,354.61v1.53h1.39v.74h-1.39v2.87c0,.66.19,1.03.73,1.03.25,0,.44-.03.56-.07l.04.73c-.19.08-.48.13-.86.13-.45,0-.81-.14-1.04-.41-.28-.29-.37-.76-.37-1.39v-2.9h-.83v-.74h.83v-1.28l.95-.25Z"/><path d="m472.23,358.97c.02,1.31.86,1.85,1.83,1.85.69,0,1.11-.12,1.47-.28l.17.69c-.34.15-.92.33-1.77.33-1.64,0-2.62-1.08-2.62-2.68s.95-2.87,2.5-2.87c1.74,0,2.2,1.53,2.2,2.51,0,.2-.02.35-.03.45h-3.74Zm2.84-.69c.01-.62-.25-1.57-1.34-1.57-.98,0-1.41.9-1.49,1.57h2.83Z"/><path d="m460.47,374.66l.29-2.16h-.9v-.65h1l.21-1.59h-.95v-.65h1.04l.29-2.1h.64l-.28,2.1h1.14l.29-2.1h.65l-.27,2.1h.9v.65h-1l-.2,1.59h.95v.65h-1.04l-.29,2.16h-.66l.29-2.16h-1.14l-.29,2.16h-.66Zm2.19-2.81l.21-1.59h-1.14l-.21,1.59h1.14Z"/><path d="m465.71,370.78c0-.55-.01-1-.04-1.44h.86l.05.88h.02c.26-.51.88-1,1.76-1,.74,0,1.88.44,1.88,2.27v3.18h-.97v-3.07c0-.86-.32-1.57-1.23-1.57-.64,0-1.13.45-1.3.99-.04.12-.07.29-.07.45v3.2h-.97v-3.88Z"/></g><g><g><polygon class="f" points="441.81 220.04 441.81 151.04 488.65 151.04 488.65 204.3 472.92 220.04 441.81 220.04"/><path d="m487.15,152.54v51.14l-14.86,14.86h-28.99v-66h43.85m3-3h-49.85v72h33.23l16.62-16.62v-55.38h0Z"/></g><polygon points="490.15 202.15 473.54 202.15 470.77 202.15 470.77 204.92 470.77 221.54 473.54 221.54 473.54 204.92 490.15 204.92 490.15 202.15"/></g><g><path d="m453.62,170.67c.02,1.31.86,1.85,1.83,1.85.69,0,1.11-.12,1.47-.28l.17.69c-.34.15-.92.33-1.77.33-1.64,0-2.62-1.08-2.62-2.68s.95-2.87,2.5-2.87c1.74,0,2.2,1.53,2.2,2.51,0,.2-.02.35-.03.45h-3.74Zm2.84-.69c.01-.62-.25-1.57-1.34-1.57-.98,0-1.41.9-1.49,1.57h2.83Z"/><path d="m458.97,167.83l1.05,2.99c.18.48.32.92.43,1.36h.03c.12-.44.27-.88.45-1.36l1.03-2.99h1.01l-2.09,5.33h-.92l-2.02-5.33h1.03Z"/><path d="m464.31,170.67c.02,1.31.86,1.85,1.83,1.85.69,0,1.11-.12,1.47-.28l.17.69c-.34.15-.92.33-1.77.33-1.64,0-2.62-1.08-2.62-2.68s.95-2.87,2.5-2.87c1.74,0,2.2,1.53,2.2,2.51,0,.2-.02.35-.03.45h-3.74Zm2.84-.69c.01-.62-.25-1.57-1.34-1.57-.98,0-1.41.9-1.49,1.57h2.83Z"/><path d="m469.28,169.27c0-.55-.01-1-.04-1.44h.86l.05.88h.02c.26-.51.88-1,1.76-1,.74,0,1.88.44,1.88,2.27v3.18h-.97v-3.07c0-.86-.32-1.57-1.23-1.57-.64,0-1.13.45-1.3.99-.04.12-.07.29-.07.45v3.2h-.97v-3.88Z"/><path d="m476.51,166.3v1.53h1.39v.74h-1.39v2.87c0,.66.19,1.03.73,1.03.25,0,.44-.03.56-.07l.04.73c-.19.08-.48.13-.86.13-.45,0-.81-.14-1.04-.41-.28-.29-.37-.76-.37-1.39v-2.9h-.83v-.74h.83v-1.28l.95-.25Z"/><path d="m460.47,186.35l.29-2.16h-.9v-.65h1l.21-1.59h-.95v-.65h1.04l.29-2.1h.64l-.28,2.1h1.14l.29-2.1h.65l-.27,2.1h.9v.65h-1l-.2,1.59h.95v.65h-1.04l-.29,2.16h-.66l.29-2.16h-1.14l-.29,2.16h-.66Zm2.19-2.81l.21-1.59h-1.14l-.21,1.59h1.14Z"/><path d="m465.71,182.47c0-.55-.01-1-.04-1.44h.86l.05.88h.02c.26-.51.88-1,1.76-1,.74,0,1.88.44,1.88,2.27v3.18h-.97v-3.07c0-.86-.32-1.57-1.23-1.57-.64,0-1.13.45-1.3.99-.04.12-.07.29-.07.45v3.2h-.97v-3.88Z"/></g><g><line class="g" x1="465.23" y1="290.77" x2="465.23" y2="323.85"/><polygon points="460.64 320.72 465.23 337.85 469.82 320.72 460.64 320.72"/></g><g><line class="g" x1="465.23" y1="221.54" x2="465.23" y2="240.77"/><polygon points="460.64 237.64 465.23 254.77 469.82 237.64 460.64 237.64"/></g><g><path class="i" d="m124.62,66.46c6.12,0,11.08-13.02,11.08-29.08s-4.96-29.08-11.08-29.08h-24.92c6.12,0,11.08,13.02,11.08,29.08s-4.96,29.08-11.08,29.08h24.92Z"/><g><path d="m118.7,41.29l.29-2.16h-.9v-.65h1l.21-1.59h-.95v-.65h1.04l.29-2.1h.64l-.28,2.1h1.14l.29-2.1h.65l-.27,2.1h.9v.65h-1l-.2,1.59h.95v.65h-1.04l-.29,2.16h-.66l.29-2.16h-1.14l-.29,2.16h-.66Zm2.19-2.81l.21-1.59h-1.14l-.21,1.59h1.14Z"/><path d="m128.39,37.64c0,2.43-.9,3.77-2.49,3.77-1.4,0-2.34-1.31-2.37-3.67,0-2.4,1.03-3.72,2.49-3.72s2.37,1.34,2.37,3.62Zm-3.88.11c0,1.86.57,2.92,1.45,2.92.99,0,1.46-1.16,1.46-2.98s-.45-2.92-1.45-2.92c-.85,0-1.46,1.03-1.46,2.98Z"/></g><path class="i" d="m149.54,66.46c6.12,0,11.08-13.02,11.08-29.08s-4.96-29.08-11.08-29.08h-24.92c6.12,0,11.08,13.02,11.08,29.08s-4.96,29.08-11.08,29.08h24.92Z"/><g><path d="m143.62,41.29l.29-2.16h-.9v-.65h1l.21-1.59h-.95v-.65h1.04l.29-2.1h.64l-.28,2.1h1.14l.29-2.1h.65l-.27,2.1h.9v.65h-1l-.2,1.59h.95v.65h-1.04l-.29,2.16h-.66l.29-2.16h-1.14l-.29,2.16h-.66Zm2.19-2.81l.21-1.59h-1.14l-.21,1.59h1.14Z"/><path d="m150.66,35.04h-.02l-1.24.67-.19-.74,1.56-.84h.83v7.15h-.93v-6.25Z"/></g><path class="i" d="m174.46,66.46c6.12,0,11.08-13.02,11.08-29.08s-4.96-29.08-11.08-29.08h-24.92c6.12,0,11.08,13.02,11.08,29.08s-4.96,29.08-11.08,29.08h24.92Z"/><g><path d="m168.54,41.29l.29-2.16h-.9v-.65h1l.21-1.59h-.95v-.65h1.04l.29-2.1h.64l-.28,2.1h1.14l.29-2.1h.65l-.27,2.1h.9v.65h-1l-.2,1.59h.95v.65h-1.04l-.29,2.16h-.66l.29-2.16h-1.14l-.29,2.16h-.66Zm2.19-2.81l.21-1.59h-1.14l-.21,1.59h1.14Z"/><path d="m173.48,41.29v-.59l.76-.74c1.83-1.74,2.65-2.66,2.66-3.74,0-.73-.35-1.4-1.42-1.4-.65,0-1.19.33-1.52.6l-.31-.68c.5-.42,1.2-.73,2.02-.73,1.54,0,2.19,1.06,2.19,2.08,0,1.32-.96,2.39-2.46,3.84l-.57.53v.02h3.21v.8h-4.57Z"/></g><path class="i" d="m199.38,66.46c6.12,0,11.08-13.02,11.08-29.08s-4.96-29.08-11.08-29.08h-24.92c6.12,0,11.08,13.02,11.08,29.08s-4.96,29.08-11.08,29.08h24.92Z"/><g><path d="m193.47,41.29l.29-2.16h-.9v-.65h1l.21-1.59h-.95v-.65h1.04l.29-2.1h.64l-.28,2.1h1.14l.29-2.1h.65l-.27,2.1h.9v.65h-1l-.2,1.59h.95v.65h-1.04l-.29,2.16h-.66l.29-2.16h-1.14l-.29,2.16h-.66Zm2.19-2.81l.21-1.59h-1.14l-.21,1.59h1.14Z"/><path d="m198.64,40.18c.27.18.91.45,1.58.45,1.24,0,1.63-.79,1.62-1.39-.01-1-.91-1.43-1.85-1.43h-.54v-.73h.54c.7,0,1.6-.36,1.6-1.21,0-.57-.36-1.08-1.25-1.08-.57,0-1.12.25-1.43.47l-.25-.7c.37-.28,1.1-.55,1.87-.55,1.41,0,2.05.84,2.05,1.71,0,.74-.44,1.36-1.32,1.68v.02c.88.18,1.6.84,1.6,1.84,0,1.14-.89,2.15-2.61,2.15-.8,0-1.51-.25-1.86-.48l.26-.75Z"/></g><path class="i" d="m224.31,66.46c6.12,0,11.08-13.02,11.08-29.08s-4.96-29.08-11.08-29.08h-24.92c6.12,0,11.08,13.02,11.08,29.08s-4.96,29.08-11.08,29.08h24.92Z"/><g><path d="m220.08,40.72c0-.41.27-.69.66-.69s.65.29.65.69-.25.69-.66.69c-.38,0-.65-.3-.65-.69Z"/><path d="m222.36,40.72c0-.41.27-.69.66-.69s.65.29.65.69-.25.69-.66.69c-.38,0-.65-.3-.65-.69Z"/><path d="m224.63,40.72c0-.41.27-.69.66-.69s.65.29.65.69-.25.69-.66.69c-.38,0-.65-.3-.65-.69Z"/></g><path class="i" d="m249.23,66.46c6.12,0,11.08-13.02,11.08-29.08s-4.96-29.08-11.08-29.08h-24.92c6.12,0,11.08,13.02,11.08,29.08s-4.96,29.08-11.08,29.08h24.92Z"/><g><path d="m243.08,41.29l.29-2.16h-.9v-.65h1l.21-1.59h-.95v-.65h1.04l.29-2.1h.64l-.28,2.1h1.14l.29-2.1h.65l-.27,2.1h.9v.65h-1l-.2,1.59h.95v.65h-1.04l-.29,2.16h-.66l.29-2.16h-1.14l-.29,2.16h-.66Zm2.19-2.81l.21-1.59h-1.14l-.21,1.59h1.14Z"/><path d="m248.33,37.41c0-.55-.01-1-.04-1.44h.86l.05.88h.02c.26-.51.88-1,1.76-1,.74,0,1.88.44,1.88,2.27v3.18h-.97v-3.07c0-.86-.32-1.57-1.23-1.57-.64,0-1.13.45-1.3.99-.04.12-.07.29-.07.45v3.2h-.97v-3.88Z"/></g><path class="e" d="m274.15,66.46c6.12,0,11.08-13.02,11.08-29.08s-4.96-29.08-11.08-29.08h-24.92c6.12,0,11.08,13.02,11.08,29.08s-4.96,29.08-11.08,29.08h24.92Z"/><ellipse class="i" cx="99.69" cy="37.38" rx="11.08" ry="29.08"/></g><g><line class="g" x1="113.54" y1="66.46" x2="113.54" y2="135.54"/><polygon points="108.95 132.41 113.54 149.54 118.13 132.41 108.95 132.41"/></g><g><polyline class="g" points="141.23 66.46 141.23 119.08 188.31 119.08 188.31 135.54"/><polygon points="183.72 132.41 188.31 149.54 192.9 132.41 183.72 132.41"/></g><g><polyline class="g" points="166.15 66.46 166.15 110.77 260.31 110.77 260.31 135.54"/><polygon points="255.72 132.41 260.31 149.54 264.9 132.41 255.72 132.41"/></g><g><polyline class="g" points="191.08 66.46 191.08 102.46 332.31 102.46 332.31 135.54"/><polygon points="327.72 132.41 332.31 149.54 336.9 132.41 327.72 132.41"/></g><g><polyline class="g" points="240.92 66.46 240.92 74.77 465.23 74.77 465.23 135.54"/><polygon points="460.64 132.41 465.23 149.54 469.82 132.41 460.64 132.41"/></g></svg>