<?xml version="1.0" encoding="UTF-8"?><svg id="b" xmlns="http://www.w3.org/2000/svg" viewBox="0 0 1052.31 459.69"><defs><style>.e,.f,.g,.h,.i,.j,.k,.l,.m,.n,.o{stroke-miterlimit:10;}.e,.p,.o{fill:#fff;}.e,.i,.j,.k,.l,.m,.o{stroke:#000;}.e,.m{stroke-width:1.35px;}.f{stroke:#666;}.f,.g,.h,.i,.j,.k,.l,.n{fill:none;}.f,.j{stroke-linecap:round;}.f,.j,.l{stroke-width:2px;}.g{stroke-dasharray:0 0 15.98 15.98;}.g,.h,.n{stroke:#999;stroke-width:5.27px;}.h{stroke-dasharray:0 0 16.28 16.28;}.i{stroke-width:2.12px;}.k{stroke-width:3px;}.m{fill:#e6e6e6;}.q{fill:#ccc;}.o{stroke-width:1.22px;}.r{fill:#666;}</style></defs><g><rect class="q" x="238.15" y="22.15" width="520.62" height="415.38"/><g><polyline class="n" points="758.77 30.06 758.77 22.15 750.86 22.15"/><line class="h" x1="734.58" y1="22.15" x2="254.2" y2="22.15"/><polyline class="n" points="246.06 22.15 238.15 22.15 238.15 30.06"/><line class="g" x1="238.15" y1="46.04" x2="238.15" y2="421.64"/><polyline class="n" points="238.15 429.63 238.15 437.54 246.06 437.54"/><line class="h" x1="262.34" y1="437.54" x2="742.72" y2="437.54"/><polyline class="n" points="750.86 437.54 758.77 437.54 758.77 429.63"/><line class="g" x1="758.77" y1="413.65" x2="758.77" y2="38.05"/></g></g><g><line class="i" x1="489.42" y1="216" x2="515.08" y2="216"/><path d="m489.82,223.98c-4.4,0-7.98-3.57-7.98-7.98s3.57-7.98,7.98-7.98,7.98,3.57,7.98,7.98-3.57,7.98-7.98,7.98Z"/></g><g><line class="i" x1="489.42" y1="299.08" x2="515.08" y2="299.08"/><path d="m489.82,307.05c-4.4,0-7.98-3.57-7.98-7.98s3.57-7.98,7.98-7.98,7.98,3.57,7.98,7.98-3.57,7.98-7.98,7.98Z"/></g><g><line class="i" x1="212.5" y1="299.08" x2="260.31" y2="299.08"/><path d="m212.9,307.05c-4.4,0-7.98-3.57-7.98-7.98s3.57-7.98,7.98-7.98,7.98,3.57,7.98,7.98-3.57,7.98-7.98,7.98Z"/></g><g><line class="i" x1="868.01" y1="298.69" x2="888.13" y2="298.69"/><path d="m868.41,306.67c-4.4,0-7.98-3.57-7.98-7.98s3.57-7.98,7.98-7.98,7.98,3.57,7.98,7.98-3.57,7.98-7.98,7.98Z"/></g><g><rect class="p" x="889.63" y="261.42" width="141" height="69"/><path d="m1029.13,262.92v66h-138v-66h138m3-3h-144v72h144v-72h0Z"/></g><g><path d="m933.37,284.14h-5.5v5.1h6.13v1.53h-7.96v-14.15h7.64v1.53h-5.82v4.47h5.5v1.51Z"/><path d="m937.17,280.62l1.45,2.18c.38.57.69,1.09,1.03,1.66h.06c.34-.61.67-1.13,1.01-1.68l1.43-2.16h1.99l-3.46,4.91,3.57,5.25h-2.1l-1.49-2.29c-.4-.59-.74-1.15-1.09-1.76h-.04c-.34.61-.69,1.15-1.07,1.76l-1.47,2.29h-2.04l3.61-5.19-3.44-4.98h2.06Z"/><path d="m948.53,277.7v2.92h2.64v1.41h-2.64v5.48c0,1.26.36,1.97,1.38,1.97.48,0,.84-.06,1.07-.13l.08,1.39c-.36.15-.92.25-1.64.25-.86,0-1.55-.27-1.99-.78-.53-.55-.71-1.45-.71-2.65v-5.54h-1.57v-1.41h1.57v-2.44l1.81-.48Z"/><path d="m954.16,286.03c.04,2.5,1.64,3.53,3.49,3.53,1.32,0,2.12-.23,2.81-.52l.32,1.32c-.65.29-1.76.63-3.38.63-3.13,0-5-2.06-5-5.12s1.81-5.48,4.77-5.48c3.32,0,4.2,2.92,4.2,4.79,0,.38-.04.67-.06.86h-7.14Zm5.42-1.32c.02-1.18-.48-3-2.56-3-1.87,0-2.69,1.72-2.83,3h5.4Z"/><path d="m963.65,283.79c0-1.2-.02-2.23-.08-3.17h1.62l.06,1.99h.08c.46-1.36,1.58-2.23,2.81-2.23.21,0,.36.02.53.06v1.74c-.19-.04-.38-.06-.63-.06-1.3,0-2.22.99-2.48,2.37-.04.25-.08.55-.08.86v5.42h-1.83v-6.99Z"/><path d="m970.6,283.37c0-1.05-.02-1.91-.08-2.75h1.64l.1,1.68h.04c.5-.97,1.68-1.91,3.36-1.91,1.41,0,3.59.84,3.59,4.33v6.07h-1.85v-5.86c0-1.64-.61-3-2.35-3-1.22,0-2.16.86-2.48,1.89-.08.23-.13.55-.13.86v6.11h-1.85v-7.41Z"/><path d="m987.89,290.78l-.15-1.28h-.06c-.57.8-1.66,1.51-3.11,1.51-2.06,0-3.11-1.45-3.11-2.92,0-2.46,2.18-3.8,6.11-3.78v-.21c0-.84-.23-2.35-2.31-2.35-.95,0-1.93.29-2.65.76l-.42-1.22c.84-.55,2.06-.9,3.34-.9,3.11,0,3.86,2.12,3.86,4.16v3.8c0,.88.04,1.74.17,2.44h-1.68Zm-.27-5.19c-2.02-.04-4.3.31-4.3,2.29,0,1.2.8,1.76,1.74,1.76,1.32,0,2.16-.84,2.46-1.7.06-.19.11-.4.11-.59v-1.76Z"/><path d="m992.38,275.87h1.85v14.91h-1.85v-14.91Z"/><path d="m905.52,302.02c1.11-.17,2.44-.29,3.88-.29,2.62,0,4.49.61,5.73,1.76,1.26,1.15,2,2.79,2,5.08s-.71,4.2-2.04,5.5c-1.32,1.32-3.51,2.04-6.26,2.04-1.3,0-2.39-.06-3.32-.17v-13.92Zm1.83,12.51c.46.08,1.13.1,1.85.1,3.91,0,6.03-2.18,6.03-6,.02-3.34-1.87-5.46-5.73-5.46-.95,0-1.66.08-2.14.19v11.17Z"/><path d="m920.55,311.23c.04,2.5,1.64,3.53,3.49,3.53,1.32,0,2.12-.23,2.81-.52l.32,1.32c-.65.29-1.76.63-3.38.63-3.13,0-5-2.06-5-5.12s1.81-5.48,4.77-5.48c3.32,0,4.2,2.92,4.2,4.79,0,.38-.04.67-.06.86h-7.14Zm5.42-1.32c.02-1.18-.48-3-2.56-3-1.87,0-2.69,1.72-2.83,3h5.4Z"/><path d="m930.04,309.13c0-1.3-.04-2.35-.08-3.32h1.66l.08,1.74h.04c.76-1.24,1.95-1.97,3.61-1.97,2.46,0,4.3,2.08,4.3,5.17,0,3.65-2.23,5.46-4.62,5.46-1.34,0-2.52-.59-3.13-1.6h-.04v5.52h-1.83v-11Zm1.83,2.71c0,.27.04.52.08.76.34,1.28,1.45,2.16,2.77,2.16,1.95,0,3.09-1.6,3.09-3.93,0-2.04-1.07-3.78-3.02-3.78-1.26,0-2.44.9-2.79,2.29-.06.23-.13.5-.13.76v1.74Z"/><path d="m943.02,311.23c.04,2.5,1.64,3.53,3.48,3.53,1.32,0,2.12-.23,2.81-.52l.31,1.32c-.65.29-1.76.63-3.38.63-3.13,0-5-2.06-5-5.12s1.8-5.48,4.77-5.48c3.32,0,4.2,2.92,4.2,4.79,0,.38-.04.67-.06.86h-7.14Zm5.42-1.32c.02-1.18-.48-3-2.56-3-1.87,0-2.69,1.72-2.83,3h5.4Z"/><path d="m952.51,308.57c0-1.05-.02-1.91-.08-2.75h1.64l.11,1.68h.04c.5-.97,1.68-1.91,3.36-1.91,1.41,0,3.59.84,3.59,4.33v6.07h-1.85v-5.86c0-1.64-.61-3-2.35-3-1.22,0-2.16.86-2.48,1.89-.08.23-.12.55-.12.86v6.11h-1.85v-7.41Z"/><path d="m972.94,301.07v12.28c0,.9.02,1.93.08,2.62h-1.66l-.08-1.76h-.04c-.57,1.13-1.81,1.99-3.46,1.99-2.46,0-4.35-2.08-4.35-5.17-.02-3.38,2.08-5.46,4.56-5.46,1.55,0,2.6.73,3.07,1.55h.04v-6.07h1.85Zm-1.85,8.88c0-.23-.02-.55-.08-.78-.27-1.18-1.28-2.14-2.67-2.14-1.91,0-3.04,1.68-3.04,3.93,0,2.06,1.01,3.76,3,3.76,1.24,0,2.37-.82,2.71-2.2.06-.25.08-.5.08-.8v-1.76Z"/><path d="m977.04,311.23c.04,2.5,1.64,3.53,3.48,3.53,1.32,0,2.12-.23,2.81-.52l.31,1.32c-.65.29-1.76.63-3.38.63-3.13,0-5-2.06-5-5.12s1.8-5.48,4.77-5.48c3.32,0,4.2,2.92,4.2,4.79,0,.38-.04.67-.06.86h-7.14Zm5.42-1.32c.02-1.18-.48-3-2.56-3-1.87,0-2.69,1.72-2.83,3h5.4Z"/><path d="m986.53,308.57c0-1.05-.02-1.91-.08-2.75h1.64l.11,1.68h.04c.5-.97,1.68-1.91,3.36-1.91,1.41,0,3.59.84,3.59,4.33v6.07h-1.85v-5.86c0-1.64-.61-3-2.35-3-1.22,0-2.16.86-2.48,1.89-.08.23-.12.55-.12.86v6.11h-1.85v-7.41Z"/><path d="m1005.43,315.6c-.48.25-1.55.59-2.92.59-3.07,0-5.06-2.08-5.06-5.19s2.14-5.4,5.46-5.4c1.09,0,2.06.27,2.56.52l-.42,1.43c-.44-.25-1.13-.48-2.14-.48-2.33,0-3.59,1.72-3.59,3.84,0,2.35,1.51,3.8,3.53,3.8,1.05,0,1.74-.27,2.27-.5l.32,1.39Z"/><path d="m1008.65,305.82l2.23,6c.23.67.48,1.47.65,2.08h.04c.19-.61.4-1.39.65-2.12l2.02-5.96h1.95l-2.77,7.24c-1.32,3.49-2.23,5.27-3.49,6.36-.9.8-1.8,1.11-2.27,1.2l-.46-1.55c.46-.15,1.07-.44,1.62-.9.5-.4,1.13-1.11,1.55-2.06.08-.19.15-.34.15-.44s-.04-.25-.12-.48l-3.76-9.36h2.02Z"/></g><g><rect class="p" x="23.63" y="261.79" width="137.47" height="69.04"/><path d="m159.63,263.27v66.07H25.12v-66.07h134.51m2.96-2.96H22.15v72h140.44v-72h0Z"/></g><g><path d="m78.31,303.3c-.67.34-2.02.67-3.74.67-3.99,0-6.99-2.52-6.99-7.16s3-7.43,7.39-7.43c1.76,0,2.88.38,3.36.63l-.44,1.49c-.69-.34-1.68-.59-2.86-.59-3.32,0-5.52,2.12-5.52,5.84,0,3.46,2,5.69,5.44,5.69,1.11,0,2.25-.23,2.98-.59l.38,1.45Z"/><path d="m80.54,288.86h1.85v14.91h-1.85v-14.91Z"/><path d="m87.55,290.75c.02.63-.44,1.13-1.18,1.13-.65,0-1.11-.5-1.11-1.13s.48-1.15,1.16-1.15,1.13.5,1.13,1.15Zm-2.06,13.02v-10.16h1.85v10.16h-1.85Z"/><path d="m91.44,299.02c.04,2.5,1.64,3.53,3.49,3.53,1.32,0,2.12-.23,2.81-.52l.32,1.32c-.65.29-1.76.63-3.38.63-3.13,0-5-2.06-5-5.12s1.81-5.48,4.77-5.48c3.32,0,4.2,2.92,4.2,4.79,0,.38-.04.67-.06.86h-7.14Zm5.42-1.32c.02-1.18-.48-3-2.56-3-1.87,0-2.69,1.72-2.83,3h5.4Z"/><path d="m100.93,296.35c0-1.05-.02-1.91-.08-2.75h1.64l.11,1.68h.04c.5-.97,1.68-1.91,3.36-1.91,1.41,0,3.59.84,3.59,4.33v6.07h-1.85v-5.86c0-1.64-.61-3-2.35-3-1.22,0-2.16.86-2.48,1.89-.08.23-.13.55-.13.86v6.11h-1.85v-7.41Z"/><path d="m114.72,290.68v2.92h2.65v1.41h-2.65v5.48c0,1.26.36,1.97,1.39,1.97.48,0,.84-.06,1.07-.13l.08,1.39c-.36.15-.92.25-1.64.25-.86,0-1.55-.27-1.99-.78-.53-.55-.71-1.45-.71-2.65v-5.54h-1.58v-1.41h1.58v-2.44l1.81-.48Z"/></g><g><line class="i" x1="489.42" y1="371.08" x2="509.54" y2="371.08"/><path d="m489.82,379.05c-4.4,0-7.98-3.57-7.98-7.98s3.57-7.98,7.98-7.98,7.98,3.57,7.98,7.98-3.57,7.98-7.98,7.98Z"/></g><g><rect class="p" x="261.81" y="261.81" width="141" height="69"/><path d="m401.31,263.31v66h-138v-66h138m3-3h-144v72h144v-72h0Z"/></g><g><path d="m312.35,277.01h1.83v12.62h6.05v1.53h-7.87v-14.15Z"/><path d="m331.1,286c0,3.76-2.6,5.4-5.06,5.4-2.75,0-4.87-2.02-4.87-5.23,0-3.4,2.23-5.4,5.04-5.4s4.89,2.12,4.89,5.23Zm-8.06.1c0,2.23,1.28,3.91,3.09,3.91s3.09-1.66,3.09-3.95c0-1.72-.86-3.91-3.04-3.91s-3.13,2.02-3.13,3.95Z"/><path d="m339.06,291.16l-.15-1.28h-.06c-.57.8-1.66,1.51-3.11,1.51-2.06,0-3.11-1.45-3.11-2.92,0-2.46,2.18-3.8,6.11-3.78v-.21c0-.84-.23-2.35-2.31-2.35-.95,0-1.93.29-2.65.76l-.42-1.22c.84-.55,2.06-.9,3.34-.9,3.11,0,3.86,2.12,3.86,4.16v3.8c0,.88.04,1.74.17,2.44h-1.68Zm-.27-5.19c-2.02-.04-4.3.31-4.3,2.29,0,1.2.8,1.76,1.74,1.76,1.32,0,2.16-.84,2.46-1.7.06-.19.11-.4.11-.59v-1.76Z"/><path d="m352.33,276.26v12.28c0,.9.02,1.93.08,2.62h-1.66l-.08-1.76h-.04c-.57,1.13-1.81,1.99-3.46,1.99-2.46,0-4.35-2.08-4.35-5.17-.02-3.38,2.08-5.46,4.56-5.46,1.55,0,2.6.73,3.07,1.55h.04v-6.07h1.85Zm-1.85,8.88c0-.23-.02-.55-.08-.78-.27-1.18-1.28-2.14-2.67-2.14-1.91,0-3.04,1.68-3.04,3.93,0,2.06,1.01,3.76,3,3.76,1.24,0,2.37-.82,2.71-2.2.06-.25.08-.5.08-.8v-1.76Z"/><path d="m296.45,302.4c.8-.17,2.06-.29,3.34-.29,1.83,0,3,.31,3.88,1.03.74.55,1.18,1.39,1.18,2.5,0,1.36-.9,2.56-2.39,3.11v.04c1.34.34,2.92,1.45,2.92,3.55,0,1.22-.48,2.14-1.2,2.83-.99.9-2.58,1.32-4.89,1.32-1.26,0-2.23-.08-2.83-.17v-13.92Zm1.83,5.79h1.66c1.93,0,3.07-1.01,3.07-2.37,0-1.66-1.26-2.31-3.11-2.31-.84,0-1.32.06-1.62.13v4.56Zm0,6.78c.36.06.88.08,1.53.08,1.89,0,3.63-.69,3.63-2.75,0-1.93-1.66-2.73-3.65-2.73h-1.51v5.4Z"/><path d="m313.4,316.36l-.15-1.28h-.06c-.57.8-1.66,1.51-3.11,1.51-2.06,0-3.11-1.45-3.11-2.92,0-2.46,2.18-3.8,6.11-3.78v-.21c0-.84-.23-2.35-2.31-2.35-.95,0-1.93.29-2.65.76l-.42-1.22c.84-.55,2.06-.9,3.34-.9,3.11,0,3.86,2.12,3.86,4.16v3.8c0,.88.04,1.74.17,2.44h-1.68Zm-.27-5.19c-2.02-.04-4.3.31-4.3,2.29,0,1.2.8,1.76,1.74,1.76,1.32,0,2.16-.84,2.46-1.7.06-.19.11-.4.11-.59v-1.76Z"/><path d="m317.89,301.45h1.85v14.91h-1.85v-14.91Z"/><path d="m328.47,316.36l-.15-1.28h-.06c-.57.8-1.66,1.51-3.11,1.51-2.06,0-3.11-1.45-3.11-2.92,0-2.46,2.18-3.8,6.11-3.78v-.21c0-.84-.23-2.35-2.31-2.35-.95,0-1.93.29-2.65.76l-.42-1.22c.84-.55,2.06-.9,3.34-.9,3.11,0,3.86,2.12,3.86,4.16v3.8c0,.88.04,1.74.17,2.44h-1.68Zm-.27-5.19c-2.02-.04-4.3.31-4.3,2.29,0,1.2.8,1.76,1.74,1.76,1.32,0,2.16-.84,2.46-1.7.06-.19.11-.4.11-.59v-1.76Z"/><path d="m332.97,308.95c0-1.05-.02-1.91-.08-2.75h1.64l.1,1.68h.04c.5-.97,1.68-1.91,3.36-1.91,1.41,0,3.59.84,3.59,4.33v6.07h-1.85v-5.86c0-1.64-.61-3-2.35-3-1.22,0-2.16.86-2.48,1.89-.08.23-.13.55-.13.86v6.11h-1.85v-7.41Z"/><path d="m351.87,315.98c-.48.25-1.55.59-2.92.59-3.07,0-5.06-2.08-5.06-5.19s2.14-5.4,5.46-5.4c1.09,0,2.06.27,2.56.52l-.42,1.43c-.44-.25-1.13-.48-2.14-.48-2.33,0-3.59,1.72-3.59,3.84,0,2.35,1.51,3.8,3.53,3.8,1.05,0,1.74-.27,2.27-.5l.31,1.39Z"/><path d="m354.93,311.62c.04,2.5,1.64,3.53,3.49,3.53,1.32,0,2.12-.23,2.81-.52l.32,1.32c-.65.29-1.76.63-3.38.63-3.13,0-5-2.06-5-5.12s1.81-5.48,4.77-5.48c3.32,0,4.2,2.92,4.2,4.79,0,.38-.04.67-.06.86h-7.14Zm5.42-1.32c.02-1.18-.48-3-2.56-3-1.87,0-2.69,1.72-2.83,3h5.4Z"/><path d="m364.43,309.37c0-1.2-.02-2.23-.08-3.17h1.62l.06,1.99h.08c.46-1.36,1.58-2.23,2.81-2.23.21,0,.36.02.53.06v1.74c-.19-.04-.38-.06-.63-.06-1.3,0-2.22.99-2.48,2.37-.04.25-.08.55-.08.86v5.42h-1.83v-6.99Z"/></g><g><path class="j" d="m404.31,299.08h16.62c9.14,0,16.62-9,16.62-20v-43.08c0-11,9-20,20-20h11.9"/><polygon points="466.67 220.07 481.85 216 466.67 211.93 466.67 220.07"/></g><g><path class="j" d="m404.31,299.08h16.62c9.14,0,16.62,9,16.62,20v32c0,11,9,20,20,20h11.9"/><polygon points="466.67 375.14 481.85 371.08 466.67 367.01 466.67 375.14"/></g><g><line class="j" x1="404.31" y1="299.08" x2="469.44" y2="299.08"/><polygon points="466.67 303.14 481.85 299.08 466.67 295.01 466.67 303.14"/></g><g><line class="j" x1="162.59" y1="299.08" x2="194.49" y2="298.8"/><polygon points="191.76 302.89 206.9 298.69 191.69 294.76 191.76 302.89"/></g><g><path class="f" d="m653.54,216h154.15c6.6,0,12.13,5.4,12.29,12l1.4,58.7c.16,6.6,5.69,12,12.29,12h14.37"/><polygon class="r" points="845.26 302.76 860.44 298.69 845.26 294.62 845.26 302.76"/></g><g><path class="f" d="m653.54,382.15h154.15c6.6,0,12.13-5.4,12.28-12l1.41-59.47c.16-6.6,5.68-12,12.28-12h14.37"/><polygon class="r" points="845.26 302.76 860.44 298.69 845.26 294.62 845.26 302.76"/></g><g><line class="f" x1="653.54" y1="299.08" x2="848.03" y2="298.72"/><polygon class="r" points="845.27 302.79 860.44 298.69 845.25 294.65 845.27 302.79"/></g><g><line class="k" x1="492.92" y1="129.15" x2="562.93" y2="129.15"/><polygon points="558.77 135.25 581.54 129.15 558.77 123.05 558.77 135.25"/></g><g><rect class="p" x="350.42" y="97.42" width="141" height="63.46"/><path d="m489.92,98.92v60.46h-138v-60.46h138m3-3h-144v66.46h144v-66.46h0Z"/></g><g><path d="m371.77,123.55c-.67.34-2.02.67-3.74.67-3.99,0-6.99-2.52-6.99-7.16s3-7.43,7.39-7.43c1.76,0,2.88.38,3.36.63l-.44,1.49c-.69-.34-1.68-.59-2.86-.59-3.32,0-5.52,2.12-5.52,5.84,0,3.46,2,5.69,5.44,5.69,1.11,0,2.25-.23,2.98-.59l.38,1.45Z"/><path d="m382.96,118.84c0,3.76-2.6,5.4-5.06,5.4-2.75,0-4.87-2.02-4.87-5.23,0-3.4,2.23-5.4,5.04-5.4s4.89,2.12,4.89,5.23Zm-8.06.1c0,2.23,1.28,3.91,3.09,3.91s3.09-1.66,3.09-3.95c0-1.72-.86-3.91-3.04-3.91s-3.13,2.02-3.13,3.95Z"/><path d="m385.3,116.6c0-1.05-.02-1.91-.08-2.75h1.64l.1,1.68h.04c.5-.97,1.68-1.91,3.36-1.91,1.41,0,3.59.84,3.59,4.33v6.07h-1.85v-5.86c0-1.64-.61-3-2.35-3-1.22,0-2.16.86-2.48,1.89-.08.23-.13.55-.13.86v6.11h-1.85v-7.41Z"/><path d="m397.14,124.01v-8.76h-1.43v-1.41h1.43v-.55c0-2.69,1.58-4.43,4.43-4.43.94,0,2.06.29,2.58.67l-.52,1.41c-.44-.31-1.24-.59-2.14-.59-1.95,0-2.52,1.36-2.52,2.98v.5h5.9v10.16h-1.83v-8.76h-4.07v8.76h-1.83Z"/><path d="m416.69,113.85c-.04.73-.08,1.55-.08,2.79v5.9c0,2.33-.46,3.76-1.45,4.64-.99.92-2.42,1.22-3.7,1.22s-2.56-.29-3.38-.84l.46-1.41c.67.42,1.72.8,2.98.8,1.89,0,3.28-.99,3.28-3.55v-1.13h-.04c-.57.94-1.66,1.7-3.23,1.7-2.52,0-4.33-2.14-4.33-4.96,0-3.44,2.25-5.4,4.58-5.4,1.76,0,2.73.92,3.17,1.76h.04l.08-1.53h1.62Zm-1.91,4.01c0-.31-.02-.59-.11-.84-.34-1.07-1.24-1.95-2.58-1.95-1.76,0-3.02,1.49-3.02,3.84,0,1.99,1.01,3.65,3,3.65,1.13,0,2.16-.71,2.56-1.89.11-.31.15-.67.15-.99v-1.83Z"/><path d="m428.18,121.24c0,1.05.02,1.97.08,2.77h-1.64l-.1-1.66h-.04c-.48.82-1.55,1.89-3.36,1.89-1.6,0-3.51-.88-3.51-4.45v-5.94h1.85v5.63c0,1.93.59,3.23,2.27,3.23,1.24,0,2.1-.86,2.44-1.68.11-.27.17-.61.17-.94v-6.24h1.85v7.39Z"/><path d="m431.24,117.02c0-1.2-.02-2.23-.08-3.17h1.62l.06,1.99h.08c.46-1.36,1.57-2.23,2.81-2.23.21,0,.36.02.52.06v1.74c-.19-.04-.38-.06-.63-.06-1.3,0-2.23.99-2.48,2.37-.04.25-.08.55-.08.86v5.42h-1.83v-6.99Z"/><path d="m443.63,124.01l-.15-1.28h-.06c-.57.8-1.66,1.51-3.11,1.51-2.06,0-3.11-1.45-3.11-2.92,0-2.46,2.18-3.8,6.11-3.78v-.21c0-.84-.23-2.35-2.31-2.35-.95,0-1.93.29-2.65.76l-.42-1.22c.84-.55,2.06-.9,3.34-.9,3.11,0,3.86,2.12,3.86,4.16v3.8c0,.88.04,1.74.17,2.44h-1.68Zm-.27-5.19c-2.02-.04-4.3.31-4.3,2.29,0,1.2.8,1.76,1.74,1.76,1.32,0,2.16-.84,2.46-1.7.06-.19.11-.4.11-.59v-1.76Z"/><path d="m450.27,110.93v2.92h2.65v1.41h-2.65v5.48c0,1.26.36,1.97,1.39,1.97.48,0,.84-.06,1.07-.13l.08,1.39c-.36.15-.92.25-1.64.25-.86,0-1.55-.27-2-.78-.52-.55-.71-1.45-.71-2.65v-5.54h-1.57v-1.41h1.57v-2.44l1.81-.48Z"/><path d="m457.05,110.99c.02.63-.44,1.13-1.18,1.13-.65,0-1.11-.5-1.11-1.13s.48-1.15,1.16-1.15,1.13.5,1.13,1.15Zm-2.06,13.02v-10.16h1.85v10.16h-1.85Z"/><path d="m469.1,118.84c0,3.76-2.6,5.4-5.06,5.4-2.75,0-4.87-2.02-4.87-5.23,0-3.4,2.23-5.4,5.04-5.4s4.89,2.12,4.89,5.23Zm-8.06.1c0,2.23,1.28,3.91,3.09,3.91s3.09-1.66,3.09-3.95c0-1.72-.86-3.91-3.04-3.91s-3.13,2.02-3.13,3.95Z"/><path d="m471.44,116.6c0-1.05-.02-1.91-.08-2.75h1.64l.11,1.68h.04c.5-.97,1.68-1.91,3.36-1.91,1.41,0,3.59.84,3.59,4.33v6.07h-1.85v-5.86c0-1.64-.61-3-2.35-3-1.22,0-2.16.86-2.48,1.89-.08.23-.13.55-.13.86v6.11h-1.85v-7.41Z"/><path d="m392.25,146.98c.82.5,2.02.92,3.28.92,1.87,0,2.96-.99,2.96-2.41,0-1.32-.76-2.08-2.67-2.81-2.31-.82-3.74-2.02-3.74-4.01,0-2.2,1.83-3.84,4.58-3.84,1.45,0,2.5.34,3.13.69l-.5,1.49c-.46-.25-1.41-.67-2.69-.67-1.93,0-2.67,1.15-2.67,2.12,0,1.32.86,1.97,2.81,2.73,2.39.92,3.61,2.08,3.61,4.16,0,2.18-1.62,4.07-4.96,4.07-1.37,0-2.86-.4-3.61-.9l.46-1.53Z"/><path d="m412.11,144.04c0,3.76-2.6,5.4-5.06,5.4-2.75,0-4.87-2.02-4.87-5.23,0-3.4,2.23-5.4,5.04-5.4s4.89,2.12,4.89,5.23Zm-8.06.1c0,2.23,1.28,3.91,3.09,3.91s3.09-1.66,3.09-3.95c0-1.72-.86-3.91-3.04-3.91s-3.13,2.02-3.13,3.95Z"/><path d="m422.95,146.44c0,1.05.02,1.97.08,2.77h-1.64l-.11-1.66h-.04c-.48.82-1.55,1.89-3.36,1.89-1.6,0-3.51-.88-3.51-4.45v-5.94h1.85v5.63c0,1.93.59,3.23,2.27,3.23,1.24,0,2.1-.86,2.44-1.68.1-.27.17-.61.17-.94v-6.24h1.85v7.39Z"/><path d="m426.01,142.22c0-1.2-.02-2.23-.08-3.17h1.62l.06,1.99h.08c.46-1.36,1.57-2.23,2.81-2.23.21,0,.36.02.52.06v1.74c-.19-.04-.38-.06-.63-.06-1.3,0-2.23.99-2.48,2.37-.04.25-.08.55-.08.86v5.42h-1.83v-6.99Z"/><path d="m439.91,148.83c-.48.25-1.55.59-2.92.59-3.07,0-5.06-2.08-5.06-5.19s2.14-5.4,5.46-5.4c1.09,0,2.06.27,2.56.52l-.42,1.43c-.44-.25-1.13-.48-2.14-.48-2.33,0-3.59,1.72-3.59,3.84,0,2.35,1.51,3.8,3.53,3.8,1.05,0,1.74-.27,2.27-.5l.32,1.39Z"/><path d="m442.98,144.46c.04,2.5,1.64,3.53,3.49,3.53,1.32,0,2.12-.23,2.81-.52l.32,1.32c-.65.29-1.76.63-3.38.63-3.13,0-5-2.06-5-5.12s1.81-5.48,4.77-5.48c3.32,0,4.2,2.92,4.2,4.79,0,.38-.04.67-.06.86h-7.14Zm5.42-1.32c.02-1.18-.48-3-2.56-3-1.87,0-2.69,1.72-2.83,3h5.4Z"/></g><g><g><circle class="p" cx="204.92" cy="265.85" r="12.58"/><path d="m204.92,254.77c6.12,0,11.08,4.96,11.08,11.08s-4.96,11.08-11.08,11.08-11.08-4.96-11.08-11.08,4.96-11.08,11.08-11.08m0-3c-7.76,0-14.08,6.31-14.08,14.08s6.31,14.08,14.08,14.08,14.08-6.31,14.08-14.08-6.31-14.08-14.08-14.08h0Z"/></g><path d="m207.02,273.3l-.15-1.28h-.06c-.57.8-1.66,1.51-3.11,1.51-2.06,0-3.11-1.45-3.11-2.92,0-2.46,2.18-3.8,6.11-3.78v-.21c0-.84-.23-2.35-2.31-2.35-.95,0-1.93.29-2.65.76l-.42-1.22c.84-.55,2.06-.9,3.34-.9,3.11,0,3.86,2.12,3.86,4.16v3.8c0,.88.04,1.74.17,2.44h-1.68Zm-.27-5.19c-2.02-.04-4.3.31-4.3,2.29,0,1.2.8,1.76,1.74,1.76,1.32,0,2.16-.84,2.46-1.7.06-.19.11-.4.11-.59v-1.76Z"/></g><g><g><path class="p" d="m459.69,256.27c-6.94,0-12.58-5.64-12.58-12.58s5.64-12.58,12.58-12.58,12.58,5.64,12.58,12.58-5.64,12.58-12.58,12.58Z"/><path d="m459.69,232.62c6.12,0,11.08,4.96,11.08,11.08s-4.96,11.08-11.08,11.08-11.08-4.96-11.08-11.08,4.96-11.08,11.08-11.08m0-3c-7.76,0-14.08,6.31-14.08,14.08s6.31,14.08,14.08,14.08,14.08-6.31,14.08-14.08-6.31-14.08-14.08-14.08h0Z"/></g><path d="m455.17,251.15c.04-.69.08-1.72.08-2.62v-12.28h1.83v6.38h.04c.65-1.13,1.83-1.87,3.46-1.87,2.52,0,4.3,2.1,4.28,5.19,0,3.63-2.29,5.44-4.56,5.44-1.47,0-2.65-.57-3.4-1.91h-.06l-.08,1.68h-1.6Zm1.91-4.07c0,.23.04.46.08.67.36,1.28,1.43,2.16,2.77,2.16,1.93,0,3.09-1.57,3.09-3.91,0-2.04-1.05-3.78-3.02-3.78-1.26,0-2.44.86-2.81,2.27-.04.21-.11.46-.11.76v1.83Z"/></g><g><g><path class="p" d="m537.23,119.58c-6.94,0-12.58-5.64-12.58-12.58s5.64-12.58,12.58-12.58,12.58,5.64,12.58,12.58-5.64,12.58-12.58,12.58Z"/><path d="m537.23,95.92c6.12,0,11.08,4.96,11.08,11.08s-4.96,11.08-11.08,11.08-11.08-4.96-11.08-11.08,4.96-11.08,11.08-11.08m0-3c-7.76,0-14.08,6.31-14.08,14.08s6.31,14.08,14.08,14.08,14.08-6.31,14.08-14.08-6.31-14.08-14.08-14.08h0Z"/></g><path d="m541.3,114.08c-.48.25-1.55.59-2.92.59-3.07,0-5.06-2.08-5.06-5.19s2.14-5.4,5.46-5.4c1.09,0,2.06.27,2.56.53l-.42,1.43c-.44-.25-1.13-.48-2.14-.48-2.33,0-3.59,1.72-3.59,3.84,0,2.35,1.51,3.8,3.53,3.8,1.05,0,1.74-.27,2.27-.5l.32,1.39Z"/></g><g><g><circle class="p" cx="670.15" cy="167.92" r="12.58"/><path d="m670.15,156.85c6.12,0,11.08,4.96,11.08,11.08s-4.96,11.08-11.08,11.08-11.08-4.96-11.08-11.08,4.96-11.08,11.08-11.08m0-3c-7.76,0-14.08,6.31-14.08,14.08s6.31,14.08,14.08,14.08,14.08-6.31,14.08-14.08-6.31-14.08-14.08-14.08h0Z"/></g><path d="m674.54,160.47v12.28c0,.9.02,1.93.08,2.62h-1.66l-.08-1.76h-.04c-.57,1.13-1.81,1.99-3.46,1.99-2.46,0-4.35-2.08-4.35-5.17-.02-3.38,2.08-5.46,4.56-5.46,1.55,0,2.6.73,3.07,1.55h.04v-6.07h1.85Zm-1.85,8.88c0-.23-.02-.55-.08-.78-.27-1.18-1.28-2.14-2.67-2.14-1.91,0-3.04,1.68-3.04,3.93,0,2.06,1.01,3.76,3,3.76,1.24,0,2.37-.82,2.71-2.2.06-.25.08-.5.08-.8v-1.76Z"/></g><g><g><rect class="p" x="511.04" y="178.73" width="141" height="69"/><path d="m650.54,180.23v66h-138v-66h138m3-3h-144v72h144v-72h0Z"/></g><g><path d="m530.06,208.08l-3.59-14.15h1.93l1.68,7.16c.42,1.76.8,3.53,1.05,4.89h.04c.23-1.41.67-3.09,1.15-4.91l1.89-7.14h1.91l1.72,7.18c.4,1.68.78,3.36.99,4.85h.04c.29-1.55.69-3.13,1.13-4.89l1.87-7.14h1.87l-4.01,14.15h-1.91l-1.78-7.37c-.44-1.81-.74-3.19-.92-4.62h-.04c-.25,1.41-.57,2.79-1.09,4.62l-2.02,7.37h-1.91Z"/><path d="m545.79,203.34c.04,2.5,1.64,3.53,3.49,3.53,1.32,0,2.12-.23,2.81-.52l.32,1.32c-.65.29-1.76.63-3.38.63-3.13,0-5-2.06-5-5.12s1.81-5.48,4.77-5.48c3.32,0,4.2,2.92,4.2,4.79,0,.38-.04.67-.06.86h-7.14Zm5.42-1.32c.02-1.18-.48-3-2.56-3-1.87,0-2.69,1.72-2.83,3h5.4Z"/><path d="m555.19,208.08c.04-.69.08-1.72.08-2.62v-12.28h1.83v6.38h.04c.65-1.13,1.83-1.87,3.46-1.87,2.52,0,4.3,2.1,4.28,5.19,0,3.63-2.29,5.44-4.56,5.44-1.47,0-2.65-.57-3.4-1.91h-.06l-.08,1.68h-1.6Zm1.91-4.07c0,.23.04.46.08.67.36,1.28,1.43,2.16,2.77,2.16,1.93,0,3.09-1.57,3.09-3.91,0-2.04-1.05-3.78-3.02-3.78-1.26,0-2.44.86-2.81,2.27-.04.21-.1.46-.1.76v1.83Z"/><path d="m530.04,228.83l-1.47,4.45h-1.89l4.81-14.15h2.21l4.83,14.15h-1.95l-1.51-4.45h-5.02Zm4.64-1.43l-1.39-4.07c-.32-.92-.52-1.76-.74-2.58h-.04c-.21.84-.44,1.7-.71,2.56l-1.38,4.09h4.26Z"/><path d="m540.47,226.44c0-1.3-.04-2.35-.08-3.32h1.66l.08,1.74h.04c.76-1.24,1.95-1.97,3.61-1.97,2.46,0,4.3,2.08,4.3,5.17,0,3.65-2.23,5.46-4.62,5.46-1.34,0-2.52-.59-3.13-1.6h-.04v5.52h-1.83v-11Zm1.83,2.71c0,.27.04.52.08.76.34,1.28,1.45,2.16,2.77,2.16,1.95,0,3.09-1.6,3.09-3.93,0-2.04-1.07-3.78-3.02-3.78-1.26,0-2.44.9-2.79,2.29-.06.23-.13.5-.13.76v1.74Z"/><path d="m552.42,226.44c0-1.3-.04-2.35-.08-3.32h1.66l.08,1.74h.04c.76-1.24,1.95-1.97,3.61-1.97,2.46,0,4.3,2.08,4.3,5.17,0,3.65-2.23,5.46-4.62,5.46-1.34,0-2.52-.59-3.13-1.6h-.04v5.52h-1.83v-11Zm1.83,2.71c0,.27.04.52.08.76.34,1.28,1.45,2.16,2.77,2.16,1.95,0,3.09-1.6,3.09-3.93,0-2.04-1.07-3.78-3.02-3.78-1.26,0-2.44.9-2.79,2.29-.06.23-.13.5-.13.76v1.74Z"/></g><g><ellipse class="o" cx="623.08" cy="193.85" rx="19.38" ry="5.54"/><path class="o" d="m642.46,204.92c0,3.06-8.68,5.54-19.38,5.54s-19.38-2.48-19.38-5.54v-11.08c0,3.06,8.68,5.54,19.38,5.54s19.38-2.48,19.38-5.54v11.08Z"/></g><g><path d="m609.94,216.47h1.13v7.81h3.74v.95h-4.88v-8.76Z"/><path d="m621.55,222.03c0,2.33-1.61,3.34-3.13,3.34-1.7,0-3.02-1.25-3.02-3.24,0-2.11,1.38-3.34,3.12-3.34s3.03,1.31,3.03,3.24Zm-4.99.07c0,1.38.79,2.42,1.91,2.42s1.91-1.03,1.91-2.44c0-1.07-.53-2.42-1.89-2.42s-1.94,1.25-1.94,2.44Z"/><path d="m627.48,225c-.3.16-.96.36-1.81.36-1.9,0-3.13-1.29-3.13-3.21s1.33-3.34,3.38-3.34c.68,0,1.27.17,1.59.32l-.26.88c-.27-.16-.7-.3-1.33-.3-1.44,0-2.22,1.07-2.22,2.38,0,1.46.94,2.35,2.18,2.35.65,0,1.08-.17,1.4-.31l.2.86Z"/><path d="m632.3,225.23l-.09-.79h-.04c-.35.49-1.03.94-1.92.94-1.27,0-1.92-.9-1.92-1.81,0-1.52,1.35-2.35,3.78-2.34v-.13c0-.52-.14-1.46-1.43-1.46-.58,0-1.2.18-1.64.47l-.26-.75c.52-.34,1.27-.56,2.07-.56,1.92,0,2.39,1.31,2.39,2.57v2.35c0,.55.03,1.08.1,1.51h-1.04Zm-.17-3.21c-1.25-.03-2.67.2-2.67,1.42,0,.74.49,1.09,1.08,1.09.82,0,1.34-.52,1.52-1.05.04-.12.07-.25.07-.36v-1.09Z"/><path d="m635.08,216h1.14v9.23h-1.14v-9.23Z"/><path d="m613.55,240.54c-.42.21-1.25.42-2.31.42-2.47,0-4.33-1.56-4.33-4.43s1.86-4.6,4.58-4.6c1.09,0,1.78.23,2.08.39l-.27.92c-.43-.21-1.04-.36-1.77-.36-2.05,0-3.42,1.31-3.42,3.61,0,2.14,1.24,3.52,3.37,3.52.69,0,1.39-.14,1.85-.36l.23.9Z"/><path d="m618.33,240.83l-.09-.79h-.04c-.35.49-1.03.94-1.92.94-1.27,0-1.92-.9-1.92-1.81,0-1.52,1.35-2.35,3.78-2.34v-.13c0-.52-.14-1.46-1.43-1.46-.58,0-1.2.18-1.64.47l-.26-.75c.52-.34,1.27-.56,2.07-.56,1.92,0,2.39,1.31,2.39,2.57v2.35c0,.55.03,1.08.1,1.51h-1.04Zm-.17-3.21c-1.25-.03-2.67.19-2.67,1.42,0,.74.49,1.09,1.08,1.09.82,0,1.34-.52,1.52-1.05.04-.12.07-.25.07-.36v-1.09Z"/><path d="m625.59,240.6c-.3.16-.96.36-1.81.36-1.9,0-3.13-1.29-3.13-3.21s1.33-3.34,3.38-3.34c.68,0,1.27.17,1.59.32l-.26.88c-.27-.16-.7-.3-1.33-.3-1.44,0-2.22,1.07-2.22,2.38,0,1.46.94,2.35,2.18,2.35.65,0,1.08-.17,1.4-.31l.2.86Z"/><path d="m626.93,231.6h1.14v3.93h.03c.18-.33.47-.61.82-.81.34-.2.74-.33,1.17-.33.84,0,2.2.52,2.2,2.69v3.74h-1.14v-3.61c0-1.01-.38-1.87-1.46-1.87-.74,0-1.33.52-1.53,1.14-.06.16-.08.32-.08.55v3.8h-1.14v-9.23Z"/><path d="m634.78,237.89c.03,1.55,1.01,2.18,2.16,2.18.82,0,1.31-.14,1.74-.33l.2.82c-.4.18-1.09.39-2.09.39-1.94,0-3.09-1.27-3.09-3.17s1.12-3.39,2.95-3.39c2.05,0,2.6,1.81,2.6,2.96,0,.23-.03.42-.04.53h-4.42Zm3.35-.82c.01-.73-.3-1.86-1.59-1.86-1.16,0-1.66,1.07-1.76,1.86h3.34Z"/></g></g><g><g><rect class="p" x="511.04" y="256.27" width="141" height="69"/><path d="m650.54,257.77v66h-138v-66h138m3-3h-144v72h144v-72h0Z"/></g><g><path d="m530.06,285.62l-3.59-14.15h1.93l1.68,7.16c.42,1.76.8,3.53,1.05,4.89h.04c.23-1.41.67-3.09,1.15-4.91l1.89-7.14h1.91l1.72,7.18c.4,1.68.78,3.36.99,4.85h.04c.29-1.55.69-3.13,1.13-4.89l1.87-7.14h1.87l-4.01,14.15h-1.91l-1.78-7.37c-.44-1.81-.74-3.19-.92-4.62h-.04c-.25,1.41-.57,2.79-1.09,4.62l-2.02,7.37h-1.91Z"/><path d="m545.79,280.88c.04,2.5,1.64,3.53,3.49,3.53,1.32,0,2.12-.23,2.81-.52l.32,1.32c-.65.29-1.76.63-3.38.63-3.13,0-5-2.06-5-5.12s1.81-5.48,4.77-5.48c3.32,0,4.2,2.92,4.2,4.79,0,.38-.04.67-.06.86h-7.14Zm5.42-1.32c.02-1.18-.48-3-2.56-3-1.87,0-2.69,1.72-2.83,3h5.4Z"/><path d="m555.19,285.62c.04-.69.08-1.72.08-2.62v-12.28h1.83v6.38h.04c.65-1.13,1.83-1.87,3.46-1.87,2.52,0,4.3,2.1,4.28,5.19,0,3.63-2.29,5.44-4.56,5.44-1.47,0-2.65-.57-3.4-1.91h-.06l-.08,1.68h-1.6Zm1.91-4.07c0,.23.04.46.08.67.36,1.28,1.43,2.16,2.77,2.16,1.93,0,3.09-1.57,3.09-3.91,0-2.04-1.05-3.78-3.02-3.78-1.26,0-2.44.86-2.81,2.27-.04.21-.1.46-.1.76v1.83Z"/><path d="m530.04,306.37l-1.47,4.45h-1.89l4.81-14.15h2.21l4.83,14.15h-1.95l-1.51-4.45h-5.02Zm4.64-1.43l-1.39-4.07c-.32-.92-.52-1.76-.74-2.58h-.04c-.21.84-.44,1.7-.71,2.56l-1.38,4.09h4.26Z"/><path d="m540.47,303.98c0-1.3-.04-2.35-.08-3.32h1.66l.08,1.74h.04c.76-1.24,1.95-1.97,3.61-1.97,2.46,0,4.3,2.08,4.3,5.17,0,3.65-2.23,5.46-4.62,5.46-1.34,0-2.52-.59-3.13-1.6h-.04v5.52h-1.83v-11Zm1.83,2.71c0,.27.04.52.08.76.34,1.28,1.45,2.16,2.77,2.16,1.95,0,3.09-1.6,3.09-3.93,0-2.04-1.07-3.78-3.02-3.78-1.26,0-2.44.9-2.79,2.29-.06.23-.13.5-.13.76v1.74Z"/><path d="m552.42,303.98c0-1.3-.04-2.35-.08-3.32h1.66l.08,1.74h.04c.76-1.24,1.95-1.97,3.61-1.97,2.46,0,4.3,2.08,4.3,5.17,0,3.65-2.23,5.46-4.62,5.46-1.34,0-2.52-.59-3.13-1.6h-.04v5.52h-1.83v-11Zm1.83,2.71c0,.27.04.52.08.76.34,1.28,1.45,2.16,2.77,2.16,1.95,0,3.09-1.6,3.09-3.93,0-2.04-1.07-3.78-3.02-3.78-1.26,0-2.44.9-2.79,2.29-.06.23-.13.5-.13.76v1.74Z"/></g><g><ellipse class="o" cx="623.08" cy="271.38" rx="19.38" ry="5.54"/><path class="o" d="m642.46,282.46c0,3.06-8.68,5.54-19.38,5.54s-19.38-2.48-19.38-5.54v-11.08c0,3.06,8.68,5.54,19.38,5.54s19.38-2.48,19.38-5.54v11.08Z"/></g><g><path d="m609.94,294.01h1.13v7.81h3.74v.95h-4.88v-8.76Z"/><path d="m621.55,299.57c0,2.33-1.61,3.34-3.13,3.34-1.7,0-3.02-1.25-3.02-3.24,0-2.11,1.38-3.34,3.12-3.34s3.03,1.31,3.03,3.24Zm-4.99.07c0,1.38.79,2.42,1.91,2.42s1.91-1.03,1.91-2.44c0-1.07-.53-2.42-1.89-2.42s-1.94,1.25-1.94,2.44Z"/><path d="m627.48,302.53c-.3.16-.96.36-1.81.36-1.9,0-3.13-1.29-3.13-3.21s1.33-3.34,3.38-3.34c.68,0,1.27.17,1.59.32l-.26.88c-.27-.16-.7-.3-1.33-.3-1.44,0-2.22,1.07-2.22,2.38,0,1.46.94,2.35,2.18,2.35.65,0,1.08-.17,1.4-.31l.2.86Z"/><path d="m632.3,302.77l-.09-.79h-.04c-.35.49-1.03.94-1.92.94-1.27,0-1.92-.9-1.92-1.81,0-1.52,1.35-2.35,3.78-2.34v-.13c0-.52-.14-1.46-1.43-1.46-.58,0-1.2.18-1.64.47l-.26-.75c.52-.34,1.27-.56,2.07-.56,1.92,0,2.39,1.31,2.39,2.57v2.35c0,.55.03,1.08.1,1.51h-1.04Zm-.17-3.21c-1.25-.03-2.67.2-2.67,1.42,0,.74.49,1.09,1.08,1.09.82,0,1.34-.52,1.52-1.05.04-.12.07-.25.07-.36v-1.09Z"/><path d="m635.08,293.54h1.14v9.23h-1.14v-9.23Z"/><path d="m613.55,318.08c-.42.21-1.25.42-2.31.42-2.47,0-4.33-1.56-4.33-4.43s1.86-4.6,4.58-4.6c1.09,0,1.78.23,2.08.39l-.27.92c-.43-.21-1.04-.36-1.77-.36-2.05,0-3.42,1.31-3.42,3.61,0,2.14,1.24,3.52,3.37,3.52.69,0,1.39-.14,1.85-.36l.23.9Z"/><path d="m618.33,318.37l-.09-.79h-.04c-.35.49-1.03.94-1.92.94-1.27,0-1.92-.9-1.92-1.81,0-1.52,1.35-2.35,3.78-2.34v-.13c0-.52-.14-1.46-1.43-1.46-.58,0-1.2.18-1.64.47l-.26-.75c.52-.34,1.27-.56,2.07-.56,1.92,0,2.39,1.31,2.39,2.57v2.35c0,.55.03,1.08.1,1.51h-1.04Zm-.17-3.21c-1.25-.03-2.67.19-2.67,1.42,0,.74.49,1.09,1.08,1.09.82,0,1.34-.52,1.52-1.05.04-.12.07-.25.07-.36v-1.09Z"/><path d="m625.59,318.13c-.3.16-.96.36-1.81.36-1.9,0-3.13-1.29-3.13-3.21s1.33-3.34,3.38-3.34c.68,0,1.27.17,1.59.32l-.26.88c-.27-.16-.7-.3-1.33-.3-1.44,0-2.22,1.07-2.22,2.38,0,1.46.94,2.35,2.18,2.35.65,0,1.08-.17,1.4-.31l.2.86Z"/><path d="m626.93,309.14h1.14v3.93h.03c.18-.33.47-.61.82-.81.34-.2.74-.33,1.17-.33.84,0,2.2.52,2.2,2.69v3.74h-1.14v-3.61c0-1.01-.38-1.87-1.46-1.87-.74,0-1.33.52-1.53,1.14-.06.16-.08.32-.08.55v3.8h-1.14v-9.23Z"/><path d="m634.78,315.43c.03,1.55,1.01,2.18,2.16,2.18.82,0,1.31-.14,1.74-.33l.2.82c-.4.18-1.09.39-2.09.39-1.94,0-3.09-1.27-3.09-3.17s1.12-3.39,2.95-3.39c2.05,0,2.6,1.81,2.6,2.96,0,.23-.03.42-.04.53h-4.42Zm3.35-.82c.01-.73-.3-1.86-1.59-1.86-1.16,0-1.66,1.07-1.76,1.86h3.34Z"/></g></g><g><g><rect class="p" x="511.04" y="333.81" width="141" height="69"/><path d="m650.54,335.31v66h-138v-66h138m3-3h-144v72h144v-72h0Z"/></g><g><path d="m530.06,363.16l-3.59-14.15h1.93l1.68,7.16c.42,1.76.8,3.53,1.05,4.89h.04c.23-1.41.67-3.09,1.15-4.91l1.89-7.14h1.91l1.72,7.18c.4,1.68.78,3.36.99,4.85h.04c.29-1.55.69-3.13,1.13-4.89l1.87-7.14h1.87l-4.01,14.15h-1.91l-1.78-7.37c-.44-1.81-.74-3.19-.92-4.62h-.04c-.25,1.41-.57,2.79-1.09,4.62l-2.02,7.37h-1.91Z"/><path d="m545.79,358.42c.04,2.5,1.64,3.53,3.49,3.53,1.32,0,2.12-.23,2.81-.52l.32,1.32c-.65.29-1.76.63-3.38.63-3.13,0-5-2.06-5-5.12s1.81-5.48,4.77-5.48c3.32,0,4.2,2.92,4.2,4.79,0,.38-.04.67-.06.86h-7.14Zm5.42-1.32c.02-1.18-.48-3-2.56-3-1.87,0-2.69,1.72-2.83,3h5.4Z"/><path d="m555.19,363.16c.04-.69.08-1.72.08-2.62v-12.28h1.83v6.38h.04c.65-1.13,1.83-1.87,3.46-1.87,2.52,0,4.3,2.1,4.28,5.19,0,3.63-2.29,5.44-4.56,5.44-1.47,0-2.65-.57-3.4-1.91h-.06l-.08,1.68h-1.6Zm1.91-4.07c0,.23.04.46.08.67.36,1.28,1.43,2.16,2.77,2.16,1.93,0,3.09-1.57,3.09-3.91,0-2.04-1.05-3.78-3.02-3.78-1.26,0-2.44.86-2.81,2.27-.04.21-.1.46-.1.76v1.83Z"/><path d="m530.04,383.91l-1.47,4.45h-1.89l4.81-14.15h2.21l4.83,14.15h-1.95l-1.51-4.45h-5.02Zm4.64-1.43l-1.39-4.07c-.32-.92-.52-1.76-.74-2.58h-.04c-.21.84-.44,1.7-.71,2.56l-1.38,4.09h4.26Z"/><path d="m540.47,381.52c0-1.3-.04-2.35-.08-3.32h1.66l.08,1.74h.04c.76-1.24,1.95-1.97,3.61-1.97,2.46,0,4.3,2.08,4.3,5.17,0,3.65-2.23,5.46-4.62,5.46-1.34,0-2.52-.59-3.13-1.6h-.04v5.52h-1.83v-11Zm1.83,2.71c0,.27.04.52.08.76.34,1.28,1.45,2.16,2.77,2.16,1.95,0,3.09-1.6,3.09-3.93,0-2.04-1.07-3.78-3.02-3.78-1.26,0-2.44.9-2.79,2.29-.06.23-.13.5-.13.76v1.74Z"/><path d="m552.42,381.52c0-1.3-.04-2.35-.08-3.32h1.66l.08,1.74h.04c.76-1.24,1.95-1.97,3.61-1.97,2.46,0,4.3,2.08,4.3,5.17,0,3.65-2.23,5.46-4.62,5.46-1.34,0-2.52-.59-3.13-1.6h-.04v5.52h-1.83v-11Zm1.83,2.71c0,.27.04.52.08.76.34,1.28,1.45,2.16,2.77,2.16,1.95,0,3.09-1.6,3.09-3.93,0-2.04-1.07-3.78-3.02-3.78-1.26,0-2.44.9-2.79,2.29-.06.23-.13.5-.13.76v1.74Z"/></g><g><ellipse class="o" cx="623.08" cy="348.92" rx="19.38" ry="5.54"/><path class="o" d="m642.46,360c0,3.06-8.68,5.54-19.38,5.54s-19.38-2.48-19.38-5.54v-11.08c0,3.06,8.68,5.54,19.38,5.54s19.38-2.48,19.38-5.54v11.08Z"/></g><g><path d="m609.94,371.54h1.13v7.81h3.74v.95h-4.88v-8.76Z"/><path d="m621.55,377.11c0,2.33-1.61,3.34-3.13,3.34-1.7,0-3.02-1.25-3.02-3.24,0-2.11,1.38-3.34,3.12-3.34s3.03,1.31,3.03,3.24Zm-4.99.07c0,1.38.79,2.42,1.91,2.42s1.91-1.03,1.91-2.44c0-1.07-.53-2.42-1.89-2.42s-1.94,1.25-1.94,2.44Z"/><path d="m627.48,380.07c-.3.16-.96.36-1.81.36-1.9,0-3.13-1.29-3.13-3.21s1.33-3.34,3.38-3.34c.68,0,1.27.17,1.59.32l-.26.88c-.27-.16-.7-.3-1.33-.3-1.44,0-2.22,1.07-2.22,2.38,0,1.46.94,2.35,2.18,2.35.65,0,1.08-.17,1.4-.31l.2.86Z"/><path d="m632.3,380.31l-.09-.79h-.04c-.35.49-1.03.94-1.92.94-1.27,0-1.92-.9-1.92-1.81,0-1.52,1.35-2.35,3.78-2.34v-.13c0-.52-.14-1.46-1.43-1.46-.58,0-1.2.18-1.64.47l-.26-.75c.52-.34,1.27-.56,2.07-.56,1.92,0,2.39,1.31,2.39,2.57v2.35c0,.55.03,1.08.1,1.51h-1.04Zm-.17-3.21c-1.25-.03-2.67.2-2.67,1.42,0,.74.49,1.09,1.08,1.09.82,0,1.34-.52,1.52-1.05.04-.12.07-.25.07-.36v-1.09Z"/><path d="m635.08,371.08h1.14v9.23h-1.14v-9.23Z"/><path d="m613.55,395.62c-.42.21-1.25.42-2.31.42-2.47,0-4.33-1.56-4.33-4.43s1.86-4.6,4.58-4.6c1.09,0,1.78.23,2.08.39l-.27.92c-.43-.21-1.04-.36-1.77-.36-2.05,0-3.42,1.31-3.42,3.61,0,2.14,1.24,3.52,3.37,3.52.69,0,1.39-.14,1.85-.36l.23.9Z"/><path d="m618.33,395.91l-.09-.79h-.04c-.35.49-1.03.94-1.92.94-1.27,0-1.92-.9-1.92-1.81,0-1.52,1.35-2.35,3.78-2.34v-.13c0-.52-.14-1.46-1.43-1.46-.58,0-1.2.18-1.64.47l-.26-.75c.52-.34,1.27-.56,2.07-.56,1.92,0,2.39,1.31,2.39,2.57v2.35c0,.55.03,1.08.1,1.51h-1.04Zm-.17-3.21c-1.25-.03-2.67.19-2.67,1.42,0,.74.49,1.09,1.08,1.09.82,0,1.34-.52,1.52-1.05.04-.12.07-.25.07-.36v-1.09Z"/><path d="m625.59,395.67c-.3.16-.96.36-1.81.36-1.9,0-3.13-1.29-3.13-3.21s1.33-3.34,3.38-3.34c.68,0,1.27.17,1.59.32l-.26.88c-.27-.16-.7-.3-1.33-.3-1.44,0-2.22,1.07-2.22,2.38,0,1.46.94,2.35,2.18,2.35.65,0,1.08-.17,1.4-.31l.2.86Z"/><path d="m626.93,386.68h1.14v3.93h.03c.18-.33.47-.61.82-.81.34-.2.74-.33,1.17-.33.84,0,2.2.52,2.2,2.69v3.74h-1.14v-3.61c0-1.01-.38-1.87-1.46-1.87-.74,0-1.33.52-1.53,1.14-.06.16-.08.32-.08.55v3.8h-1.14v-9.23Z"/><path d="m634.78,392.97c.03,1.55,1.01,2.18,2.16,2.18.82,0,1.31-.14,1.74-.33l.2.82c-.4.18-1.09.39-2.09.39-1.94,0-3.09-1.27-3.09-3.17s1.12-3.39,2.95-3.39c2.05,0,2.6,1.81,2.6,2.96,0,.23-.03.42-.04.53h-4.42Zm3.35-.82c.01-.73-.3-1.86-1.59-1.86-1.16,0-1.66,1.07-1.76,1.86h3.34Z"/></g></g><g><path class="l" d="m697.85,145.77v33.62c0,11-9,20-20,20h-21.39"/><polygon points="659.59 194.79 642.46 199.38 659.59 203.97 659.59 194.79"/></g><g><path class="l" d="m703.38,145.77v111.15c0,11-9,20-20,20h-26.93"/><polygon points="659.59 272.33 642.46 276.92 659.59 281.51 659.59 272.33"/></g><g><path class="l" d="m708.92,145.77v188.69c0,11-9,20-20,20h-32.46"/><polygon points="659.59 349.87 642.46 354.46 659.59 359.05 659.59 349.87"/></g><ellipse class="m" cx="592.62" cy="129.15" rx="11.08" ry="16.62"/><path class="m" d="m592.62,145.77c6.12,0,11.08-7.44,11.08-16.62s-4.96-16.62-11.08-16.62h116.31c6.12,0,11.08,7.44,11.08,16.62s-4.96,16.62-11.08,16.62h-116.31Z"/><path class="e" d="m708.92,145.77c6.12,0,11.08-7.44,11.08-16.62s-4.96-16.62-11.08-16.62h16.62c6.12,0,11.08,7.44,11.08,16.62s-4.96,16.62-11.08,16.62h-16.62Z"/><g><path d="m622.61,129.12h-5.5v5.1h6.13v1.53h-7.96v-14.15h7.64v1.53h-5.82v4.47h5.5v1.51Z"/><path d="m626.12,125.59l2,5.71c.34.92.61,1.76.82,2.6h.06c.23-.84.53-1.68.86-2.6l1.97-5.71h1.93l-3.99,10.16h-1.76l-3.86-10.16h1.97Z"/><path d="m636.32,131.01c.04,2.5,1.64,3.53,3.49,3.53,1.32,0,2.12-.23,2.81-.52l.32,1.32c-.65.29-1.76.63-3.38.63-3.13,0-5-2.06-5-5.12s1.81-5.48,4.77-5.48c3.32,0,4.2,2.92,4.2,4.79,0,.38-.04.67-.06.86h-7.14Zm5.42-1.32c.02-1.18-.48-3-2.56-3-1.87,0-2.69,1.72-2.83,3h5.4Z"/><path d="m645.82,128.34c0-1.05-.02-1.91-.08-2.75h1.64l.1,1.68h.04c.5-.97,1.68-1.91,3.36-1.91,1.41,0,3.59.84,3.59,4.33v6.07h-1.85v-5.86c0-1.64-.61-3-2.35-3-1.22,0-2.16.86-2.48,1.89-.08.23-.13.55-.13.86v6.11h-1.85v-7.41Z"/><path d="m659.61,122.68v2.92h2.65v1.41h-2.65v5.48c0,1.26.36,1.97,1.39,1.97.48,0,.84-.06,1.07-.13l.08,1.39c-.36.15-.92.25-1.64.25-.86,0-1.55-.27-2-.78-.52-.55-.71-1.45-.71-2.65v-5.54h-1.58v-1.41h1.58v-2.44l1.8-.48Z"/><path d="m670.68,121.6v5.92h6.84v-5.92h1.85v14.15h-1.85v-6.63h-6.84v6.63h-1.83v-14.15h1.83Z"/><path d="m690.98,132.98c0,1.05.02,1.97.08,2.77h-1.64l-.1-1.66h-.04c-.48.82-1.55,1.89-3.36,1.89-1.6,0-3.51-.88-3.51-4.45v-5.94h1.85v5.63c0,1.93.59,3.23,2.27,3.23,1.24,0,2.1-.86,2.44-1.68.11-.27.17-.61.17-.94v-6.24h1.85v7.39Z"/><path d="m693.97,135.76c.04-.69.08-1.72.08-2.62v-12.28h1.83v6.38h.04c.65-1.13,1.83-1.87,3.46-1.87,2.52,0,4.3,2.1,4.28,5.19,0,3.63-2.29,5.44-4.56,5.44-1.47,0-2.65-.57-3.4-1.91h-.06l-.08,1.68h-1.6Zm1.91-4.07c0,.23.04.46.08.67.36,1.28,1.43,2.16,2.77,2.16,1.93,0,3.09-1.57,3.09-3.91,0-2.04-1.05-3.78-3.02-3.78-1.26,0-2.44.86-2.81,2.27-.04.21-.11.46-.11.76v1.83Z"/></g><g><g><path class="p" d="m797.54,252.5c-6.93,0-12.58-5.64-12.58-12.58s5.64-12.58,12.58-12.58,12.58,5.64,12.58,12.58-5.64,12.58-12.58,12.58Z"/><path d="m797.54,228.85c6.12,0,11.08,4.96,11.08,11.08s-4.96,11.08-11.08,11.08-11.08-4.96-11.08-11.08,4.96-11.08,11.08-11.08m0-3c-7.76,0-14.08,6.31-14.08,14.08s6.31,14.08,14.08,14.08,14.08-6.31,14.08-14.08-6.31-14.08-14.08-14.08h0Z"/></g><path d="m794.84,242.63c.04,2.5,1.64,3.53,3.49,3.53,1.32,0,2.12-.23,2.81-.52l.31,1.32c-.65.29-1.76.63-3.38.63-3.13,0-5-2.06-5-5.12s1.81-5.48,4.77-5.48c3.32,0,4.2,2.92,4.2,4.79,0,.38-.04.67-.06.86h-7.14Zm5.42-1.32c.02-1.18-.48-3-2.56-3-1.87,0-2.69,1.72-2.83,3h5.4Z"/></g></svg>